<?xml version="1.0" encoding="iso-8859-1"?>
<!-- Generator: Adobe Illustrator 25.0.1, SVG Export Plug-In . SVG Version: 6.00 Build 0)  -->
<svg version="1.1" id="Layer_1" xmlns="http://www.w3.org/2000/svg" xmlns:xlink="http://www.w3.org/1999/xlink" x="0px" y="0px"
	 viewBox="0 0 330.7 330.7" style="enable-background:new 0 0 330.7 330.7;" xml:space="preserve">
<desc>Created with Fabric.js 5.3.0</desc>
<g transform="matrix(1 0 0 1 150 60)">
	<rect x="-59.65" y="-59.65" width="10" height="10"/>
</g>
<g transform="matrix(1 0 0 1 160 60)">
	<rect x="-59.65" y="-59.65" width="10" height="10"/>
</g>
<g transform="matrix(1 0 0 1 210 60)">
	<rect x="-59.65" y="-59.65" width="10" height="10"/>
</g>
<g transform="matrix(1 0 0 1 220 60)">
	<rect x="-59.65" y="-59.65" width="10" height="10"/>
</g>
<g transform="matrix(1 0 0 1 230 60)">
	<rect x="-59.65" y="-59.65" width="10" height="10"/>
</g>
<g transform="matrix(1 0 0 1 290 60)">
	<rect x="-59.65" y="-59.65" width="10" height="10"/>
</g>
<g transform="matrix(1 0 0 1 300 60)">
	<rect x="-59.65" y="-59.65" width="10" height="10"/>
</g>
<g transform="matrix(1 0 0 1 160 70)">
	<rect x="-59.65" y="-59.65" width="10" height="10"/>
</g>
<g transform="matrix(1 0 0 1 170 70)">
	<rect x="-59.65" y="-59.65" width="10" height="10"/>
</g>
<g transform="matrix(1 0 0 1 200 70)">
	<rect x="-59.65" y="-59.65" width="10" height="10"/>
</g>
<g transform="matrix(1 0 0 1 210 70)">
	<rect x="-59.65" y="-59.65" width="10" height="10"/>
</g>
<g transform="matrix(1 0 0 1 220 70)">
	<rect x="-59.65" y="-59.65" width="10" height="10"/>
</g>
<g transform="matrix(1 0 0 1 260 70)">
	<rect x="-59.65" y="-59.65" width="10" height="10"/>
</g>
<g transform="matrix(1 0 0 1 270 70)">
	<rect x="-59.65" y="-59.65" width="10" height="10"/>
</g>
<g transform="matrix(1 0 0 1 280 70)">
	<rect x="-59.65" y="-59.65" width="10" height="10"/>
</g>
<g transform="matrix(1 0 0 1 290 70)">
	<rect x="-59.65" y="-59.65" width="10" height="10"/>
</g>
<g transform="matrix(1 0 0 1 160 80)">
	<rect x="-59.65" y="-59.65" width="10" height="10"/>
</g>
<g transform="matrix(1 0 0 1 200 80)">
	<rect x="-59.65" y="-59.65" width="10" height="10"/>
</g>
<g transform="matrix(1 0 0 1 230 80)">
	<rect x="-59.65" y="-59.65" width="10" height="10"/>
</g>
<g transform="matrix(1 0 0 1 240 80)">
	<rect x="-59.65" y="-59.65" width="10" height="10"/>
</g>
<g transform="matrix(1 0 0 1 250 80)">
	<rect x="-59.65" y="-59.65" width="10" height="10"/>
</g>
<g transform="matrix(1 0 0 1 290 80)">
	<rect x="-59.65" y="-59.65" width="10" height="10"/>
</g>
<g transform="matrix(1 0 0 1 150 90)">
	<rect x="-59.65" y="-59.65" width="10" height="10"/>
</g>
<g transform="matrix(1 0 0 1 160 90)">
	<rect x="-59.65" y="-59.65" width="10" height="10"/>
</g>
<g transform="matrix(1 0 0 1 180 90)">
	<rect x="-59.65" y="-59.65" width="10" height="10"/>
</g>
<g transform="matrix(1 0 0 1 210 90)">
	<rect x="-59.65" y="-59.65" width="10" height="10"/>
</g>
<g transform="matrix(1 0 0 1 230 90)">
	<rect x="-59.65" y="-59.65" width="10" height="10"/>
</g>
<g transform="matrix(1 0 0 1 240 90)">
	<rect x="-59.65" y="-59.65" width="10" height="10"/>
</g>
<g transform="matrix(1 0 0 1 250 90)">
	<rect x="-59.65" y="-59.65" width="10" height="10"/>
</g>
<g transform="matrix(1 0 0 1 290 90)">
	<rect x="-59.65" y="-59.65" width="10" height="10"/>
</g>
<g transform="matrix(1 0 0 1 300 90)">
	<rect x="-59.65" y="-59.65" width="10" height="10"/>
</g>
<g transform="matrix(1 0 0 1 140 100)">
	<rect x="-59.65" y="-59.65" width="10" height="10"/>
</g>
<g transform="matrix(1 0 0 1 160 100)">
	<rect x="-59.65" y="-59.65" width="10" height="10"/>
</g>
<g transform="matrix(1 0 0 1 170 100)">
	<rect x="-59.65" y="-59.65" width="10" height="10"/>
</g>
<g transform="matrix(1 0 0 1 180 100)">
	<rect x="-59.65" y="-59.65" width="10" height="10"/>
</g>
<g transform="matrix(1 0 0 1 200 100)">
	<rect x="-59.65" y="-59.65" width="10" height="10"/>
</g>
<g transform="matrix(1 0 0 1 210 100)">
	<rect x="-59.65" y="-59.65" width="10" height="10"/>
</g>
<g transform="matrix(1 0 0 1 220 100)">
	<rect x="-59.65" y="-59.65" width="10" height="10"/>
</g>
<g transform="matrix(1 0 0 1 240 100)">
	<rect x="-59.65" y="-59.65" width="10" height="10"/>
</g>
<g transform="matrix(1 0 0 1 260 100)">
	<rect x="-59.65" y="-59.65" width="10" height="10"/>
</g>
<g transform="matrix(1 0 0 1 270 100)">
	<rect x="-59.65" y="-59.65" width="10" height="10"/>
</g>
<g transform="matrix(1 0 0 1 290 100)">
	<rect x="-59.65" y="-59.65" width="10" height="10"/>
</g>
<g transform="matrix(1 0 0 1 300 100)">
	<rect x="-59.65" y="-59.65" width="10" height="10"/>
</g>
<g transform="matrix(1 0 0 1 150 110)">
	<rect x="-59.65" y="-59.65" width="10" height="10"/>
</g>
<g transform="matrix(1 0 0 1 160 110)">
	<rect x="-59.65" y="-59.65" width="10" height="10"/>
</g>
<g transform="matrix(1 0 0 1 170 110)">
	<rect x="-59.65" y="-59.65" width="10" height="10"/>
</g>
<g transform="matrix(1 0 0 1 180 110)">
	<rect x="-59.65" y="-59.65" width="10" height="10"/>
</g>
<g transform="matrix(1 0 0 1 190 110)">
	<rect x="-59.65" y="-59.65" width="10" height="10"/>
</g>
<g transform="matrix(1 0 0 1 200 110)">
	<rect x="-59.65" y="-59.65" width="10" height="10"/>
</g>
<g transform="matrix(1 0 0 1 220 110)">
	<rect x="-59.65" y="-59.65" width="10" height="10"/>
</g>
<g transform="matrix(1 0 0 1 230 110)">
	<rect x="-59.65" y="-59.65" width="10" height="10"/>
</g>
<g transform="matrix(1 0 0 1 250 110)">
	<rect x="-59.65" y="-59.65" width="10" height="10"/>
</g>
<g transform="matrix(1 0 0 1 290 110)">
	<rect x="-59.65" y="-59.65" width="10" height="10"/>
</g>
<g transform="matrix(1 0 0 1 140 120)">
	<rect x="-59.65" y="-59.65" width="10" height="10"/>
</g>
<g transform="matrix(1 0 0 1 160 120)">
	<rect x="-59.65" y="-59.65" width="10" height="10"/>
</g>
<g transform="matrix(1 0 0 1 180 120)">
	<rect x="-59.65" y="-59.65" width="10" height="10"/>
</g>
<g transform="matrix(1 0 0 1 200 120)">
	<rect x="-59.65" y="-59.65" width="10" height="10"/>
</g>
<g transform="matrix(1 0 0 1 220 120)">
	<rect x="-59.65" y="-59.65" width="10" height="10"/>
</g>
<g transform="matrix(1 0 0 1 240 120)">
	<rect x="-59.65" y="-59.65" width="10" height="10"/>
</g>
<g transform="matrix(1 0 0 1 260 120)">
	<rect x="-59.65" y="-59.65" width="10" height="10"/>
</g>
<g transform="matrix(1 0 0 1 280 120)">
	<rect x="-59.65" y="-59.65" width="10" height="10"/>
</g>
<g transform="matrix(1 0 0 1 300 120)">
	<rect x="-59.65" y="-59.65" width="10" height="10"/>
</g>
<g transform="matrix(1 0 0 1 140 130)">
	<rect x="-59.65" y="-59.65" width="10" height="10"/>
</g>
<g transform="matrix(1 0 0 1 150 130)">
	<rect x="-59.65" y="-59.65" width="10" height="10"/>
</g>
<g transform="matrix(1 0 0 1 160 130)">
	<rect x="-59.65" y="-59.65" width="10" height="10"/>
</g>
<g transform="matrix(1 0 0 1 170 130)">
	<rect x="-59.65" y="-59.65" width="10" height="10"/>
</g>
<g transform="matrix(1 0 0 1 180 130)">
	<rect x="-59.65" y="-59.65" width="10" height="10"/>
</g>
<g transform="matrix(1 0 0 1 200 130)">
	<rect x="-59.65" y="-59.65" width="10" height="10"/>
</g>
<g transform="matrix(1 0 0 1 230 130)">
	<rect x="-59.65" y="-59.65" width="10" height="10"/>
</g>
<g transform="matrix(1 0 0 1 240 130)">
	<rect x="-59.65" y="-59.65" width="10" height="10"/>
</g>
<g transform="matrix(1 0 0 1 250 130)">
	<rect x="-59.65" y="-59.65" width="10" height="10"/>
</g>
<g transform="matrix(1 0 0 1 280 130)">
	<rect x="-59.65" y="-59.65" width="10" height="10"/>
</g>
<g transform="matrix(1 0 0 1 300 130)">
	<rect x="-59.65" y="-59.65" width="10" height="10"/>
</g>
<g transform="matrix(1 0 0 1 80 140)">
	<rect x="-59.65" y="-59.65" width="10" height="10"/>
</g>
<g transform="matrix(1 0 0 1 90 140)">
	<rect x="-59.65" y="-59.65" width="10" height="10"/>
</g>
<g transform="matrix(1 0 0 1 120 140)">
	<rect x="-59.65" y="-59.65" width="10" height="10"/>
</g>
<g transform="matrix(1 0 0 1 130 140)">
	<rect x="-59.65" y="-59.65" width="10" height="10"/>
</g>
<g transform="matrix(1 0 0 1 140 140)">
	<rect x="-59.65" y="-59.65" width="10" height="10"/>
</g>
<g transform="matrix(1 0 0 1 170 140)">
	<rect x="-59.65" y="-59.65" width="10" height="10"/>
</g>
<g transform="matrix(1 0 0 1 210 140)">
	<rect x="-59.65" y="-59.65" width="10" height="10"/>
</g>
<g transform="matrix(1 0 0 1 220 140)">
	<rect x="-59.65" y="-59.65" width="10" height="10"/>
</g>
<g transform="matrix(1 0 0 1 250 140)">
	<rect x="-59.65" y="-59.65" width="10" height="10"/>
</g>
<g transform="matrix(1 0 0 1 260 140)">
	<rect x="-59.65" y="-59.65" width="10" height="10"/>
</g>
<g transform="matrix(1 0 0 1 270 140)">
	<rect x="-59.65" y="-59.65" width="10" height="10"/>
</g>
<g transform="matrix(1 0 0 1 280 140)">
	<rect x="-59.65" y="-59.65" width="10" height="10"/>
</g>
<g transform="matrix(1 0 0 1 290 140)">
	<rect x="-59.65" y="-59.65" width="10" height="10"/>
</g>
<g transform="matrix(1 0 0 1 300 140)">
	<rect x="-59.65" y="-59.65" width="10" height="10"/>
</g>
<g transform="matrix(1 0 0 1 310 140)">
	<rect x="-59.65" y="-59.65" width="10" height="10"/>
</g>
<g transform="matrix(1 0 0 1 320 140)">
	<rect x="-59.65" y="-59.65" width="10" height="10"/>
</g>
<g transform="matrix(1 0 0 1 340 140)">
	<rect x="-59.65" y="-59.65" width="10" height="10"/>
</g>
<g transform="matrix(1 0 0 1 60 150)">
	<rect x="-59.65" y="-59.65" width="10" height="10"/>
</g>
<g transform="matrix(1 0 0 1 90 150)">
	<rect x="-59.65" y="-59.65" width="10" height="10"/>
</g>
<g transform="matrix(1 0 0 1 100 150)">
	<rect x="-59.65" y="-59.65" width="10" height="10"/>
</g>
<g transform="matrix(1 0 0 1 110 150)">
	<rect x="-59.65" y="-59.65" width="10" height="10"/>
</g>
<g transform="matrix(1 0 0 1 160 150)">
	<rect x="-59.65" y="-59.65" width="10" height="10"/>
</g>
<g transform="matrix(1 0 0 1 170 150)">
	<rect x="-59.65" y="-59.65" width="10" height="10"/>
</g>
<g transform="matrix(1 0 0 1 230 150)">
	<rect x="-59.65" y="-59.65" width="10" height="10"/>
</g>
<g transform="matrix(1 0 0 1 240 150)">
	<rect x="-59.65" y="-59.65" width="10" height="10"/>
</g>
<g transform="matrix(1 0 0 1 270 150)">
	<rect x="-59.65" y="-59.65" width="10" height="10"/>
</g>
<g transform="matrix(1 0 0 1 280 150)">
	<rect x="-59.65" y="-59.65" width="10" height="10"/>
</g>
<g transform="matrix(1 0 0 1 290 150)">
	<rect x="-59.65" y="-59.65" width="10" height="10"/>
</g>
<g transform="matrix(1 0 0 1 300 150)">
	<rect x="-59.65" y="-59.65" width="10" height="10"/>
</g>
<g transform="matrix(1 0 0 1 310 150)">
	<rect x="-59.65" y="-59.65" width="10" height="10"/>
</g>
<g transform="matrix(1 0 0 1 320 150)">
	<rect x="-59.65" y="-59.65" width="10" height="10"/>
</g>
<g transform="matrix(1 0 0 1 350 150)">
	<rect x="-59.65" y="-59.65" width="10" height="10"/>
</g>
<g transform="matrix(1 0 0 1 360 150)">
	<rect x="-59.65" y="-59.65" width="10" height="10"/>
</g>
<g transform="matrix(1 0 0 1 380 150)">
	<rect x="-59.65" y="-59.65" width="10" height="10"/>
</g>
<g transform="matrix(1 0 0 1 70 160)">
	<rect x="-59.65" y="-59.65" width="10" height="10"/>
</g>
<g transform="matrix(1 0 0 1 100 160)">
	<rect x="-59.65" y="-59.65" width="10" height="10"/>
</g>
<g transform="matrix(1 0 0 1 120 160)">
	<rect x="-59.65" y="-59.65" width="10" height="10"/>
</g>
<g transform="matrix(1 0 0 1 150 160)">
	<rect x="-59.65" y="-59.65" width="10" height="10"/>
</g>
<g transform="matrix(1 0 0 1 160 160)">
	<rect x="-59.65" y="-59.65" width="10" height="10"/>
</g>
<g transform="matrix(1 0 0 1 210 160)">
	<rect x="-59.65" y="-59.65" width="10" height="10"/>
</g>
<g transform="matrix(1 0 0 1 220 160)">
	<rect x="-59.65" y="-59.65" width="10" height="10"/>
</g>
<g transform="matrix(1 0 0 1 230 160)">
	<rect x="-59.65" y="-59.65" width="10" height="10"/>
</g>
<g transform="matrix(1 0 0 1 260 160)">
	<rect x="-59.65" y="-59.65" width="10" height="10"/>
</g>
<g transform="matrix(1 0 0 1 290 160)">
	<rect x="-59.65" y="-59.65" width="10" height="10"/>
</g>
<g transform="matrix(1 0 0 1 310 160)">
	<rect x="-59.65" y="-59.65" width="10" height="10"/>
</g>
<g transform="matrix(1 0 0 1 320 160)">
	<rect x="-59.65" y="-59.65" width="10" height="10"/>
</g>
<g transform="matrix(1 0 0 1 350 160)">
	<rect x="-59.65" y="-59.65" width="10" height="10"/>
</g>
<g transform="matrix(1 0 0 1 370 160)">
	<rect x="-59.65" y="-59.65" width="10" height="10"/>
</g>
<g transform="matrix(1 0 0 1 380 160)">
	<rect x="-59.65" y="-59.65" width="10" height="10"/>
</g>
<g transform="matrix(1 0 0 1 70 170)">
	<rect x="-59.65" y="-59.65" width="10" height="10"/>
</g>
<g transform="matrix(1 0 0 1 80 170)">
	<rect x="-59.65" y="-59.65" width="10" height="10"/>
</g>
<g transform="matrix(1 0 0 1 110 170)">
	<rect x="-59.65" y="-59.65" width="10" height="10"/>
</g>
<g transform="matrix(1 0 0 1 140 170)">
	<rect x="-59.65" y="-59.65" width="10" height="10"/>
</g>
<g transform="matrix(1 0 0 1 150 170)">
	<rect x="-59.65" y="-59.65" width="10" height="10"/>
</g>
<g transform="matrix(1 0 0 1 160 170)">
	<rect x="-59.65" y="-59.65" width="10" height="10"/>
</g>
<g transform="matrix(1 0 0 1 190 170)">
	<rect x="-59.65" y="-59.65" width="10" height="10"/>
</g>
<g transform="matrix(1 0 0 1 250 170)">
	<rect x="-59.65" y="-59.65" width="10" height="10"/>
</g>
<g transform="matrix(1 0 0 1 260 170)">
	<rect x="-59.65" y="-59.65" width="10" height="10"/>
</g>
<g transform="matrix(1 0 0 1 290 170)">
	<rect x="-59.65" y="-59.65" width="10" height="10"/>
</g>
<g transform="matrix(1 0 0 1 310 170)">
	<rect x="-59.65" y="-59.65" width="10" height="10"/>
</g>
<g transform="matrix(1 0 0 1 320 170)">
	<rect x="-59.65" y="-59.65" width="10" height="10"/>
</g>
<g transform="matrix(1 0 0 1 330 170)">
	<rect x="-59.65" y="-59.65" width="10" height="10"/>
</g>
<g transform="matrix(1 0 0 1 340 170)">
	<rect x="-59.65" y="-59.65" width="10" height="10"/>
</g>
<g transform="matrix(1 0 0 1 350 170)">
	<rect x="-59.65" y="-59.65" width="10" height="10"/>
</g>
<g transform="matrix(1 0 0 1 380 170)">
	<rect x="-59.65" y="-59.65" width="10" height="10"/>
</g>
<g transform="matrix(1 0 0 1 70 180)">
	<rect x="-59.65" y="-59.65" width="10" height="10"/>
</g>
<g transform="matrix(1 0 0 1 100 180)">
	<rect x="-59.65" y="-59.65" width="10" height="10"/>
</g>
<g transform="matrix(1 0 0 1 120 180)">
	<rect x="-59.65" y="-59.65" width="10" height="10"/>
</g>
<g transform="matrix(1 0 0 1 130 180)">
	<rect x="-59.65" y="-59.65" width="10" height="10"/>
</g>
<g transform="matrix(1 0 0 1 150 180)">
	<rect x="-59.65" y="-59.65" width="10" height="10"/>
</g>
<g transform="matrix(1 0 0 1 160 180)">
	<rect x="-59.65" y="-59.65" width="10" height="10"/>
</g>
<g transform="matrix(1 0 0 1 270 180)">
	<rect x="-59.65" y="-59.65" width="10" height="10"/>
</g>
<g transform="matrix(1 0 0 1 300 180)">
	<rect x="-59.65" y="-59.65" width="10" height="10"/>
</g>
<g transform="matrix(1 0 0 1 90 190)">
	<rect x="-59.65" y="-59.65" width="10" height="10"/>
</g>
<g transform="matrix(1 0 0 1 130 190)">
	<rect x="-59.65" y="-59.65" width="10" height="10"/>
</g>
<g transform="matrix(1 0 0 1 140 190)">
	<rect x="-59.65" y="-59.65" width="10" height="10"/>
</g>
<g transform="matrix(1 0 0 1 150 190)">
	<rect x="-59.65" y="-59.65" width="10" height="10"/>
</g>
<g transform="matrix(1 0 0 1 160 190)">
	<rect x="-59.65" y="-59.65" width="10" height="10"/>
</g>
<g transform="matrix(1 0 0 1 170 190)">
	<rect x="-59.65" y="-59.65" width="10" height="10"/>
</g>
<g transform="matrix(1 0 0 1 270 190)">
	<rect x="-59.65" y="-59.65" width="10" height="10"/>
</g>
<g transform="matrix(1 0 0 1 280 190)">
	<rect x="-59.65" y="-59.65" width="10" height="10"/>
</g>
<g transform="matrix(1 0 0 1 300 190)">
	<rect x="-59.65" y="-59.65" width="10" height="10"/>
</g>
<g transform="matrix(1 0 0 1 350 190)">
	<rect x="-59.65" y="-59.65" width="10" height="10"/>
</g>
<g transform="matrix(1 0 0 1 80 200)">
	<rect x="-59.65" y="-59.65" width="10" height="10"/>
</g>
<g transform="matrix(1 0 0 1 90 200)">
	<rect x="-59.65" y="-59.65" width="10" height="10"/>
</g>
<g transform="matrix(1 0 0 1 110 200)">
	<rect x="-59.65" y="-59.65" width="10" height="10"/>
</g>
<g transform="matrix(1 0 0 1 120 200)">
	<rect x="-59.65" y="-59.65" width="10" height="10"/>
</g>
<g transform="matrix(1 0 0 1 130 200)">
	<rect x="-59.65" y="-59.65" width="10" height="10"/>
</g>
<g transform="matrix(1 0 0 1 140 200)">
	<rect x="-59.65" y="-59.65" width="10" height="10"/>
</g>
<g transform="matrix(1 0 0 1 150 200)">
	<rect x="-59.65" y="-59.65" width="10" height="10"/>
</g>
<g transform="matrix(1 0 0 1 270 200)">
	<rect x="-59.65" y="-59.65" width="10" height="10"/>
</g>
<g transform="matrix(1 0 0 1 300 200)">
	<rect x="-59.65" y="-59.65" width="10" height="10"/>
</g>
<g transform="matrix(1 0 0 1 320 200)">
	<rect x="-59.65" y="-59.65" width="10" height="10"/>
</g>
<g transform="matrix(1 0 0 1 330 200)">
	<rect x="-59.65" y="-59.65" width="10" height="10"/>
</g>
<g transform="matrix(1 0 0 1 340 200)">
	<rect x="-59.65" y="-59.65" width="10" height="10"/>
</g>
<g transform="matrix(1 0 0 1 350 200)">
	<rect x="-59.65" y="-59.65" width="10" height="10"/>
</g>
<g transform="matrix(1 0 0 1 110 210)">
	<rect x="-59.65" y="-59.65" width="10" height="10"/>
</g>
<g transform="matrix(1 0 0 1 130 210)">
	<rect x="-59.65" y="-59.65" width="10" height="10"/>
</g>
<g transform="matrix(1 0 0 1 160 210)">
	<rect x="-59.65" y="-59.65" width="10" height="10"/>
</g>
<g transform="matrix(1 0 0 1 270 210)">
	<rect x="-59.65" y="-59.65" width="10" height="10"/>
</g>
<g transform="matrix(1 0 0 1 280 210)">
	<rect x="-59.65" y="-59.65" width="10" height="10"/>
</g>
<g transform="matrix(1 0 0 1 300 210)">
	<rect x="-59.65" y="-59.65" width="10" height="10"/>
</g>
<g transform="matrix(1 0 0 1 310 210)">
	<rect x="-59.65" y="-59.65" width="10" height="10"/>
</g>
<g transform="matrix(1 0 0 1 320 210)">
	<rect x="-59.65" y="-59.65" width="10" height="10"/>
</g>
<g transform="matrix(1 0 0 1 330 210)">
	<rect x="-59.65" y="-59.65" width="10" height="10"/>
</g>
<g transform="matrix(1 0 0 1 360 210)">
	<rect x="-59.65" y="-59.65" width="10" height="10"/>
</g>
<g transform="matrix(1 0 0 1 370 210)">
	<rect x="-59.65" y="-59.65" width="10" height="10"/>
</g>
<g transform="matrix(1 0 0 1 60 220)">
	<rect x="-59.65" y="-59.65" width="10" height="10"/>
</g>
<g transform="matrix(1 0 0 1 120 220)">
	<rect x="-59.65" y="-59.65" width="10" height="10"/>
</g>
<g transform="matrix(1 0 0 1 130 220)">
	<rect x="-59.65" y="-59.65" width="10" height="10"/>
</g>
<g transform="matrix(1 0 0 1 140 220)">
	<rect x="-59.65" y="-59.65" width="10" height="10"/>
</g>
<g transform="matrix(1 0 0 1 150 220)">
	<rect x="-59.65" y="-59.65" width="10" height="10"/>
</g>
<g transform="matrix(1 0 0 1 270 220)">
	<rect x="-59.65" y="-59.65" width="10" height="10"/>
</g>
<g transform="matrix(1 0 0 1 300 220)">
	<rect x="-59.65" y="-59.65" width="10" height="10"/>
</g>
<g transform="matrix(1 0 0 1 310 220)">
	<rect x="-59.65" y="-59.65" width="10" height="10"/>
</g>
<g transform="matrix(1 0 0 1 320 220)">
	<rect x="-59.65" y="-59.65" width="10" height="10"/>
</g>
<g transform="matrix(1 0 0 1 330 220)">
	<rect x="-59.65" y="-59.65" width="10" height="10"/>
</g>
<g transform="matrix(1 0 0 1 340 220)">
	<rect x="-59.65" y="-59.65" width="10" height="10"/>
</g>
<g transform="matrix(1 0 0 1 70 230)">
	<rect x="-59.65" y="-59.65" width="10" height="10"/>
</g>
<g transform="matrix(1 0 0 1 80 230)">
	<rect x="-59.65" y="-59.65" width="10" height="10"/>
</g>
<g transform="matrix(1 0 0 1 90 230)">
	<rect x="-59.65" y="-59.65" width="10" height="10"/>
</g>
<g transform="matrix(1 0 0 1 130 230)">
	<rect x="-59.65" y="-59.65" width="10" height="10"/>
</g>
<g transform="matrix(1 0 0 1 170 230)">
	<rect x="-59.65" y="-59.65" width="10" height="10"/>
</g>
<g transform="matrix(1 0 0 1 270 230)">
	<rect x="-59.65" y="-59.65" width="10" height="10"/>
</g>
<g transform="matrix(1 0 0 1 280 230)">
	<rect x="-59.65" y="-59.65" width="10" height="10"/>
</g>
<g transform="matrix(1 0 0 1 290 230)">
	<rect x="-59.65" y="-59.65" width="10" height="10"/>
</g>
<g transform="matrix(1 0 0 1 320 230)">
	<rect x="-59.65" y="-59.65" width="10" height="10"/>
</g>
<g transform="matrix(1 0 0 1 340 230)">
	<rect x="-59.65" y="-59.65" width="10" height="10"/>
</g>
<g transform="matrix(1 0 0 1 360 230)">
	<rect x="-59.65" y="-59.65" width="10" height="10"/>
</g>
<g transform="matrix(1 0 0 1 370 230)">
	<rect x="-59.65" y="-59.65" width="10" height="10"/>
</g>
<g transform="matrix(1 0 0 1 70 240)">
	<rect x="-59.65" y="-59.65" width="10" height="10"/>
</g>
<g transform="matrix(1 0 0 1 100 240)">
	<rect x="-59.65" y="-59.65" width="10" height="10"/>
</g>
<g transform="matrix(1 0 0 1 120 240)">
	<rect x="-59.65" y="-59.65" width="10" height="10"/>
</g>
<g transform="matrix(1 0 0 1 140 240)">
	<rect x="-59.65" y="-59.65" width="10" height="10"/>
</g>
<g transform="matrix(1 0 0 1 160 240)">
	<rect x="-59.65" y="-59.65" width="10" height="10"/>
</g>
<g transform="matrix(1 0 0 1 280 240)">
	<rect x="-59.65" y="-59.65" width="10" height="10"/>
</g>
<g transform="matrix(1 0 0 1 310 240)">
	<rect x="-59.65" y="-59.65" width="10" height="10"/>
</g>
<g transform="matrix(1 0 0 1 320 240)">
	<rect x="-59.65" y="-59.65" width="10" height="10"/>
</g>
<g transform="matrix(1 0 0 1 330 240)">
	<rect x="-59.65" y="-59.65" width="10" height="10"/>
</g>
<g transform="matrix(1 0 0 1 340 240)">
	<rect x="-59.65" y="-59.65" width="10" height="10"/>
</g>
<g transform="matrix(1 0 0 1 360 240)">
	<rect x="-59.65" y="-59.65" width="10" height="10"/>
</g>
<g transform="matrix(1 0 0 1 370 240)">
	<rect x="-59.65" y="-59.65" width="10" height="10"/>
</g>
<g transform="matrix(1 0 0 1 380 240)">
	<rect x="-59.65" y="-59.65" width="10" height="10"/>
</g>
<g transform="matrix(1 0 0 1 60 250)">
	<rect x="-59.65" y="-59.65" width="10" height="10"/>
</g>
<g transform="matrix(1 0 0 1 70 250)">
	<rect x="-59.65" y="-59.65" width="10" height="10"/>
</g>
<g transform="matrix(1 0 0 1 100 250)">
	<rect x="-59.65" y="-59.65" width="10" height="10"/>
</g>
<g transform="matrix(1 0 0 1 110 250)">
	<rect x="-59.65" y="-59.65" width="10" height="10"/>
</g>
<g transform="matrix(1 0 0 1 130 250)">
	<rect x="-59.65" y="-59.65" width="10" height="10"/>
</g>
<g transform="matrix(1 0 0 1 150 250)">
	<rect x="-59.65" y="-59.65" width="10" height="10"/>
</g>
<g transform="matrix(1 0 0 1 160 250)">
	<rect x="-59.65" y="-59.65" width="10" height="10"/>
</g>
<g transform="matrix(1 0 0 1 170 250)">
	<rect x="-59.65" y="-59.65" width="10" height="10"/>
</g>
<g transform="matrix(1 0 0 1 280 250)">
	<rect x="-59.65" y="-59.65" width="10" height="10"/>
</g>
<g transform="matrix(1 0 0 1 60 260)">
	<rect x="-59.65" y="-59.65" width="10" height="10"/>
</g>
<g transform="matrix(1 0 0 1 80 260)">
	<rect x="-59.65" y="-59.65" width="10" height="10"/>
</g>
<g transform="matrix(1 0 0 1 100 260)">
	<rect x="-59.65" y="-59.65" width="10" height="10"/>
</g>
<g transform="matrix(1 0 0 1 120 260)">
	<rect x="-59.65" y="-59.65" width="10" height="10"/>
</g>
<g transform="matrix(1 0 0 1 130 260)">
	<rect x="-59.65" y="-59.65" width="10" height="10"/>
</g>
<g transform="matrix(1 0 0 1 140 260)">
	<rect x="-59.65" y="-59.65" width="10" height="10"/>
</g>
<g transform="matrix(1 0 0 1 160 260)">
	<rect x="-59.65" y="-59.65" width="10" height="10"/>
</g>
<g transform="matrix(1 0 0 1 270 260)">
	<rect x="-59.65" y="-59.65" width="10" height="10"/>
</g>
<g transform="matrix(1 0 0 1 280 260)">
	<rect x="-59.65" y="-59.65" width="10" height="10"/>
</g>
<g transform="matrix(1 0 0 1 300 260)">
	<rect x="-59.65" y="-59.65" width="10" height="10"/>
</g>
<g transform="matrix(1 0 0 1 320 260)">
	<rect x="-59.65" y="-59.65" width="10" height="10"/>
</g>
<g transform="matrix(1 0 0 1 330 260)">
	<rect x="-59.65" y="-59.65" width="10" height="10"/>
</g>
<g transform="matrix(1 0 0 1 350 260)">
	<rect x="-59.65" y="-59.65" width="10" height="10"/>
</g>
<g transform="matrix(1 0 0 1 360 260)">
	<rect x="-59.65" y="-59.65" width="10" height="10"/>
</g>
<g transform="matrix(1 0 0 1 380 260)">
	<rect x="-59.65" y="-59.65" width="10" height="10"/>
</g>
<g transform="matrix(1 0 0 1 60 270)">
	<rect x="-59.65" y="-59.65" width="10" height="10"/>
</g>
<g transform="matrix(1 0 0 1 80 270)">
	<rect x="-59.65" y="-59.65" width="10" height="10"/>
</g>
<g transform="matrix(1 0 0 1 100 270)">
	<rect x="-59.65" y="-59.65" width="10" height="10"/>
</g>
<g transform="matrix(1 0 0 1 110 270)">
	<rect x="-59.65" y="-59.65" width="10" height="10"/>
</g>
<g transform="matrix(1 0 0 1 140 270)">
	<rect x="-59.65" y="-59.65" width="10" height="10"/>
</g>
<g transform="matrix(1 0 0 1 150 270)">
	<rect x="-59.65" y="-59.65" width="10" height="10"/>
</g>
<g transform="matrix(1 0 0 1 160 270)">
	<rect x="-59.65" y="-59.65" width="10" height="10"/>
</g>
<g transform="matrix(1 0 0 1 170 270)">
	<rect x="-59.65" y="-59.65" width="10" height="10"/>
</g>
<g transform="matrix(1 0 0 1 180 270)">
	<rect x="-59.65" y="-59.65" width="10" height="10"/>
</g>
<g transform="matrix(1 0 0 1 230 270)">
	<rect x="-59.65" y="-59.65" width="10" height="10"/>
</g>
<g transform="matrix(1 0 0 1 260 270)">
	<rect x="-59.65" y="-59.65" width="10" height="10"/>
</g>
<g transform="matrix(1 0 0 1 270 270)">
	<rect x="-59.65" y="-59.65" width="10" height="10"/>
</g>
<g transform="matrix(1 0 0 1 280 270)">
	<rect x="-59.65" y="-59.65" width="10" height="10"/>
</g>
<g transform="matrix(1 0 0 1 300 270)">
	<rect x="-59.65" y="-59.65" width="10" height="10"/>
</g>
<g transform="matrix(1 0 0 1 360 270)">
	<rect x="-59.65" y="-59.65" width="10" height="10"/>
</g>
<g transform="matrix(1 0 0 1 370 270)">
	<rect x="-59.65" y="-59.65" width="10" height="10"/>
</g>
<g transform="matrix(1 0 0 1 380 270)">
	<rect x="-59.65" y="-59.65" width="10" height="10"/>
</g>
<g transform="matrix(1 0 0 1 80 280)">
	<rect x="-59.65" y="-59.65" width="10" height="10"/>
</g>
<g transform="matrix(1 0 0 1 100 280)">
	<rect x="-59.65" y="-59.65" width="10" height="10"/>
</g>
<g transform="matrix(1 0 0 1 120 280)">
	<rect x="-59.65" y="-59.65" width="10" height="10"/>
</g>
<g transform="matrix(1 0 0 1 130 280)">
	<rect x="-59.65" y="-59.65" width="10" height="10"/>
</g>
<g transform="matrix(1 0 0 1 140 280)">
	<rect x="-59.65" y="-59.65" width="10" height="10"/>
</g>
<g transform="matrix(1 0 0 1 150 280)">
	<rect x="-59.65" y="-59.65" width="10" height="10"/>
</g>
<g transform="matrix(1 0 0 1 160 280)">
	<rect x="-59.65" y="-59.65" width="10" height="10"/>
</g>
<g transform="matrix(1 0 0 1 170 280)">
	<rect x="-59.65" y="-59.65" width="10" height="10"/>
</g>
<g transform="matrix(1 0 0 1 200 280)">
	<rect x="-59.65" y="-59.65" width="10" height="10"/>
</g>
<g transform="matrix(1 0 0 1 210 280)">
	<rect x="-59.65" y="-59.65" width="10" height="10"/>
</g>
<g transform="matrix(1 0 0 1 220 280)">
	<rect x="-59.65" y="-59.65" width="10" height="10"/>
</g>
<g transform="matrix(1 0 0 1 230 280)">
	<rect x="-59.65" y="-59.65" width="10" height="10"/>
</g>
<g transform="matrix(1 0 0 1 240 280)">
	<rect x="-59.65" y="-59.65" width="10" height="10"/>
</g>
<g transform="matrix(1 0 0 1 290 280)">
	<rect x="-59.65" y="-59.65" width="10" height="10"/>
</g>
<g transform="matrix(1 0 0 1 300 280)">
	<rect x="-59.65" y="-59.65" width="10" height="10"/>
</g>
<g transform="matrix(1 0 0 1 320 280)">
	<rect x="-59.65" y="-59.65" width="10" height="10"/>
</g>
<g transform="matrix(1 0 0 1 340 280)">
	<rect x="-59.65" y="-59.65" width="10" height="10"/>
</g>
<g transform="matrix(1 0 0 1 360 280)">
	<rect x="-59.65" y="-59.65" width="10" height="10"/>
</g>
<g transform="matrix(1 0 0 1 380 280)">
	<rect x="-59.65" y="-59.65" width="10" height="10"/>
</g>
<g transform="matrix(1 0 0 1 70 290)">
	<rect x="-59.65" y="-59.65" width="10" height="10"/>
</g>
<g transform="matrix(1 0 0 1 100 290)">
	<rect x="-59.65" y="-59.65" width="10" height="10"/>
</g>
<g transform="matrix(1 0 0 1 110 290)">
	<rect x="-59.65" y="-59.65" width="10" height="10"/>
</g>
<g transform="matrix(1 0 0 1 140 290)">
	<rect x="-59.65" y="-59.65" width="10" height="10"/>
</g>
<g transform="matrix(1 0 0 1 150 290)">
	<rect x="-59.65" y="-59.65" width="10" height="10"/>
</g>
<g transform="matrix(1 0 0 1 160 290)">
	<rect x="-59.65" y="-59.65" width="10" height="10"/>
</g>
<g transform="matrix(1 0 0 1 180 290)">
	<rect x="-59.65" y="-59.65" width="10" height="10"/>
</g>
<g transform="matrix(1 0 0 1 200 290)">
	<rect x="-59.65" y="-59.65" width="10" height="10"/>
</g>
<g transform="matrix(1 0 0 1 210 290)">
	<rect x="-59.65" y="-59.65" width="10" height="10"/>
</g>
<g transform="matrix(1 0 0 1 220 290)">
	<rect x="-59.65" y="-59.65" width="10" height="10"/>
</g>
<g transform="matrix(1 0 0 1 240 290)">
	<rect x="-59.65" y="-59.65" width="10" height="10"/>
</g>
<g transform="matrix(1 0 0 1 260 290)">
	<rect x="-59.65" y="-59.65" width="10" height="10"/>
</g>
<g transform="matrix(1 0 0 1 310 290)">
	<rect x="-59.65" y="-59.65" width="10" height="10"/>
</g>
<g transform="matrix(1 0 0 1 330 290)">
	<rect x="-59.65" y="-59.65" width="10" height="10"/>
</g>
<g transform="matrix(1 0 0 1 350 290)">
	<rect x="-59.65" y="-59.65" width="10" height="10"/>
</g>
<g transform="matrix(1 0 0 1 380 290)">
	<rect x="-59.65" y="-59.65" width="10" height="10"/>
</g>
<g transform="matrix(1 0 0 1 60 300)">
	<rect x="-59.65" y="-59.65" width="10" height="10"/>
</g>
<g transform="matrix(1 0 0 1 80 300)">
	<rect x="-59.65" y="-59.65" width="10" height="10"/>
</g>
<g transform="matrix(1 0 0 1 90 300)">
	<rect x="-59.65" y="-59.65" width="10" height="10"/>
</g>
<g transform="matrix(1 0 0 1 100 300)">
	<rect x="-59.65" y="-59.65" width="10" height="10"/>
</g>
<g transform="matrix(1 0 0 1 110 300)">
	<rect x="-59.65" y="-59.65" width="10" height="10"/>
</g>
<g transform="matrix(1 0 0 1 120 300)">
	<rect x="-59.65" y="-59.65" width="10" height="10"/>
</g>
<g transform="matrix(1 0 0 1 140 300)">
	<rect x="-59.65" y="-59.65" width="10" height="10"/>
</g>
<g transform="matrix(1 0 0 1 180 300)">
	<rect x="-59.65" y="-59.65" width="10" height="10"/>
</g>
<g transform="matrix(1 0 0 1 200 300)">
	<rect x="-59.65" y="-59.65" width="10" height="10"/>
</g>
<g transform="matrix(1 0 0 1 210 300)">
	<rect x="-59.65" y="-59.65" width="10" height="10"/>
</g>
<g transform="matrix(1 0 0 1 240 300)">
	<rect x="-59.65" y="-59.65" width="10" height="10"/>
</g>
<g transform="matrix(1 0 0 1 270 300)">
	<rect x="-59.65" y="-59.65" width="10" height="10"/>
</g>
<g transform="matrix(1 0 0 1 300 300)">
	<rect x="-59.65" y="-59.65" width="10" height="10"/>
</g>
<g transform="matrix(1 0 0 1 310 300)">
	<rect x="-59.65" y="-59.65" width="10" height="10"/>
</g>
<g transform="matrix(1 0 0 1 320 300)">
	<rect x="-59.65" y="-59.65" width="10" height="10"/>
</g>
<g transform="matrix(1 0 0 1 330 300)">
	<rect x="-59.65" y="-59.65" width="10" height="10"/>
</g>
<g transform="matrix(1 0 0 1 340 300)">
	<rect x="-59.65" y="-59.65" width="10" height="10"/>
</g>
<g transform="matrix(1 0 0 1 140 310)">
	<rect x="-59.65" y="-59.65" width="10" height="10"/>
</g>
<g transform="matrix(1 0 0 1 170 310)">
	<rect x="-59.65" y="-59.65" width="10" height="10"/>
</g>
<g transform="matrix(1 0 0 1 200 310)">
	<rect x="-59.65" y="-59.65" width="10" height="10"/>
</g>
<g transform="matrix(1 0 0 1 230 310)">
	<rect x="-59.65" y="-59.65" width="10" height="10"/>
</g>
<g transform="matrix(1 0 0 1 240 310)">
	<rect x="-59.65" y="-59.65" width="10" height="10"/>
</g>
<g transform="matrix(1 0 0 1 250 310)">
	<rect x="-59.65" y="-59.65" width="10" height="10"/>
</g>
<g transform="matrix(1 0 0 1 270 310)">
	<rect x="-59.65" y="-59.65" width="10" height="10"/>
</g>
<g transform="matrix(1 0 0 1 300 310)">
	<rect x="-59.65" y="-59.65" width="10" height="10"/>
</g>
<g transform="matrix(1 0 0 1 340 310)">
	<rect x="-59.65" y="-59.65" width="10" height="10"/>
</g>
<g transform="matrix(1 0 0 1 360 310)">
	<rect x="-59.65" y="-59.65" width="10" height="10"/>
</g>
<g transform="matrix(1 0 0 1 370 310)">
	<rect x="-59.65" y="-59.65" width="10" height="10"/>
</g>
<g transform="matrix(1 0 0 1 140 320)">
	<rect x="-59.65" y="-59.65" width="10" height="10"/>
</g>
<g transform="matrix(1 0 0 1 150 320)">
	<rect x="-59.65" y="-59.65" width="10" height="10"/>
</g>
<g transform="matrix(1 0 0 1 160 320)">
	<rect x="-59.65" y="-59.65" width="10" height="10"/>
</g>
<g transform="matrix(1 0 0 1 200 320)">
	<rect x="-59.65" y="-59.65" width="10" height="10"/>
</g>
<g transform="matrix(1 0 0 1 210 320)">
	<rect x="-59.65" y="-59.65" width="10" height="10"/>
</g>
<g transform="matrix(1 0 0 1 260 320)">
	<rect x="-59.65" y="-59.65" width="10" height="10"/>
</g>
<g transform="matrix(1 0 0 1 270 320)">
	<rect x="-59.65" y="-59.65" width="10" height="10"/>
</g>
<g transform="matrix(1 0 0 1 290 320)">
	<rect x="-59.65" y="-59.65" width="10" height="10"/>
</g>
<g transform="matrix(1 0 0 1 300 320)">
	<rect x="-59.65" y="-59.65" width="10" height="10"/>
</g>
<g transform="matrix(1 0 0 1 320 320)">
	<rect x="-59.65" y="-59.65" width="10" height="10"/>
</g>
<g transform="matrix(1 0 0 1 340 320)">
	<rect x="-59.65" y="-59.65" width="10" height="10"/>
</g>
<g transform="matrix(1 0 0 1 350 320)">
	<rect x="-59.65" y="-59.65" width="10" height="10"/>
</g>
<g transform="matrix(1 0 0 1 360 320)">
	<rect x="-59.65" y="-59.65" width="10" height="10"/>
</g>
<g transform="matrix(1 0 0 1 150 330)">
	<rect x="-59.65" y="-59.65" width="10" height="10"/>
</g>
<g transform="matrix(1 0 0 1 160 330)">
	<rect x="-59.65" y="-59.65" width="10" height="10"/>
</g>
<g transform="matrix(1 0 0 1 170 330)">
	<rect x="-59.65" y="-59.65" width="10" height="10"/>
</g>
<g transform="matrix(1 0 0 1 180 330)">
	<rect x="-59.65" y="-59.65" width="10" height="10"/>
</g>
<g transform="matrix(1 0 0 1 190 330)">
	<rect x="-59.65" y="-59.65" width="10" height="10"/>
</g>
<g transform="matrix(1 0 0 1 210 330)">
	<rect x="-59.65" y="-59.65" width="10" height="10"/>
</g>
<g transform="matrix(1 0 0 1 290 330)">
	<rect x="-59.65" y="-59.65" width="10" height="10"/>
</g>
<g transform="matrix(1 0 0 1 300 330)">
	<rect x="-59.65" y="-59.65" width="10" height="10"/>
</g>
<g transform="matrix(1 0 0 1 340 330)">
	<rect x="-59.65" y="-59.65" width="10" height="10"/>
</g>
<g transform="matrix(1 0 0 1 350 330)">
	<rect x="-59.65" y="-59.65" width="10" height="10"/>
</g>
<g transform="matrix(1 0 0 1 360 330)">
	<rect x="-59.65" y="-59.65" width="10" height="10"/>
</g>
<g transform="matrix(1 0 0 1 370 330)">
	<rect x="-59.65" y="-59.65" width="10" height="10"/>
</g>
<g transform="matrix(1 0 0 1 380 330)">
	<rect x="-59.65" y="-59.65" width="10" height="10"/>
</g>
<g transform="matrix(1 0 0 1 160 340)">
	<rect x="-59.65" y="-59.65" width="10" height="10"/>
</g>
<g transform="matrix(1 0 0 1 180 340)">
	<rect x="-59.65" y="-59.65" width="10" height="10"/>
</g>
<g transform="matrix(1 0 0 1 190 340)">
	<rect x="-59.65" y="-59.65" width="10" height="10"/>
</g>
<g transform="matrix(1 0 0 1 220 340)">
	<rect x="-59.65" y="-59.65" width="10" height="10"/>
</g>
<g transform="matrix(1 0 0 1 230 340)">
	<rect x="-59.65" y="-59.65" width="10" height="10"/>
</g>
<g transform="matrix(1 0 0 1 240 340)">
	<rect x="-59.65" y="-59.65" width="10" height="10"/>
</g>
<g transform="matrix(1 0 0 1 280 340)">
	<rect x="-59.65" y="-59.65" width="10" height="10"/>
</g>
<g transform="matrix(1 0 0 1 290 340)">
	<rect x="-59.65" y="-59.65" width="10" height="10"/>
</g>
<g transform="matrix(1 0 0 1 300 340)">
	<rect x="-59.65" y="-59.65" width="10" height="10"/>
</g>
<g transform="matrix(1 0 0 1 310 340)">
	<rect x="-59.65" y="-59.65" width="10" height="10"/>
</g>
<g transform="matrix(1 0 0 1 320 340)">
	<rect x="-59.65" y="-59.65" width="10" height="10"/>
</g>
<g transform="matrix(1 0 0 1 330 340)">
	<rect x="-59.65" y="-59.65" width="10" height="10"/>
</g>
<g transform="matrix(1 0 0 1 340 340)">
	<rect x="-59.65" y="-59.65" width="10" height="10"/>
</g>
<g transform="matrix(1 0 0 1 370 340)">
	<rect x="-59.65" y="-59.65" width="10" height="10"/>
</g>
<g transform="matrix(1 0 0 1 140 350)">
	<rect x="-59.65" y="-59.65" width="10" height="10"/>
</g>
<g transform="matrix(1 0 0 1 150 350)">
	<rect x="-59.65" y="-59.65" width="10" height="10"/>
</g>
<g transform="matrix(1 0 0 1 160 350)">
	<rect x="-59.65" y="-59.65" width="10" height="10"/>
</g>
<g transform="matrix(1 0 0 1 190 350)">
	<rect x="-59.65" y="-59.65" width="10" height="10"/>
</g>
<g transform="matrix(1 0 0 1 210 350)">
	<rect x="-59.65" y="-59.65" width="10" height="10"/>
</g>
<g transform="matrix(1 0 0 1 230 350)">
	<rect x="-59.65" y="-59.65" width="10" height="10"/>
</g>
<g transform="matrix(1 0 0 1 240 350)">
	<rect x="-59.65" y="-59.65" width="10" height="10"/>
</g>
<g transform="matrix(1 0 0 1 250 350)">
	<rect x="-59.65" y="-59.65" width="10" height="10"/>
</g>
<g transform="matrix(1 0 0 1 270 350)">
	<rect x="-59.65" y="-59.65" width="10" height="10"/>
</g>
<g transform="matrix(1 0 0 1 280 350)">
	<rect x="-59.65" y="-59.65" width="10" height="10"/>
</g>
<g transform="matrix(1 0 0 1 290 350)">
	<rect x="-59.65" y="-59.65" width="10" height="10"/>
</g>
<g transform="matrix(1 0 0 1 330 350)">
	<rect x="-59.65" y="-59.65" width="10" height="10"/>
</g>
<g transform="matrix(1 0 0 1 350 350)">
	<rect x="-59.65" y="-59.65" width="10" height="10"/>
</g>
<g transform="matrix(1 0 0 1 360 350)">
	<rect x="-59.65" y="-59.65" width="10" height="10"/>
</g>
<g transform="matrix(1 0 0 1 140 360)">
	<rect x="-59.65" y="-59.65" width="10" height="10"/>
</g>
<g transform="matrix(1 0 0 1 150 360)">
	<rect x="-59.65" y="-59.65" width="10" height="10"/>
</g>
<g transform="matrix(1 0 0 1 170 360)">
	<rect x="-59.65" y="-59.65" width="10" height="10"/>
</g>
<g transform="matrix(1 0 0 1 180 360)">
	<rect x="-59.65" y="-59.65" width="10" height="10"/>
</g>
<g transform="matrix(1 0 0 1 200 360)">
	<rect x="-59.65" y="-59.65" width="10" height="10"/>
</g>
<g transform="matrix(1 0 0 1 230 360)">
	<rect x="-59.65" y="-59.65" width="10" height="10"/>
</g>
<g transform="matrix(1 0 0 1 250 360)">
	<rect x="-59.65" y="-59.65" width="10" height="10"/>
</g>
<g transform="matrix(1 0 0 1 260 360)">
	<rect x="-59.65" y="-59.65" width="10" height="10"/>
</g>
<g transform="matrix(1 0 0 1 270 360)">
	<rect x="-59.65" y="-59.65" width="10" height="10"/>
</g>
<g transform="matrix(1 0 0 1 280 360)">
	<rect x="-59.65" y="-59.65" width="10" height="10"/>
</g>
<g transform="matrix(1 0 0 1 300 360)">
	<rect x="-59.65" y="-59.65" width="10" height="10"/>
</g>
<g transform="matrix(1 0 0 1 310 360)">
	<rect x="-59.65" y="-59.65" width="10" height="10"/>
</g>
<g transform="matrix(1 0 0 1 320 360)">
	<rect x="-59.65" y="-59.65" width="10" height="10"/>
</g>
<g transform="matrix(1 0 0 1 150 370)">
	<rect x="-59.65" y="-59.65" width="10" height="10"/>
</g>
<g transform="matrix(1 0 0 1 180 370)">
	<rect x="-59.65" y="-59.65" width="10" height="10"/>
</g>
<g transform="matrix(1 0 0 1 190 370)">
	<rect x="-59.65" y="-59.65" width="10" height="10"/>
</g>
<g transform="matrix(1 0 0 1 220 370)">
	<rect x="-59.65" y="-59.65" width="10" height="10"/>
</g>
<g transform="matrix(1 0 0 1 230 370)">
	<rect x="-59.65" y="-59.65" width="10" height="10"/>
</g>
<g transform="matrix(1 0 0 1 240 370)">
	<rect x="-59.65" y="-59.65" width="10" height="10"/>
</g>
<g transform="matrix(1 0 0 1 250 370)">
	<rect x="-59.65" y="-59.65" width="10" height="10"/>
</g>
<g transform="matrix(1 0 0 1 290 370)">
	<rect x="-59.65" y="-59.65" width="10" height="10"/>
</g>
<g transform="matrix(1 0 0 1 300 370)">
	<rect x="-59.65" y="-59.65" width="10" height="10"/>
</g>
<g transform="matrix(1 0 0 1 310 370)">
	<rect x="-59.65" y="-59.65" width="10" height="10"/>
</g>
<g transform="matrix(1 0 0 1 360 370)">
	<rect x="-59.65" y="-59.65" width="10" height="10"/>
</g>
<g transform="matrix(1 0 0 1 380 370)">
	<rect x="-59.65" y="-59.65" width="10" height="10"/>
</g>
<g transform="matrix(1 0 0 1 150 380)">
	<rect x="-59.65" y="-59.65" width="10" height="10"/>
</g>
<g transform="matrix(1 0 0 1 190 380)">
	<rect x="-59.65" y="-59.65" width="10" height="10"/>
</g>
<g transform="matrix(1 0 0 1 210 380)">
	<rect x="-59.65" y="-59.65" width="10" height="10"/>
</g>
<g transform="matrix(1 0 0 1 220 380)">
	<rect x="-59.65" y="-59.65" width="10" height="10"/>
</g>
<g transform="matrix(1 0 0 1 230 380)">
	<rect x="-59.65" y="-59.65" width="10" height="10"/>
</g>
<g transform="matrix(1 0 0 1 250 380)">
	<rect x="-59.65" y="-59.65" width="10" height="10"/>
</g>
<g transform="matrix(1 0 0 1 260 380)">
	<rect x="-59.65" y="-59.65" width="10" height="10"/>
</g>
<g transform="matrix(1 0 0 1 280 380)">
	<rect x="-59.65" y="-59.65" width="10" height="10"/>
</g>
<g transform="matrix(1 0 0 1 290 380)">
	<rect x="-59.65" y="-59.65" width="10" height="10"/>
</g>
<g transform="matrix(1 0 0 1 310 380)">
	<rect x="-59.65" y="-59.65" width="10" height="10"/>
</g>
<g transform="matrix(1 0 0 1 320 380)">
	<rect x="-59.65" y="-59.65" width="10" height="10"/>
</g>
<g transform="matrix(1 0 0 1 330 380)">
	<rect x="-59.65" y="-59.65" width="10" height="10"/>
</g>
<g transform="matrix(1 0 0 1 340 380)">
	<rect x="-59.65" y="-59.65" width="10" height="10"/>
</g>
<g transform="matrix(0.14 0 0 0.14 220 220)">
	<g>
		<g id="Layer_1_1_" transform="matrix(1 0 0 1 -0.5 -0.5)">
			
				<radialGradient id="SVGID_1_" cx="-549.1926" cy="-9338.1416" r="457.6876" fx="-768.2632" fy="-9602.9932" gradientTransform="matrix(0.1302 -0.0532 -0.0462 -0.1134 -797.9977 -1612.4431)" gradientUnits="userSpaceOnUse">
				<stop  offset="0" style="stop-color:#4DB748"/>
				<stop  offset="0.6625" style="stop-color:#046937"/>
			</radialGradient>
			<circle style="fill:url(#SVGID_1_);" cx="-390.357" cy="-390.357" r="255.716"/>
		</g>
		<g id="Layer_1_2_" transform="matrix(1 0 0 1 109.71 56.07)">
			<path style="fill:#FFFFFF;" d="M-381.888-536.322c-24.39,0-44.038,8.002-57.251,24.355v-62.249l-50.474,59.134v308.581
				l52.846-59.136v-100.547c13.551,15.308,32.182,22.615,54.879,22.615c51.151,0,90.787-37.576,90.787-96.378
				C-291.102-498.746-330.737-536.322-381.888-536.322z M-391.035-388.104c-26.423,0-46.41-19.485-46.41-51.842
				s19.986-51.841,46.41-51.841c26.423,0,46.41,19.484,46.41,51.841S-364.612-388.104-391.035-388.104z"/>
		</g>
		<g id="Layer_1_3_" transform="matrix(1 0 0 1 -110.71 -51.45)">
			<path style="fill:#FFFFFF;" d="M-343.945-510.204v104.027c-13.211-15.309-32.182-22.615-54.54-22.615
				c-8.472,0-16.614,1.037-24.321,2.999c-23.251,5.919-42.452,20.424-54.208,41.536c-8.029,14.419-12.597,31.905-12.597,51.841
				c0,58.801,39.634,96.378,91.126,96.378c24.39,0,43.699-8.003,56.91-24.356v49.104l50.476-59.216v-298.913L-343.945-510.204z
				 M-389.339-280.573c-26.424,0-46.749-19.485-46.749-51.842s20.325-51.841,46.749-51.841c26.083,0,46.41,19.484,46.41,51.841
				S-363.255-280.573-389.339-280.573z"/>
		</g>
	</g>
</g>
<g id="circle-in-rect" transform="matrix(1.01 0 0 1.01 90 90)">
	<circle cx="-54.109" cy="-54.109" r="15"/>
</g>
<g id="circle-in-rect_1_" transform="matrix(1.01 0 0 1.01 90 90)">
	<path d="M-89.109-89.109v70h70v-70H-89.109z M-29.109-29.109h-50v-50h50V-29.109z"/>
</g>
<g id="circle-in-rect_2_" transform="matrix(1.01 0 0 1.01 90 350)">
	<circle cx="-54.109" cy="-54.109" r="15"/>
</g>
<g id="circle-in-rect_3_" transform="matrix(1.01 0 0 1.01 90 350)">
	<path d="M-89.109-89.109v70h70v-70H-89.109z M-29.109-29.109h-50v-50h50V-29.109z"/>
</g>
<g id="circle-in-rect_4_" transform="matrix(1.01 0 0 1.01 350 90)">
	<circle cx="-54.109" cy="-54.109" r="15"/>
</g>
<g id="circle-in-rect_5_" transform="matrix(1.01 0 0 1.01 350 90)">
	<path d="M-89.109-89.109v70h70v-70H-89.109z M-29.109-29.109h-50v-50h50V-29.109z"/>
</g>
</svg>
