<?xml version="1.0" encoding="utf-8"?>
<!-- Generator: Adobe Illustrator 25.0.1, SVG Export Plug-In . SVG Version: 6.00 Build 0)  -->
<svg version="1.1" id="Layer_1" xmlns="http://www.w3.org/2000/svg" xmlns:xlink="http://www.w3.org/1999/xlink" x="0px" y="0px"
	 viewBox="0 0 902.7 902.7" style="enable-background:new 0 0 902.7 902.7;" xml:space="preserve">
<g>
	<g transform="translate(220,44) scale(3.7766666666667)">
		<rect x="-11.7" y="-11.7" width="6" height="6"/>
	</g>
	<g transform="translate(264,44) scale(3.7766666666667)">
		<rect x="-11.7" y="-11.7" width="6" height="6"/>
	</g>
	<g transform="translate(286,44) scale(3.7766666666667)">
		<rect x="-11.7" y="-11.7" width="6" height="6"/>
	</g>
	<g transform="translate(506,44) scale(3.7766666666667)">
		<rect x="-11.7" y="-11.7" width="6" height="6"/>
	</g>
	<g transform="translate(528,44) scale(3.7766666666667)">
		<rect x="-11.7" y="-11.7" width="6" height="6"/>
	</g>
	<g transform="translate(572,44) scale(3.7766666666667)">
		<rect x="-11.7" y="-11.7" width="6" height="6"/>
	</g>
	<g transform="translate(594,44) scale(3.7766666666667)">
		<rect x="-11.7" y="-11.7" width="6" height="6"/>
	</g>
	<g transform="translate(616,44) scale(3.7766666666667)">
		<rect x="-11.7" y="-11.7" width="6" height="6"/>
	</g>
	<g transform="translate(660,44) scale(3.7766666666667)">
		<rect x="-11.7" y="-11.7" width="6" height="6"/>
	</g>
	<g transform="translate(704,44) scale(3.7766666666667)">
		<rect x="-11.7" y="-11.7" width="6" height="6"/>
	</g>
	<g transform="translate(726,44) scale(3.7766666666667)">
		<rect x="-11.7" y="-11.7" width="6" height="6"/>
	</g>
	<g transform="translate(748,44) scale(3.7766666666667)">
		<rect x="-11.7" y="-11.7" width="6" height="6"/>
	</g>
	<g transform="translate(220,66) scale(3.7766666666667)">
		<rect x="-11.7" y="-11.7" width="6" height="6"/>
	</g>
	<g transform="translate(264,66) scale(3.7766666666667)">
		<rect x="-11.7" y="-11.7" width="6" height="6"/>
	</g>
	<g transform="translate(286,66) scale(3.7766666666667)">
		<rect x="-11.7" y="-11.7" width="6" height="6"/>
	</g>
	<g transform="translate(308,66) scale(3.7766666666667)">
		<rect x="-11.7" y="-11.7" width="6" height="6"/>
	</g>
	<g transform="translate(374,66) scale(3.7766666666667)">
		<rect x="-11.7" y="-11.7" width="6" height="6"/>
	</g>
	<g transform="translate(396,66) scale(3.7766666666667)">
		<rect x="-11.7" y="-11.7" width="6" height="6"/>
	</g>
	<g transform="translate(418,66) scale(3.7766666666667)">
		<rect x="-11.7" y="-11.7" width="6" height="6"/>
	</g>
	<g transform="translate(440,66) scale(3.7766666666667)">
		<rect x="-11.7" y="-11.7" width="6" height="6"/>
	</g>
	<g transform="translate(484,66) scale(3.7766666666667)">
		<rect x="-11.7" y="-11.7" width="6" height="6"/>
	</g>
	<g transform="translate(506,66) scale(3.7766666666667)">
		<rect x="-11.7" y="-11.7" width="6" height="6"/>
	</g>
	<g transform="translate(528,66) scale(3.7766666666667)">
		<rect x="-11.7" y="-11.7" width="6" height="6"/>
	</g>
	<g transform="translate(594,66) scale(3.7766666666667)">
		<rect x="-11.7" y="-11.7" width="6" height="6"/>
	</g>
	<g transform="translate(616,66) scale(3.7766666666667)">
		<rect x="-11.7" y="-11.7" width="6" height="6"/>
	</g>
	<g transform="translate(638,66) scale(3.7766666666667)">
		<rect x="-11.7" y="-11.7" width="6" height="6"/>
	</g>
	<g transform="translate(660,66) scale(3.7766666666667)">
		<rect x="-11.7" y="-11.7" width="6" height="6"/>
	</g>
	<g transform="translate(704,66) scale(3.7766666666667)">
		<rect x="-11.7" y="-11.7" width="6" height="6"/>
	</g>
	<g transform="translate(220,88) scale(3.7766666666667)">
		<rect x="-11.7" y="-11.7" width="6" height="6"/>
	</g>
	<g transform="translate(330,88) scale(3.7766666666667)">
		<rect x="-11.7" y="-11.7" width="6" height="6"/>
	</g>
	<g transform="translate(352,88) scale(3.7766666666667)">
		<rect x="-11.7" y="-11.7" width="6" height="6"/>
	</g>
	<g transform="translate(418,88) scale(3.7766666666667)">
		<rect x="-11.7" y="-11.7" width="6" height="6"/>
	</g>
	<g transform="translate(440,88) scale(3.7766666666667)">
		<rect x="-11.7" y="-11.7" width="6" height="6"/>
	</g>
	<g transform="translate(462,88) scale(3.7766666666667)">
		<rect x="-11.7" y="-11.7" width="6" height="6"/>
	</g>
	<g transform="translate(506,88) scale(3.7766666666667)">
		<rect x="-11.7" y="-11.7" width="6" height="6"/>
	</g>
	<g transform="translate(594,88) scale(3.7766666666667)">
		<rect x="-11.7" y="-11.7" width="6" height="6"/>
	</g>
	<g transform="translate(638,88) scale(3.7766666666667)">
		<rect x="-11.7" y="-11.7" width="6" height="6"/>
	</g>
	<g transform="translate(660,88) scale(3.7766666666667)">
		<rect x="-11.7" y="-11.7" width="6" height="6"/>
	</g>
	<g transform="translate(242,110) scale(3.7766666666667)">
		<rect x="-11.7" y="-11.7" width="6" height="6"/>
	</g>
	<g transform="translate(264,110) scale(3.7766666666667)">
		<rect x="-11.7" y="-11.7" width="6" height="6"/>
	</g>
	<g transform="translate(308,110) scale(3.7766666666667)">
		<rect x="-11.7" y="-11.7" width="6" height="6"/>
	</g>
	<g transform="translate(330,110) scale(3.7766666666667)">
		<rect x="-11.7" y="-11.7" width="6" height="6"/>
	</g>
	<g transform="translate(352,110) scale(3.7766666666667)">
		<rect x="-11.7" y="-11.7" width="6" height="6"/>
	</g>
	<g transform="translate(396,110) scale(3.7766666666667)">
		<rect x="-11.7" y="-11.7" width="6" height="6"/>
	</g>
	<g transform="translate(440,110) scale(3.7766666666667)">
		<rect x="-11.7" y="-11.7" width="6" height="6"/>
	</g>
	<g transform="translate(462,110) scale(3.7766666666667)">
		<rect x="-11.7" y="-11.7" width="6" height="6"/>
	</g>
	<g transform="translate(506,110) scale(3.7766666666667)">
		<rect x="-11.7" y="-11.7" width="6" height="6"/>
	</g>
	<g transform="translate(528,110) scale(3.7766666666667)">
		<rect x="-11.7" y="-11.7" width="6" height="6"/>
	</g>
	<g transform="translate(572,110) scale(3.7766666666667)">
		<rect x="-11.7" y="-11.7" width="6" height="6"/>
	</g>
	<g transform="translate(616,110) scale(3.7766666666667)">
		<rect x="-11.7" y="-11.7" width="6" height="6"/>
	</g>
	<g transform="translate(638,110) scale(3.7766666666667)">
		<rect x="-11.7" y="-11.7" width="6" height="6"/>
	</g>
	<g transform="translate(704,110) scale(3.7766666666667)">
		<rect x="-11.7" y="-11.7" width="6" height="6"/>
	</g>
	<g transform="translate(726,110) scale(3.7766666666667)">
		<rect x="-11.7" y="-11.7" width="6" height="6"/>
	</g>
	<g transform="translate(748,110) scale(3.7766666666667)">
		<rect x="-11.7" y="-11.7" width="6" height="6"/>
	</g>
	<g transform="translate(242,132) scale(3.7766666666667)">
		<rect x="-11.7" y="-11.7" width="6" height="6"/>
	</g>
	<g transform="translate(286,132) scale(3.7766666666667)">
		<rect x="-11.7" y="-11.7" width="6" height="6"/>
	</g>
	<g transform="translate(308,132) scale(3.7766666666667)">
		<rect x="-11.7" y="-11.7" width="6" height="6"/>
	</g>
	<g transform="translate(330,132) scale(3.7766666666667)">
		<rect x="-11.7" y="-11.7" width="6" height="6"/>
	</g>
	<g transform="translate(418,132) scale(3.7766666666667)">
		<rect x="-11.7" y="-11.7" width="6" height="6"/>
	</g>
	<g transform="translate(440,132) scale(3.7766666666667)">
		<rect x="-11.7" y="-11.7" width="6" height="6"/>
	</g>
	<g transform="translate(506,132) scale(3.7766666666667)">
		<rect x="-11.7" y="-11.7" width="6" height="6"/>
	</g>
	<g transform="translate(572,132) scale(3.7766666666667)">
		<rect x="-11.7" y="-11.7" width="6" height="6"/>
	</g>
	<g transform="translate(594,132) scale(3.7766666666667)">
		<rect x="-11.7" y="-11.7" width="6" height="6"/>
	</g>
	<g transform="translate(660,132) scale(3.7766666666667)">
		<rect x="-11.7" y="-11.7" width="6" height="6"/>
	</g>
	<g transform="translate(726,132) scale(3.7766666666667)">
		<rect x="-11.7" y="-11.7" width="6" height="6"/>
	</g>
	<g transform="translate(748,132) scale(3.7766666666667)">
		<rect x="-11.7" y="-11.7" width="6" height="6"/>
	</g>
	<g transform="translate(220,154) scale(3.7766666666667)">
		<rect x="-11.7" y="-11.7" width="6" height="6"/>
	</g>
	<g transform="translate(242,154) scale(3.7766666666667)">
		<rect x="-11.7" y="-11.7" width="6" height="6"/>
	</g>
	<g transform="translate(286,154) scale(3.7766666666667)">
		<rect x="-11.7" y="-11.7" width="6" height="6"/>
	</g>
	<g transform="translate(352,154) scale(3.7766666666667)">
		<rect x="-11.7" y="-11.7" width="6" height="6"/>
	</g>
	<g transform="translate(374,154) scale(3.7766666666667)">
		<rect x="-11.7" y="-11.7" width="6" height="6"/>
	</g>
	<g transform="translate(418,154) scale(3.7766666666667)">
		<rect x="-11.7" y="-11.7" width="6" height="6"/>
	</g>
	<g transform="translate(462,154) scale(3.7766666666667)">
		<rect x="-11.7" y="-11.7" width="6" height="6"/>
	</g>
	<g transform="translate(506,154) scale(3.7766666666667)">
		<rect x="-11.7" y="-11.7" width="6" height="6"/>
	</g>
	<g transform="translate(528,154) scale(3.7766666666667)">
		<rect x="-11.7" y="-11.7" width="6" height="6"/>
	</g>
	<g transform="translate(550,154) scale(3.7766666666667)">
		<rect x="-11.7" y="-11.7" width="6" height="6"/>
	</g>
	<g transform="translate(572,154) scale(3.7766666666667)">
		<rect x="-11.7" y="-11.7" width="6" height="6"/>
	</g>
	<g transform="translate(594,154) scale(3.7766666666667)">
		<rect x="-11.7" y="-11.7" width="6" height="6"/>
	</g>
	<g transform="translate(616,154) scale(3.7766666666667)">
		<rect x="-11.7" y="-11.7" width="6" height="6"/>
	</g>
	<g transform="translate(638,154) scale(3.7766666666667)">
		<rect x="-11.7" y="-11.7" width="6" height="6"/>
	</g>
	<g transform="translate(660,154) scale(3.7766666666667)">
		<rect x="-11.7" y="-11.7" width="6" height="6"/>
	</g>
	<g transform="translate(748,154) scale(3.7766666666667)">
		<rect x="-11.7" y="-11.7" width="6" height="6"/>
	</g>
	<g transform="translate(220,176) scale(3.7766666666667)">
		<rect x="-11.7" y="-11.7" width="6" height="6"/>
	</g>
	<g transform="translate(264,176) scale(3.7766666666667)">
		<rect x="-11.7" y="-11.7" width="6" height="6"/>
	</g>
	<g transform="translate(308,176) scale(3.7766666666667)">
		<rect x="-11.7" y="-11.7" width="6" height="6"/>
	</g>
	<g transform="translate(352,176) scale(3.7766666666667)">
		<rect x="-11.7" y="-11.7" width="6" height="6"/>
	</g>
	<g transform="translate(396,176) scale(3.7766666666667)">
		<rect x="-11.7" y="-11.7" width="6" height="6"/>
	</g>
	<g transform="translate(440,176) scale(3.7766666666667)">
		<rect x="-11.7" y="-11.7" width="6" height="6"/>
	</g>
	<g transform="translate(484,176) scale(3.7766666666667)">
		<rect x="-11.7" y="-11.7" width="6" height="6"/>
	</g>
	<g transform="translate(528,176) scale(3.7766666666667)">
		<rect x="-11.7" y="-11.7" width="6" height="6"/>
	</g>
	<g transform="translate(572,176) scale(3.7766666666667)">
		<rect x="-11.7" y="-11.7" width="6" height="6"/>
	</g>
	<g transform="translate(616,176) scale(3.7766666666667)">
		<rect x="-11.7" y="-11.7" width="6" height="6"/>
	</g>
	<g transform="translate(660,176) scale(3.7766666666667)">
		<rect x="-11.7" y="-11.7" width="6" height="6"/>
	</g>
	<g transform="translate(704,176) scale(3.7766666666667)">
		<rect x="-11.7" y="-11.7" width="6" height="6"/>
	</g>
	<g transform="translate(748,176) scale(3.7766666666667)">
		<rect x="-11.7" y="-11.7" width="6" height="6"/>
	</g>
	<g transform="translate(220,198) scale(3.7766666666667)">
		<rect x="-11.7" y="-11.7" width="6" height="6"/>
	</g>
	<g transform="translate(264,198) scale(3.7766666666667)">
		<rect x="-11.7" y="-11.7" width="6" height="6"/>
	</g>
	<g transform="translate(308,198) scale(3.7766666666667)">
		<rect x="-11.7" y="-11.7" width="6" height="6"/>
	</g>
	<g transform="translate(330,198) scale(3.7766666666667)">
		<rect x="-11.7" y="-11.7" width="6" height="6"/>
	</g>
	<g transform="translate(352,198) scale(3.7766666666667)">
		<rect x="-11.7" y="-11.7" width="6" height="6"/>
	</g>
	<g transform="translate(374,198) scale(3.7766666666667)">
		<rect x="-11.7" y="-11.7" width="6" height="6"/>
	</g>
	<g transform="translate(396,198) scale(3.7766666666667)">
		<rect x="-11.7" y="-11.7" width="6" height="6"/>
	</g>
	<g transform="translate(418,198) scale(3.7766666666667)">
		<rect x="-11.7" y="-11.7" width="6" height="6"/>
	</g>
	<g transform="translate(440,198) scale(3.7766666666667)">
		<rect x="-11.7" y="-11.7" width="6" height="6"/>
	</g>
	<g transform="translate(528,198) scale(3.7766666666667)">
		<rect x="-11.7" y="-11.7" width="6" height="6"/>
	</g>
	<g transform="translate(572,198) scale(3.7766666666667)">
		<rect x="-11.7" y="-11.7" width="6" height="6"/>
	</g>
	<g transform="translate(616,198) scale(3.7766666666667)">
		<rect x="-11.7" y="-11.7" width="6" height="6"/>
	</g>
	<g transform="translate(638,198) scale(3.7766666666667)">
		<rect x="-11.7" y="-11.7" width="6" height="6"/>
	</g>
	<g transform="translate(704,198) scale(3.7766666666667)">
		<rect x="-11.7" y="-11.7" width="6" height="6"/>
	</g>
	<g transform="translate(726,198) scale(3.7766666666667)">
		<rect x="-11.7" y="-11.7" width="6" height="6"/>
	</g>
	<g transform="translate(748,198) scale(3.7766666666667)">
		<rect x="-11.7" y="-11.7" width="6" height="6"/>
	</g>
	<g transform="translate(88,220) scale(3.7766666666667)">
		<rect x="-11.7" y="-11.7" width="6" height="6"/>
	</g>
	<g transform="translate(110,220) scale(3.7766666666667)">
		<rect x="-11.7" y="-11.7" width="6" height="6"/>
	</g>
	<g transform="translate(132,220) scale(3.7766666666667)">
		<rect x="-11.7" y="-11.7" width="6" height="6"/>
	</g>
	<g transform="translate(176,220) scale(3.7766666666667)">
		<rect x="-11.7" y="-11.7" width="6" height="6"/>
	</g>
	<g transform="translate(220,220) scale(3.7766666666667)">
		<rect x="-11.7" y="-11.7" width="6" height="6"/>
	</g>
	<g transform="translate(308,220) scale(3.7766666666667)">
		<rect x="-11.7" y="-11.7" width="6" height="6"/>
	</g>
	<g transform="translate(396,220) scale(3.7766666666667)">
		<rect x="-11.7" y="-11.7" width="6" height="6"/>
	</g>
	<g transform="translate(418,220) scale(3.7766666666667)">
		<rect x="-11.7" y="-11.7" width="6" height="6"/>
	</g>
	<g transform="translate(462,220) scale(3.7766666666667)">
		<rect x="-11.7" y="-11.7" width="6" height="6"/>
	</g>
	<g transform="translate(506,220) scale(3.7766666666667)">
		<rect x="-11.7" y="-11.7" width="6" height="6"/>
	</g>
	<g transform="translate(572,220) scale(3.7766666666667)">
		<rect x="-11.7" y="-11.7" width="6" height="6"/>
	</g>
	<g transform="translate(594,220) scale(3.7766666666667)">
		<rect x="-11.7" y="-11.7" width="6" height="6"/>
	</g>
	<g transform="translate(616,220) scale(3.7766666666667)">
		<rect x="-11.7" y="-11.7" width="6" height="6"/>
	</g>
	<g transform="translate(638,220) scale(3.7766666666667)">
		<rect x="-11.7" y="-11.7" width="6" height="6"/>
	</g>
	<g transform="translate(682,220) scale(3.7766666666667)">
		<rect x="-11.7" y="-11.7" width="6" height="6"/>
	</g>
	<g transform="translate(726,220) scale(3.7766666666667)">
		<rect x="-11.7" y="-11.7" width="6" height="6"/>
	</g>
	<g transform="translate(770,220) scale(3.7766666666667)">
		<rect x="-11.7" y="-11.7" width="6" height="6"/>
	</g>
	<g transform="translate(792,220) scale(3.7766666666667)">
		<rect x="-11.7" y="-11.7" width="6" height="6"/>
	</g>
	<g transform="translate(814,220) scale(3.7766666666667)">
		<rect x="-11.7" y="-11.7" width="6" height="6"/>
	</g>
	<g transform="translate(880,220) scale(3.7766666666667)">
		<rect x="-11.7" y="-11.7" width="6" height="6"/>
	</g>
	<g transform="translate(902,220) scale(3.7766666666667)">
		<rect x="-11.7" y="-11.7" width="6" height="6"/>
	</g>
	<g transform="translate(924,220) scale(3.7766666666667)">
		<rect x="-11.7" y="-11.7" width="6" height="6"/>
	</g>
	<g transform="translate(44,242) scale(3.7766666666667)">
		<rect x="-11.7" y="-11.7" width="6" height="6"/>
	</g>
	<g transform="translate(88,242) scale(3.7766666666667)">
		<rect x="-11.7" y="-11.7" width="6" height="6"/>
	</g>
	<g transform="translate(132,242) scale(3.7766666666667)">
		<rect x="-11.7" y="-11.7" width="6" height="6"/>
	</g>
	<g transform="translate(154,242) scale(3.7766666666667)">
		<rect x="-11.7" y="-11.7" width="6" height="6"/>
	</g>
	<g transform="translate(264,242) scale(3.7766666666667)">
		<rect x="-11.7" y="-11.7" width="6" height="6"/>
	</g>
	<g transform="translate(308,242) scale(3.7766666666667)">
		<rect x="-11.7" y="-11.7" width="6" height="6"/>
	</g>
	<g transform="translate(352,242) scale(3.7766666666667)">
		<rect x="-11.7" y="-11.7" width="6" height="6"/>
	</g>
	<g transform="translate(374,242) scale(3.7766666666667)">
		<rect x="-11.7" y="-11.7" width="6" height="6"/>
	</g>
	<g transform="translate(484,242) scale(3.7766666666667)">
		<rect x="-11.7" y="-11.7" width="6" height="6"/>
	</g>
	<g transform="translate(550,242) scale(3.7766666666667)">
		<rect x="-11.7" y="-11.7" width="6" height="6"/>
	</g>
	<g transform="translate(572,242) scale(3.7766666666667)">
		<rect x="-11.7" y="-11.7" width="6" height="6"/>
	</g>
	<g transform="translate(594,242) scale(3.7766666666667)">
		<rect x="-11.7" y="-11.7" width="6" height="6"/>
	</g>
	<g transform="translate(660,242) scale(3.7766666666667)">
		<rect x="-11.7" y="-11.7" width="6" height="6"/>
	</g>
	<g transform="translate(704,242) scale(3.7766666666667)">
		<rect x="-11.7" y="-11.7" width="6" height="6"/>
	</g>
	<g transform="translate(726,242) scale(3.7766666666667)">
		<rect x="-11.7" y="-11.7" width="6" height="6"/>
	</g>
	<g transform="translate(748,242) scale(3.7766666666667)">
		<rect x="-11.7" y="-11.7" width="6" height="6"/>
	</g>
	<g transform="translate(792,242) scale(3.7766666666667)">
		<rect x="-11.7" y="-11.7" width="6" height="6"/>
	</g>
	<g transform="translate(814,242) scale(3.7766666666667)">
		<rect x="-11.7" y="-11.7" width="6" height="6"/>
	</g>
	<g transform="translate(836,242) scale(3.7766666666667)">
		<rect x="-11.7" y="-11.7" width="6" height="6"/>
	</g>
	<g transform="translate(880,242) scale(3.7766666666667)">
		<rect x="-11.7" y="-11.7" width="6" height="6"/>
	</g>
	<g transform="translate(902,242) scale(3.7766666666667)">
		<rect x="-11.7" y="-11.7" width="6" height="6"/>
	</g>
	<g transform="translate(44,264) scale(3.7766666666667)">
		<rect x="-11.7" y="-11.7" width="6" height="6"/>
	</g>
	<g transform="translate(88,264) scale(3.7766666666667)">
		<rect x="-11.7" y="-11.7" width="6" height="6"/>
	</g>
	<g transform="translate(132,264) scale(3.7766666666667)">
		<rect x="-11.7" y="-11.7" width="6" height="6"/>
	</g>
	<g transform="translate(154,264) scale(3.7766666666667)">
		<rect x="-11.7" y="-11.7" width="6" height="6"/>
	</g>
	<g transform="translate(176,264) scale(3.7766666666667)">
		<rect x="-11.7" y="-11.7" width="6" height="6"/>
	</g>
	<g transform="translate(220,264) scale(3.7766666666667)">
		<rect x="-11.7" y="-11.7" width="6" height="6"/>
	</g>
	<g transform="translate(242,264) scale(3.7766666666667)">
		<rect x="-11.7" y="-11.7" width="6" height="6"/>
	</g>
	<g transform="translate(264,264) scale(3.7766666666667)">
		<rect x="-11.7" y="-11.7" width="6" height="6"/>
	</g>
	<g transform="translate(286,264) scale(3.7766666666667)">
		<rect x="-11.7" y="-11.7" width="6" height="6"/>
	</g>
	<g transform="translate(308,264) scale(3.7766666666667)">
		<rect x="-11.7" y="-11.7" width="6" height="6"/>
	</g>
	<g transform="translate(330,264) scale(3.7766666666667)">
		<rect x="-11.7" y="-11.7" width="6" height="6"/>
	</g>
	<g transform="translate(352,264) scale(3.7766666666667)">
		<rect x="-11.7" y="-11.7" width="6" height="6"/>
	</g>
	<g transform="translate(418,264) scale(3.7766666666667)">
		<rect x="-11.7" y="-11.7" width="6" height="6"/>
	</g>
	<g transform="translate(528,264) scale(3.7766666666667)">
		<rect x="-11.7" y="-11.7" width="6" height="6"/>
	</g>
	<g transform="translate(594,264) scale(3.7766666666667)">
		<rect x="-11.7" y="-11.7" width="6" height="6"/>
	</g>
	<g transform="translate(638,264) scale(3.7766666666667)">
		<rect x="-11.7" y="-11.7" width="6" height="6"/>
	</g>
	<g transform="translate(660,264) scale(3.7766666666667)">
		<rect x="-11.7" y="-11.7" width="6" height="6"/>
	</g>
	<g transform="translate(704,264) scale(3.7766666666667)">
		<rect x="-11.7" y="-11.7" width="6" height="6"/>
	</g>
	<g transform="translate(748,264) scale(3.7766666666667)">
		<rect x="-11.7" y="-11.7" width="6" height="6"/>
	</g>
	<g transform="translate(770,264) scale(3.7766666666667)">
		<rect x="-11.7" y="-11.7" width="6" height="6"/>
	</g>
	<g transform="translate(814,264) scale(3.7766666666667)">
		<rect x="-11.7" y="-11.7" width="6" height="6"/>
	</g>
	<g transform="translate(836,264) scale(3.7766666666667)">
		<rect x="-11.7" y="-11.7" width="6" height="6"/>
	</g>
	<g transform="translate(902,264) scale(3.7766666666667)">
		<rect x="-11.7" y="-11.7" width="6" height="6"/>
	</g>
	<g transform="translate(44,286) scale(3.7766666666667)">
		<rect x="-11.7" y="-11.7" width="6" height="6"/>
	</g>
	<g transform="translate(132,286) scale(3.7766666666667)">
		<rect x="-11.7" y="-11.7" width="6" height="6"/>
	</g>
	<g transform="translate(154,286) scale(3.7766666666667)">
		<rect x="-11.7" y="-11.7" width="6" height="6"/>
	</g>
	<g transform="translate(198,286) scale(3.7766666666667)">
		<rect x="-11.7" y="-11.7" width="6" height="6"/>
	</g>
	<g transform="translate(220,286) scale(3.7766666666667)">
		<rect x="-11.7" y="-11.7" width="6" height="6"/>
	</g>
	<g transform="translate(264,286) scale(3.7766666666667)">
		<rect x="-11.7" y="-11.7" width="6" height="6"/>
	</g>
	<g transform="translate(330,286) scale(3.7766666666667)">
		<rect x="-11.7" y="-11.7" width="6" height="6"/>
	</g>
	<g transform="translate(352,286) scale(3.7766666666667)">
		<rect x="-11.7" y="-11.7" width="6" height="6"/>
	</g>
	<g transform="translate(418,286) scale(3.7766666666667)">
		<rect x="-11.7" y="-11.7" width="6" height="6"/>
	</g>
	<g transform="translate(462,286) scale(3.7766666666667)">
		<rect x="-11.7" y="-11.7" width="6" height="6"/>
	</g>
	<g transform="translate(484,286) scale(3.7766666666667)">
		<rect x="-11.7" y="-11.7" width="6" height="6"/>
	</g>
	<g transform="translate(506,286) scale(3.7766666666667)">
		<rect x="-11.7" y="-11.7" width="6" height="6"/>
	</g>
	<g transform="translate(528,286) scale(3.7766666666667)">
		<rect x="-11.7" y="-11.7" width="6" height="6"/>
	</g>
	<g transform="translate(550,286) scale(3.7766666666667)">
		<rect x="-11.7" y="-11.7" width="6" height="6"/>
	</g>
	<g transform="translate(594,286) scale(3.7766666666667)">
		<rect x="-11.7" y="-11.7" width="6" height="6"/>
	</g>
	<g transform="translate(616,286) scale(3.7766666666667)">
		<rect x="-11.7" y="-11.7" width="6" height="6"/>
	</g>
	<g transform="translate(660,286) scale(3.7766666666667)">
		<rect x="-11.7" y="-11.7" width="6" height="6"/>
	</g>
	<g transform="translate(704,286) scale(3.7766666666667)">
		<rect x="-11.7" y="-11.7" width="6" height="6"/>
	</g>
	<g transform="translate(726,286) scale(3.7766666666667)">
		<rect x="-11.7" y="-11.7" width="6" height="6"/>
	</g>
	<g transform="translate(748,286) scale(3.7766666666667)">
		<rect x="-11.7" y="-11.7" width="6" height="6"/>
	</g>
	<g transform="translate(814,286) scale(3.7766666666667)">
		<rect x="-11.7" y="-11.7" width="6" height="6"/>
	</g>
	<g transform="translate(858,286) scale(3.7766666666667)">
		<rect x="-11.7" y="-11.7" width="6" height="6"/>
	</g>
	<g transform="translate(924,286) scale(3.7766666666667)">
		<rect x="-11.7" y="-11.7" width="6" height="6"/>
	</g>
	<g transform="translate(44,308) scale(3.7766666666667)">
		<rect x="-11.7" y="-11.7" width="6" height="6"/>
	</g>
	<g transform="translate(110,308) scale(3.7766666666667)">
		<rect x="-11.7" y="-11.7" width="6" height="6"/>
	</g>
	<g transform="translate(132,308) scale(3.7766666666667)">
		<rect x="-11.7" y="-11.7" width="6" height="6"/>
	</g>
	<g transform="translate(154,308) scale(3.7766666666667)">
		<rect x="-11.7" y="-11.7" width="6" height="6"/>
	</g>
	<g transform="translate(176,308) scale(3.7766666666667)">
		<rect x="-11.7" y="-11.7" width="6" height="6"/>
	</g>
	<g transform="translate(264,308) scale(3.7766666666667)">
		<rect x="-11.7" y="-11.7" width="6" height="6"/>
	</g>
	<g transform="translate(330,308) scale(3.7766666666667)">
		<rect x="-11.7" y="-11.7" width="6" height="6"/>
	</g>
	<g transform="translate(352,308) scale(3.7766666666667)">
		<rect x="-11.7" y="-11.7" width="6" height="6"/>
	</g>
	<g transform="translate(374,308) scale(3.7766666666667)">
		<rect x="-11.7" y="-11.7" width="6" height="6"/>
	</g>
	<g transform="translate(418,308) scale(3.7766666666667)">
		<rect x="-11.7" y="-11.7" width="6" height="6"/>
	</g>
	<g transform="translate(440,308) scale(3.7766666666667)">
		<rect x="-11.7" y="-11.7" width="6" height="6"/>
	</g>
	<g transform="translate(462,308) scale(3.7766666666667)">
		<rect x="-11.7" y="-11.7" width="6" height="6"/>
	</g>
	<g transform="translate(506,308) scale(3.7766666666667)">
		<rect x="-11.7" y="-11.7" width="6" height="6"/>
	</g>
	<g transform="translate(528,308) scale(3.7766666666667)">
		<rect x="-11.7" y="-11.7" width="6" height="6"/>
	</g>
	<g transform="translate(572,308) scale(3.7766666666667)">
		<rect x="-11.7" y="-11.7" width="6" height="6"/>
	</g>
	<g transform="translate(660,308) scale(3.7766666666667)">
		<rect x="-11.7" y="-11.7" width="6" height="6"/>
	</g>
	<g transform="translate(682,308) scale(3.7766666666667)">
		<rect x="-11.7" y="-11.7" width="6" height="6"/>
	</g>
	<g transform="translate(726,308) scale(3.7766666666667)">
		<rect x="-11.7" y="-11.7" width="6" height="6"/>
	</g>
	<g transform="translate(770,308) scale(3.7766666666667)">
		<rect x="-11.7" y="-11.7" width="6" height="6"/>
	</g>
	<g transform="translate(858,308) scale(3.7766666666667)">
		<rect x="-11.7" y="-11.7" width="6" height="6"/>
	</g>
	<g transform="translate(880,308) scale(3.7766666666667)">
		<rect x="-11.7" y="-11.7" width="6" height="6"/>
	</g>
	<g transform="translate(924,308) scale(3.7766666666667)">
		<rect x="-11.7" y="-11.7" width="6" height="6"/>
	</g>
	<g transform="translate(132,330) scale(3.7766666666667)">
		<rect x="-11.7" y="-11.7" width="6" height="6"/>
	</g>
	<g transform="translate(154,330) scale(3.7766666666667)">
		<rect x="-11.7" y="-11.7" width="6" height="6"/>
	</g>
	<g transform="translate(220,330) scale(3.7766666666667)">
		<rect x="-11.7" y="-11.7" width="6" height="6"/>
	</g>
	<g transform="translate(242,330) scale(3.7766666666667)">
		<rect x="-11.7" y="-11.7" width="6" height="6"/>
	</g>
	<g transform="translate(264,330) scale(3.7766666666667)">
		<rect x="-11.7" y="-11.7" width="6" height="6"/>
	</g>
	<g transform="translate(286,330) scale(3.7766666666667)">
		<rect x="-11.7" y="-11.7" width="6" height="6"/>
	</g>
	<g transform="translate(330,330) scale(3.7766666666667)">
		<rect x="-11.7" y="-11.7" width="6" height="6"/>
	</g>
	<g transform="translate(352,330) scale(3.7766666666667)">
		<rect x="-11.7" y="-11.7" width="6" height="6"/>
	</g>
	<g transform="translate(418,330) scale(3.7766666666667)">
		<rect x="-11.7" y="-11.7" width="6" height="6"/>
	</g>
	<g transform="translate(440,330) scale(3.7766666666667)">
		<rect x="-11.7" y="-11.7" width="6" height="6"/>
	</g>
	<g transform="translate(484,330) scale(3.7766666666667)">
		<rect x="-11.7" y="-11.7" width="6" height="6"/>
	</g>
	<g transform="translate(528,330) scale(3.7766666666667)">
		<rect x="-11.7" y="-11.7" width="6" height="6"/>
	</g>
	<g transform="translate(550,330) scale(3.7766666666667)">
		<rect x="-11.7" y="-11.7" width="6" height="6"/>
	</g>
	<g transform="translate(572,330) scale(3.7766666666667)">
		<rect x="-11.7" y="-11.7" width="6" height="6"/>
	</g>
	<g transform="translate(594,330) scale(3.7766666666667)">
		<rect x="-11.7" y="-11.7" width="6" height="6"/>
	</g>
	<g transform="translate(616,330) scale(3.7766666666667)">
		<rect x="-11.7" y="-11.7" width="6" height="6"/>
	</g>
	<g transform="translate(638,330) scale(3.7766666666667)">
		<rect x="-11.7" y="-11.7" width="6" height="6"/>
	</g>
	<g transform="translate(682,330) scale(3.7766666666667)">
		<rect x="-11.7" y="-11.7" width="6" height="6"/>
	</g>
	<g transform="translate(748,330) scale(3.7766666666667)">
		<rect x="-11.7" y="-11.7" width="6" height="6"/>
	</g>
	<g transform="translate(814,330) scale(3.7766666666667)">
		<rect x="-11.7" y="-11.7" width="6" height="6"/>
	</g>
	<g transform="translate(836,330) scale(3.7766666666667)">
		<rect x="-11.7" y="-11.7" width="6" height="6"/>
	</g>
	<g transform="translate(902,330) scale(3.7766666666667)">
		<rect x="-11.7" y="-11.7" width="6" height="6"/>
	</g>
	<g transform="translate(924,330) scale(3.7766666666667)">
		<rect x="-11.7" y="-11.7" width="6" height="6"/>
	</g>
	<g transform="translate(44,352) scale(3.7766666666667)">
		<rect x="-11.7" y="-11.7" width="6" height="6"/>
	</g>
	<g transform="translate(66,352) scale(3.7766666666667)">
		<rect x="-11.7" y="-11.7" width="6" height="6"/>
	</g>
	<g transform="translate(88,352) scale(3.7766666666667)">
		<rect x="-11.7" y="-11.7" width="6" height="6"/>
	</g>
	<g transform="translate(110,352) scale(3.7766666666667)">
		<rect x="-11.7" y="-11.7" width="6" height="6"/>
	</g>
	<g transform="translate(154,352) scale(3.7766666666667)">
		<rect x="-11.7" y="-11.7" width="6" height="6"/>
	</g>
	<g transform="translate(176,352) scale(3.7766666666667)">
		<rect x="-11.7" y="-11.7" width="6" height="6"/>
	</g>
	<g transform="translate(198,352) scale(3.7766666666667)">
		<rect x="-11.7" y="-11.7" width="6" height="6"/>
	</g>
	<g transform="translate(264,352) scale(3.7766666666667)">
		<rect x="-11.7" y="-11.7" width="6" height="6"/>
	</g>
	<g transform="translate(286,352) scale(3.7766666666667)">
		<rect x="-11.7" y="-11.7" width="6" height="6"/>
	</g>
	<g transform="translate(330,352) scale(3.7766666666667)">
		<rect x="-11.7" y="-11.7" width="6" height="6"/>
	</g>
	<g transform="translate(638,352) scale(3.7766666666667)">
		<rect x="-11.7" y="-11.7" width="6" height="6"/>
	</g>
	<g transform="translate(660,352) scale(3.7766666666667)">
		<rect x="-11.7" y="-11.7" width="6" height="6"/>
	</g>
	<g transform="translate(682,352) scale(3.7766666666667)">
		<rect x="-11.7" y="-11.7" width="6" height="6"/>
	</g>
	<g transform="translate(726,352) scale(3.7766666666667)">
		<rect x="-11.7" y="-11.7" width="6" height="6"/>
	</g>
	<g transform="translate(770,352) scale(3.7766666666667)">
		<rect x="-11.7" y="-11.7" width="6" height="6"/>
	</g>
	<g transform="translate(858,352) scale(3.7766666666667)">
		<rect x="-11.7" y="-11.7" width="6" height="6"/>
	</g>
	<g transform="translate(66,374) scale(3.7766666666667)">
		<rect x="-11.7" y="-11.7" width="6" height="6"/>
	</g>
	<g transform="translate(88,374) scale(3.7766666666667)">
		<rect x="-11.7" y="-11.7" width="6" height="6"/>
	</g>
	<g transform="translate(198,374) scale(3.7766666666667)">
		<rect x="-11.7" y="-11.7" width="6" height="6"/>
	</g>
	<g transform="translate(264,374) scale(3.7766666666667)">
		<rect x="-11.7" y="-11.7" width="6" height="6"/>
	</g>
	<g transform="translate(308,374) scale(3.7766666666667)">
		<rect x="-11.7" y="-11.7" width="6" height="6"/>
	</g>
	<g transform="translate(638,374) scale(3.7766666666667)">
		<rect x="-11.7" y="-11.7" width="6" height="6"/>
	</g>
	<g transform="translate(704,374) scale(3.7766666666667)">
		<rect x="-11.7" y="-11.7" width="6" height="6"/>
	</g>
	<g transform="translate(726,374) scale(3.7766666666667)">
		<rect x="-11.7" y="-11.7" width="6" height="6"/>
	</g>
	<g transform="translate(748,374) scale(3.7766666666667)">
		<rect x="-11.7" y="-11.7" width="6" height="6"/>
	</g>
	<g transform="translate(792,374) scale(3.7766666666667)">
		<rect x="-11.7" y="-11.7" width="6" height="6"/>
	</g>
	<g transform="translate(814,374) scale(3.7766666666667)">
		<rect x="-11.7" y="-11.7" width="6" height="6"/>
	</g>
	<g transform="translate(858,374) scale(3.7766666666667)">
		<rect x="-11.7" y="-11.7" width="6" height="6"/>
	</g>
	<g transform="translate(44,396) scale(3.7766666666667)">
		<rect x="-11.7" y="-11.7" width="6" height="6"/>
	</g>
	<g transform="translate(88,396) scale(3.7766666666667)">
		<rect x="-11.7" y="-11.7" width="6" height="6"/>
	</g>
	<g transform="translate(110,396) scale(3.7766666666667)">
		<rect x="-11.7" y="-11.7" width="6" height="6"/>
	</g>
	<g transform="translate(132,396) scale(3.7766666666667)">
		<rect x="-11.7" y="-11.7" width="6" height="6"/>
	</g>
	<g transform="translate(176,396) scale(3.7766666666667)">
		<rect x="-11.7" y="-11.7" width="6" height="6"/>
	</g>
	<g transform="translate(198,396) scale(3.7766666666667)">
		<rect x="-11.7" y="-11.7" width="6" height="6"/>
	</g>
	<g transform="translate(220,396) scale(3.7766666666667)">
		<rect x="-11.7" y="-11.7" width="6" height="6"/>
	</g>
	<g transform="translate(242,396) scale(3.7766666666667)">
		<rect x="-11.7" y="-11.7" width="6" height="6"/>
	</g>
	<g transform="translate(286,396) scale(3.7766666666667)">
		<rect x="-11.7" y="-11.7" width="6" height="6"/>
	</g>
	<g transform="translate(330,396) scale(3.7766666666667)">
		<rect x="-11.7" y="-11.7" width="6" height="6"/>
	</g>
	<g transform="translate(638,396) scale(3.7766666666667)">
		<rect x="-11.7" y="-11.7" width="6" height="6"/>
	</g>
	<g transform="translate(682,396) scale(3.7766666666667)">
		<rect x="-11.7" y="-11.7" width="6" height="6"/>
	</g>
	<g transform="translate(726,396) scale(3.7766666666667)">
		<rect x="-11.7" y="-11.7" width="6" height="6"/>
	</g>
	<g transform="translate(770,396) scale(3.7766666666667)">
		<rect x="-11.7" y="-11.7" width="6" height="6"/>
	</g>
	<g transform="translate(814,396) scale(3.7766666666667)">
		<rect x="-11.7" y="-11.7" width="6" height="6"/>
	</g>
	<g transform="translate(880,396) scale(3.7766666666667)">
		<rect x="-11.7" y="-11.7" width="6" height="6"/>
	</g>
	<g transform="translate(902,396) scale(3.7766666666667)">
		<rect x="-11.7" y="-11.7" width="6" height="6"/>
	</g>
	<g transform="translate(44,418) scale(3.7766666666667)">
		<rect x="-11.7" y="-11.7" width="6" height="6"/>
	</g>
	<g transform="translate(66,418) scale(3.7766666666667)">
		<rect x="-11.7" y="-11.7" width="6" height="6"/>
	</g>
	<g transform="translate(110,418) scale(3.7766666666667)">
		<rect x="-11.7" y="-11.7" width="6" height="6"/>
	</g>
	<g transform="translate(286,418) scale(3.7766666666667)">
		<rect x="-11.7" y="-11.7" width="6" height="6"/>
	</g>
	<g transform="translate(308,418) scale(3.7766666666667)">
		<rect x="-11.7" y="-11.7" width="6" height="6"/>
	</g>
	<g transform="translate(330,418) scale(3.7766666666667)">
		<rect x="-11.7" y="-11.7" width="6" height="6"/>
	</g>
	<g transform="translate(660,418) scale(3.7766666666667)">
		<rect x="-11.7" y="-11.7" width="6" height="6"/>
	</g>
	<g transform="translate(682,418) scale(3.7766666666667)">
		<rect x="-11.7" y="-11.7" width="6" height="6"/>
	</g>
	<g transform="translate(704,418) scale(3.7766666666667)">
		<rect x="-11.7" y="-11.7" width="6" height="6"/>
	</g>
	<g transform="translate(726,418) scale(3.7766666666667)">
		<rect x="-11.7" y="-11.7" width="6" height="6"/>
	</g>
	<g transform="translate(748,418) scale(3.7766666666667)">
		<rect x="-11.7" y="-11.7" width="6" height="6"/>
	</g>
	<g transform="translate(792,418) scale(3.7766666666667)">
		<rect x="-11.7" y="-11.7" width="6" height="6"/>
	</g>
	<g transform="translate(814,418) scale(3.7766666666667)">
		<rect x="-11.7" y="-11.7" width="6" height="6"/>
	</g>
	<g transform="translate(836,418) scale(3.7766666666667)">
		<rect x="-11.7" y="-11.7" width="6" height="6"/>
	</g>
	<g transform="translate(858,418) scale(3.7766666666667)">
		<rect x="-11.7" y="-11.7" width="6" height="6"/>
	</g>
	<g transform="translate(880,418) scale(3.7766666666667)">
		<rect x="-11.7" y="-11.7" width="6" height="6"/>
	</g>
	<g transform="translate(902,418) scale(3.7766666666667)">
		<rect x="-11.7" y="-11.7" width="6" height="6"/>
	</g>
	<g transform="translate(924,418) scale(3.7766666666667)">
		<rect x="-11.7" y="-11.7" width="6" height="6"/>
	</g>
	<g transform="translate(44,440) scale(3.7766666666667)">
		<rect x="-11.7" y="-11.7" width="6" height="6"/>
	</g>
	<g transform="translate(66,440) scale(3.7766666666667)">
		<rect x="-11.7" y="-11.7" width="6" height="6"/>
	</g>
	<g transform="translate(88,440) scale(3.7766666666667)">
		<rect x="-11.7" y="-11.7" width="6" height="6"/>
	</g>
	<g transform="translate(110,440) scale(3.7766666666667)">
		<rect x="-11.7" y="-11.7" width="6" height="6"/>
	</g>
	<g transform="translate(176,440) scale(3.7766666666667)">
		<rect x="-11.7" y="-11.7" width="6" height="6"/>
	</g>
	<g transform="translate(198,440) scale(3.7766666666667)">
		<rect x="-11.7" y="-11.7" width="6" height="6"/>
	</g>
	<g transform="translate(286,440) scale(3.7766666666667)">
		<rect x="-11.7" y="-11.7" width="6" height="6"/>
	</g>
	<g transform="translate(308,440) scale(3.7766666666667)">
		<rect x="-11.7" y="-11.7" width="6" height="6"/>
	</g>
	<g transform="translate(638,440) scale(3.7766666666667)">
		<rect x="-11.7" y="-11.7" width="6" height="6"/>
	</g>
	<g transform="translate(660,440) scale(3.7766666666667)">
		<rect x="-11.7" y="-11.7" width="6" height="6"/>
	</g>
	<g transform="translate(682,440) scale(3.7766666666667)">
		<rect x="-11.7" y="-11.7" width="6" height="6"/>
	</g>
	<g transform="translate(748,440) scale(3.7766666666667)">
		<rect x="-11.7" y="-11.7" width="6" height="6"/>
	</g>
	<g transform="translate(770,440) scale(3.7766666666667)">
		<rect x="-11.7" y="-11.7" width="6" height="6"/>
	</g>
	<g transform="translate(836,440) scale(3.7766666666667)">
		<rect x="-11.7" y="-11.7" width="6" height="6"/>
	</g>
	<g transform="translate(880,440) scale(3.7766666666667)">
		<rect x="-11.7" y="-11.7" width="6" height="6"/>
	</g>
	<g transform="translate(66,462) scale(3.7766666666667)">
		<rect x="-11.7" y="-11.7" width="6" height="6"/>
	</g>
	<g transform="translate(110,462) scale(3.7766666666667)">
		<rect x="-11.7" y="-11.7" width="6" height="6"/>
	</g>
	<g transform="translate(132,462) scale(3.7766666666667)">
		<rect x="-11.7" y="-11.7" width="6" height="6"/>
	</g>
	<g transform="translate(264,462) scale(3.7766666666667)">
		<rect x="-11.7" y="-11.7" width="6" height="6"/>
	</g>
	<g transform="translate(308,462) scale(3.7766666666667)">
		<rect x="-11.7" y="-11.7" width="6" height="6"/>
	</g>
	<g transform="translate(638,462) scale(3.7766666666667)">
		<rect x="-11.7" y="-11.7" width="6" height="6"/>
	</g>
	<g transform="translate(660,462) scale(3.7766666666667)">
		<rect x="-11.7" y="-11.7" width="6" height="6"/>
	</g>
	<g transform="translate(682,462) scale(3.7766666666667)">
		<rect x="-11.7" y="-11.7" width="6" height="6"/>
	</g>
	<g transform="translate(704,462) scale(3.7766666666667)">
		<rect x="-11.7" y="-11.7" width="6" height="6"/>
	</g>
	<g transform="translate(726,462) scale(3.7766666666667)">
		<rect x="-11.7" y="-11.7" width="6" height="6"/>
	</g>
	<g transform="translate(792,462) scale(3.7766666666667)">
		<rect x="-11.7" y="-11.7" width="6" height="6"/>
	</g>
	<g transform="translate(836,462) scale(3.7766666666667)">
		<rect x="-11.7" y="-11.7" width="6" height="6"/>
	</g>
	<g transform="translate(858,462) scale(3.7766666666667)">
		<rect x="-11.7" y="-11.7" width="6" height="6"/>
	</g>
	<g transform="translate(902,462) scale(3.7766666666667)">
		<rect x="-11.7" y="-11.7" width="6" height="6"/>
	</g>
	<g transform="translate(924,462) scale(3.7766666666667)">
		<rect x="-11.7" y="-11.7" width="6" height="6"/>
	</g>
	<g transform="translate(154,484) scale(3.7766666666667)">
		<rect x="-11.7" y="-11.7" width="6" height="6"/>
	</g>
	<g transform="translate(176,484) scale(3.7766666666667)">
		<rect x="-11.7" y="-11.7" width="6" height="6"/>
	</g>
	<g transform="translate(264,484) scale(3.7766666666667)">
		<rect x="-11.7" y="-11.7" width="6" height="6"/>
	</g>
	<g transform="translate(638,484) scale(3.7766666666667)">
		<rect x="-11.7" y="-11.7" width="6" height="6"/>
	</g>
	<g transform="translate(836,484) scale(3.7766666666667)">
		<rect x="-11.7" y="-11.7" width="6" height="6"/>
	</g>
	<g transform="translate(880,484) scale(3.7766666666667)">
		<rect x="-11.7" y="-11.7" width="6" height="6"/>
	</g>
	<g transform="translate(902,484) scale(3.7766666666667)">
		<rect x="-11.7" y="-11.7" width="6" height="6"/>
	</g>
	<g transform="translate(44,506) scale(3.7766666666667)">
		<rect x="-11.7" y="-11.7" width="6" height="6"/>
	</g>
	<g transform="translate(88,506) scale(3.7766666666667)">
		<rect x="-11.7" y="-11.7" width="6" height="6"/>
	</g>
	<g transform="translate(110,506) scale(3.7766666666667)">
		<rect x="-11.7" y="-11.7" width="6" height="6"/>
	</g>
	<g transform="translate(132,506) scale(3.7766666666667)">
		<rect x="-11.7" y="-11.7" width="6" height="6"/>
	</g>
	<g transform="translate(154,506) scale(3.7766666666667)">
		<rect x="-11.7" y="-11.7" width="6" height="6"/>
	</g>
	<g transform="translate(198,506) scale(3.7766666666667)">
		<rect x="-11.7" y="-11.7" width="6" height="6"/>
	</g>
	<g transform="translate(242,506) scale(3.7766666666667)">
		<rect x="-11.7" y="-11.7" width="6" height="6"/>
	</g>
	<g transform="translate(264,506) scale(3.7766666666667)">
		<rect x="-11.7" y="-11.7" width="6" height="6"/>
	</g>
	<g transform="translate(286,506) scale(3.7766666666667)">
		<rect x="-11.7" y="-11.7" width="6" height="6"/>
	</g>
	<g transform="translate(308,506) scale(3.7766666666667)">
		<rect x="-11.7" y="-11.7" width="6" height="6"/>
	</g>
	<g transform="translate(660,506) scale(3.7766666666667)">
		<rect x="-11.7" y="-11.7" width="6" height="6"/>
	</g>
	<g transform="translate(704,506) scale(3.7766666666667)">
		<rect x="-11.7" y="-11.7" width="6" height="6"/>
	</g>
	<g transform="translate(726,506) scale(3.7766666666667)">
		<rect x="-11.7" y="-11.7" width="6" height="6"/>
	</g>
	<g transform="translate(770,506) scale(3.7766666666667)">
		<rect x="-11.7" y="-11.7" width="6" height="6"/>
	</g>
	<g transform="translate(792,506) scale(3.7766666666667)">
		<rect x="-11.7" y="-11.7" width="6" height="6"/>
	</g>
	<g transform="translate(814,506) scale(3.7766666666667)">
		<rect x="-11.7" y="-11.7" width="6" height="6"/>
	</g>
	<g transform="translate(858,506) scale(3.7766666666667)">
		<rect x="-11.7" y="-11.7" width="6" height="6"/>
	</g>
	<g transform="translate(880,506) scale(3.7766666666667)">
		<rect x="-11.7" y="-11.7" width="6" height="6"/>
	</g>
	<g transform="translate(902,506) scale(3.7766666666667)">
		<rect x="-11.7" y="-11.7" width="6" height="6"/>
	</g>
	<g transform="translate(924,506) scale(3.7766666666667)">
		<rect x="-11.7" y="-11.7" width="6" height="6"/>
	</g>
	<g transform="translate(66,528) scale(3.7766666666667)">
		<rect x="-11.7" y="-11.7" width="6" height="6"/>
	</g>
	<g transform="translate(88,528) scale(3.7766666666667)">
		<rect x="-11.7" y="-11.7" width="6" height="6"/>
	</g>
	<g transform="translate(132,528) scale(3.7766666666667)">
		<rect x="-11.7" y="-11.7" width="6" height="6"/>
	</g>
	<g transform="translate(154,528) scale(3.7766666666667)">
		<rect x="-11.7" y="-11.7" width="6" height="6"/>
	</g>
	<g transform="translate(176,528) scale(3.7766666666667)">
		<rect x="-11.7" y="-11.7" width="6" height="6"/>
	</g>
	<g transform="translate(198,528) scale(3.7766666666667)">
		<rect x="-11.7" y="-11.7" width="6" height="6"/>
	</g>
	<g transform="translate(286,528) scale(3.7766666666667)">
		<rect x="-11.7" y="-11.7" width="6" height="6"/>
	</g>
	<g transform="translate(308,528) scale(3.7766666666667)">
		<rect x="-11.7" y="-11.7" width="6" height="6"/>
	</g>
	<g transform="translate(330,528) scale(3.7766666666667)">
		<rect x="-11.7" y="-11.7" width="6" height="6"/>
	</g>
	<g transform="translate(638,528) scale(3.7766666666667)">
		<rect x="-11.7" y="-11.7" width="6" height="6"/>
	</g>
	<g transform="translate(748,528) scale(3.7766666666667)">
		<rect x="-11.7" y="-11.7" width="6" height="6"/>
	</g>
	<g transform="translate(880,528) scale(3.7766666666667)">
		<rect x="-11.7" y="-11.7" width="6" height="6"/>
	</g>
	<g transform="translate(264,550) scale(3.7766666666667)">
		<rect x="-11.7" y="-11.7" width="6" height="6"/>
	</g>
	<g transform="translate(286,550) scale(3.7766666666667)">
		<rect x="-11.7" y="-11.7" width="6" height="6"/>
	</g>
	<g transform="translate(638,550) scale(3.7766666666667)">
		<rect x="-11.7" y="-11.7" width="6" height="6"/>
	</g>
	<g transform="translate(748,550) scale(3.7766666666667)">
		<rect x="-11.7" y="-11.7" width="6" height="6"/>
	</g>
	<g transform="translate(770,550) scale(3.7766666666667)">
		<rect x="-11.7" y="-11.7" width="6" height="6"/>
	</g>
	<g transform="translate(814,550) scale(3.7766666666667)">
		<rect x="-11.7" y="-11.7" width="6" height="6"/>
	</g>
	<g transform="translate(858,550) scale(3.7766666666667)">
		<rect x="-11.7" y="-11.7" width="6" height="6"/>
	</g>
	<g transform="translate(880,550) scale(3.7766666666667)">
		<rect x="-11.7" y="-11.7" width="6" height="6"/>
	</g>
	<g transform="translate(88,572) scale(3.7766666666667)">
		<rect x="-11.7" y="-11.7" width="6" height="6"/>
	</g>
	<g transform="translate(110,572) scale(3.7766666666667)">
		<rect x="-11.7" y="-11.7" width="6" height="6"/>
	</g>
	<g transform="translate(132,572) scale(3.7766666666667)">
		<rect x="-11.7" y="-11.7" width="6" height="6"/>
	</g>
	<g transform="translate(154,572) scale(3.7766666666667)">
		<rect x="-11.7" y="-11.7" width="6" height="6"/>
	</g>
	<g transform="translate(176,572) scale(3.7766666666667)">
		<rect x="-11.7" y="-11.7" width="6" height="6"/>
	</g>
	<g transform="translate(220,572) scale(3.7766666666667)">
		<rect x="-11.7" y="-11.7" width="6" height="6"/>
	</g>
	<g transform="translate(308,572) scale(3.7766666666667)">
		<rect x="-11.7" y="-11.7" width="6" height="6"/>
	</g>
	<g transform="translate(330,572) scale(3.7766666666667)">
		<rect x="-11.7" y="-11.7" width="6" height="6"/>
	</g>
	<g transform="translate(638,572) scale(3.7766666666667)">
		<rect x="-11.7" y="-11.7" width="6" height="6"/>
	</g>
	<g transform="translate(682,572) scale(3.7766666666667)">
		<rect x="-11.7" y="-11.7" width="6" height="6"/>
	</g>
	<g transform="translate(726,572) scale(3.7766666666667)">
		<rect x="-11.7" y="-11.7" width="6" height="6"/>
	</g>
	<g transform="translate(924,572) scale(3.7766666666667)">
		<rect x="-11.7" y="-11.7" width="6" height="6"/>
	</g>
	<g transform="translate(66,594) scale(3.7766666666667)">
		<rect x="-11.7" y="-11.7" width="6" height="6"/>
	</g>
	<g transform="translate(110,594) scale(3.7766666666667)">
		<rect x="-11.7" y="-11.7" width="6" height="6"/>
	</g>
	<g transform="translate(132,594) scale(3.7766666666667)">
		<rect x="-11.7" y="-11.7" width="6" height="6"/>
	</g>
	<g transform="translate(154,594) scale(3.7766666666667)">
		<rect x="-11.7" y="-11.7" width="6" height="6"/>
	</g>
	<g transform="translate(220,594) scale(3.7766666666667)">
		<rect x="-11.7" y="-11.7" width="6" height="6"/>
	</g>
	<g transform="translate(242,594) scale(3.7766666666667)">
		<rect x="-11.7" y="-11.7" width="6" height="6"/>
	</g>
	<g transform="translate(660,594) scale(3.7766666666667)">
		<rect x="-11.7" y="-11.7" width="6" height="6"/>
	</g>
	<g transform="translate(726,594) scale(3.7766666666667)">
		<rect x="-11.7" y="-11.7" width="6" height="6"/>
	</g>
	<g transform="translate(770,594) scale(3.7766666666667)">
		<rect x="-11.7" y="-11.7" width="6" height="6"/>
	</g>
	<g transform="translate(792,594) scale(3.7766666666667)">
		<rect x="-11.7" y="-11.7" width="6" height="6"/>
	</g>
	<g transform="translate(836,594) scale(3.7766666666667)">
		<rect x="-11.7" y="-11.7" width="6" height="6"/>
	</g>
	<g transform="translate(858,594) scale(3.7766666666667)">
		<rect x="-11.7" y="-11.7" width="6" height="6"/>
	</g>
	<g transform="translate(902,594) scale(3.7766666666667)">
		<rect x="-11.7" y="-11.7" width="6" height="6"/>
	</g>
	<g transform="translate(924,594) scale(3.7766666666667)">
		<rect x="-11.7" y="-11.7" width="6" height="6"/>
	</g>
	<g transform="translate(66,616) scale(3.7766666666667)">
		<rect x="-11.7" y="-11.7" width="6" height="6"/>
	</g>
	<g transform="translate(88,616) scale(3.7766666666667)">
		<rect x="-11.7" y="-11.7" width="6" height="6"/>
	</g>
	<g transform="translate(110,616) scale(3.7766666666667)">
		<rect x="-11.7" y="-11.7" width="6" height="6"/>
	</g>
	<g transform="translate(132,616) scale(3.7766666666667)">
		<rect x="-11.7" y="-11.7" width="6" height="6"/>
	</g>
	<g transform="translate(176,616) scale(3.7766666666667)">
		<rect x="-11.7" y="-11.7" width="6" height="6"/>
	</g>
	<g transform="translate(220,616) scale(3.7766666666667)">
		<rect x="-11.7" y="-11.7" width="6" height="6"/>
	</g>
	<g transform="translate(264,616) scale(3.7766666666667)">
		<rect x="-11.7" y="-11.7" width="6" height="6"/>
	</g>
	<g transform="translate(286,616) scale(3.7766666666667)">
		<rect x="-11.7" y="-11.7" width="6" height="6"/>
	</g>
	<g transform="translate(330,616) scale(3.7766666666667)">
		<rect x="-11.7" y="-11.7" width="6" height="6"/>
	</g>
	<g transform="translate(638,616) scale(3.7766666666667)">
		<rect x="-11.7" y="-11.7" width="6" height="6"/>
	</g>
	<g transform="translate(682,616) scale(3.7766666666667)">
		<rect x="-11.7" y="-11.7" width="6" height="6"/>
	</g>
	<g transform="translate(704,616) scale(3.7766666666667)">
		<rect x="-11.7" y="-11.7" width="6" height="6"/>
	</g>
	<g transform="translate(748,616) scale(3.7766666666667)">
		<rect x="-11.7" y="-11.7" width="6" height="6"/>
	</g>
	<g transform="translate(792,616) scale(3.7766666666667)">
		<rect x="-11.7" y="-11.7" width="6" height="6"/>
	</g>
	<g transform="translate(814,616) scale(3.7766666666667)">
		<rect x="-11.7" y="-11.7" width="6" height="6"/>
	</g>
	<g transform="translate(836,616) scale(3.7766666666667)">
		<rect x="-11.7" y="-11.7" width="6" height="6"/>
	</g>
	<g transform="translate(902,616) scale(3.7766666666667)">
		<rect x="-11.7" y="-11.7" width="6" height="6"/>
	</g>
	<g transform="translate(66,638) scale(3.7766666666667)">
		<rect x="-11.7" y="-11.7" width="6" height="6"/>
	</g>
	<g transform="translate(110,638) scale(3.7766666666667)">
		<rect x="-11.7" y="-11.7" width="6" height="6"/>
	</g>
	<g transform="translate(154,638) scale(3.7766666666667)">
		<rect x="-11.7" y="-11.7" width="6" height="6"/>
	</g>
	<g transform="translate(220,638) scale(3.7766666666667)">
		<rect x="-11.7" y="-11.7" width="6" height="6"/>
	</g>
	<g transform="translate(264,638) scale(3.7766666666667)">
		<rect x="-11.7" y="-11.7" width="6" height="6"/>
	</g>
	<g transform="translate(352,638) scale(3.7766666666667)">
		<rect x="-11.7" y="-11.7" width="6" height="6"/>
	</g>
	<g transform="translate(418,638) scale(3.7766666666667)">
		<rect x="-11.7" y="-11.7" width="6" height="6"/>
	</g>
	<g transform="translate(462,638) scale(3.7766666666667)">
		<rect x="-11.7" y="-11.7" width="6" height="6"/>
	</g>
	<g transform="translate(506,638) scale(3.7766666666667)">
		<rect x="-11.7" y="-11.7" width="6" height="6"/>
	</g>
	<g transform="translate(528,638) scale(3.7766666666667)">
		<rect x="-11.7" y="-11.7" width="6" height="6"/>
	</g>
	<g transform="translate(550,638) scale(3.7766666666667)">
		<rect x="-11.7" y="-11.7" width="6" height="6"/>
	</g>
	<g transform="translate(572,638) scale(3.7766666666667)">
		<rect x="-11.7" y="-11.7" width="6" height="6"/>
	</g>
	<g transform="translate(594,638) scale(3.7766666666667)">
		<rect x="-11.7" y="-11.7" width="6" height="6"/>
	</g>
	<g transform="translate(704,638) scale(3.7766666666667)">
		<rect x="-11.7" y="-11.7" width="6" height="6"/>
	</g>
	<g transform="translate(726,638) scale(3.7766666666667)">
		<rect x="-11.7" y="-11.7" width="6" height="6"/>
	</g>
	<g transform="translate(748,638) scale(3.7766666666667)">
		<rect x="-11.7" y="-11.7" width="6" height="6"/>
	</g>
	<g transform="translate(770,638) scale(3.7766666666667)">
		<rect x="-11.7" y="-11.7" width="6" height="6"/>
	</g>
	<g transform="translate(792,638) scale(3.7766666666667)">
		<rect x="-11.7" y="-11.7" width="6" height="6"/>
	</g>
	<g transform="translate(836,638) scale(3.7766666666667)">
		<rect x="-11.7" y="-11.7" width="6" height="6"/>
	</g>
	<g transform="translate(858,638) scale(3.7766666666667)">
		<rect x="-11.7" y="-11.7" width="6" height="6"/>
	</g>
	<g transform="translate(924,638) scale(3.7766666666667)">
		<rect x="-11.7" y="-11.7" width="6" height="6"/>
	</g>
	<g transform="translate(44,660) scale(3.7766666666667)">
		<rect x="-11.7" y="-11.7" width="6" height="6"/>
	</g>
	<g transform="translate(66,660) scale(3.7766666666667)">
		<rect x="-11.7" y="-11.7" width="6" height="6"/>
	</g>
	<g transform="translate(132,660) scale(3.7766666666667)">
		<rect x="-11.7" y="-11.7" width="6" height="6"/>
	</g>
	<g transform="translate(176,660) scale(3.7766666666667)">
		<rect x="-11.7" y="-11.7" width="6" height="6"/>
	</g>
	<g transform="translate(198,660) scale(3.7766666666667)">
		<rect x="-11.7" y="-11.7" width="6" height="6"/>
	</g>
	<g transform="translate(242,660) scale(3.7766666666667)">
		<rect x="-11.7" y="-11.7" width="6" height="6"/>
	</g>
	<g transform="translate(286,660) scale(3.7766666666667)">
		<rect x="-11.7" y="-11.7" width="6" height="6"/>
	</g>
	<g transform="translate(330,660) scale(3.7766666666667)">
		<rect x="-11.7" y="-11.7" width="6" height="6"/>
	</g>
	<g transform="translate(374,660) scale(3.7766666666667)">
		<rect x="-11.7" y="-11.7" width="6" height="6"/>
	</g>
	<g transform="translate(418,660) scale(3.7766666666667)">
		<rect x="-11.7" y="-11.7" width="6" height="6"/>
	</g>
	<g transform="translate(462,660) scale(3.7766666666667)">
		<rect x="-11.7" y="-11.7" width="6" height="6"/>
	</g>
	<g transform="translate(506,660) scale(3.7766666666667)">
		<rect x="-11.7" y="-11.7" width="6" height="6"/>
	</g>
	<g transform="translate(528,660) scale(3.7766666666667)">
		<rect x="-11.7" y="-11.7" width="6" height="6"/>
	</g>
	<g transform="translate(550,660) scale(3.7766666666667)">
		<rect x="-11.7" y="-11.7" width="6" height="6"/>
	</g>
	<g transform="translate(572,660) scale(3.7766666666667)">
		<rect x="-11.7" y="-11.7" width="6" height="6"/>
	</g>
	<g transform="translate(594,660) scale(3.7766666666667)">
		<rect x="-11.7" y="-11.7" width="6" height="6"/>
	</g>
	<g transform="translate(638,660) scale(3.7766666666667)">
		<rect x="-11.7" y="-11.7" width="6" height="6"/>
	</g>
	<g transform="translate(682,660) scale(3.7766666666667)">
		<rect x="-11.7" y="-11.7" width="6" height="6"/>
	</g>
	<g transform="translate(726,660) scale(3.7766666666667)">
		<rect x="-11.7" y="-11.7" width="6" height="6"/>
	</g>
	<g transform="translate(748,660) scale(3.7766666666667)">
		<rect x="-11.7" y="-11.7" width="6" height="6"/>
	</g>
	<g transform="translate(792,660) scale(3.7766666666667)">
		<rect x="-11.7" y="-11.7" width="6" height="6"/>
	</g>
	<g transform="translate(858,660) scale(3.7766666666667)">
		<rect x="-11.7" y="-11.7" width="6" height="6"/>
	</g>
	<g transform="translate(880,660) scale(3.7766666666667)">
		<rect x="-11.7" y="-11.7" width="6" height="6"/>
	</g>
	<g transform="translate(902,660) scale(3.7766666666667)">
		<rect x="-11.7" y="-11.7" width="6" height="6"/>
	</g>
	<g transform="translate(44,682) scale(3.7766666666667)">
		<rect x="-11.7" y="-11.7" width="6" height="6"/>
	</g>
	<g transform="translate(66,682) scale(3.7766666666667)">
		<rect x="-11.7" y="-11.7" width="6" height="6"/>
	</g>
	<g transform="translate(154,682) scale(3.7766666666667)">
		<rect x="-11.7" y="-11.7" width="6" height="6"/>
	</g>
	<g transform="translate(198,682) scale(3.7766666666667)">
		<rect x="-11.7" y="-11.7" width="6" height="6"/>
	</g>
	<g transform="translate(220,682) scale(3.7766666666667)">
		<rect x="-11.7" y="-11.7" width="6" height="6"/>
	</g>
	<g transform="translate(242,682) scale(3.7766666666667)">
		<rect x="-11.7" y="-11.7" width="6" height="6"/>
	</g>
	<g transform="translate(264,682) scale(3.7766666666667)">
		<rect x="-11.7" y="-11.7" width="6" height="6"/>
	</g>
	<g transform="translate(308,682) scale(3.7766666666667)">
		<rect x="-11.7" y="-11.7" width="6" height="6"/>
	</g>
	<g transform="translate(330,682) scale(3.7766666666667)">
		<rect x="-11.7" y="-11.7" width="6" height="6"/>
	</g>
	<g transform="translate(352,682) scale(3.7766666666667)">
		<rect x="-11.7" y="-11.7" width="6" height="6"/>
	</g>
	<g transform="translate(374,682) scale(3.7766666666667)">
		<rect x="-11.7" y="-11.7" width="6" height="6"/>
	</g>
	<g transform="translate(396,682) scale(3.7766666666667)">
		<rect x="-11.7" y="-11.7" width="6" height="6"/>
	</g>
	<g transform="translate(418,682) scale(3.7766666666667)">
		<rect x="-11.7" y="-11.7" width="6" height="6"/>
	</g>
	<g transform="translate(440,682) scale(3.7766666666667)">
		<rect x="-11.7" y="-11.7" width="6" height="6"/>
	</g>
	<g transform="translate(484,682) scale(3.7766666666667)">
		<rect x="-11.7" y="-11.7" width="6" height="6"/>
	</g>
	<g transform="translate(506,682) scale(3.7766666666667)">
		<rect x="-11.7" y="-11.7" width="6" height="6"/>
	</g>
	<g transform="translate(572,682) scale(3.7766666666667)">
		<rect x="-11.7" y="-11.7" width="6" height="6"/>
	</g>
	<g transform="translate(594,682) scale(3.7766666666667)">
		<rect x="-11.7" y="-11.7" width="6" height="6"/>
	</g>
	<g transform="translate(638,682) scale(3.7766666666667)">
		<rect x="-11.7" y="-11.7" width="6" height="6"/>
	</g>
	<g transform="translate(660,682) scale(3.7766666666667)">
		<rect x="-11.7" y="-11.7" width="6" height="6"/>
	</g>
	<g transform="translate(682,682) scale(3.7766666666667)">
		<rect x="-11.7" y="-11.7" width="6" height="6"/>
	</g>
	<g transform="translate(704,682) scale(3.7766666666667)">
		<rect x="-11.7" y="-11.7" width="6" height="6"/>
	</g>
	<g transform="translate(770,682) scale(3.7766666666667)">
		<rect x="-11.7" y="-11.7" width="6" height="6"/>
	</g>
	<g transform="translate(836,682) scale(3.7766666666667)">
		<rect x="-11.7" y="-11.7" width="6" height="6"/>
	</g>
	<g transform="translate(858,682) scale(3.7766666666667)">
		<rect x="-11.7" y="-11.7" width="6" height="6"/>
	</g>
	<g transform="translate(880,682) scale(3.7766666666667)">
		<rect x="-11.7" y="-11.7" width="6" height="6"/>
	</g>
	<g transform="translate(902,682) scale(3.7766666666667)">
		<rect x="-11.7" y="-11.7" width="6" height="6"/>
	</g>
	<g transform="translate(924,682) scale(3.7766666666667)">
		<rect x="-11.7" y="-11.7" width="6" height="6"/>
	</g>
	<g transform="translate(44,704) scale(3.7766666666667)">
		<rect x="-11.7" y="-11.7" width="6" height="6"/>
	</g>
	<g transform="translate(88,704) scale(3.7766666666667)">
		<rect x="-11.7" y="-11.7" width="6" height="6"/>
	</g>
	<g transform="translate(110,704) scale(3.7766666666667)">
		<rect x="-11.7" y="-11.7" width="6" height="6"/>
	</g>
	<g transform="translate(154,704) scale(3.7766666666667)">
		<rect x="-11.7" y="-11.7" width="6" height="6"/>
	</g>
	<g transform="translate(176,704) scale(3.7766666666667)">
		<rect x="-11.7" y="-11.7" width="6" height="6"/>
	</g>
	<g transform="translate(198,704) scale(3.7766666666667)">
		<rect x="-11.7" y="-11.7" width="6" height="6"/>
	</g>
	<g transform="translate(330,704) scale(3.7766666666667)">
		<rect x="-11.7" y="-11.7" width="6" height="6"/>
	</g>
	<g transform="translate(352,704) scale(3.7766666666667)">
		<rect x="-11.7" y="-11.7" width="6" height="6"/>
	</g>
	<g transform="translate(396,704) scale(3.7766666666667)">
		<rect x="-11.7" y="-11.7" width="6" height="6"/>
	</g>
	<g transform="translate(418,704) scale(3.7766666666667)">
		<rect x="-11.7" y="-11.7" width="6" height="6"/>
	</g>
	<g transform="translate(484,704) scale(3.7766666666667)">
		<rect x="-11.7" y="-11.7" width="6" height="6"/>
	</g>
	<g transform="translate(506,704) scale(3.7766666666667)">
		<rect x="-11.7" y="-11.7" width="6" height="6"/>
	</g>
	<g transform="translate(528,704) scale(3.7766666666667)">
		<rect x="-11.7" y="-11.7" width="6" height="6"/>
	</g>
	<g transform="translate(704,704) scale(3.7766666666667)">
		<rect x="-11.7" y="-11.7" width="6" height="6"/>
	</g>
	<g transform="translate(748,704) scale(3.7766666666667)">
		<rect x="-11.7" y="-11.7" width="6" height="6"/>
	</g>
	<g transform="translate(770,704) scale(3.7766666666667)">
		<rect x="-11.7" y="-11.7" width="6" height="6"/>
	</g>
	<g transform="translate(792,704) scale(3.7766666666667)">
		<rect x="-11.7" y="-11.7" width="6" height="6"/>
	</g>
	<g transform="translate(858,704) scale(3.7766666666667)">
		<rect x="-11.7" y="-11.7" width="6" height="6"/>
	</g>
	<g transform="translate(44,726) scale(3.7766666666667)">
		<rect x="-11.7" y="-11.7" width="6" height="6"/>
	</g>
	<g transform="translate(88,726) scale(3.7766666666667)">
		<rect x="-11.7" y="-11.7" width="6" height="6"/>
	</g>
	<g transform="translate(110,726) scale(3.7766666666667)">
		<rect x="-11.7" y="-11.7" width="6" height="6"/>
	</g>
	<g transform="translate(132,726) scale(3.7766666666667)">
		<rect x="-11.7" y="-11.7" width="6" height="6"/>
	</g>
	<g transform="translate(220,726) scale(3.7766666666667)">
		<rect x="-11.7" y="-11.7" width="6" height="6"/>
	</g>
	<g transform="translate(264,726) scale(3.7766666666667)">
		<rect x="-11.7" y="-11.7" width="6" height="6"/>
	</g>
	<g transform="translate(286,726) scale(3.7766666666667)">
		<rect x="-11.7" y="-11.7" width="6" height="6"/>
	</g>
	<g transform="translate(308,726) scale(3.7766666666667)">
		<rect x="-11.7" y="-11.7" width="6" height="6"/>
	</g>
	<g transform="translate(330,726) scale(3.7766666666667)">
		<rect x="-11.7" y="-11.7" width="6" height="6"/>
	</g>
	<g transform="translate(352,726) scale(3.7766666666667)">
		<rect x="-11.7" y="-11.7" width="6" height="6"/>
	</g>
	<g transform="translate(374,726) scale(3.7766666666667)">
		<rect x="-11.7" y="-11.7" width="6" height="6"/>
	</g>
	<g transform="translate(418,726) scale(3.7766666666667)">
		<rect x="-11.7" y="-11.7" width="6" height="6"/>
	</g>
	<g transform="translate(440,726) scale(3.7766666666667)">
		<rect x="-11.7" y="-11.7" width="6" height="6"/>
	</g>
	<g transform="translate(462,726) scale(3.7766666666667)">
		<rect x="-11.7" y="-11.7" width="6" height="6"/>
	</g>
	<g transform="translate(484,726) scale(3.7766666666667)">
		<rect x="-11.7" y="-11.7" width="6" height="6"/>
	</g>
	<g transform="translate(506,726) scale(3.7766666666667)">
		<rect x="-11.7" y="-11.7" width="6" height="6"/>
	</g>
	<g transform="translate(528,726) scale(3.7766666666667)">
		<rect x="-11.7" y="-11.7" width="6" height="6"/>
	</g>
	<g transform="translate(616,726) scale(3.7766666666667)">
		<rect x="-11.7" y="-11.7" width="6" height="6"/>
	</g>
	<g transform="translate(660,726) scale(3.7766666666667)">
		<rect x="-11.7" y="-11.7" width="6" height="6"/>
	</g>
	<g transform="translate(770,726) scale(3.7766666666667)">
		<rect x="-11.7" y="-11.7" width="6" height="6"/>
	</g>
	<g transform="translate(792,726) scale(3.7766666666667)">
		<rect x="-11.7" y="-11.7" width="6" height="6"/>
	</g>
	<g transform="translate(836,726) scale(3.7766666666667)">
		<rect x="-11.7" y="-11.7" width="6" height="6"/>
	</g>
	<g transform="translate(858,726) scale(3.7766666666667)">
		<rect x="-11.7" y="-11.7" width="6" height="6"/>
	</g>
	<g transform="translate(924,726) scale(3.7766666666667)">
		<rect x="-11.7" y="-11.7" width="6" height="6"/>
	</g>
	<g transform="translate(44,748) scale(3.7766666666667)">
		<rect x="-11.7" y="-11.7" width="6" height="6"/>
	</g>
	<g transform="translate(110,748) scale(3.7766666666667)">
		<rect x="-11.7" y="-11.7" width="6" height="6"/>
	</g>
	<g transform="translate(154,748) scale(3.7766666666667)">
		<rect x="-11.7" y="-11.7" width="6" height="6"/>
	</g>
	<g transform="translate(176,748) scale(3.7766666666667)">
		<rect x="-11.7" y="-11.7" width="6" height="6"/>
	</g>
	<g transform="translate(220,748) scale(3.7766666666667)">
		<rect x="-11.7" y="-11.7" width="6" height="6"/>
	</g>
	<g transform="translate(264,748) scale(3.7766666666667)">
		<rect x="-11.7" y="-11.7" width="6" height="6"/>
	</g>
	<g transform="translate(286,748) scale(3.7766666666667)">
		<rect x="-11.7" y="-11.7" width="6" height="6"/>
	</g>
	<g transform="translate(308,748) scale(3.7766666666667)">
		<rect x="-11.7" y="-11.7" width="6" height="6"/>
	</g>
	<g transform="translate(352,748) scale(3.7766666666667)">
		<rect x="-11.7" y="-11.7" width="6" height="6"/>
	</g>
	<g transform="translate(374,748) scale(3.7766666666667)">
		<rect x="-11.7" y="-11.7" width="6" height="6"/>
	</g>
	<g transform="translate(396,748) scale(3.7766666666667)">
		<rect x="-11.7" y="-11.7" width="6" height="6"/>
	</g>
	<g transform="translate(418,748) scale(3.7766666666667)">
		<rect x="-11.7" y="-11.7" width="6" height="6"/>
	</g>
	<g transform="translate(506,748) scale(3.7766666666667)">
		<rect x="-11.7" y="-11.7" width="6" height="6"/>
	</g>
	<g transform="translate(528,748) scale(3.7766666666667)">
		<rect x="-11.7" y="-11.7" width="6" height="6"/>
	</g>
	<g transform="translate(660,748) scale(3.7766666666667)">
		<rect x="-11.7" y="-11.7" width="6" height="6"/>
	</g>
	<g transform="translate(682,748) scale(3.7766666666667)">
		<rect x="-11.7" y="-11.7" width="6" height="6"/>
	</g>
	<g transform="translate(748,748) scale(3.7766666666667)">
		<rect x="-11.7" y="-11.7" width="6" height="6"/>
	</g>
	<g transform="translate(770,748) scale(3.7766666666667)">
		<rect x="-11.7" y="-11.7" width="6" height="6"/>
	</g>
	<g transform="translate(792,748) scale(3.7766666666667)">
		<rect x="-11.7" y="-11.7" width="6" height="6"/>
	</g>
	<g transform="translate(814,748) scale(3.7766666666667)">
		<rect x="-11.7" y="-11.7" width="6" height="6"/>
	</g>
	<g transform="translate(836,748) scale(3.7766666666667)">
		<rect x="-11.7" y="-11.7" width="6" height="6"/>
	</g>
	<g transform="translate(858,748) scale(3.7766666666667)">
		<rect x="-11.7" y="-11.7" width="6" height="6"/>
	</g>
	<g transform="translate(880,748) scale(3.7766666666667)">
		<rect x="-11.7" y="-11.7" width="6" height="6"/>
	</g>
	<g transform="translate(220,770) scale(3.7766666666667)">
		<rect x="-11.7" y="-11.7" width="6" height="6"/>
	</g>
	<g transform="translate(242,770) scale(3.7766666666667)">
		<rect x="-11.7" y="-11.7" width="6" height="6"/>
	</g>
	<g transform="translate(308,770) scale(3.7766666666667)">
		<rect x="-11.7" y="-11.7" width="6" height="6"/>
	</g>
	<g transform="translate(418,770) scale(3.7766666666667)">
		<rect x="-11.7" y="-11.7" width="6" height="6"/>
	</g>
	<g transform="translate(440,770) scale(3.7766666666667)">
		<rect x="-11.7" y="-11.7" width="6" height="6"/>
	</g>
	<g transform="translate(462,770) scale(3.7766666666667)">
		<rect x="-11.7" y="-11.7" width="6" height="6"/>
	</g>
	<g transform="translate(484,770) scale(3.7766666666667)">
		<rect x="-11.7" y="-11.7" width="6" height="6"/>
	</g>
	<g transform="translate(572,770) scale(3.7766666666667)">
		<rect x="-11.7" y="-11.7" width="6" height="6"/>
	</g>
	<g transform="translate(594,770) scale(3.7766666666667)">
		<rect x="-11.7" y="-11.7" width="6" height="6"/>
	</g>
	<g transform="translate(660,770) scale(3.7766666666667)">
		<rect x="-11.7" y="-11.7" width="6" height="6"/>
	</g>
	<g transform="translate(748,770) scale(3.7766666666667)">
		<rect x="-11.7" y="-11.7" width="6" height="6"/>
	</g>
	<g transform="translate(836,770) scale(3.7766666666667)">
		<rect x="-11.7" y="-11.7" width="6" height="6"/>
	</g>
	<g transform="translate(858,770) scale(3.7766666666667)">
		<rect x="-11.7" y="-11.7" width="6" height="6"/>
	</g>
	<g transform="translate(924,770) scale(3.7766666666667)">
		<rect x="-11.7" y="-11.7" width="6" height="6"/>
	</g>
	<g transform="translate(264,792) scale(3.7766666666667)">
		<rect x="-11.7" y="-11.7" width="6" height="6"/>
	</g>
	<g transform="translate(308,792) scale(3.7766666666667)">
		<rect x="-11.7" y="-11.7" width="6" height="6"/>
	</g>
	<g transform="translate(330,792) scale(3.7766666666667)">
		<rect x="-11.7" y="-11.7" width="6" height="6"/>
	</g>
	<g transform="translate(374,792) scale(3.7766666666667)">
		<rect x="-11.7" y="-11.7" width="6" height="6"/>
	</g>
	<g transform="translate(396,792) scale(3.7766666666667)">
		<rect x="-11.7" y="-11.7" width="6" height="6"/>
	</g>
	<g transform="translate(440,792) scale(3.7766666666667)">
		<rect x="-11.7" y="-11.7" width="6" height="6"/>
	</g>
	<g transform="translate(506,792) scale(3.7766666666667)">
		<rect x="-11.7" y="-11.7" width="6" height="6"/>
	</g>
	<g transform="translate(528,792) scale(3.7766666666667)">
		<rect x="-11.7" y="-11.7" width="6" height="6"/>
	</g>
	<g transform="translate(594,792) scale(3.7766666666667)">
		<rect x="-11.7" y="-11.7" width="6" height="6"/>
	</g>
	<g transform="translate(616,792) scale(3.7766666666667)">
		<rect x="-11.7" y="-11.7" width="6" height="6"/>
	</g>
	<g transform="translate(638,792) scale(3.7766666666667)">
		<rect x="-11.7" y="-11.7" width="6" height="6"/>
	</g>
	<g transform="translate(660,792) scale(3.7766666666667)">
		<rect x="-11.7" y="-11.7" width="6" height="6"/>
	</g>
	<g transform="translate(704,792) scale(3.7766666666667)">
		<rect x="-11.7" y="-11.7" width="6" height="6"/>
	</g>
	<g transform="translate(726,792) scale(3.7766666666667)">
		<rect x="-11.7" y="-11.7" width="6" height="6"/>
	</g>
	<g transform="translate(748,792) scale(3.7766666666667)">
		<rect x="-11.7" y="-11.7" width="6" height="6"/>
	</g>
	<g transform="translate(792,792) scale(3.7766666666667)">
		<rect x="-11.7" y="-11.7" width="6" height="6"/>
	</g>
	<g transform="translate(836,792) scale(3.7766666666667)">
		<rect x="-11.7" y="-11.7" width="6" height="6"/>
	</g>
	<g transform="translate(242,814) scale(3.7766666666667)">
		<rect x="-11.7" y="-11.7" width="6" height="6"/>
	</g>
	<g transform="translate(264,814) scale(3.7766666666667)">
		<rect x="-11.7" y="-11.7" width="6" height="6"/>
	</g>
	<g transform="translate(308,814) scale(3.7766666666667)">
		<rect x="-11.7" y="-11.7" width="6" height="6"/>
	</g>
	<g transform="translate(330,814) scale(3.7766666666667)">
		<rect x="-11.7" y="-11.7" width="6" height="6"/>
	</g>
	<g transform="translate(374,814) scale(3.7766666666667)">
		<rect x="-11.7" y="-11.7" width="6" height="6"/>
	</g>
	<g transform="translate(440,814) scale(3.7766666666667)">
		<rect x="-11.7" y="-11.7" width="6" height="6"/>
	</g>
	<g transform="translate(572,814) scale(3.7766666666667)">
		<rect x="-11.7" y="-11.7" width="6" height="6"/>
	</g>
	<g transform="translate(594,814) scale(3.7766666666667)">
		<rect x="-11.7" y="-11.7" width="6" height="6"/>
	</g>
	<g transform="translate(638,814) scale(3.7766666666667)">
		<rect x="-11.7" y="-11.7" width="6" height="6"/>
	</g>
	<g transform="translate(726,814) scale(3.7766666666667)">
		<rect x="-11.7" y="-11.7" width="6" height="6"/>
	</g>
	<g transform="translate(748,814) scale(3.7766666666667)">
		<rect x="-11.7" y="-11.7" width="6" height="6"/>
	</g>
	<g transform="translate(836,814) scale(3.7766666666667)">
		<rect x="-11.7" y="-11.7" width="6" height="6"/>
	</g>
	<g transform="translate(858,814) scale(3.7766666666667)">
		<rect x="-11.7" y="-11.7" width="6" height="6"/>
	</g>
	<g transform="translate(924,814) scale(3.7766666666667)">
		<rect x="-11.7" y="-11.7" width="6" height="6"/>
	</g>
	<g transform="translate(220,836) scale(3.7766666666667)">
		<rect x="-11.7" y="-11.7" width="6" height="6"/>
	</g>
	<g transform="translate(286,836) scale(3.7766666666667)">
		<rect x="-11.7" y="-11.7" width="6" height="6"/>
	</g>
	<g transform="translate(330,836) scale(3.7766666666667)">
		<rect x="-11.7" y="-11.7" width="6" height="6"/>
	</g>
	<g transform="translate(352,836) scale(3.7766666666667)">
		<rect x="-11.7" y="-11.7" width="6" height="6"/>
	</g>
	<g transform="translate(374,836) scale(3.7766666666667)">
		<rect x="-11.7" y="-11.7" width="6" height="6"/>
	</g>
	<g transform="translate(440,836) scale(3.7766666666667)">
		<rect x="-11.7" y="-11.7" width="6" height="6"/>
	</g>
	<g transform="translate(506,836) scale(3.7766666666667)">
		<rect x="-11.7" y="-11.7" width="6" height="6"/>
	</g>
	<g transform="translate(528,836) scale(3.7766666666667)">
		<rect x="-11.7" y="-11.7" width="6" height="6"/>
	</g>
	<g transform="translate(550,836) scale(3.7766666666667)">
		<rect x="-11.7" y="-11.7" width="6" height="6"/>
	</g>
	<g transform="translate(572,836) scale(3.7766666666667)">
		<rect x="-11.7" y="-11.7" width="6" height="6"/>
	</g>
	<g transform="translate(616,836) scale(3.7766666666667)">
		<rect x="-11.7" y="-11.7" width="6" height="6"/>
	</g>
	<g transform="translate(638,836) scale(3.7766666666667)">
		<rect x="-11.7" y="-11.7" width="6" height="6"/>
	</g>
	<g transform="translate(660,836) scale(3.7766666666667)">
		<rect x="-11.7" y="-11.7" width="6" height="6"/>
	</g>
	<g transform="translate(704,836) scale(3.7766666666667)">
		<rect x="-11.7" y="-11.7" width="6" height="6"/>
	</g>
	<g transform="translate(748,836) scale(3.7766666666667)">
		<rect x="-11.7" y="-11.7" width="6" height="6"/>
	</g>
	<g transform="translate(770,836) scale(3.7766666666667)">
		<rect x="-11.7" y="-11.7" width="6" height="6"/>
	</g>
	<g transform="translate(792,836) scale(3.7766666666667)">
		<rect x="-11.7" y="-11.7" width="6" height="6"/>
	</g>
	<g transform="translate(814,836) scale(3.7766666666667)">
		<rect x="-11.7" y="-11.7" width="6" height="6"/>
	</g>
	<g transform="translate(836,836) scale(3.7766666666667)">
		<rect x="-11.7" y="-11.7" width="6" height="6"/>
	</g>
	<g transform="translate(880,836) scale(3.7766666666667)">
		<rect x="-11.7" y="-11.7" width="6" height="6"/>
	</g>
	<g transform="translate(220,858) scale(3.7766666666667)">
		<rect x="-11.7" y="-11.7" width="6" height="6"/>
	</g>
	<g transform="translate(264,858) scale(3.7766666666667)">
		<rect x="-11.7" y="-11.7" width="6" height="6"/>
	</g>
	<g transform="translate(330,858) scale(3.7766666666667)">
		<rect x="-11.7" y="-11.7" width="6" height="6"/>
	</g>
	<g transform="translate(352,858) scale(3.7766666666667)">
		<rect x="-11.7" y="-11.7" width="6" height="6"/>
	</g>
	<g transform="translate(462,858) scale(3.7766666666667)">
		<rect x="-11.7" y="-11.7" width="6" height="6"/>
	</g>
	<g transform="translate(484,858) scale(3.7766666666667)">
		<rect x="-11.7" y="-11.7" width="6" height="6"/>
	</g>
	<g transform="translate(572,858) scale(3.7766666666667)">
		<rect x="-11.7" y="-11.7" width="6" height="6"/>
	</g>
	<g transform="translate(616,858) scale(3.7766666666667)">
		<rect x="-11.7" y="-11.7" width="6" height="6"/>
	</g>
	<g transform="translate(660,858) scale(3.7766666666667)">
		<rect x="-11.7" y="-11.7" width="6" height="6"/>
	</g>
	<g transform="translate(726,858) scale(3.7766666666667)">
		<rect x="-11.7" y="-11.7" width="6" height="6"/>
	</g>
	<g transform="translate(770,858) scale(3.7766666666667)">
		<rect x="-11.7" y="-11.7" width="6" height="6"/>
	</g>
	<g transform="translate(814,858) scale(3.7766666666667)">
		<rect x="-11.7" y="-11.7" width="6" height="6"/>
	</g>
	<g transform="translate(902,858) scale(3.7766666666667)">
		<rect x="-11.7" y="-11.7" width="6" height="6"/>
	</g>
	<g transform="translate(924,858) scale(3.7766666666667)">
		<rect x="-11.7" y="-11.7" width="6" height="6"/>
	</g>
	<g transform="translate(220,880) scale(3.7766666666667)">
		<rect x="-11.7" y="-11.7" width="6" height="6"/>
	</g>
	<g transform="translate(242,880) scale(3.7766666666667)">
		<rect x="-11.7" y="-11.7" width="6" height="6"/>
	</g>
	<g transform="translate(286,880) scale(3.7766666666667)">
		<rect x="-11.7" y="-11.7" width="6" height="6"/>
	</g>
	<g transform="translate(352,880) scale(3.7766666666667)">
		<rect x="-11.7" y="-11.7" width="6" height="6"/>
	</g>
	<g transform="translate(374,880) scale(3.7766666666667)">
		<rect x="-11.7" y="-11.7" width="6" height="6"/>
	</g>
	<g transform="translate(396,880) scale(3.7766666666667)">
		<rect x="-11.7" y="-11.7" width="6" height="6"/>
	</g>
	<g transform="translate(440,880) scale(3.7766666666667)">
		<rect x="-11.7" y="-11.7" width="6" height="6"/>
	</g>
	<g transform="translate(572,880) scale(3.7766666666667)">
		<rect x="-11.7" y="-11.7" width="6" height="6"/>
	</g>
	<g transform="translate(594,880) scale(3.7766666666667)">
		<rect x="-11.7" y="-11.7" width="6" height="6"/>
	</g>
	<g transform="translate(616,880) scale(3.7766666666667)">
		<rect x="-11.7" y="-11.7" width="6" height="6"/>
	</g>
	<g transform="translate(638,880) scale(3.7766666666667)">
		<rect x="-11.7" y="-11.7" width="6" height="6"/>
	</g>
	<g transform="translate(660,880) scale(3.7766666666667)">
		<rect x="-11.7" y="-11.7" width="6" height="6"/>
	</g>
	<g transform="translate(704,880) scale(3.7766666666667)">
		<rect x="-11.7" y="-11.7" width="6" height="6"/>
	</g>
	<g transform="translate(726,880) scale(3.7766666666667)">
		<rect x="-11.7" y="-11.7" width="6" height="6"/>
	</g>
	<g transform="translate(770,880) scale(3.7766666666667)">
		<rect x="-11.7" y="-11.7" width="6" height="6"/>
	</g>
	<g transform="translate(792,880) scale(3.7766666666667)">
		<rect x="-11.7" y="-11.7" width="6" height="6"/>
	</g>
	<g transform="translate(814,880) scale(3.7766666666667)">
		<rect x="-11.7" y="-11.7" width="6" height="6"/>
	</g>
	<g transform="translate(836,880) scale(3.7766666666667)">
		<rect x="-11.7" y="-11.7" width="6" height="6"/>
	</g>
	<g transform="translate(858,880) scale(3.7766666666667)">
		<rect x="-11.7" y="-11.7" width="6" height="6"/>
	</g>
	<g transform="translate(902,880) scale(3.7766666666667)">
		<rect x="-11.7" y="-11.7" width="6" height="6"/>
	</g>
	<g transform="translate(286,902) scale(3.7766666666667)">
		<rect x="-11.7" y="-11.7" width="6" height="6"/>
	</g>
	<g transform="translate(330,902) scale(3.7766666666667)">
		<rect x="-11.7" y="-11.7" width="6" height="6"/>
	</g>
	<g transform="translate(352,902) scale(3.7766666666667)">
		<rect x="-11.7" y="-11.7" width="6" height="6"/>
	</g>
	<g transform="translate(374,902) scale(3.7766666666667)">
		<rect x="-11.7" y="-11.7" width="6" height="6"/>
	</g>
	<g transform="translate(396,902) scale(3.7766666666667)">
		<rect x="-11.7" y="-11.7" width="6" height="6"/>
	</g>
	<g transform="translate(462,902) scale(3.7766666666667)">
		<rect x="-11.7" y="-11.7" width="6" height="6"/>
	</g>
	<g transform="translate(484,902) scale(3.7766666666667)">
		<rect x="-11.7" y="-11.7" width="6" height="6"/>
	</g>
	<g transform="translate(528,902) scale(3.7766666666667)">
		<rect x="-11.7" y="-11.7" width="6" height="6"/>
	</g>
	<g transform="translate(572,902) scale(3.7766666666667)">
		<rect x="-11.7" y="-11.7" width="6" height="6"/>
	</g>
	<g transform="translate(616,902) scale(3.7766666666667)">
		<rect x="-11.7" y="-11.7" width="6" height="6"/>
	</g>
	<g transform="translate(660,902) scale(3.7766666666667)">
		<rect x="-11.7" y="-11.7" width="6" height="6"/>
	</g>
	<g transform="translate(704,902) scale(3.7766666666667)">
		<rect x="-11.7" y="-11.7" width="6" height="6"/>
	</g>
	<g transform="translate(748,902) scale(3.7766666666667)">
		<rect x="-11.7" y="-11.7" width="6" height="6"/>
	</g>
	<g transform="translate(792,902) scale(3.7766666666667)">
		<rect x="-11.7" y="-11.7" width="6" height="6"/>
	</g>
	<g transform="translate(836,902) scale(3.7766666666667)">
		<rect x="-11.7" y="-11.7" width="6" height="6"/>
	</g>
	<g transform="translate(902,902) scale(3.7766666666667)">
		<rect x="-11.7" y="-11.7" width="6" height="6"/>
	</g>
	<g transform="translate(242,924) scale(3.7766666666667)">
		<rect x="-11.7" y="-11.7" width="6" height="6"/>
	</g>
	<g transform="translate(286,924) scale(3.7766666666667)">
		<rect x="-11.7" y="-11.7" width="6" height="6"/>
	</g>
	<g transform="translate(330,924) scale(3.7766666666667)">
		<rect x="-11.7" y="-11.7" width="6" height="6"/>
	</g>
	<g transform="translate(374,924) scale(3.7766666666667)">
		<rect x="-11.7" y="-11.7" width="6" height="6"/>
	</g>
	<g transform="translate(396,924) scale(3.7766666666667)">
		<rect x="-11.7" y="-11.7" width="6" height="6"/>
	</g>
	<g transform="translate(506,924) scale(3.7766666666667)">
		<rect x="-11.7" y="-11.7" width="6" height="6"/>
	</g>
	<g transform="translate(528,924) scale(3.7766666666667)">
		<rect x="-11.7" y="-11.7" width="6" height="6"/>
	</g>
	<g transform="translate(660,924) scale(3.7766666666667)">
		<rect x="-11.7" y="-11.7" width="6" height="6"/>
	</g>
	<g transform="translate(682,924) scale(3.7766666666667)">
		<rect x="-11.7" y="-11.7" width="6" height="6"/>
	</g>
	<g transform="translate(726,924) scale(3.7766666666667)">
		<rect x="-11.7" y="-11.7" width="6" height="6"/>
	</g>
	<g transform="translate(792,924) scale(3.7766666666667)">
		<rect x="-11.7" y="-11.7" width="6" height="6"/>
	</g>
	<g transform="translate(814,924) scale(3.7766666666667)">
		<rect x="-11.7" y="-11.7" width="6" height="6"/>
	</g>
	<g transform="translate(836,924) scale(3.7766666666667)">
		<rect x="-11.7" y="-11.7" width="6" height="6"/>
	</g>
	<g transform="translate(858,924) scale(3.7766666666667)">
		<rect x="-11.7" y="-11.7" width="6" height="6"/>
	</g>
	<g transform="translate(44,44)">
		<g transform="scale(11)">
			<path d="M-4-4v14h14V-4H-4z M8,8H-2V-2H8V8z"/>
		</g>
	</g>
	<g transform="translate(792,44)">
		<g transform="scale(11)">
			<path d="M-4-4v14h14V-4H-4z M8,8H-2V-2H8V8z"/>
		</g>
	</g>
	<g transform="translate(44,792)">
		<g transform="scale(11)">
			<path d="M-4-4v14h14V-4H-4z M8,8H-2V-2H8V8z"/>
		</g>
	</g>
	<g transform="translate(88,88)">
		<g transform="scale(11)">
			<rect x="-4" y="-4" width="6" height="6"/>
		</g>
	</g>
	<g transform="translate(836,88)">
		<g transform="scale(11)">
			<rect x="-4" y="-4" width="6" height="6"/>
		</g>
	</g>
	<g transform="translate(88,836)">
		<g transform="scale(11)">
			<rect x="-4" y="-4" width="6" height="6"/>
		</g>
	</g>
</g>
</svg>
