<?xml version="1.0" encoding="iso-8859-1"?>
<!-- Generator: Adobe Illustrator 25.0.1, SVG Export Plug-In . SVG Version: 6.00 Build 0)  -->
<svg version="1.1" xmlns="http://www.w3.org/2000/svg" xmlns:xlink="http://www.w3.org/1999/xlink" x="0px" y="0px"
	 viewBox="0 0 511.431 511.431" style="enable-background:new 0 0 511.431 511.431;" xml:space="preserve">
<g id="bg" style="display:none;">
	<rect x="-5917.818" y="-2725.462" style="display:inline;fill:#C2B59B;" width="9859.854" height="4091.034"/>
</g>
<g id="Layer_1">
	<g>
		<circle style="fill:#FFFFFF;" cx="255.716" cy="255.716" r="255.716"/>
		<g>
			<g>
				<g>
					<path d="M374.399,166.325c-24.39,0-44.038,8.002-57.251,24.355v-62.249l-50.474,59.134v308.581l52.846-59.136V336.463
						c13.551,15.308,32.182,22.615,54.879,22.615c51.151,0,90.787-37.576,90.787-96.378
						C465.185,203.901,425.55,166.325,374.399,166.325z M365.252,314.543c-26.423,0-46.41-19.485-46.41-51.842
						s19.986-51.841,46.41-51.841c26.423,0,46.41,19.484,46.41,51.841S391.675,314.543,365.252,314.543z"/>
				</g>
			</g>
			<g>
				<g>
					<path d="M191.912,84.913V188.94c-13.211-15.309-32.182-22.615-54.54-22.615c-8.472,0-16.614,1.037-24.321,2.999
						c-23.251,5.919-42.452,20.424-54.208,41.536c-8.029,14.419-12.597,31.905-12.597,51.841c0,58.801,39.634,96.378,91.126,96.378
						c24.39,0,43.699-8.003,56.91-24.356v49.104l50.476-59.216V25.698L191.912,84.913z M146.518,314.544
						c-26.424,0-46.749-19.485-46.749-51.842s20.325-51.841,46.749-51.841c26.083,0,46.41,19.484,46.41,51.841
						S172.602,314.544,146.518,314.544z"/>
				</g>
			</g>
		</g>
	</g>
</g>
</svg>
