<?xml version="1.0" encoding="iso-8859-1"?>
<!-- Generator: Adobe Illustrator 25.0.1, SVG Export Plug-In . SVG Version: 6.00 Build 0)  -->
<svg version="1.1" xmlns="http://www.w3.org/2000/svg" xmlns:xlink="http://www.w3.org/1999/xlink" x="0px" y="0px"
	 viewBox="0 0 3179.439 787.404" style="enable-background:new 0 0 3179.439 787.404;" xml:space="preserve">
<g id="bg" style="display:none;">
	<rect x="-223.74" y="-1489.606" style="display:inline;fill:#C2B59B;" width="9859.854" height="4091.034"/>
</g>
<g id="Layer_1">
	<g>
		<g>
			
				<radialGradient id="SVGID_1_" cx="206.9717" cy="122.4638" r="457.6876" fx="-12.0989" fy="-142.3879" gradientTransform="matrix(0.9269 -0.3752 0.3268 0.8074 -24.9027 101.2462)" gradientUnits="userSpaceOnUse">
				<stop  offset="0" style="stop-color:#ADADAD"/>
				<stop  offset="0.6625" style="stop-color:#2B2B2B"/>
			</radialGradient>
			<circle style="fill:url(#SVGID_1_);" cx="255.716" cy="255.716" r="255.716"/>
			<g>
				<g>
					<g>
						<path style="fill:#FFFFFF;" d="M374.399,166.325c-24.39,0-44.038,8.002-57.251,24.355v-62.249l-50.474,59.134v308.581
							l52.846-59.136V336.463c13.551,15.308,32.182,22.615,54.879,22.615c51.151,0,90.787-37.576,90.787-96.378
							C465.185,203.901,425.55,166.325,374.399,166.325z M365.252,314.543c-26.423,0-46.41-19.485-46.41-51.842
							s19.986-51.841,46.41-51.841c26.423,0,46.41,19.484,46.41,51.841S391.675,314.543,365.252,314.543z"/>
					</g>
				</g>
				<g>
					<g>
						<path style="fill:#FFFFFF;" d="M191.912,84.913V188.94c-13.211-15.309-32.182-22.615-54.54-22.615
							c-8.472,0-16.614,1.037-24.321,2.999c-23.251,5.919-42.452,20.424-54.208,41.536c-8.029,14.419-12.597,31.905-12.597,51.841
							c0,58.801,39.634,96.378,91.126,96.378c24.39,0,43.699-8.003,56.91-24.356v49.104l50.476-59.216V25.698L191.912,84.913z
							 M146.518,314.544c-26.424,0-46.749-19.485-46.749-51.842s20.325-51.841,46.749-51.841c26.083,0,46.41,19.484,46.41,51.841
							S172.602,314.544,146.518,314.544z"/>
					</g>
				</g>
			</g>
		</g>
		<g>
			<path d="M2369.073,445.445c17.923,0,34.76,4.481,50.53,13.442c15.77,8.962,28.087,21.124,36.933,36.486
				c8.845,15.363,13.268,31.947,13.268,49.754c0,17.923-4.461,34.682-13.365,50.278c-8.903,15.595-21.027,27.796-36.389,36.564
				c-15.363,8.787-32.296,13.19-50.802,13.19c-27.234,0-50.491-9.699-69.753-29.057c-19.261-19.397-28.883-42.926-28.883-70.626
				c0-29.678,10.882-54.41,32.646-74.195C2322.345,454.058,2344.283,445.445,2369.073,445.445z M2369.849,490.311
				c-14.8,0-27.137,5.14-36.971,15.46c-9.854,10.281-14.781,23.471-14.781,39.532c0,16.527,4.869,29.911,14.606,40.153
				c9.718,10.242,22.055,15.363,36.971,15.363s27.35-5.179,37.243-15.537c9.912-10.358,14.878-23.684,14.878-39.978
				s-4.869-29.523-14.606-39.726C2397.451,495.413,2385.018,490.311,2369.849,490.311z"/>
			<path d="M2507.337,450.333h47.659v196.224c0,18.039-1.784,31.501-5.334,40.424c-3.55,8.884-9.156,15.731-16.837,20.503
				c-7.681,4.772-16.934,7.158-27.758,7.158c-8.556,0-74.078,0-74.078,0l38.465-44.691c7.449,3.608,14.024,5.412,19.727,5.412
				c6.052,0,10.591-1.804,13.617-5.412c3.026-3.608,4.539-10.242,4.539-19.902V450.333z M2531.08,372.123
				c8.496,0,15.731,3.026,21.725,9.059c5.994,6.033,9,13.345,9,21.938c0,8.457-2.968,15.712-8.903,21.744
				s-13.035,9.059-21.298,9.059c-8.496,0-15.751-3.065-21.744-9.233c-5.994-6.149-8.981-13.578-8.981-22.268
				c0-8.36,2.929-15.498,8.806-21.415S2522.7,372.123,2531.08,372.123z"/>
			<g>
				<g>
					<path d="M2037.535,448.337c-25.113-0.119-45.381,8.025-59.066,24.797l0.303-64.093l-52.258,60.64l-1.504,317.723l54.7-60.63
						l0.49-103.525c13.878,15.828,33.026,23.442,56.395,23.553c52.667,0.249,93.659-38.247,93.946-98.79
						C2130.828,487.469,2090.202,448.586,2037.535,448.337z M2027.395,600.902c-27.206-0.129-47.689-20.289-47.532-53.604
						c0.158-33.316,20.831-53.279,48.037-53.151c27.205,0.129,47.69,20.287,47.532,53.603
						C2075.275,581.066,2054.6,601.031,2027.395,600.902z"/>
				</g>
			</g>
			<g>
				<path d="M2777.9,559.095l0.175-9.079c0-31.423-9.369-56.698-28.107-75.863c-7.546-7.7-16.042-13.778-25.4-18.382
					c-13.88-6.831-29.708-10.326-47.573-10.326c-28.165,0-51.597,9.583-70.276,28.708c-18.68,19.165-28.01,43.218-28.01,72.196
					c0,28.282,9.369,51.83,28.107,70.607c18.738,18.816,43.004,28.203,72.798,28.203c19.203,0,35.788-3.413,49.754-10.202
					c8.842-4.323,16.797-10.288,24.053-17.558l-28.243-32.816c-12.802,12.452-28.107,18.679-45.913,18.679
					c-14.897,0-27.156-3.978-36.758-11.949c-9.602-7.973-15.498-18.72-17.71-32.219h100.261H2777.9z M2626.892,521.562
					c5.354-11.757,11.192-19.962,17.477-24.615c10.028-7.449,21.687-11.173,34.974-11.173c12.24,0,23.005,3.315,32.277,9.95
					c5.539,3.97,9.849,8.739,13.205,14.128c2.251,3.613,4.147,7.458,5.417,11.711h-5.362H2626.892z"/>
			</g>
			<g>
				<path d="M2244.782,445.445c-8.729,0-16.759,2.444-24.092,7.332c-7.332,4.89-13.209,12.047-17.632,21.473v-23.916h-48.088
					l0.009,189.939h54.538v-76.814l-0.175-9.253c0-26.535,2.521-44.341,7.584-53.419c5.062-9.079,11.27-13.617,18.602-13.617
					c3.608,0,8.205,1.396,13.792,4.189l26.868-31.219C2269.44,456.881,2259.132,445.445,2244.782,445.445z"/>
			</g>
		</g>
		<g>
			<path d="M1523.778,156.003c17.923,0,34.76,4.481,50.53,13.442c15.77,8.962,28.087,21.124,36.932,36.486
				s13.268,31.947,13.268,49.754c0,17.923-4.461,34.682-13.365,50.278c-8.903,15.595-21.027,27.796-36.389,36.564
				c-15.363,8.787-32.297,13.19-50.802,13.19c-27.234,0-50.491-9.699-69.753-29.057c-19.262-19.397-28.883-42.926-28.883-70.626
				c0-29.678,10.882-54.41,32.646-74.195C1477.05,164.616,1498.989,156.003,1523.778,156.003z M1524.554,200.869
				c-14.8,0-27.137,5.14-36.971,15.46c-9.854,10.281-14.781,23.471-14.781,39.532c0,16.527,4.869,29.911,14.606,40.152
				c9.718,10.242,22.055,15.363,36.971,15.363c14.917,0,27.35-5.179,37.243-15.537c9.912-10.358,14.878-23.684,14.878-39.978
				s-4.869-29.523-14.606-39.726C1552.157,205.971,1539.723,200.869,1524.554,200.869z"/>
			<path d="M2137.655,160.891h47.659V350.83h-47.659v-20.076c-9.311,8.845-18.641,15.227-27.99,19.106
				c-9.369,3.899-19.494,5.858-30.435,5.858c-24.518,0-45.739-9.505-63.643-28.553c-17.904-19.009-26.846-42.674-26.846-70.955
				c0-29.329,8.651-53.362,25.973-72.1s38.368-28.107,63.119-28.107c11.406,0,22.094,2.153,32.083,6.459
				c10.009,4.306,19.242,10.766,27.738,19.378V160.891z M2087.552,199.996c-14.742,0-26.962,5.218-36.719,15.634
				c-9.737,10.416-14.606,23.762-14.606,40.056c0,16.41,4.946,29.911,14.878,40.502c9.912,10.591,22.113,15.886,36.622,15.886
				c14.955,0,27.37-5.198,37.223-15.634c9.873-10.397,14.8-24.053,14.8-40.928c0-16.527-4.927-29.911-14.8-40.152
				C2115.096,205.117,2102.624,199.996,2087.552,199.996z"/>
			<g>
				<path d="M1052.766,269.653l0.175-9.079c0-31.423-9.369-56.698-28.107-75.863c-7.546-7.7-16.042-13.778-25.4-18.382
					c-13.88-6.831-29.707-10.326-47.573-10.326c-28.165,0-51.597,9.583-70.276,28.708c-18.68,19.165-28.01,43.218-28.01,72.196
					c0,28.282,9.369,51.83,28.107,70.607c18.738,18.816,43.004,28.203,72.798,28.203c19.203,0,35.788-3.413,49.754-10.202
					c8.841-4.323,16.797-10.288,24.053-17.558l-28.243-32.816c-12.802,12.452-28.107,18.679-45.913,18.679
					c-14.897,0-27.156-3.978-36.758-11.949c-9.602-7.973-15.498-18.72-17.71-32.219h100.261H1052.766z M901.758,232.119
					c5.354-11.757,11.192-19.962,17.477-24.615c10.028-7.449,21.687-11.173,34.974-11.173c12.239,0,23.005,3.315,32.277,9.95
					c5.539,3.97,9.849,8.739,13.205,14.128c2.251,3.613,4.147,7.458,5.417,11.711h-5.361H901.758z"/>
			</g>
			<g>
				<g>
					<path d="M1189.269,158.895c-25.113-0.119-45.381,8.025-59.066,24.797l0.303-64.093l-52.258,60.64l-1.504,317.723l54.7-60.63
						l0.49-103.525c13.878,15.828,33.025,23.442,56.395,23.553c52.667,0.249,93.659-38.247,93.946-98.79
						C1282.562,198.027,1241.936,159.144,1189.269,158.895z M1179.128,311.46c-27.206-0.129-47.69-20.289-47.532-53.604
						c0.158-33.316,20.831-53.279,48.037-53.151c27.205,0.129,47.69,20.287,47.532,53.603S1206.334,311.589,1179.128,311.46z"/>
				</g>
			</g>
			<g>
				<path d="M3037.637,269.653l0.175-9.079c0-31.423-9.369-56.698-28.107-75.863c-7.546-7.7-16.042-13.778-25.4-18.382
					c-13.88-6.831-29.707-10.326-47.573-10.326c-28.165,0-51.597,9.583-70.276,28.708c-18.68,19.165-28.01,43.218-28.01,72.196
					c0,28.282,9.369,51.83,28.107,70.607c18.738,18.816,43.004,28.203,72.798,28.203c19.203,0,35.788-3.413,49.755-10.202
					c8.841-4.323,16.797-10.288,24.053-17.558l-28.243-32.816c-12.802,12.452-28.107,18.679-45.914,18.679
					c-14.897,0-27.156-3.978-36.758-11.949c-9.602-7.973-15.498-18.72-17.71-32.219h100.261H3037.637z M2886.629,232.119
					c5.354-11.757,11.192-19.962,17.477-24.615c10.028-7.449,21.687-11.173,34.974-11.173c12.239,0,23.005,3.315,32.277,9.95
					c5.539,3.97,9.849,8.739,13.205,14.128c2.251,3.613,4.147,7.458,5.417,11.711h-5.362H2886.629z"/>
			</g>
			<g>
				<path d="M1797.051,160.89v20.95c-9.776-9.194-19.533-15.79-29.251-19.825c-9.718-3.995-20.037-6.013-30.977-6.013
					c-23.393,0-43.528,8.263-60.403,24.79c-18.622,18.272-27.932,42.48-27.932,72.623c0,28.167,8.787,51.442,26.361,69.831
					s39.105,27.583,64.593,27.583c11.639,0,22.055-1.824,31.249-5.508c9.195-3.648,17.981-9.679,26.361-18.059
					c0,15.362-1.61,26.186-4.81,32.471c-3.201,6.283-8.69,11.405-16.488,15.362c-7.798,3.957-18.098,5.936-30.9,5.936
					c-10.009,0-18.68-1.376-26.012-4.093c-7.332-2.755-13.326-6.788-17.981-12.142l-30.458,35.389
					c8.223,7.752,17.968,13.832,29.41,18.03c12.686,4.657,28.339,6.984,46.961,6.984c34.915,0,61.044-10.242,78.385-30.726
					c12.919-15.13,19.378-38.756,19.378-70.878V160.89H1797.051z M1785.082,292.87c-9.602,9.893-21.783,14.84-36.564,14.84
					c-15.13,0-27.7-5.062-37.708-15.189c-10.009-10.125-15.013-23.102-15.013-38.929c0-15.247,4.888-27.894,14.664-37.961
					c9.776-10.067,22.171-15.11,37.185-15.11c15.246,0,27.699,4.947,37.359,14.838c9.66,9.894,14.49,22.753,14.49,38.583
					C1799.495,270.002,1794.684,282.978,1785.082,292.87z"/>
			</g>
			<g>
				<path d="M2807.912,190.046c-4.481-10.127-11.852-18.332-22.093-24.615c-10.262-6.285-22.133-9.428-35.653-9.428
					c-13.035,0-25.062,2.91-36.079,8.729c-10.998,5.819-20.29,14.316-27.855,25.489c-5.82-11.173-13.52-19.67-23.063-25.489
					c-9.543-5.819-20.271-8.729-32.142-8.729c-11.775,0-22.618,2.212-32.587,6.635c-9.952,4.423-19.01,11.113-27.157,20.077v-21.823
					h-47.659V350.83h47.659v-84.494c0-18.272,1.591-31.657,4.811-40.154c3.2-8.495,8.05-15.089,14.529-19.823
					c6.458-4.694,13.675-7.061,21.608-7.061c7.119,0,13.171,1.862,18.195,5.587s8.768,9.409,11.29,17.032
					c2.501,7.621,3.763,19.919,3.763,36.913v92.001h48.008v-85.717c0-18.155,1.571-31.327,4.714-39.551
					c3.142-8.186,7.932-14.625,14.392-19.28c6.459-4.655,13.772-6.984,21.919-6.984c10.708,0,18.738,3.822,24.092,11.446
					c5.353,7.621,8.03,22.191,8.03,43.721v96.366h48.008V239.451C2814.643,216.638,2812.393,200.171,2807.912,190.046z"/>
			</g>
			<g>
				<path d="M2493.405,190.046c-4.481-10.127-11.852-18.332-22.093-24.615c-10.262-6.285-22.133-9.428-35.653-9.428
					c-13.035,0-25.062,2.91-36.079,8.729c-10.999,5.819-20.29,14.316-27.855,25.489c-5.82-11.173-13.52-19.67-23.063-25.489
					c-9.543-5.819-20.271-8.729-32.142-8.729c-11.775,0-22.618,2.212-32.587,6.635c-9.952,4.423-19.01,11.113-27.157,20.077v-21.823
					h-47.659V350.83h47.659v-84.494c0-18.272,1.591-31.657,4.811-40.154c3.2-8.495,8.05-15.089,14.529-19.823
					c6.458-4.694,13.675-7.061,21.608-7.061c7.119,0,13.171,1.862,18.195,5.587s8.768,9.409,11.29,17.032
					c2.501,7.621,3.763,19.919,3.763,36.913v92.001h48.009v-85.717c0-18.155,1.571-31.327,4.714-39.551
					c3.142-8.186,7.933-14.625,14.393-19.28c6.459-4.655,13.772-6.984,21.919-6.984c10.707,0,18.738,3.822,24.092,11.446
					c5.353,7.621,8.03,22.191,8.03,43.721v96.366h48.008V239.451C2500.135,216.638,2497.885,200.171,2493.405,190.046z"/>
			</g>
			<g>
				<path d="M1402.098,156.003c-8.729,0-16.759,2.444-24.092,7.332c-7.332,4.89-13.209,12.047-17.632,21.473v-23.916h-48.088
					l0.009,189.939h54.538v-76.814l-0.175-9.253c0-26.535,2.522-44.341,7.584-53.419c5.062-9.079,11.269-13.617,18.602-13.617
					c3.608,0,8.205,1.396,13.792,4.189l26.868-31.219C1426.756,167.439,1416.448,156.003,1402.098,156.003z"/>
			</g>
			<g>
				<path d="M1961.646,156.003c-8.729,0-16.759,2.444-24.092,7.332c-7.332,4.89-13.209,12.047-17.632,21.473v-23.916h-48.088
					l0.009,189.939h54.538v-76.814l-0.175-9.253c0-26.535,2.522-44.341,7.584-53.419c5.062-9.079,11.27-13.617,18.602-13.617
					c3.608,0,8.205,1.396,13.792,4.189l26.868-31.219C1986.304,167.439,1975.996,156.003,1961.646,156.003z"/>
			</g>
			<g>
				<g>
					<g>
						<path d="M775.072,74.182l-0.507,107.109c-13.528-15.827-33.025-23.441-56.045-23.55c-8.723-0.041-17.112,0.987-25.056,2.969
							c-23.969,5.981-43.809,20.822-56.017,42.502c-8.337,14.807-13.125,32.789-13.222,53.315
							c-0.287,60.543,40.338,99.426,93.356,99.677c25.112,0.119,45.032-8.027,58.715-24.8l-0.239,50.559l52.26-60.724l1.457-307.769
							L775.072,74.182z M727.214,310.394c-27.207-0.129-48.039-20.29-47.881-53.606s21.18-53.278,48.387-53.149
							c26.856,0.127,47.69,20.287,47.532,53.603S754.07,310.521,727.214,310.394z"/>
					</g>
				</g>
			</g>
		</g>
		<path d="M3148.031,156.003c-8.729,0-16.759,2.444-24.092,7.332c-7.332,4.89-13.209,12.047-17.632,21.473v-23.916h-48.088
			l0.009,189.938h-0.001v22.349v77.155h-66.429l-35.306,41.025h101.735v148.914h54.54V510.301v-18.942h-25.041h-10.265
			l35.306-41.025v-80.561V350.83v-76.813l-0.175-9.253c0-26.535,2.521-44.341,7.584-53.419c5.062-9.078,11.27-13.617,18.602-13.617
			c3.608,0,8.205,1.396,13.792,4.189l26.868-31.219C3172.689,167.439,3162.381,156.003,3148.031,156.003z"/>
		<g>
			<path d="M2957.367,579.694c-11.871,14.548-28.475,21.822-49.813,21.822c-17.243,0-31.171-5.12-41.762-15.343
				c-10.611-10.223-15.905-23.414-15.905-39.57c0-16.604,5.509-30.242,16.507-40.87c11.018-10.632,25.43-15.946,43.256-15.946
				c5.594,0,10.762,0.511,15.533,1.497l31.286-36.353c-14.069-6.308-29.749-9.487-47.052-9.487
				c-20.367,0-38.795,4.423-55.262,13.268c-16.469,8.846-29.29,21.008-38.485,36.487c-9.195,15.479-13.792,32.413-13.792,50.803
				c0,26.535,9.446,49.695,28.359,69.48c18.913,19.785,45.079,29.678,78.482,29.678c32.66,0,58.823-10.275,78.512-30.766
				L2957.367,579.694z"/>
		</g>
	</g>
</g>
</svg>
