<?xml version="1.0" encoding="iso-8859-1"?>
<!-- Generator: Adobe Illustrator 25.0.1, SVG Export Plug-In . SVG Version: 6.00 Build 0)  -->
<svg version="1.1" id="Layer_1" xmlns="http://www.w3.org/2000/svg" xmlns:xlink="http://www.w3.org/1999/xlink" x="0px" y="0px"
	 viewBox="0 0 298.37 73.893" style="enable-background:new 0 0 298.37 73.893;" xml:space="preserve">
<g>
	<g>
		<path style="fill:#FFFFFF;" d="M34.276,19.788c-2.479,0-4.355,1.828-4.355,4.865c0,3.036,1.875,4.865,4.355,4.865
			s4.355-1.829,4.355-4.865C38.632,21.616,36.756,19.788,34.276,19.788z"/>
		<path style="fill:#FFFFFF;" d="M13.75,19.788c-2.48,0-4.387,1.829-4.387,4.865s1.907,4.865,4.387,4.865
			c2.447,0,4.355-1.829,4.355-4.865S16.197,19.788,13.75,19.788z"/>
		<path style="fill:#FFFFFF;" d="M23.997,0C10.744,0,0,10.744,0,23.997s10.744,23.997,23.997,23.997
			c13.253,0,23.998-10.744,23.998-23.997S37.25,0,23.997,0z M22.969,30.463l-4.737,5.557v-4.608c-1.24,1.535-3.052,2.286-5.34,2.286
			c-4.833,0-8.552-3.526-8.552-9.044c0-1.871,0.429-3.512,1.182-4.865c1.103-1.981,2.905-3.342,5.087-3.898
			c0.724-0.184,1.487-0.281,2.283-0.281c2.098,0,3.878,0.686,5.118,2.122V7.969l4.959-5.557V30.463z M35.135,33.697
			c-2.13,0-3.878-0.686-5.15-2.122v9.436l-4.959,5.55V17.602l4.737-5.549v5.842c1.24-1.535,3.084-2.285,5.373-2.285
			c4.8,0,8.52,3.526,8.52,9.044S39.935,33.697,35.135,33.697z"/>
	</g>
	<g>
		<g>
			<path style="fill:#FFFFFF;" d="M222.322,41.802c1.682,0,3.262,0.42,4.742,1.261c1.48,0.841,2.636,1.982,3.466,3.424
				c0.83,1.442,1.245,2.998,1.245,4.669c0,1.682-0.419,3.255-1.254,4.718s-1.973,2.609-3.415,3.431
				c-1.442,0.825-3.031,1.238-4.767,1.238c-2.556,0-4.738-0.91-6.546-2.727c-1.808-1.82-2.71-4.028-2.71-6.628
				c0-2.785,1.021-5.106,3.064-6.963C217.937,42.61,219.996,41.802,222.322,41.802z M222.395,46.013
				c-1.389,0-2.547,0.482-3.47,1.451c-0.925,0.965-1.387,2.203-1.387,3.71c0,1.551,0.457,2.807,1.371,3.768
				c0.912,0.961,2.07,1.442,3.47,1.442s2.567-0.486,3.495-1.458c0.93-0.972,1.396-2.223,1.396-3.752
				c0-1.529-0.457-2.771-1.371-3.728C224.985,46.491,223.819,46.013,222.395,46.013z"/>
			<path style="fill:#FFFFFF;" d="M235.298,42.261h4.473v18.414c0,1.693-0.167,2.956-0.501,3.794
				c-0.333,0.834-0.859,1.476-1.58,1.924c-0.721,0.448-1.589,0.672-2.605,0.672c-0.803,0-6.952,0-6.952,0l3.61-4.194
				c0.699,0.339,1.316,0.508,1.851,0.508c0.568,0,0.994-0.169,1.278-0.508c0.284-0.339,0.426-0.961,0.426-1.868V42.261z
				 M237.526,34.921c0.797,0,1.476,0.284,2.039,0.85c0.562,0.566,0.845,1.252,0.845,2.059c0,0.794-0.279,1.474-0.836,2.041
				c-0.557,0.566-1.223,0.85-1.999,0.85c-0.797,0-1.478-0.288-2.041-0.866c-0.562-0.577-0.843-1.274-0.843-2.09
				c0-0.785,0.275-1.454,0.826-2.01C236.069,35.2,236.739,34.921,237.526,34.921z"/>
			<g>
				<g>
					<path style="fill:#FFFFFF;" d="M191.21,42.074c-2.357-0.011-4.259,0.753-5.543,2.327l0.028-6.015l-4.904,5.691l-0.141,29.816
						l5.133-5.69l0.046-9.715c1.302,1.485,3.099,2.2,5.292,2.21c4.942,0.023,8.789-3.589,8.816-9.271
						C199.965,45.746,196.152,42.097,191.21,42.074z M190.258,56.391c-2.553-0.012-4.475-1.904-4.461-5.03s1.955-5,4.508-4.988
						c2.553,0.012,4.475,1.904,4.461,5.03C194.751,54.529,192.811,56.403,190.258,56.391z"/>
				</g>
			</g>
			<g>
				<path style="fill:#FFFFFF;" d="M260.688,52.467l0.016-0.852c0-2.949-0.879-5.321-2.638-7.119
					c-0.708-0.723-1.505-1.293-2.384-1.725c-1.303-0.641-2.788-0.969-4.464-0.969c-2.643,0-4.842,0.899-6.595,2.694
					c-1.753,1.799-2.629,4.056-2.629,6.775c0,2.654,0.879,4.864,2.638,6.626c1.758,1.766,4.036,2.647,6.832,2.647
					c1.802,0,3.359-0.32,4.669-0.957c0.83-0.406,1.576-0.965,2.257-1.648l-2.65-3.08c-1.201,1.168-2.638,1.753-4.309,1.753
					c-1.398,0-2.548-0.373-3.45-1.121c-0.901-0.748-1.454-1.757-1.662-3.024h9.409H260.688z M246.517,48.945
					c0.502-1.103,1.05-1.873,1.64-2.31c0.941-0.699,2.035-1.049,3.282-1.049c1.149,0,2.159,0.311,3.029,0.934
					c0.52,0.373,0.924,0.82,1.239,1.326c0.211,0.339,0.389,0.7,0.508,1.099h-0.503H246.517z"/>
			</g>
			<g>
				<path style="fill:#FFFFFF;" d="M210.658,41.802c-0.819,0-1.573,0.229-2.261,0.688c-0.688,0.459-1.24,1.13-1.655,2.015v-2.244
					h-4.513l0.001,17.825h5.118v-7.208l-0.016-0.868c0-2.49,0.237-4.161,0.712-5.013c0.475-0.852,1.058-1.278,1.746-1.278
					c0.339,0,0.77,0.131,1.294,0.393l2.521-2.93C212.972,42.875,212.005,41.802,210.658,41.802z"/>
			</g>
		</g>
		<g>
			<path style="fill:#FFFFFF;" d="M142.997,14.64c1.682,0,3.262,0.42,4.742,1.261s2.636,1.982,3.466,3.424
				c0.83,1.442,1.245,2.998,1.245,4.669c0,1.682-0.419,3.255-1.254,4.718c-0.836,1.464-1.973,2.609-3.415,3.431
				c-1.442,0.825-3.031,1.238-4.767,1.238c-2.556,0-4.738-0.91-6.546-2.727c-1.808-1.82-2.71-4.028-2.71-6.628
				c0-2.785,1.021-5.106,3.064-6.963C138.612,15.448,140.67,14.64,142.997,14.64z M143.07,18.85c-1.389,0-2.547,0.482-3.47,1.451
				c-0.925,0.965-1.387,2.203-1.387,3.71c0,1.551,0.457,2.807,1.371,3.768c0.912,0.961,2.07,1.442,3.47,1.442
				s2.567-0.486,3.495-1.458c0.93-0.972,1.396-2.223,1.396-3.752s-0.457-2.771-1.371-3.728
				C145.66,19.329,144.493,18.85,143.07,18.85z"/>
			<path style="fill:#FFFFFF;" d="M200.605,15.099h4.473v17.825h-4.473v-1.884c-0.874,0.83-1.749,1.429-2.627,1.793
				c-0.879,0.366-1.829,0.55-2.856,0.55c-2.301,0-4.292-0.892-5.972-2.68c-1.68-1.784-2.519-4.005-2.519-6.659
				c0-2.752,0.812-5.008,2.437-6.766c1.626-1.758,3.601-2.638,5.923-2.638c1.07,0,2.073,0.202,3.011,0.606
				c0.939,0.404,1.806,1.01,2.603,1.818V15.099z M195.903,18.768c-1.383,0-2.53,0.49-3.446,1.467
				c-0.914,0.978-1.371,2.23-1.371,3.759c0,1.54,0.464,2.807,1.396,3.801c0.93,0.994,2.075,1.491,3.437,1.491
				c1.403,0,2.568-0.488,3.493-1.467c0.927-0.976,1.389-2.257,1.389-3.841c0-1.551-0.462-2.807-1.389-3.768
				C198.488,19.249,197.318,18.768,195.903,18.768z"/>
			<g>
				<path style="fill:#FFFFFF;" d="M98.795,25.305l0.016-0.852c0-2.949-0.879-5.321-2.638-7.119
					c-0.708-0.723-1.505-1.293-2.384-1.725c-1.303-0.641-2.788-0.969-4.464-0.969c-2.643,0-4.842,0.899-6.595,2.694
					c-1.753,1.799-2.629,4.056-2.629,6.775c0,2.654,0.879,4.864,2.638,6.626c1.758,1.766,4.036,2.647,6.832,2.647
					c1.802,0,3.358-0.32,4.669-0.957c0.83-0.406,1.576-0.965,2.257-1.648l-2.65-3.08c-1.201,1.169-2.638,1.753-4.309,1.753
					c-1.398,0-2.548-0.373-3.45-1.121c-0.901-0.748-1.454-1.757-1.662-3.024h9.409H98.795z M84.624,21.783
					c0.502-1.103,1.05-1.873,1.64-2.31c0.941-0.699,2.035-1.049,3.282-1.049c1.149,0,2.159,0.311,3.029,0.934
					c0.52,0.373,0.924,0.82,1.239,1.326c0.211,0.339,0.389,0.7,0.508,1.099H93.82H84.624z"/>
			</g>
			<g>
				<g>
					<path style="fill:#FFFFFF;" d="M111.605,14.911c-2.357-0.011-4.259,0.753-5.543,2.327l0.028-6.015l-4.904,5.691l-0.141,29.816
						l5.133-5.69l0.046-9.715c1.302,1.485,3.099,2.2,5.292,2.21c4.942,0.023,8.789-3.589,8.816-9.271
						C120.36,18.584,116.548,14.935,111.605,14.911z M110.654,29.229c-2.553-0.012-4.475-1.904-4.461-5.03s1.955-5,4.508-4.988
						c2.553,0.012,4.475,1.904,4.461,5.03C115.147,27.367,113.207,29.241,110.654,29.229z"/>
				</g>
			</g>
			<g>
				<path style="fill:#FFFFFF;" d="M285.063,25.305l0.016-0.852c0-2.949-0.879-5.321-2.638-7.119
					c-0.708-0.723-1.505-1.293-2.384-1.725c-1.303-0.641-2.788-0.969-4.464-0.969c-2.643,0-4.842,0.899-6.595,2.694
					c-1.753,1.799-2.629,4.056-2.629,6.775c0,2.654,0.879,4.864,2.638,6.626c1.758,1.766,4.036,2.647,6.832,2.647
					c1.802,0,3.358-0.32,4.669-0.957c0.83-0.406,1.576-0.965,2.257-1.648l-2.65-3.08c-1.201,1.169-2.638,1.753-4.309,1.753
					c-1.398,0-2.548-0.373-3.45-1.121c-0.901-0.748-1.454-1.757-1.662-3.024h9.409H285.063z M270.892,21.783
					c0.502-1.103,1.05-1.873,1.64-2.31c0.941-0.699,2.035-1.049,3.282-1.049c1.149,0,2.159,0.311,3.029,0.934
					c0.52,0.373,0.924,0.82,1.239,1.326c0.211,0.339,0.389,0.7,0.508,1.099h-0.503H270.892z"/>
			</g>
			<g>
				<path style="fill:#FFFFFF;" d="M168.642,15.099v1.966c-0.917-0.863-1.833-1.482-2.745-1.86c-0.912-0.375-1.88-0.564-2.907-0.564
					c-2.195,0-4.085,0.775-5.668,2.326c-1.748,1.715-2.621,3.987-2.621,6.815c0,2.643,0.825,4.827,2.474,6.553
					s3.67,2.589,6.062,2.589c1.092,0,2.07-0.171,2.933-0.517c0.863-0.342,1.687-0.908,2.474-1.695c0,1.442-0.151,2.457-0.451,3.047
					c-0.3,0.59-0.816,1.07-1.547,1.442s-1.698,0.557-2.9,0.557c-0.939,0-1.753-0.129-2.441-0.384
					c-0.688-0.259-1.251-0.637-1.687-1.139l-2.858,3.321c0.772,0.727,1.686,1.298,2.76,1.692c1.19,0.437,2.659,0.655,4.407,0.655
					c3.277,0,5.729-0.961,7.356-2.883c1.212-1.42,1.819-3.637,1.819-6.651V15.099H168.642z M167.519,27.484
					c-0.901,0.928-2.044,1.393-3.431,1.393c-1.42,0-2.599-0.475-3.539-1.425c-0.939-0.95-1.409-2.168-1.409-3.653
					c0-1.431,0.459-2.618,1.376-3.562c0.917-0.945,2.081-1.418,3.49-1.418c1.431,0,2.599,0.464,3.506,1.392
					c0.907,0.929,1.36,2.135,1.36,3.621C168.871,25.338,168.42,26.556,167.519,27.484z"/>
			</g>
			<g>
				<path style="fill:#FFFFFF;" d="M263.505,17.835c-0.42-0.95-1.112-1.72-2.073-2.31c-0.963-0.59-2.077-0.885-3.346-0.885
					c-1.223,0-2.352,0.273-3.386,0.819c-1.032,0.546-1.904,1.343-2.614,2.392c-0.546-1.049-1.269-1.846-2.164-2.392
					c-0.896-0.546-1.902-0.819-3.016-0.819c-1.105,0-2.123,0.208-3.058,0.623c-0.934,0.415-1.784,1.043-2.548,1.884v-2.048h-4.473
					v17.825h4.473v-7.929c0-1.715,0.149-2.971,0.451-3.768c0.3-0.797,0.755-1.416,1.363-1.86c0.606-0.44,1.283-0.663,2.028-0.663
					c0.668,0,1.236,0.175,1.707,0.524c0.471,0.35,0.823,0.883,1.059,1.598c0.235,0.715,0.353,1.869,0.353,3.464v8.634h4.505v-8.044
					c0-1.704,0.147-2.94,0.442-3.712c0.295-0.768,0.744-1.372,1.351-1.809c0.606-0.437,1.292-0.655,2.057-0.655
					c1.005,0,1.758,0.359,2.261,1.074c0.502,0.715,0.754,2.082,0.754,4.103v9.043h4.505V22.471
					C264.136,20.33,263.925,18.785,263.505,17.835z"/>
			</g>
			<g>
				<path style="fill:#FFFFFF;" d="M233.99,17.835c-0.42-0.95-1.112-1.72-2.073-2.31c-0.963-0.59-2.077-0.885-3.346-0.885
					c-1.223,0-2.352,0.273-3.386,0.819c-1.032,0.546-1.904,1.343-2.614,2.392c-0.546-1.049-1.269-1.846-2.164-2.392
					c-0.896-0.546-1.902-0.819-3.016-0.819c-1.105,0-2.123,0.208-3.058,0.623c-0.934,0.415-1.784,1.043-2.549,1.884v-2.048h-4.472
					v17.825h4.472v-7.929c0-1.715,0.149-2.971,0.451-3.768c0.3-0.797,0.755-1.416,1.363-1.86c0.606-0.44,1.283-0.663,2.028-0.663
					c0.668,0,1.236,0.175,1.707,0.524c0.471,0.35,0.823,0.883,1.06,1.598c0.235,0.715,0.353,1.869,0.353,3.464v8.634h4.505v-8.044
					c0-1.704,0.147-2.94,0.442-3.712c0.295-0.768,0.744-1.372,1.351-1.809c0.606-0.437,1.292-0.655,2.057-0.655
					c1.005,0,1.758,0.359,2.261,1.074c0.502,0.715,0.754,2.082,0.754,4.103v9.043h4.505V22.471
					C234.622,20.33,234.411,18.785,233.99,17.835z"/>
			</g>
			<g>
				<path style="fill:#FFFFFF;" d="M131.578,14.64c-0.819,0-1.573,0.229-2.261,0.688c-0.688,0.459-1.24,1.13-1.655,2.015v-2.244
					h-4.513l0.001,17.825h5.118v-7.208l-0.016-0.868c0-2.49,0.237-4.161,0.712-5.013c0.475-0.852,1.058-1.278,1.746-1.278
					c0.339,0,0.77,0.131,1.294,0.393l2.521-2.93C133.892,15.713,132.925,14.64,131.578,14.64z"/>
			</g>
			<g>
				<path style="fill:#FFFFFF;" d="M184.088,14.64c-0.819,0-1.573,0.229-2.261,0.688c-0.688,0.459-1.24,1.13-1.655,2.015v-2.244
					h-4.513l0.001,17.825h5.118v-7.208l-0.016-0.868c0-2.49,0.237-4.161,0.712-5.013c0.475-0.852,1.058-1.278,1.746-1.278
					c0.339,0,0.77,0.131,1.294,0.393l2.521-2.93C186.402,15.713,185.435,14.64,184.088,14.64z"/>
			</g>
			<g>
				<g>
					<g>
						<path style="fill:#FFFFFF;" d="M72.736,6.961l-0.048,10.051c-1.27-1.485-3.099-2.2-5.259-2.21
							c-0.819-0.004-1.606,0.093-2.351,0.279c-2.249,0.561-4.111,1.954-5.257,3.989c-0.782,1.39-1.232,3.077-1.241,5.003
							c-0.027,5.682,3.785,9.331,8.761,9.354c2.357,0.011,4.226-0.753,5.51-2.327l-0.022,4.745l4.904-5.699l0.137-28.882
							L72.736,6.961z M68.244,29.129c-2.553-0.012-4.508-1.904-4.493-5.031s1.988-5,4.541-4.988c2.52,0.012,4.475,1.904,4.461,5.03
							S70.765,29.14,68.244,29.129z"/>
					</g>
				</g>
			</g>
		</g>
		<path style="fill:#FFFFFF;" d="M295.423,14.64c-0.819,0-1.573,0.229-2.261,0.688c-0.688,0.459-1.24,1.13-1.655,2.015v-2.244
			h-4.513l0.001,17.825h0v2.097v7.24h-6.234l-3.313,3.85h9.547v13.975h5.118V47.888v-1.778h-2.35H288.8l3.313-3.85v-7.56v-1.778
			v-7.208l-0.016-0.868c0-2.49,0.237-4.161,0.712-5.013c0.475-0.852,1.058-1.278,1.746-1.278c0.339,0,0.77,0.131,1.294,0.393
			l2.521-2.93C297.737,15.713,296.769,14.64,295.423,14.64z"/>
		<g>
			<path style="fill:#FFFFFF;" d="M277.53,54.401c-1.114,1.365-2.672,2.048-4.675,2.048c-1.618,0-2.925-0.48-3.919-1.44
				c-0.996-0.959-1.493-2.197-1.493-3.713c0-1.558,0.517-2.838,1.549-3.835c1.034-0.998,2.386-1.496,4.059-1.496
				c0.525,0,1.01,0.048,1.458,0.141l2.936-3.412c-1.32-0.592-2.792-0.89-4.416-0.89c-1.911,0-3.641,0.415-5.186,1.245
				c-1.545,0.83-2.749,1.971-3.612,3.424c-0.863,1.453-1.294,3.042-1.294,4.768c0,2.49,0.886,4.664,2.661,6.52
				c1.775,1.857,4.23,2.785,7.365,2.785c3.065,0,5.52-0.964,7.368-2.887L277.53,54.401z"/>
		</g>
	</g>
</g>
</svg>
