<?xml version="1.0" encoding="iso-8859-1"?>
<!-- Generator: Adobe Illustrator 25.0.1, SVG Export Plug-In . SVG Version: 6.00 Build 0)  -->
<svg version="1.1" xmlns="http://www.w3.org/2000/svg" xmlns:xlink="http://www.w3.org/1999/xlink" x="0px" y="0px"
	 viewBox="0 0 1200 675" style="enable-background:new 0 0 1200 675;" xml:space="preserve">
<g id="bg" style="display:none;">
</g>
<g id="Layer_1">
</g>
<g id="Layer_3">
</g>
<g id="SM_CIRCLE">
</g>
<g id="dp-youtube-banner">
	<g>
		<linearGradient id="SVGID_1_" gradientUnits="userSpaceOnUse" x1="-472.4942" y1="-483.3443" x2="1954.4921" y2="1374.8191">
			<stop  offset="0" style="stop-color:#00AEEF"/>
			<stop  offset="0.0332" style="stop-color:#00A5DE"/>
			<stop  offset="0.1649" style="stop-color:#4187A3"/>
			<stop  offset="0.2714" style="stop-color:#556B76"/>
			<stop  offset="0.3475" style="stop-color:#4D5256"/>
			<stop  offset="0.3859" style="stop-color:#464648"/>
			<stop  offset="0.4538" style="stop-color:#635652"/>
			<stop  offset="0.5983" style="stop-color:#935F4E"/>
			<stop  offset="0.7275" style="stop-color:#B95840"/>
			<stop  offset="0.8364" style="stop-color:#D4442F"/>
			<stop  offset="0.9209" style="stop-color:#E52B26"/>
			<stop  offset="0.9707" style="stop-color:#ED1C24"/>
		</linearGradient>
		<rect x="0" style="fill:url(#SVGID_1_);" width="1197.194" height="673.422"/>
		<g>
			<g>
				<path d="M336.291,299.462c-5.721,0-10.048,4.218-10.048,11.224s4.327,11.225,10.048,11.225c5.721,0,10.048-4.219,10.048-11.225
					S342.012,299.462,336.291,299.462z"/>
				<path d="M717.287,300.436c-2.133-2.217-4.834-3.326-8.097-3.326c-3.192,0-5.838,1.13-7.95,3.385
					c-2.108,2.255-3.162,5.145-3.162,8.672c0,3.553,1.071,6.476,3.221,8.769c2.146,2.293,4.788,3.44,7.929,3.44
					c3.238,0,5.926-1.126,8.059-3.385c2.138-2.251,3.204-5.208,3.204-8.861C720.491,305.551,719.424,302.653,717.287,300.436z"/>
				<path d="M696.274,360.797c-5.89-0.028-10.366,4.295-10.401,11.508c-0.034,7.213,4.401,11.578,10.291,11.606
					c5.89,0.028,10.367-4.295,10.401-11.508C706.6,365.189,702.165,360.824,696.274,360.797z"/>
				<path d="M512.615,298.129c-5.89-0.028-10.367,4.294-10.401,11.508c-0.034,7.213,4.401,11.578,10.291,11.606
					c5.89,0.028,10.367-4.295,10.401-11.508C522.94,302.521,518.505,298.157,512.615,298.129z"/>
				<path d="M770.31,359.966c-3.204,0-5.875,1.113-8.005,3.347c-2.133,2.226-3.2,5.082-3.2,8.559c0,3.578,1.054,6.476,3.162,8.693
					c2.104,2.217,4.775,3.326,8.005,3.326c3.229,0,5.922-1.121,8.063-3.364c2.146-2.243,3.221-5.128,3.221-8.656
					c0-3.528-1.054-6.392-3.162-8.601C776.287,361.071,773.595,359.966,770.31,359.966z"/>
				<path d="M587.294,297.298c-3.205,0-5.875,1.113-8.005,3.347c-2.133,2.226-3.2,5.082-3.2,8.559c0,3.578,1.054,6.476,3.162,8.694
					c2.104,2.217,4.775,3.326,8.005,3.326s5.922-1.121,8.063-3.364c2.146-2.243,3.221-5.128,3.221-8.656
					c0-3.528-1.054-6.392-3.162-8.601C593.27,298.403,590.578,297.298,587.294,297.298z"/>
				<path d="M635.596,297.223c-3.251,0-5.934,1.092-8.051,3.272c-2.117,2.18-3.175,4.918-3.175,8.219
					c0,3.427,1.083,6.237,3.251,8.429c2.167,2.193,4.888,3.289,8.164,3.289c3.2,0,5.838-1.071,7.917-3.213
					c2.079-2.142,3.12-4.951,3.12-8.429c0-3.427-1.046-6.211-3.137-8.354C641.593,298.294,638.897,297.223,635.596,297.223z"/>
				<path d="M414.77,297.898c-5.891-0.028-10.442,4.294-10.476,11.507c-0.034,7.213,4.476,11.579,10.367,11.606
					c5.815,0.027,10.366-4.295,10.401-11.508C425.095,302.291,420.584,297.926,414.77,297.898z"/>
				<path d="M470.796,298.47c-2.008-1.437-4.338-2.154-6.988-2.154c-2.877,0-5.401,0.807-7.572,2.419
					c-1.361,1.008-2.625,2.784-3.784,5.33h21.216h1.161c-0.275-0.921-0.685-1.753-1.173-2.536
					C472.928,300.362,471.995,299.33,470.796,298.47z"/>
				<path d="M288.933,299.462c-5.721,0-10.122,4.218-10.122,11.224s4.401,11.224,10.122,11.224c5.647,0,10.048-4.219,10.048-11.224
					S294.58,299.462,288.933,299.462z"/>
				<path d="M904.576,304.065c-0.275-0.921-0.686-1.753-1.173-2.536c-0.727-1.167-1.66-2.199-2.859-3.059
					c-2.007-1.437-4.338-2.154-6.988-2.154c-2.877,0-5.401,0.807-7.572,2.419c-1.361,1.008-2.625,2.784-3.784,5.33h21.215H904.576z"
					/>
				<path d="M2.806,2.338V675.76H1200V2.338H2.806z M877.832,293.8c4.044-4.141,9.117-6.216,15.216-6.216
					c3.868,0,7.295,0.757,10.3,2.236c2.026,0.997,3.866,2.313,5.499,3.98c4.057,4.15,6.085,9.622,6.085,16.425l-0.038,1.966h-11.441
					h-21.708c0.479,2.923,1.755,5.25,3.834,6.976c2.079,1.726,4.733,2.587,7.959,2.587c3.855,0,7.169-1.348,9.941-4.044l6.115,7.105
					c-1.571,1.574-3.294,2.866-5.208,3.802c-3.024,1.47-6.615,2.209-10.773,2.209c-6.451,0-11.705-2.033-15.761-6.106
					c-4.057-4.065-6.086-9.164-6.086-15.287C871.767,303.157,873.787,297.949,877.832,293.8z M735.51,288.643h10.319v4.725
					c1.764-1.941,3.725-3.389,5.88-4.347c2.158-0.958,4.506-1.437,7.055-1.437c2.57,0,4.893,0.63,6.959,1.89
					s3.733,3.099,4.993,5.518c1.638-2.419,3.65-4.259,6.031-5.518c2.385-1.26,4.989-1.89,7.812-1.89c2.927,0,5.497,0.68,7.719,2.041
					c2.217,1.361,3.813,3.137,4.783,5.33c0.97,2.192,1.457,5.758,1.457,10.697v24.115h-10.394v-20.865
					c0-4.661-0.58-7.816-1.739-9.466c-1.159-1.65-2.898-2.478-5.216-2.478c-1.764,0-3.347,0.504-4.746,1.512
					c-1.399,1.008-2.436,2.402-3.116,4.174c-0.68,1.781-1.021,4.632-1.021,8.563v18.559h-10.394v-19.919
					c0-3.679-0.273-6.342-0.815-7.992c-0.546-1.65-1.357-2.881-2.444-3.688c-1.088-0.807-2.398-1.21-3.939-1.21
					c-1.718,0-3.28,0.512-4.678,1.529c-1.403,1.025-2.453,2.453-3.146,4.292c-0.697,1.84-1.042,4.737-1.042,8.694v18.294H735.51
					V288.643z M310.203,324.09l-10.929,12.821V326.28c-2.861,3.54-7.041,5.273-12.322,5.273c-11.149,0-19.73-8.136-19.73-20.867
					c0-4.316,0.989-8.102,2.727-11.224c2.545-4.571,6.703-7.712,11.737-8.993c1.669-0.425,3.431-0.649,5.266-0.649
					c4.841,0,8.948,1.582,11.808,4.896v-22.523l11.442-12.821V324.09z M338.271,331.553c-4.914,0-8.948-1.582-11.882-4.896v21.769
					l-11.442,12.804v-66.811l10.928-12.803v13.478c2.861-3.541,7.115-5.273,12.395-5.273c11.075,0,19.656,8.136,19.656,20.867
					C357.928,323.417,349.346,331.553,338.271,331.553z M436.55,323.36l-11.315,13.148l0.052-10.947
					c-2.962,3.632-7.275,5.395-12.712,5.37c-11.479-0.054-20.275-8.473-20.213-21.582c0.021-4.444,1.058-8.337,2.863-11.543
					c2.643-4.694,6.939-7.907,12.128-9.202c1.72-0.429,3.536-0.652,5.425-0.643c4.984,0.024,9.205,1.672,12.134,5.099l0.11-23.19
					l11.843-13.145L436.55,323.36z M485.146,312.191h-11.441h-21.708c0.479,2.923,1.755,5.25,3.834,6.976
					c2.079,1.726,4.733,2.587,7.959,2.587c3.855,0,7.169-1.348,9.941-4.044l6.115,7.105c-1.571,1.574-3.294,2.866-5.208,3.802
					c-3.024,1.47-6.615,2.209-10.772,2.209c-6.451,0-11.705-2.033-15.762-6.106c-4.057-4.065-6.085-9.164-6.085-15.287
					c0-6.274,2.02-11.482,6.065-15.631c4.044-4.141,9.118-6.216,15.216-6.216c3.868,0,7.295,0.757,10.3,2.236
					c2.026,0.997,3.866,2.313,5.499,3.98c4.057,4.15,6.085,9.622,6.085,16.425L485.146,312.191z M514.497,331.18
					c-5.06-0.024-9.206-1.672-12.21-5.099l-0.106,22.414l-11.843,13.127l0.326-68.791l11.315-13.129l-0.066,13.877
					c2.963-3.631,7.351-5.395,12.789-5.369c11.403,0.054,20.199,8.473,20.137,21.581C534.776,322.9,525.9,331.234,514.497,331.18z
					 M558.777,296.618c-1.588,0-2.931,0.983-4.028,2.948s-1.642,5.821-1.642,11.566l0.038,2.004v16.631h-11.808l-0.002-41.124
					h10.412v5.178c0.957-2.041,2.23-3.591,3.818-4.649c1.588-1.058,3.326-1.587,5.216-1.587c3.107,0,5.339,2.476,6.8,3.182
					l-5.817,6.759C560.554,296.92,559.559,296.618,558.777,296.618z M606.042,320.053c-1.928,3.377-4.553,6.018-7.879,7.917
					c-3.326,1.903-6.993,2.856-10.999,2.856c-5.896,0-10.932-2.1-15.102-6.291c-4.17-4.2-6.253-9.294-6.253-15.291
					c0-6.426,2.356-11.78,7.068-16.064c4.133-3.73,8.883-5.594,14.25-5.594c3.881,0,7.526,0.97,10.94,2.91
					c3.414,1.94,6.081,4.574,7.996,7.9c1.915,3.326,2.873,6.917,2.873,10.772C608.935,313.047,607.969,316.676,606.042,320.053z
					 M656.574,323.87c0,6.955-1.398,12.07-4.195,15.346c-3.755,4.435-9.412,6.652-16.971,6.652c-4.032,0-7.421-0.504-10.168-1.512
					c-2.477-0.909-4.587-2.225-6.368-3.904l6.594-7.662c1.008,1.159,2.306,2.033,3.893,2.629c1.587,0.588,3.465,0.886,5.632,0.886
					c2.772,0,5.002-0.429,6.69-1.285c1.688-0.857,2.877-1.966,3.57-3.326c0.693-1.361,1.042-3.704,1.042-7.03
					c-1.814,1.814-3.717,3.12-5.708,3.91c-1.991,0.798-4.246,1.193-6.766,1.193c-5.519,0-10.18-1.991-13.985-5.972
					c-3.805-3.981-5.707-9.021-5.707-15.119c0-6.526,2.016-11.768,6.048-15.724c3.654-3.578,8.013-5.367,13.078-5.367
					c2.369,0,4.603,0.437,6.707,1.302c2.104,0.874,4.217,2.302,6.333,4.292v-4.536h10.281V323.87z M662.484,288.643h10.412v5.178
					c0.957-2.041,2.23-3.591,3.818-4.649c1.588-1.058,3.326-1.587,5.216-1.587c3.107,0,5.339,2.476,6.8,3.182l-5.817,6.759
					c-1.21-0.605-2.205-0.907-2.986-0.907c-1.587,0-2.931,0.983-4.027,2.948c-1.096,1.966-1.642,5.821-1.642,11.566l0.038,2.004
					v16.631h-11.808L662.484,288.643z M698.157,393.848c-5.06-0.024-9.205-1.673-12.21-5.099l-0.106,22.415l-11.843,13.127
					l0.326-68.791l11.315-13.129l-0.066,13.877c2.963-3.632,7.351-5.395,12.788-5.369c11.403,0.054,20.199,8.473,20.137,21.581
					C718.435,385.567,709.56,393.902,698.157,393.848z M713.977,329.557c-2.028,0.844-4.221,1.268-6.589,1.268
					c-5.308,0-9.903-2.058-13.779-6.182c-3.876-4.116-5.813-9.24-5.813-15.363c0-6.35,1.873-11.554,5.623-15.611
					c3.75-4.057,8.307-6.085,13.666-6.085c2.469,0,4.784,0.466,6.946,1.399c2.167,0.932,4.166,2.331,6.006,4.196v-4.536h10.319
					v41.124h-10.319v-4.347C718.022,327.335,716.002,328.717,713.977,329.557z M741.229,359.286c-1.588,0-2.932,0.983-4.028,2.948
					c-1.096,1.966-1.642,5.821-1.642,11.566l0.038,2.004v16.631h-11.808l-0.002-41.124h10.412v5.178
					c0.958-2.041,2.23-3.591,3.818-4.649c1.587-1.058,3.326-1.587,5.216-1.587c3.107,0,5.339,2.476,6.8,3.181l-5.817,6.759
					C743.005,359.588,742.01,359.286,741.229,359.286z M770.18,393.493c-5.896,0-10.932-2.1-15.102-6.291
					c-4.17-4.2-6.253-9.294-6.253-15.291c0-6.425,2.356-11.78,7.068-16.064c4.133-3.729,8.883-5.594,14.25-5.594
					c3.881,0,7.526,0.97,10.94,2.91c3.414,1.94,6.081,4.574,7.996,7.9c1.915,3.326,2.873,6.917,2.873,10.772
					c0,3.881-0.966,7.509-2.894,10.886c-1.928,3.377-4.552,6.018-7.879,7.917C777.853,392.54,774.187,393.493,770.18,393.493z
					 M810.397,393.795c0,3.906-0.386,6.82-1.155,8.752c-0.769,1.924-1.982,3.406-3.645,4.439c-1.663,1.033-3.666,1.55-6.01,1.55
					c-1.853,0-16.039,0-16.039,0l8.328-9.676c1.613,0.781,3.036,1.172,4.271,1.172c1.31,0,2.293-0.39,2.948-1.172
					c0.655-0.781,0.983-2.217,0.983-4.309V351.31h10.319V393.795z M809.943,345.796c-1.285,1.306-2.822,1.961-4.611,1.961
					c-1.84,0-3.41-0.664-4.708-1.999c-1.298-1.331-1.944-2.94-1.944-4.821c0-1.81,0.634-3.356,1.907-4.637
					c1.272-1.281,2.818-1.923,4.632-1.923c1.839,0,3.406,0.655,4.704,1.961c1.298,1.306,1.949,2.889,1.949,4.75
					C811.871,342.919,811.229,344.49,809.943,345.796z M813.924,311.473v18.294h-10.319v-41.124h10.319v4.725
					c1.764-1.941,3.725-3.389,5.88-4.347c2.159-0.958,4.506-1.437,7.055-1.437c2.57,0,4.893,0.63,6.959,1.89
					c2.066,1.26,3.734,3.099,4.994,5.518c1.638-2.419,3.65-4.259,6.031-5.518c2.385-1.26,4.989-1.89,7.812-1.89
					c2.927,0,5.497,0.68,7.719,2.041c2.217,1.361,3.813,3.137,4.783,5.33c0.97,2.192,1.457,5.758,1.457,10.697v24.115h-10.394
					v-20.865c0-4.661-0.58-7.816-1.739-9.466c-1.159-1.65-2.898-2.478-5.216-2.478c-1.764,0-3.347,0.504-4.746,1.512
					c-1.399,1.008-2.436,2.402-3.116,4.174c-0.68,1.781-1.021,4.632-1.021,8.563v18.559h-10.394v-19.919
					c0-3.679-0.273-6.342-0.815-7.992c-0.546-1.65-1.357-2.881-2.444-3.688c-1.088-0.807-2.398-1.21-3.939-1.21
					c-1.718,0-3.28,0.512-4.678,1.529c-1.403,1.025-2.453,2.453-3.146,4.292C814.268,304.619,813.924,307.516,813.924,311.473z
					 M858.658,374.859h-11.441H825.51c0.479,2.923,1.755,5.25,3.834,6.976c2.079,1.726,4.733,2.587,7.959,2.587
					c3.855,0,7.169-1.348,9.941-4.044l6.115,7.105c-1.571,1.574-3.294,2.866-5.208,3.802c-3.024,1.47-6.615,2.209-10.772,2.209
					c-6.451,0-11.705-2.033-15.762-6.106c-4.057-4.065-6.085-9.164-6.085-15.287c0-6.274,2.02-11.482,6.065-15.631
					c4.044-4.141,9.118-6.216,15.216-6.216c3.868,0,7.295,0.757,10.3,2.236c2.026,0.997,3.866,2.313,5.5,3.98
					c4.057,4.149,6.085,9.622,6.085,16.425L858.658,374.859z M886.982,393.493c-7.232,0-12.897-2.142-16.992-6.425
					c-4.095-4.284-6.14-9.298-6.14-15.043c0-3.982,0.995-7.648,2.986-10.999c1.991-3.351,4.767-5.985,8.332-7.9
					c3.565-1.915,7.555-2.873,11.965-2.873c3.746,0,7.141,0.688,10.187,2.054l-6.774,7.871c-1.033-0.214-2.152-0.324-3.363-0.324
					c-3.859,0-6.98,1.15-9.365,3.452c-2.381,2.301-3.574,5.254-3.574,8.849c0,3.498,1.146,6.354,3.444,8.568
					c2.293,2.213,5.309,3.322,9.042,3.322c4.62,0,8.215-1.575,10.785-4.725l6.466,7.513
					C899.718,391.268,894.053,393.493,886.982,393.493z M939.779,297.525c-1.21-0.605-2.205-0.907-2.986-0.907
					c-1.588,0-2.932,0.983-4.028,2.948c-1.096,1.966-1.642,5.821-1.642,11.566l0.038,2.003v16.631v4.101v17.442l-7.644,8.882h2.222
					h5.422v4.101v28.14h-11.808v-32.242h-22.027l7.644-8.882h14.383v-16.705v-4.839h0l-0.002-41.124h10.412v5.178
					c0.958-2.041,2.23-3.591,3.818-4.649c1.588-1.058,3.326-1.587,5.216-1.587c3.107,0,5.339,2.476,6.8,3.182L939.779,297.525z"/>
				<path d="M844.308,361.138c-2.008-1.437-4.338-2.154-6.988-2.154c-2.877,0-5.401,0.806-7.572,2.419
					c-1.361,1.007-2.625,2.784-3.784,5.329h21.216h1.161c-0.275-0.921-0.685-1.753-1.173-2.536
					C846.44,363.03,845.507,361.997,844.308,361.138z"/>
			</g>
			<g>
				<path d="M336.291,299.462c-5.721,0-10.048,4.218-10.048,11.224s4.327,11.225,10.048,11.225c5.721,0,10.048-4.219,10.048-11.225
					S342.012,299.462,336.291,299.462z"/>
				<path d="M717.287,300.436c-2.133-2.217-4.834-3.326-8.097-3.326c-3.192,0-5.838,1.13-7.95,3.385
					c-2.108,2.255-3.162,5.145-3.162,8.672c0,3.553,1.071,6.476,3.221,8.769c2.146,2.293,4.788,3.44,7.929,3.44
					c3.238,0,5.926-1.126,8.059-3.385c2.138-2.251,3.204-5.208,3.204-8.861C720.491,305.551,719.424,302.653,717.287,300.436z"/>
				<path d="M696.274,360.797c-5.89-0.028-10.366,4.295-10.401,11.508c-0.034,7.213,4.401,11.578,10.291,11.606
					c5.89,0.028,10.367-4.295,10.401-11.508C706.6,365.189,702.165,360.824,696.274,360.797z"/>
				<path d="M512.615,298.129c-5.89-0.028-10.367,4.294-10.401,11.508c-0.034,7.213,4.401,11.578,10.291,11.606
					c5.89,0.028,10.367-4.295,10.401-11.508C522.94,302.521,518.505,298.157,512.615,298.129z"/>
				<path d="M770.31,359.966c-3.204,0-5.875,1.113-8.005,3.347c-2.133,2.226-3.2,5.082-3.2,8.559c0,3.578,1.054,6.476,3.162,8.693
					c2.104,2.217,4.775,3.326,8.005,3.326c3.229,0,5.922-1.121,8.063-3.364c2.146-2.243,3.221-5.128,3.221-8.656
					c0-3.528-1.054-6.392-3.162-8.601C776.287,361.071,773.595,359.966,770.31,359.966z"/>
				<path d="M587.294,297.298c-3.205,0-5.875,1.113-8.005,3.347c-2.133,2.226-3.2,5.082-3.2,8.559c0,3.578,1.054,6.476,3.162,8.694
					c2.104,2.217,4.775,3.326,8.005,3.326s5.922-1.121,8.063-3.364c2.146-2.243,3.221-5.128,3.221-8.656
					c0-3.528-1.054-6.392-3.162-8.601C593.27,298.403,590.578,297.298,587.294,297.298z"/>
				<path d="M635.596,297.223c-3.251,0-5.934,1.092-8.051,3.272c-2.117,2.18-3.175,4.918-3.175,8.219
					c0,3.427,1.083,6.237,3.251,8.429c2.167,2.193,4.888,3.289,8.164,3.289c3.2,0,5.838-1.071,7.917-3.213
					c2.079-2.142,3.12-4.951,3.12-8.429c0-3.427-1.046-6.211-3.137-8.354C641.593,298.294,638.897,297.223,635.596,297.223z"/>
				<path d="M414.77,297.898c-5.891-0.028-10.442,4.294-10.476,11.507c-0.034,7.213,4.476,11.579,10.367,11.606
					c5.815,0.027,10.366-4.295,10.401-11.508C425.095,302.291,420.584,297.926,414.77,297.898z"/>
				<path d="M470.796,298.47c-2.008-1.437-4.338-2.154-6.988-2.154c-2.877,0-5.401,0.807-7.572,2.419
					c-1.361,1.008-2.625,2.784-3.784,5.33h21.216h1.161c-0.275-0.921-0.685-1.753-1.173-2.536
					C472.928,300.362,471.995,299.33,470.796,298.47z"/>
				<path d="M288.933,299.462c-5.721,0-10.122,4.218-10.122,11.224s4.401,11.224,10.122,11.224c5.647,0,10.048-4.219,10.048-11.224
					S294.58,299.462,288.933,299.462z"/>
				<path d="M904.576,304.065c-0.275-0.921-0.686-1.753-1.173-2.536c-0.727-1.167-1.66-2.199-2.859-3.059
					c-2.007-1.437-4.338-2.154-6.988-2.154c-2.877,0-5.401,0.807-7.572,2.419c-1.361,1.008-2.625,2.784-3.784,5.33h21.215H904.576z"
					/>
				<path d="M2.806,2.338V675.76H1200V2.338H2.806z M877.832,293.8c4.044-4.141,9.117-6.216,15.216-6.216
					c3.868,0,7.295,0.757,10.3,2.236c2.026,0.997,3.866,2.313,5.499,3.98c4.057,4.15,6.085,9.622,6.085,16.425l-0.038,1.966h-11.441
					h-21.708c0.479,2.923,1.755,5.25,3.834,6.976c2.079,1.726,4.733,2.587,7.959,2.587c3.855,0,7.169-1.348,9.941-4.044l6.115,7.105
					c-1.571,1.574-3.294,2.866-5.208,3.802c-3.024,1.47-6.615,2.209-10.773,2.209c-6.451,0-11.705-2.033-15.761-6.106
					c-4.057-4.065-6.086-9.164-6.086-15.287C871.767,303.157,873.787,297.949,877.832,293.8z M735.51,288.643h10.319v4.725
					c1.764-1.941,3.725-3.389,5.88-4.347c2.158-0.958,4.506-1.437,7.055-1.437c2.57,0,4.893,0.63,6.959,1.89
					s3.733,3.099,4.993,5.518c1.638-2.419,3.65-4.259,6.031-5.518c2.385-1.26,4.989-1.89,7.812-1.89c2.927,0,5.497,0.68,7.719,2.041
					c2.217,1.361,3.813,3.137,4.783,5.33c0.97,2.192,1.457,5.758,1.457,10.697v24.115h-10.394v-20.865
					c0-4.661-0.58-7.816-1.739-9.466c-1.159-1.65-2.898-2.478-5.216-2.478c-1.764,0-3.347,0.504-4.746,1.512
					c-1.399,1.008-2.436,2.402-3.116,4.174c-0.68,1.781-1.021,4.632-1.021,8.563v18.559h-10.394v-19.919
					c0-3.679-0.273-6.342-0.815-7.992c-0.546-1.65-1.357-2.881-2.444-3.688c-1.088-0.807-2.398-1.21-3.939-1.21
					c-1.718,0-3.28,0.512-4.678,1.529c-1.403,1.025-2.453,2.453-3.146,4.292c-0.697,1.84-1.042,4.737-1.042,8.694v18.294H735.51
					V288.643z M310.203,324.09l-10.929,12.821V326.28c-2.861,3.54-7.041,5.273-12.322,5.273c-11.149,0-19.73-8.136-19.73-20.867
					c0-4.316,0.989-8.102,2.727-11.224c2.545-4.571,6.703-7.712,11.737-8.993c1.669-0.425,3.431-0.649,5.266-0.649
					c4.841,0,8.948,1.582,11.808,4.896v-22.523l11.442-12.821V324.09z M338.271,331.553c-4.914,0-8.948-1.582-11.882-4.896v21.769
					l-11.442,12.804v-66.811l10.928-12.803v13.478c2.861-3.541,7.115-5.273,12.395-5.273c11.075,0,19.656,8.136,19.656,20.867
					C357.928,323.417,349.346,331.553,338.271,331.553z M436.55,323.36l-11.315,13.148l0.052-10.947
					c-2.962,3.632-7.275,5.395-12.712,5.37c-11.479-0.054-20.275-8.473-20.213-21.582c0.021-4.444,1.058-8.337,2.863-11.543
					c2.643-4.694,6.939-7.907,12.128-9.202c1.72-0.429,3.536-0.652,5.425-0.643c4.984,0.024,9.205,1.672,12.134,5.099l0.11-23.19
					l11.843-13.145L436.55,323.36z M485.146,312.191h-11.441h-21.708c0.479,2.923,1.755,5.25,3.834,6.976
					c2.079,1.726,4.733,2.587,7.959,2.587c3.855,0,7.169-1.348,9.941-4.044l6.115,7.105c-1.571,1.574-3.294,2.866-5.208,3.802
					c-3.024,1.47-6.615,2.209-10.772,2.209c-6.451,0-11.705-2.033-15.762-6.106c-4.057-4.065-6.085-9.164-6.085-15.287
					c0-6.274,2.02-11.482,6.065-15.631c4.044-4.141,9.118-6.216,15.216-6.216c3.868,0,7.295,0.757,10.3,2.236
					c2.026,0.997,3.866,2.313,5.499,3.98c4.057,4.15,6.085,9.622,6.085,16.425L485.146,312.191z M514.497,331.18
					c-5.06-0.024-9.206-1.672-12.21-5.099l-0.106,22.414l-11.843,13.127l0.326-68.791l11.315-13.129l-0.066,13.877
					c2.963-3.631,7.351-5.395,12.789-5.369c11.403,0.054,20.199,8.473,20.137,21.581C534.776,322.9,525.9,331.234,514.497,331.18z
					 M558.777,296.618c-1.588,0-2.931,0.983-4.028,2.948s-1.642,5.821-1.642,11.566l0.038,2.004v16.631h-11.808l-0.002-41.124
					h10.412v5.178c0.957-2.041,2.23-3.591,3.818-4.649c1.588-1.058,3.326-1.587,5.216-1.587c3.107,0,5.339,2.476,6.8,3.182
					l-5.817,6.759C560.554,296.92,559.559,296.618,558.777,296.618z M606.042,320.053c-1.928,3.377-4.553,6.018-7.879,7.917
					c-3.326,1.903-6.993,2.856-10.999,2.856c-5.896,0-10.932-2.1-15.102-6.291c-4.17-4.2-6.253-9.294-6.253-15.291
					c0-6.426,2.356-11.78,7.068-16.064c4.133-3.73,8.883-5.594,14.25-5.594c3.881,0,7.526,0.97,10.94,2.91
					c3.414,1.94,6.081,4.574,7.996,7.9c1.915,3.326,2.873,6.917,2.873,10.772C608.935,313.047,607.969,316.676,606.042,320.053z
					 M656.574,323.87c0,6.955-1.398,12.07-4.195,15.346c-3.755,4.435-9.412,6.652-16.971,6.652c-4.032,0-7.421-0.504-10.168-1.512
					c-2.477-0.909-4.587-2.225-6.368-3.904l6.594-7.662c1.008,1.159,2.306,2.033,3.893,2.629c1.587,0.588,3.465,0.886,5.632,0.886
					c2.772,0,5.002-0.429,6.69-1.285c1.688-0.857,2.877-1.966,3.57-3.326c0.693-1.361,1.042-3.704,1.042-7.03
					c-1.814,1.814-3.717,3.12-5.708,3.91c-1.991,0.798-4.246,1.193-6.766,1.193c-5.519,0-10.18-1.991-13.985-5.972
					c-3.805-3.981-5.707-9.021-5.707-15.119c0-6.526,2.016-11.768,6.048-15.724c3.654-3.578,8.013-5.367,13.078-5.367
					c2.369,0,4.603,0.437,6.707,1.302c2.104,0.874,4.217,2.302,6.333,4.292v-4.536h10.281V323.87z M662.484,288.643h10.412v5.178
					c0.957-2.041,2.23-3.591,3.818-4.649c1.588-1.058,3.326-1.587,5.216-1.587c3.107,0,5.339,2.476,6.8,3.182l-5.817,6.759
					c-1.21-0.605-2.205-0.907-2.986-0.907c-1.587,0-2.931,0.983-4.027,2.948c-1.096,1.966-1.642,5.821-1.642,11.566l0.038,2.004
					v16.631h-11.808L662.484,288.643z M698.157,393.848c-5.06-0.024-9.205-1.673-12.21-5.099l-0.106,22.415l-11.843,13.127
					l0.326-68.791l11.315-13.129l-0.066,13.877c2.963-3.632,7.351-5.395,12.788-5.369c11.403,0.054,20.199,8.473,20.137,21.581
					C718.435,385.567,709.56,393.902,698.157,393.848z M713.977,329.557c-2.028,0.844-4.221,1.268-6.589,1.268
					c-5.308,0-9.903-2.058-13.779-6.182c-3.876-4.116-5.813-9.24-5.813-15.363c0-6.35,1.873-11.554,5.623-15.611
					c3.75-4.057,8.307-6.085,13.666-6.085c2.469,0,4.784,0.466,6.946,1.399c2.167,0.932,4.166,2.331,6.006,4.196v-4.536h10.319
					v41.124h-10.319v-4.347C718.022,327.335,716.002,328.717,713.977,329.557z M741.229,359.286c-1.588,0-2.932,0.983-4.028,2.948
					c-1.096,1.966-1.642,5.821-1.642,11.566l0.038,2.004v16.631h-11.808l-0.002-41.124h10.412v5.178
					c0.958-2.041,2.23-3.591,3.818-4.649c1.587-1.058,3.326-1.587,5.216-1.587c3.107,0,5.339,2.476,6.8,3.181l-5.817,6.759
					C743.005,359.588,742.01,359.286,741.229,359.286z M770.18,393.493c-5.896,0-10.932-2.1-15.102-6.291
					c-4.17-4.2-6.253-9.294-6.253-15.291c0-6.425,2.356-11.78,7.068-16.064c4.133-3.729,8.883-5.594,14.25-5.594
					c3.881,0,7.526,0.97,10.94,2.91c3.414,1.94,6.081,4.574,7.996,7.9c1.915,3.326,2.873,6.917,2.873,10.772
					c0,3.881-0.966,7.509-2.894,10.886c-1.928,3.377-4.552,6.018-7.879,7.917C777.853,392.54,774.187,393.493,770.18,393.493z
					 M810.397,393.795c0,3.906-0.386,6.82-1.155,8.752c-0.769,1.924-1.982,3.406-3.645,4.439c-1.663,1.033-3.666,1.55-6.01,1.55
					c-1.853,0-16.039,0-16.039,0l8.328-9.676c1.613,0.781,3.036,1.172,4.271,1.172c1.31,0,2.293-0.39,2.948-1.172
					c0.655-0.781,0.983-2.217,0.983-4.309V351.31h10.319V393.795z M809.943,345.796c-1.285,1.306-2.822,1.961-4.611,1.961
					c-1.84,0-3.41-0.664-4.708-1.999c-1.298-1.331-1.944-2.94-1.944-4.821c0-1.81,0.634-3.356,1.907-4.637
					c1.272-1.281,2.818-1.923,4.632-1.923c1.839,0,3.406,0.655,4.704,1.961c1.298,1.306,1.949,2.889,1.949,4.75
					C811.871,342.919,811.229,344.49,809.943,345.796z M813.924,311.473v18.294h-10.319v-41.124h10.319v4.725
					c1.764-1.941,3.725-3.389,5.88-4.347c2.159-0.958,4.506-1.437,7.055-1.437c2.57,0,4.893,0.63,6.959,1.89
					c2.066,1.26,3.734,3.099,4.994,5.518c1.638-2.419,3.65-4.259,6.031-5.518c2.385-1.26,4.989-1.89,7.812-1.89
					c2.927,0,5.497,0.68,7.719,2.041c2.217,1.361,3.813,3.137,4.783,5.33c0.97,2.192,1.457,5.758,1.457,10.697v24.115h-10.394
					v-20.865c0-4.661-0.58-7.816-1.739-9.466c-1.159-1.65-2.898-2.478-5.216-2.478c-1.764,0-3.347,0.504-4.746,1.512
					c-1.399,1.008-2.436,2.402-3.116,4.174c-0.68,1.781-1.021,4.632-1.021,8.563v18.559h-10.394v-19.919
					c0-3.679-0.273-6.342-0.815-7.992c-0.546-1.65-1.357-2.881-2.444-3.688c-1.088-0.807-2.398-1.21-3.939-1.21
					c-1.718,0-3.28,0.512-4.678,1.529c-1.403,1.025-2.453,2.453-3.146,4.292C814.268,304.619,813.924,307.516,813.924,311.473z
					 M858.658,374.859h-11.441H825.51c0.479,2.923,1.755,5.25,3.834,6.976c2.079,1.726,4.733,2.587,7.959,2.587
					c3.855,0,7.169-1.348,9.941-4.044l6.115,7.105c-1.571,1.574-3.294,2.866-5.208,3.802c-3.024,1.47-6.615,2.209-10.772,2.209
					c-6.451,0-11.705-2.033-15.762-6.106c-4.057-4.065-6.085-9.164-6.085-15.287c0-6.274,2.02-11.482,6.065-15.631
					c4.044-4.141,9.118-6.216,15.216-6.216c3.868,0,7.295,0.757,10.3,2.236c2.026,0.997,3.866,2.313,5.5,3.98
					c4.057,4.149,6.085,9.622,6.085,16.425L858.658,374.859z M886.982,393.493c-7.232,0-12.897-2.142-16.992-6.425
					c-4.095-4.284-6.14-9.298-6.14-15.043c0-3.982,0.995-7.648,2.986-10.999c1.991-3.351,4.767-5.985,8.332-7.9
					c3.565-1.915,7.555-2.873,11.965-2.873c3.746,0,7.141,0.688,10.187,2.054l-6.774,7.871c-1.033-0.214-2.152-0.324-3.363-0.324
					c-3.859,0-6.98,1.15-9.365,3.452c-2.381,2.301-3.574,5.254-3.574,8.849c0,3.498,1.146,6.354,3.444,8.568
					c2.293,2.213,5.309,3.322,9.042,3.322c4.62,0,8.215-1.575,10.785-4.725l6.466,7.513
					C899.718,391.268,894.053,393.493,886.982,393.493z M939.779,297.525c-1.21-0.605-2.205-0.907-2.986-0.907
					c-1.588,0-2.932,0.983-4.028,2.948c-1.096,1.966-1.642,5.821-1.642,11.566l0.038,2.003v16.631v4.101v17.442l-7.644,8.882h2.222
					h5.422v4.101v28.14h-11.808v-32.242h-22.027l7.644-8.882h14.383v-16.705v-4.839h0l-0.002-41.124h10.412v5.178
					c0.958-2.041,2.23-3.591,3.818-4.649c1.588-1.058,3.326-1.587,5.216-1.587c3.107,0,5.339,2.476,6.8,3.182L939.779,297.525z"/>
				<path d="M844.308,361.138c-2.008-1.437-4.338-2.154-6.988-2.154c-2.877,0-5.401,0.806-7.572,2.419
					c-1.361,1.007-2.625,2.784-3.784,5.329h21.216h1.161c-0.275-0.921-0.685-1.753-1.173-2.536
					C846.44,363.03,845.507,361.997,844.308,361.138z"/>
			</g>
		</g>
		<g>
			<path style="fill:none;" d="M643.487,290.84c-2.117-1.991-4.229-3.419-6.333-4.292c-2.104-0.865-4.338-1.302-6.707-1.302
				c-5.065,0-9.424,1.789-13.078,5.367c-4.032,3.956-6.048,9.198-6.048,15.724c0,6.098,1.902,11.138,5.707,15.119
				s8.467,5.972,13.985,5.972c2.52,0,4.775-0.395,6.766-1.193c1.991-0.79,3.893-2.096,5.708-3.91c0,3.326-0.349,5.669-1.042,7.03
				c-0.693,1.361-1.881,2.469-3.57,3.326c-1.688,0.857-3.918,1.285-6.69,1.285c-2.167,0-4.044-0.298-5.632-0.886
				c-1.587-0.596-2.885-1.47-3.893-2.629l-6.594,7.662c1.781,1.678,3.89,2.995,6.368,3.904c2.747,1.008,6.136,1.512,10.168,1.512
				c7.56,0,13.217-2.217,16.971-6.652c2.797-3.276,4.196-8.391,4.196-15.346v-35.228h-10.281V290.84z M640.896,314.88
				c-2.079,2.142-4.716,3.213-7.917,3.213c-3.276,0-5.997-1.096-8.164-3.289c-2.167-2.192-3.251-5.002-3.251-8.429
				c0-3.301,1.058-6.039,3.175-8.219c2.117-2.18,4.8-3.272,8.051-3.272c3.301,0,5.997,1.071,8.089,3.213
				c2.092,2.142,3.137,4.926,3.137,8.354C644.016,309.928,642.974,312.738,640.896,314.88z"/>
			<path style="fill:none;" d="M595.26,288.157c-3.414-1.94-7.06-2.911-10.94-2.911c-5.367,0-10.117,1.865-14.25,5.594
				c-4.712,4.284-7.068,9.638-7.068,16.064c0,5.997,2.083,11.091,6.253,15.291c4.17,4.192,9.206,6.291,15.102,6.291
				c4.007,0,7.673-0.953,10.999-2.856c3.326-1.898,5.951-4.54,7.879-7.917c1.928-3.377,2.894-7.005,2.894-10.886
				c0-3.855-0.958-7.446-2.873-10.772C601.342,292.73,598.675,290.097,595.26,288.157z M592.514,315.522
				c-2.142,2.243-4.834,3.364-8.064,3.364s-5.901-1.109-8.005-3.326c-2.108-2.217-3.162-5.115-3.162-8.694
				c0-3.477,1.067-6.333,3.2-8.559c2.129-2.234,4.8-3.347,8.005-3.347c3.284,0,5.976,1.104,8.084,3.305
				c2.108,2.209,3.162,5.073,3.162,8.601C595.735,310.394,594.66,313.28,592.514,315.522z"/>
			<path style="fill:none;" d="M671.489,310.798l-0.038-2.004c0-5.745,0.546-9.6,1.642-11.566c1.096-1.966,2.44-2.948,4.027-2.948
				c0.781,0,1.777,0.302,2.986,0.907l5.817-6.759c-1.461-0.705-3.693-3.182-6.8-3.182c-1.89,0-3.629,0.529-5.216,1.587
				c-1.587,1.059-2.86,2.608-3.818,4.649v-5.178h-10.412l0.002,41.124h11.808V310.798z"/>
			<path style="fill:none;" d="M695.555,348.54c-5.437-0.026-9.826,1.737-12.788,5.369l0.066-13.877l-11.315,13.129l-0.326,68.791
				l11.843-13.127l0.106-22.414c3.005,3.427,7.15,5.075,12.21,5.099c11.403,0.054,20.278-8.281,20.341-21.389
				C715.754,357.012,706.958,348.594,695.555,348.54z M693.359,381.572c-5.891-0.028-10.325-4.393-10.291-11.606
				c0.034-7.213,4.51-11.536,10.401-11.508c5.89,0.028,10.326,4.392,10.291,11.606C703.726,377.277,699.249,381.6,693.359,381.572z"
				/>
			<path style="fill:none;" d="M557.975,285.246c-1.89,0-3.629,0.529-5.216,1.587c-1.587,1.059-2.86,2.608-3.818,4.649v-5.178
				H538.53l0.002,41.124h11.808v-16.631l-0.038-2.004c0-5.745,0.546-9.6,1.642-11.566s2.44-2.948,4.028-2.948
				c0.781,0,1.777,0.302,2.986,0.907l5.817-6.759C563.313,287.722,561.082,285.246,557.975,285.246z"/>
			<path style="fill:none;" d="M727.551,327.429v-41.124h-10.319v4.536c-1.84-1.865-3.839-3.263-6.006-4.196
				c-2.163-0.932-4.477-1.399-6.946-1.399c-5.359,0-9.916,2.029-13.666,6.085c-3.75,4.057-5.623,9.261-5.623,15.611
				c0,6.123,1.936,11.247,5.813,15.363c3.876,4.124,8.471,6.182,13.779,6.182c2.369,0,4.561-0.424,6.589-1.268
				c2.024-0.84,4.044-2.222,6.06-4.137v4.347H727.551z M714.481,315.652c-2.133,2.259-4.821,3.385-8.059,3.385
				c-3.141,0-5.783-1.147-7.929-3.44c-2.15-2.293-3.221-5.216-3.221-8.769c0-3.528,1.054-6.417,3.162-8.672
				c2.112-2.255,4.758-3.385,7.95-3.385c3.263,0,5.964,1.109,8.097,3.326c2.138,2.217,3.204,5.115,3.204,8.694
				C717.685,310.445,716.619,313.401,714.481,315.652z"/>
			<path style="fill:none;" d="M743.023,309.134c0-3.956,0.344-6.854,1.042-8.694c0.693-1.839,1.743-3.267,3.146-4.292
				c1.398-1.016,2.961-1.529,4.678-1.529c1.541,0,2.852,0.403,3.939,1.21c1.088,0.806,1.898,2.037,2.444,3.688
				c0.542,1.65,0.815,4.313,0.815,7.992v19.919h10.394V308.87c0-3.931,0.34-6.783,1.021-8.563c0.68-1.772,1.718-3.166,3.116-4.174
				c1.398-1.008,2.982-1.512,4.746-1.512c2.318,0,4.057,0.828,5.216,2.478c1.159,1.65,1.739,4.805,1.739,9.466v20.864h10.394
				v-24.115c0-4.939-0.487-8.505-1.457-10.697c-0.97-2.193-2.566-3.969-4.783-5.33c-2.222-1.361-4.792-2.041-7.719-2.041
				c-2.822,0-5.426,0.63-7.811,1.89c-2.381,1.26-4.393,3.099-6.031,5.518c-1.26-2.419-2.927-4.259-4.993-5.518
				c-2.066-1.26-4.389-1.89-6.959-1.89c-2.549,0-4.897,0.479-7.055,1.437c-2.155,0.958-4.116,2.406-5.88,4.347v-4.725h-10.319
				v41.124h10.319V309.134z"/>
			<path style="fill:none;" d="M890.808,328.487c4.158,0,7.749-0.739,10.773-2.209c1.914-0.936,3.637-2.228,5.208-3.802
				l-6.115-7.105c-2.772,2.696-6.086,4.044-9.941,4.044c-3.226,0-5.88-0.861-7.959-2.587c-2.079-1.726-3.356-4.053-3.834-6.976
				h21.708h11.441l0.038-1.966c0-6.803-2.029-12.276-6.085-16.425c-1.634-1.667-3.473-2.983-5.499-3.98
				c-3.005-1.479-6.432-2.236-10.3-2.236c-6.098,0-11.171,2.075-15.216,6.216c-4.044,4.15-6.065,9.357-6.065,15.631
				c0,6.123,2.029,11.222,6.086,15.287C879.104,326.454,884.358,328.487,890.808,328.487z M883.177,296.397
				c2.171-1.613,4.695-2.419,7.572-2.419c2.65,0,4.981,0.718,6.988,2.154c1.199,0.859,2.133,1.892,2.859,3.059
				c0.487,0.782,0.898,1.615,1.173,2.536h-1.161h-21.215C880.553,299.181,881.817,297.404,883.177,296.397z"/>
			<path style="fill:none;" d="M470.793,287.482c-3.005-1.479-6.432-2.236-10.3-2.236c-6.098,0-11.171,2.075-15.216,6.216
				c-4.044,4.15-6.065,9.357-6.065,15.631c0,6.123,2.029,11.222,6.085,15.287c4.057,4.074,9.311,6.106,15.762,6.106
				c4.158,0,7.749-0.739,10.772-2.209c1.914-0.936,3.637-2.228,5.208-3.802l-6.115-7.105c-2.772,2.696-6.085,4.044-9.941,4.044
				c-3.226,0-5.88-0.861-7.959-2.587c-2.079-1.726-3.356-4.053-3.834-6.976h21.708h11.441l0.038-1.966
				c0-6.803-2.029-12.276-6.085-16.425C474.659,289.794,472.819,288.479,470.793,287.482z M470.861,301.726h-21.216
				c1.159-2.546,2.423-4.322,3.784-5.33c2.171-1.613,4.695-2.419,7.572-2.419c2.65,0,4.981,0.718,6.988,2.154
				c1.199,0.859,2.133,1.892,2.859,3.059c0.487,0.782,0.898,1.615,1.173,2.536H470.861z"/>
			<path style="fill:none;" d="M422.106,290.721c-2.929-3.427-7.15-5.075-12.134-5.099c-1.889-0.009-3.705,0.214-5.425,0.643
				c-5.19,1.295-9.485,4.508-12.128,9.202c-1.805,3.206-2.842,7.099-2.863,11.543c-0.062,13.108,8.734,21.527,20.213,21.581
				c5.437,0.026,9.75-1.738,12.712-5.37l-0.052,10.947l11.315-13.148l0.315-66.636l-11.843,13.145L422.106,290.721z
				 M411.854,318.674c-5.891-0.028-10.401-4.393-10.367-11.606c0.034-7.213,4.586-11.535,10.476-11.507
				c5.815,0.027,10.325,4.392,10.291,11.605C422.221,314.379,417.669,318.701,411.854,318.674z"/>
			<path style="fill:none;" d="M511.895,285.872c-5.437-0.026-9.826,1.737-12.789,5.369l0.066-13.877l-11.315,13.129l-0.326,68.791
				l11.843-13.127l0.106-22.414c3.005,3.427,7.15,5.075,12.21,5.099c11.403,0.054,20.278-8.281,20.34-21.389
				C532.094,294.345,523.298,285.926,511.895,285.872z M509.699,318.904c-5.89-0.028-10.325-4.393-10.291-11.606
				c0.034-7.213,4.51-11.536,10.401-11.508c5.89,0.028,10.326,4.392,10.291,11.606C520.066,314.61,515.589,318.932,509.699,318.904z
				"/>
			<path style="fill:none;" d="M930.774,286.834c-1.587,1.059-2.86,2.608-3.818,4.649v-5.178h-10.412l0.002,41.124h0v4.839v16.705
				h-14.383l-7.644,8.882h22.027v32.242h11.808v-28.14v-4.101h-5.422h-2.222l7.644-8.882V331.53v-4.101v-16.631l-0.038-2.003
				c0-5.745,0.546-9.6,1.642-11.566c1.096-1.966,2.44-2.948,4.028-2.948c0.781,0,1.776,0.302,2.986,0.907l5.817-6.759
				c-1.461-0.705-3.693-3.182-6.8-3.182C934.1,285.246,932.362,285.775,930.774,286.834z"/>
			<path style="fill:none;" d="M786.252,380.382c1.928-3.377,2.894-7.005,2.894-10.886c0-3.855-0.958-7.446-2.873-10.772
				c-1.915-3.326-4.582-5.96-7.996-7.9c-3.414-1.94-7.06-2.91-10.94-2.91c-5.367,0-10.117,1.865-14.25,5.594
				c-4.712,4.284-7.068,9.638-7.068,16.064c0,5.997,2.083,11.092,6.253,15.291c4.17,4.191,9.206,6.291,15.102,6.291
				c4.007,0,7.673-0.953,10.999-2.856C781.7,386.4,784.325,383.759,786.252,380.382z M775.53,378.19
				c-2.142,2.243-4.834,3.364-8.064,3.364c-3.23,0-5.901-1.109-8.005-3.326c-2.108-2.217-3.162-5.115-3.162-8.693
				c0-3.478,1.067-6.333,3.2-8.559c2.129-2.234,4.8-3.347,8.005-3.347c3.284,0,5.976,1.105,8.085,3.305
				c2.108,2.209,3.162,5.073,3.162,8.601C778.751,373.062,777.676,375.947,775.53,378.19z"/>
			<path style="fill:none;" d="M797.272,392.213c0,2.091-0.328,3.528-0.983,4.309c-0.655,0.781-1.638,1.172-2.948,1.172
				c-1.235,0-2.658-0.39-4.271-1.172l-8.328,9.676c0,0,14.186,0,16.039,0c2.344,0,4.347-0.517,6.01-1.55
				c1.663-1.033,2.877-2.515,3.645-4.439c0.768-1.932,1.155-4.846,1.155-8.752v-42.485h-10.319V392.213z"/>
			<path style="fill:none;" d="M844.305,350.15c-3.005-1.479-6.432-2.236-10.3-2.236c-6.098,0-11.171,2.075-15.216,6.216
				c-4.044,4.149-6.065,9.357-6.065,15.631c0,6.123,2.029,11.222,6.085,15.287c4.057,4.074,9.311,6.106,15.762,6.106
				c4.158,0,7.749-0.739,10.772-2.209c1.914-0.936,3.637-2.227,5.208-3.802l-6.115-7.105c-2.772,2.696-6.085,4.044-9.941,4.044
				c-3.226,0-5.88-0.861-7.959-2.587c-2.079-1.726-3.356-4.053-3.834-6.976h21.708h11.441l0.038-1.966
				c0-6.803-2.029-12.276-6.085-16.425C848.171,352.462,846.331,351.146,844.305,350.15z M844.373,364.394h-21.216
				c1.159-2.545,2.423-4.322,3.784-5.329c2.171-1.613,4.695-2.419,7.572-2.419c2.65,0,4.981,0.718,6.988,2.154
				c1.199,0.859,2.133,1.892,2.859,3.059c0.487,0.782,0.898,1.615,1.173,2.536H844.373z"/>
			<path style="fill:none;" d="M802.413,332.039c-1.814,0-3.36,0.643-4.632,1.923c-1.273,1.281-1.907,2.826-1.907,4.637
				c0,1.882,0.647,3.49,1.944,4.821c1.298,1.336,2.868,1.999,4.708,1.999c1.789,0,3.326-0.655,4.611-1.961
				c1.285-1.306,1.928-2.877,1.928-4.708c0-1.861-0.651-3.444-1.949-4.75C805.819,332.694,804.252,332.039,802.413,332.039z"/>
			<path style="fill:none;" d="M740.426,347.914c-1.89,0-3.629,0.529-5.216,1.587c-1.588,1.059-2.86,2.608-3.818,4.649v-5.178
				h-10.412l0.002,41.124h11.808v-16.631l-0.038-2.004c0-5.745,0.546-9.6,1.642-11.566c1.096-1.966,2.44-2.948,4.028-2.948
				c0.781,0,1.776,0.302,2.986,0.907l5.817-6.759C745.765,350.39,743.533,347.914,740.426,347.914z"/>
			<path style="fill:none;" d="M883.924,381.705c-3.733,0-6.749-1.108-9.042-3.322c-2.297-2.213-3.444-5.069-3.444-8.568
				c0-3.595,1.193-6.548,3.574-8.849c2.385-2.302,5.506-3.452,9.365-3.452c1.211,0,2.33,0.111,3.363,0.324l6.774-7.871
				c-3.046-1.366-6.441-2.054-10.187-2.054c-4.41,0-8.4,0.958-11.965,2.873c-3.566,1.915-6.342,4.548-8.332,7.9
				c-1.991,3.351-2.986,7.018-2.986,10.999c0,5.745,2.045,10.759,6.14,15.043c4.095,4.284,9.76,6.425,16.992,6.425
				c7.071,0,12.736-2.225,16.999-6.661l-6.466-7.513C892.139,380.13,888.544,381.705,883.924,381.705z"/>
			<path style="fill:none;" d="M815.305,296.149c1.398-1.016,2.961-1.529,4.678-1.529c1.541,0,2.852,0.403,3.939,1.21
				c1.088,0.806,1.898,2.037,2.444,3.688c0.542,1.65,0.815,4.313,0.815,7.992v19.919h10.394V308.87c0-3.931,0.34-6.783,1.021-8.563
				c0.68-1.772,1.718-3.166,3.116-4.174c1.398-1.008,2.982-1.512,4.746-1.512c2.318,0,4.057,0.828,5.216,2.478
				c1.159,1.65,1.739,4.805,1.739,9.466v20.864h10.394v-24.115c0-4.939-0.487-8.505-1.457-10.697
				c-0.97-2.193-2.566-3.969-4.783-5.33c-2.222-1.361-4.792-2.041-7.719-2.041c-2.822,0-5.426,0.63-7.812,1.89
				c-2.381,1.26-4.393,3.099-6.031,5.518c-1.26-2.419-2.927-4.259-4.993-5.518c-2.066-1.26-4.389-1.89-6.959-1.89
				c-2.549,0-4.897,0.479-7.055,1.437c-2.155,0.958-4.116,2.406-5.88,4.347v-4.725h-10.319v41.124h10.319v-18.294
				c0-3.956,0.344-6.854,1.042-8.694C812.852,298.601,813.902,297.174,815.305,296.149z"/>
			<linearGradient id="SVGID_2_" gradientUnits="userSpaceOnUse" x1="-418.2191" y1="-554.2344" x2="2008.7683" y2="1303.9279">
				<stop  offset="0" style="stop-color:#00AEEF"/>
				<stop  offset="0.0332" style="stop-color:#00A5DE"/>
				<stop  offset="0.1649" style="stop-color:#4187A3"/>
				<stop  offset="0.2714" style="stop-color:#556B76"/>
				<stop  offset="0.3475" style="stop-color:#4D5256"/>
				<stop  offset="0.3859" style="stop-color:#464648"/>
				<stop  offset="0.4538" style="stop-color:#635652"/>
				<stop  offset="0.5983" style="stop-color:#935F4E"/>
				<stop  offset="0.7275" style="stop-color:#B95840"/>
				<stop  offset="0.8364" style="stop-color:#D4442F"/>
				<stop  offset="0.9209" style="stop-color:#E52B26"/>
				<stop  offset="0.9707" style="stop-color:#ED1C24"/>
			</linearGradient>
			<path style="fill:url(#SVGID_2_);" d="M714.481,298.097c-2.133-2.217-4.834-3.326-8.097-3.326c-3.192,0-5.838,1.13-7.95,3.385
				c-2.108,2.255-3.162,5.145-3.162,8.672c0,3.553,1.071,6.476,3.221,8.769c2.146,2.293,4.788,3.44,7.929,3.44
				c3.238,0,5.926-1.126,8.059-3.385c2.138-2.251,3.204-5.208,3.204-8.861C717.685,303.213,716.619,300.315,714.481,298.097z"/>
			<linearGradient id="SVGID_3_" gradientUnits="userSpaceOnUse" x1="-453.5302" y1="-508.1138" x2="1973.4573" y2="1350.0485">
				<stop  offset="0" style="stop-color:#00AEEF"/>
				<stop  offset="0.0332" style="stop-color:#00A5DE"/>
				<stop  offset="0.1649" style="stop-color:#4187A3"/>
				<stop  offset="0.2714" style="stop-color:#556B76"/>
				<stop  offset="0.3475" style="stop-color:#4D5256"/>
				<stop  offset="0.3859" style="stop-color:#464648"/>
				<stop  offset="0.4538" style="stop-color:#635652"/>
				<stop  offset="0.5983" style="stop-color:#935F4E"/>
				<stop  offset="0.7275" style="stop-color:#B95840"/>
				<stop  offset="0.8364" style="stop-color:#D4442F"/>
				<stop  offset="0.9209" style="stop-color:#E52B26"/>
				<stop  offset="0.9707" style="stop-color:#ED1C24"/>
			</linearGradient>
			<path style="fill:url(#SVGID_3_);" d="M693.468,358.458c-5.89-0.028-10.366,4.295-10.401,11.508
				c-0.034,7.213,4.401,11.578,10.291,11.606c5.89,0.028,10.367-4.295,10.401-11.508
				C703.794,362.851,699.359,358.486,693.468,358.458z"/>
			<linearGradient id="SVGID_4_" gradientUnits="userSpaceOnUse" x1="-491.1539" y1="-458.9726" x2="1935.8335" y2="1399.1897">
				<stop  offset="0" style="stop-color:#00AEEF"/>
				<stop  offset="0.0332" style="stop-color:#00A5DE"/>
				<stop  offset="0.1649" style="stop-color:#4187A3"/>
				<stop  offset="0.2714" style="stop-color:#556B76"/>
				<stop  offset="0.3475" style="stop-color:#4D5256"/>
				<stop  offset="0.3859" style="stop-color:#464648"/>
				<stop  offset="0.4538" style="stop-color:#635652"/>
				<stop  offset="0.5983" style="stop-color:#935F4E"/>
				<stop  offset="0.7275" style="stop-color:#B95840"/>
				<stop  offset="0.8364" style="stop-color:#D4442F"/>
				<stop  offset="0.9209" style="stop-color:#E52B26"/>
				<stop  offset="0.9707" style="stop-color:#ED1C24"/>
			</linearGradient>
			<path style="fill:url(#SVGID_4_);" d="M509.809,295.791c-5.89-0.028-10.366,4.295-10.401,11.508
				c-0.034,7.213,4.401,11.578,10.291,11.606c5.89,0.028,10.367-4.295,10.401-11.508
				C520.134,300.183,515.699,295.819,509.809,295.791z"/>
			<linearGradient id="SVGID_5_" gradientUnits="userSpaceOnUse" x1="-425.9348" y1="-544.1567" x2="2001.0526" y2="1314.0055">
				<stop  offset="0" style="stop-color:#00AEEF"/>
				<stop  offset="0.0332" style="stop-color:#00A5DE"/>
				<stop  offset="0.1649" style="stop-color:#4187A3"/>
				<stop  offset="0.2714" style="stop-color:#556B76"/>
				<stop  offset="0.3475" style="stop-color:#4D5256"/>
				<stop  offset="0.3859" style="stop-color:#464648"/>
				<stop  offset="0.4538" style="stop-color:#635652"/>
				<stop  offset="0.5983" style="stop-color:#935F4E"/>
				<stop  offset="0.7275" style="stop-color:#B95840"/>
				<stop  offset="0.8364" style="stop-color:#D4442F"/>
				<stop  offset="0.9209" style="stop-color:#E52B26"/>
				<stop  offset="0.9707" style="stop-color:#ED1C24"/>
			</linearGradient>
			<path style="fill:url(#SVGID_5_);" d="M767.504,357.628c-3.204,0-5.875,1.113-8.005,3.347c-2.133,2.226-3.2,5.082-3.2,8.559
				c0,3.578,1.054,6.476,3.162,8.693c2.104,2.217,4.775,3.326,8.005,3.326c3.23,0,5.922-1.121,8.064-3.364
				c2.146-2.243,3.221-5.128,3.221-8.656c0-3.528-1.054-6.392-3.162-8.601C773.481,358.733,770.789,357.628,767.504,357.628z"/>
			<linearGradient id="SVGID_6_" gradientUnits="userSpaceOnUse" x1="-463.3208" y1="-495.3261" x2="1963.6666" y2="1362.8362">
				<stop  offset="0" style="stop-color:#00AEEF"/>
				<stop  offset="0.0332" style="stop-color:#00A5DE"/>
				<stop  offset="0.1649" style="stop-color:#4187A3"/>
				<stop  offset="0.2714" style="stop-color:#556B76"/>
				<stop  offset="0.3475" style="stop-color:#4D5256"/>
				<stop  offset="0.3859" style="stop-color:#464648"/>
				<stop  offset="0.4538" style="stop-color:#635652"/>
				<stop  offset="0.5983" style="stop-color:#935F4E"/>
				<stop  offset="0.7275" style="stop-color:#B95840"/>
				<stop  offset="0.8364" style="stop-color:#D4442F"/>
				<stop  offset="0.9209" style="stop-color:#E52B26"/>
				<stop  offset="0.9707" style="stop-color:#ED1C24"/>
			</linearGradient>
			<path style="fill:url(#SVGID_6_);" d="M584.488,294.96c-3.205,0-5.875,1.113-8.005,3.347c-2.133,2.226-3.2,5.082-3.2,8.559
				c0,3.578,1.054,6.476,3.162,8.694c2.104,2.217,4.775,3.326,8.005,3.326s5.922-1.121,8.064-3.364
				c2.146-2.243,3.221-5.128,3.221-8.656c0-3.528-1.054-6.392-3.162-8.601C590.464,296.065,587.772,294.96,584.488,294.96z"/>
			<linearGradient id="SVGID_7_" gradientUnits="userSpaceOnUse" x1="-445.2309" y1="-518.9537" x2="1981.7566" y2="1339.2085">
				<stop  offset="0" style="stop-color:#00AEEF"/>
				<stop  offset="0.0332" style="stop-color:#00A5DE"/>
				<stop  offset="0.1649" style="stop-color:#4187A3"/>
				<stop  offset="0.2714" style="stop-color:#556B76"/>
				<stop  offset="0.3475" style="stop-color:#4D5256"/>
				<stop  offset="0.3859" style="stop-color:#464648"/>
				<stop  offset="0.4538" style="stop-color:#635652"/>
				<stop  offset="0.5983" style="stop-color:#935F4E"/>
				<stop  offset="0.7275" style="stop-color:#B95840"/>
				<stop  offset="0.8364" style="stop-color:#D4442F"/>
				<stop  offset="0.9209" style="stop-color:#E52B26"/>
				<stop  offset="0.9707" style="stop-color:#ED1C24"/>
			</linearGradient>
			<path style="fill:url(#SVGID_7_);" d="M632.79,294.885c-3.251,0-5.934,1.092-8.051,3.272c-2.117,2.18-3.175,4.918-3.175,8.219
				c0,3.427,1.083,6.237,3.251,8.429c2.167,2.193,4.888,3.289,8.164,3.289c3.2,0,5.838-1.071,7.917-3.213
				c2.079-2.142,3.12-4.951,3.12-8.428c0-3.427-1.046-6.211-3.137-8.354C638.787,295.956,636.091,294.885,632.79,294.885z"/>
			<linearGradient id="SVGID_8_" gradientUnits="userSpaceOnUse" x1="-527.2125" y1="-411.8756" x2="1899.7749" y2="1446.2866">
				<stop  offset="0" style="stop-color:#00AEEF"/>
				<stop  offset="0.0332" style="stop-color:#00A5DE"/>
				<stop  offset="0.1649" style="stop-color:#4187A3"/>
				<stop  offset="0.2714" style="stop-color:#556B76"/>
				<stop  offset="0.3475" style="stop-color:#4D5256"/>
				<stop  offset="0.3859" style="stop-color:#464648"/>
				<stop  offset="0.4538" style="stop-color:#635652"/>
				<stop  offset="0.5983" style="stop-color:#935F4E"/>
				<stop  offset="0.7275" style="stop-color:#B95840"/>
				<stop  offset="0.8364" style="stop-color:#D4442F"/>
				<stop  offset="0.9209" style="stop-color:#E52B26"/>
				<stop  offset="0.9707" style="stop-color:#ED1C24"/>
			</linearGradient>
			<path style="fill:url(#SVGID_8_);" d="M411.964,295.56c-5.891-0.028-10.442,4.294-10.476,11.507
				c-0.034,7.213,4.476,11.579,10.367,11.606c5.815,0.027,10.366-4.295,10.401-11.508
				C422.289,299.952,417.778,295.587,411.964,295.56z"/>
			<linearGradient id="SVGID_9_" gradientUnits="userSpaceOnUse" x1="-505.9127" y1="-439.6958" x2="1921.0747" y2="1418.4664">
				<stop  offset="0" style="stop-color:#00AEEF"/>
				<stop  offset="0.0332" style="stop-color:#00A5DE"/>
				<stop  offset="0.1649" style="stop-color:#4187A3"/>
				<stop  offset="0.2714" style="stop-color:#556B76"/>
				<stop  offset="0.3475" style="stop-color:#4D5256"/>
				<stop  offset="0.3859" style="stop-color:#464648"/>
				<stop  offset="0.4538" style="stop-color:#635652"/>
				<stop  offset="0.5983" style="stop-color:#935F4E"/>
				<stop  offset="0.7275" style="stop-color:#B95840"/>
				<stop  offset="0.8364" style="stop-color:#D4442F"/>
				<stop  offset="0.9209" style="stop-color:#E52B26"/>
				<stop  offset="0.9707" style="stop-color:#ED1C24"/>
			</linearGradient>
			<path style="fill:url(#SVGID_9_);" d="M467.99,296.132c-2.008-1.437-4.338-2.154-6.988-2.154c-2.877,0-5.401,0.807-7.572,2.419
				c-1.361,1.008-2.625,2.784-3.784,5.33h21.216h1.161c-0.275-0.921-0.685-1.753-1.173-2.536
				C470.122,298.024,469.189,296.992,467.99,296.132z"/>
			<linearGradient id="SVGID_10_" gradientUnits="userSpaceOnUse" x1="-347.097" y1="-647.1286" x2="2079.8904" y2="1211.0337">
				<stop  offset="0" style="stop-color:#00AEEF"/>
				<stop  offset="0.0332" style="stop-color:#00A5DE"/>
				<stop  offset="0.1649" style="stop-color:#4187A3"/>
				<stop  offset="0.2714" style="stop-color:#556B76"/>
				<stop  offset="0.3475" style="stop-color:#4D5256"/>
				<stop  offset="0.3859" style="stop-color:#464648"/>
				<stop  offset="0.4538" style="stop-color:#635652"/>
				<stop  offset="0.5983" style="stop-color:#935F4E"/>
				<stop  offset="0.7275" style="stop-color:#B95840"/>
				<stop  offset="0.8364" style="stop-color:#D4442F"/>
				<stop  offset="0.9209" style="stop-color:#E52B26"/>
				<stop  offset="0.9707" style="stop-color:#ED1C24"/>
			</linearGradient>
			<path style="fill:url(#SVGID_10_);" d="M901.77,301.726c-0.275-0.921-0.685-1.753-1.173-2.536
				c-0.727-1.167-1.66-2.199-2.859-3.059c-2.007-1.437-4.338-2.154-6.988-2.154c-2.877,0-5.401,0.807-7.572,2.419
				c-1.361,1.008-2.625,2.784-3.784,5.33h21.215H901.77z"/>
			<linearGradient id="SVGID_11_" gradientUnits="userSpaceOnUse" x1="-881.1624" y1="-707.1719" x2="2487.5466" y2="1669.2532">
				<stop  offset="0" style="stop-color:#00AEEF"/>
				<stop  offset="0.0332" style="stop-color:#00A5DE"/>
				<stop  offset="0.1649" style="stop-color:#4187A3"/>
				<stop  offset="0.2714" style="stop-color:#556B76"/>
				<stop  offset="0.3475" style="stop-color:#4D5256"/>
				<stop  offset="0.3859" style="stop-color:#464648"/>
				<stop  offset="0.4538" style="stop-color:#635652"/>
				<stop  offset="0.5983" style="stop-color:#935F4E"/>
				<stop  offset="0.7275" style="stop-color:#B95840"/>
				<stop  offset="0.8364" style="stop-color:#D4442F"/>
				<stop  offset="0.9209" style="stop-color:#E52B26"/>
				<stop  offset="0.9707" style="stop-color:#ED1C24"/>
			</linearGradient>
			<path style="fill:url(#SVGID_11_);" d="M0,0v673.422h1197.194V0H0z M875.026,291.462c4.044-4.141,9.118-6.216,15.216-6.216
				c3.868,0,7.295,0.757,10.3,2.236c2.026,0.997,3.866,2.313,5.499,3.98c4.057,4.15,6.085,9.622,6.085,16.425l-0.038,1.966h-11.441
				H878.94c0.479,2.923,1.755,5.25,3.834,6.976c2.079,1.726,4.733,2.587,7.959,2.587c3.855,0,7.169-1.348,9.941-4.044l6.115,7.105
				c-1.571,1.574-3.294,2.866-5.208,3.802c-3.024,1.47-6.615,2.209-10.773,2.209c-6.451,0-11.705-2.033-15.761-6.106
				c-4.057-4.065-6.086-9.164-6.086-15.287C868.961,300.819,870.982,295.611,875.026,291.462z M732.704,286.304h10.319v4.725
				c1.764-1.941,3.725-3.389,5.88-4.347c2.158-0.958,4.506-1.437,7.055-1.437c2.57,0,4.893,0.63,6.959,1.89
				c2.066,1.26,3.733,3.099,4.993,5.518c1.638-2.419,3.65-4.259,6.031-5.518c2.385-1.26,4.989-1.89,7.811-1.89
				c2.927,0,5.497,0.68,7.719,2.041c2.217,1.36,3.813,3.137,4.783,5.33c0.97,2.192,1.457,5.758,1.457,10.697v24.115h-10.394v-20.864
				c0-4.661-0.58-7.816-1.739-9.466c-1.159-1.65-2.898-2.478-5.216-2.478c-1.764,0-3.347,0.504-4.746,1.512
				c-1.399,1.008-2.436,2.402-3.116,4.174c-0.68,1.781-1.021,4.632-1.021,8.563v18.559h-10.394v-19.919
				c0-3.679-0.273-6.342-0.815-7.992c-0.546-1.651-1.357-2.881-2.444-3.688c-1.088-0.807-2.398-1.21-3.939-1.21
				c-1.718,0-3.28,0.512-4.678,1.529c-1.403,1.025-2.453,2.453-3.146,4.292c-0.697,1.84-1.042,4.738-1.042,8.694v18.294h-10.319
				V286.304z M309.769,362.201c-30.578,0-55.365-24.788-55.365-55.366c0-30.577,24.788-55.365,55.365-55.365
				s55.366,24.788,55.366,55.365C365.135,337.413,340.347,362.201,309.769,362.201z M433.744,321.022l-11.315,13.148l0.052-10.947
				c-2.962,3.632-7.275,5.395-12.712,5.37c-11.479-0.054-20.275-8.473-20.213-21.581c0.021-4.444,1.058-8.337,2.863-11.543
				c2.643-4.694,6.939-7.907,12.128-9.202c1.72-0.429,3.536-0.652,5.425-0.643c4.984,0.024,9.205,1.672,12.134,5.099l0.11-23.19
				l11.843-13.145L433.744,321.022z M482.34,309.853h-11.441h-21.708c0.479,2.923,1.755,5.25,3.834,6.976
				c2.079,1.726,4.733,2.587,7.959,2.587c3.855,0,7.169-1.348,9.941-4.044l6.115,7.105c-1.571,1.574-3.294,2.866-5.208,3.802
				c-3.024,1.47-6.615,2.209-10.772,2.209c-6.451,0-11.705-2.033-15.762-6.106c-4.057-4.065-6.085-9.164-6.085-15.287
				c0-6.274,2.02-11.482,6.065-15.631c4.044-4.141,9.118-6.216,15.216-6.216c3.868,0,7.295,0.757,10.3,2.236
				c2.026,0.997,3.866,2.313,5.5,3.98c4.057,4.15,6.085,9.622,6.085,16.425L482.34,309.853z M511.691,328.842
				c-5.06-0.024-9.206-1.672-12.21-5.099l-0.106,22.414l-11.843,13.127l0.326-68.791l11.315-13.129l-0.066,13.877
				c2.963-3.631,7.351-5.395,12.789-5.369c11.403,0.054,20.199,8.473,20.137,21.581C531.97,320.561,523.094,328.896,511.691,328.842
				z M555.972,294.28c-1.588,0-2.932,0.983-4.028,2.948s-1.642,5.821-1.642,11.566l0.038,2.004v16.631h-11.808l-0.002-41.124h10.412
				v5.178c0.957-2.041,2.23-3.591,3.818-4.649c1.588-1.058,3.326-1.587,5.216-1.587c3.107,0,5.339,2.476,6.8,3.182l-5.817,6.759
				C557.748,294.582,556.753,294.28,555.972,294.28z M603.236,317.714c-1.928,3.377-4.553,6.018-7.879,7.917
				c-3.326,1.903-6.993,2.856-10.999,2.856c-5.896,0-10.932-2.1-15.102-6.291c-4.17-4.2-6.253-9.294-6.253-15.291
				c0-6.426,2.356-11.78,7.068-16.064c4.133-3.73,8.883-5.594,14.25-5.594c3.88,0,7.526,0.97,10.94,2.911
				c3.414,1.94,6.081,4.574,7.996,7.9c1.915,3.326,2.873,6.917,2.873,10.772C606.129,310.709,605.164,314.338,603.236,317.714z
				 M653.768,321.532c0,6.955-1.398,12.07-4.196,15.346c-3.755,4.435-9.412,6.652-16.971,6.652c-4.032,0-7.421-0.504-10.168-1.512
				c-2.477-0.909-4.587-2.225-6.368-3.904l6.594-7.662c1.008,1.159,2.306,2.033,3.893,2.629c1.587,0.588,3.465,0.886,5.632,0.886
				c2.772,0,5.002-0.429,6.69-1.285c1.688-0.857,2.877-1.966,3.57-3.326c0.693-1.361,1.042-3.704,1.042-7.03
				c-1.814,1.814-3.717,3.12-5.708,3.91c-1.991,0.798-4.246,1.193-6.766,1.193c-5.519,0-10.18-1.991-13.985-5.972
				s-5.707-9.021-5.707-15.119c0-6.526,2.016-11.768,6.048-15.724c3.654-3.578,8.013-5.367,13.078-5.367
				c2.369,0,4.603,0.437,6.707,1.302c2.104,0.874,4.216,2.302,6.333,4.292v-4.536h10.281V321.532z M659.679,286.304h10.412v5.178
				c0.957-2.041,2.23-3.591,3.818-4.649c1.588-1.058,3.326-1.587,5.216-1.587c3.107,0,5.339,2.476,6.8,3.182l-5.817,6.759
				c-1.21-0.605-2.205-0.907-2.986-0.907c-1.587,0-2.931,0.983-4.027,2.948c-1.096,1.966-1.642,5.821-1.642,11.566l0.038,2.004
				v16.631H659.68L659.679,286.304z M695.351,391.51c-5.06-0.024-9.205-1.673-12.21-5.099l-0.106,22.414l-11.843,13.127
				l0.326-68.791l11.315-13.129l-0.066,13.877c2.963-3.632,7.351-5.395,12.788-5.369c11.403,0.054,20.199,8.473,20.137,21.581
				C715.63,383.229,706.754,391.564,695.351,391.51z M711.172,327.218c-2.028,0.844-4.221,1.268-6.589,1.268
				c-5.308,0-9.903-2.058-13.779-6.182c-3.876-4.116-5.813-9.24-5.813-15.363c0-6.35,1.873-11.554,5.623-15.611
				c3.75-4.057,8.307-6.085,13.666-6.085c2.469,0,4.784,0.466,6.946,1.399c2.167,0.932,4.166,2.331,6.006,4.196v-4.536h10.319
				v41.124h-10.319v-4.347C715.216,324.997,713.196,326.379,711.172,327.218z M738.423,356.948c-1.588,0-2.932,0.983-4.028,2.948
				c-1.096,1.966-1.642,5.821-1.642,11.566l0.038,2.004v16.631h-11.808l-0.002-41.124h10.412v5.178
				c0.958-2.041,2.23-3.591,3.818-4.649c1.587-1.058,3.326-1.587,5.216-1.587c3.107,0,5.339,2.476,6.8,3.181l-5.817,6.759
				C740.199,357.25,739.204,356.948,738.423,356.948z M767.374,391.155c-5.896,0-10.932-2.1-15.102-6.291
				c-4.17-4.2-6.253-9.294-6.253-15.291c0-6.425,2.356-11.78,7.068-16.064c4.133-3.729,8.882-5.594,14.25-5.594
				c3.881,0,7.526,0.97,10.94,2.91c3.414,1.94,6.081,4.574,7.996,7.9c1.915,3.326,2.873,6.917,2.873,10.772
				c0,3.881-0.966,7.509-2.894,10.886c-1.928,3.377-4.552,6.018-7.879,7.917C775.047,390.201,771.381,391.155,767.374,391.155z
				 M807.591,391.457c0,3.906-0.386,6.82-1.155,8.752c-0.769,1.924-1.982,3.406-3.645,4.439c-1.663,1.033-3.666,1.55-6.01,1.55
				c-1.853,0-16.039,0-16.039,0l8.328-9.676c1.613,0.781,3.036,1.172,4.271,1.172c1.31,0,2.293-0.39,2.948-1.172
				c0.655-0.781,0.983-2.217,0.983-4.309v-43.241h10.319V391.457z M807.138,343.458c-1.285,1.306-2.822,1.961-4.611,1.961
				c-1.84,0-3.41-0.664-4.708-1.999c-1.298-1.331-1.944-2.94-1.944-4.821c0-1.81,0.634-3.356,1.907-4.637
				c1.272-1.281,2.818-1.923,4.632-1.923c1.839,0,3.406,0.655,4.704,1.961c1.298,1.306,1.949,2.889,1.949,4.75
				C809.065,340.581,808.423,342.152,807.138,343.458z M811.118,309.134v18.294h-10.319v-41.124h10.319v4.725
				c1.764-1.941,3.725-3.389,5.88-4.347c2.159-0.958,4.506-1.437,7.055-1.437c2.57,0,4.893,0.63,6.959,1.89
				c2.066,1.26,3.733,3.099,4.993,5.518c1.638-2.419,3.65-4.259,6.031-5.518c2.385-1.26,4.989-1.89,7.812-1.89
				c2.927,0,5.497,0.68,7.719,2.041c2.217,1.36,3.813,3.137,4.783,5.33c0.97,2.192,1.457,5.758,1.457,10.697v24.115h-10.394v-20.864
				c0-4.661-0.58-7.816-1.739-9.466c-1.159-1.65-2.898-2.478-5.216-2.478c-1.764,0-3.347,0.504-4.746,1.512
				c-1.399,1.008-2.436,2.402-3.116,4.174c-0.68,1.781-1.021,4.632-1.021,8.563v18.559h-10.394v-19.919
				c0-3.679-0.273-6.342-0.815-7.992c-0.546-1.651-1.357-2.881-2.444-3.688c-1.088-0.807-2.398-1.21-3.939-1.21
				c-1.718,0-3.28,0.512-4.678,1.529c-1.403,1.025-2.453,2.453-3.146,4.292C811.462,302.28,811.118,305.178,811.118,309.134z
				 M855.852,372.52h-11.441h-21.708c0.479,2.923,1.755,5.25,3.834,6.976c2.079,1.726,4.733,2.587,7.959,2.587
				c3.855,0,7.169-1.348,9.941-4.044l6.115,7.105c-1.571,1.574-3.294,2.866-5.208,3.802c-3.024,1.47-6.615,2.209-10.772,2.209
				c-6.451,0-11.705-2.033-15.762-6.106c-4.057-4.065-6.085-9.164-6.085-15.287c0-6.274,2.02-11.482,6.065-15.631
				c4.044-4.141,9.117-6.216,15.216-6.216c3.868,0,7.295,0.757,10.3,2.236c2.026,0.997,3.866,2.313,5.499,3.98
				c4.057,4.149,6.085,9.622,6.085,16.425L855.852,372.52z M884.176,391.154c-7.232,0-12.897-2.142-16.992-6.425
				c-4.095-4.284-6.14-9.298-6.14-15.043c0-3.982,0.995-7.648,2.986-10.999c1.991-3.351,4.767-5.984,8.332-7.9
				c3.565-1.915,7.555-2.873,11.965-2.873c3.746,0,7.141,0.688,10.187,2.054l-6.774,7.871c-1.033-0.214-2.152-0.324-3.363-0.324
				c-3.86,0-6.98,1.15-9.365,3.452c-2.381,2.301-3.574,5.254-3.574,8.849c0,3.498,1.146,6.354,3.444,8.568
				c2.293,2.213,5.309,3.322,9.042,3.322c4.62,0,8.215-1.575,10.785-4.725l6.466,7.513
				C896.912,388.93,891.247,391.154,884.176,391.154z M936.973,295.187c-1.21-0.605-2.205-0.907-2.986-0.907
				c-1.588,0-2.932,0.983-4.028,2.948c-1.096,1.966-1.642,5.821-1.642,11.566l0.038,2.003v16.631v4.101v17.442l-7.644,8.882h2.222
				h5.422v4.101v28.14h-11.808v-32.242H894.52l7.644-8.882h14.383v-16.705v-4.839h0l-0.002-41.124h10.412v5.178
				c0.958-2.041,2.23-3.591,3.818-4.649c1.588-1.058,3.326-1.587,5.216-1.587c3.107,0,5.339,2.476,6.8,3.182L936.973,295.187z"/>
			<linearGradient id="SVGID_12_" gradientUnits="userSpaceOnUse" x1="-398.1281" y1="-580.4757" x2="2028.8594" y2="1277.6865">
				<stop  offset="0" style="stop-color:#00AEEF"/>
				<stop  offset="0.0332" style="stop-color:#00A5DE"/>
				<stop  offset="0.1649" style="stop-color:#4187A3"/>
				<stop  offset="0.2714" style="stop-color:#556B76"/>
				<stop  offset="0.3475" style="stop-color:#4D5256"/>
				<stop  offset="0.3859" style="stop-color:#464648"/>
				<stop  offset="0.4538" style="stop-color:#635652"/>
				<stop  offset="0.5983" style="stop-color:#935F4E"/>
				<stop  offset="0.7275" style="stop-color:#B95840"/>
				<stop  offset="0.8364" style="stop-color:#D4442F"/>
				<stop  offset="0.9209" style="stop-color:#E52B26"/>
				<stop  offset="0.9707" style="stop-color:#ED1C24"/>
			</linearGradient>
			<path style="fill:url(#SVGID_12_);" d="M841.502,358.8c-2.008-1.437-4.338-2.154-6.988-2.154c-2.877,0-5.401,0.806-7.572,2.419
				c-1.361,1.007-2.625,2.784-3.784,5.329h21.216h1.161c-0.275-0.921-0.685-1.753-1.173-2.536
				C843.634,360.692,842.701,359.659,841.502,358.8z"/>
			<linearGradient id="SVGID_13_" gradientUnits="userSpaceOnUse" x1="-556.7777" y1="-373.2599" x2="1870.2097" y2="1484.9023">
				<stop  offset="0" style="stop-color:#00AEEF"/>
				<stop  offset="0.0332" style="stop-color:#00A5DE"/>
				<stop  offset="0.1649" style="stop-color:#4187A3"/>
				<stop  offset="0.2714" style="stop-color:#556B76"/>
				<stop  offset="0.3475" style="stop-color:#4D5256"/>
				<stop  offset="0.3859" style="stop-color:#464648"/>
				<stop  offset="0.4538" style="stop-color:#635652"/>
				<stop  offset="0.5983" style="stop-color:#935F4E"/>
				<stop  offset="0.7275" style="stop-color:#B95840"/>
				<stop  offset="0.8364" style="stop-color:#D4442F"/>
				<stop  offset="0.9209" style="stop-color:#E52B26"/>
				<stop  offset="0.9707" style="stop-color:#ED1C24"/>
			</linearGradient>
			<path style="fill:url(#SVGID_13_);" d="M323.437,308.347c0,7.006,4.327,11.225,10.048,11.225c5.721,0,10.048-4.219,10.048-11.225
				s-4.328-11.224-10.048-11.224C327.764,297.123,323.437,301.342,323.437,308.347z"/>
			
				<radialGradient id="SVGID_14_" cx="299.2156" cy="277.9845" r="99.0949" fx="251.7842" fy="220.6409" gradientTransform="matrix(0.9269 -0.3752 0.3268 0.8074 -68.9917 165.8114)" gradientUnits="userSpaceOnUse">
				<stop  offset="0" style="stop-color:#4DB748"/>
				<stop  offset="0.6625" style="stop-color:#046937"/>
			</radialGradient>
			<path style="fill:url(#SVGID_14_);" d="M323.437,308.347c0,7.006,4.327,11.225,10.048,11.225c5.721,0,10.048-4.219,10.048-11.225
				s-4.328-11.224-10.048-11.224C327.764,297.123,323.437,301.342,323.437,308.347z"/>
			<linearGradient id="SVGID_15_" gradientUnits="userSpaceOnUse" x1="-574.29" y1="-350.3866" x2="1852.6974" y2="1507.7756">
				<stop  offset="0" style="stop-color:#00AEEF"/>
				<stop  offset="0.0332" style="stop-color:#00A5DE"/>
				<stop  offset="0.1649" style="stop-color:#4187A3"/>
				<stop  offset="0.2714" style="stop-color:#556B76"/>
				<stop  offset="0.3475" style="stop-color:#4D5256"/>
				<stop  offset="0.3859" style="stop-color:#464648"/>
				<stop  offset="0.4538" style="stop-color:#635652"/>
				<stop  offset="0.5983" style="stop-color:#935F4E"/>
				<stop  offset="0.7275" style="stop-color:#B95840"/>
				<stop  offset="0.8364" style="stop-color:#D4442F"/>
				<stop  offset="0.9209" style="stop-color:#E52B26"/>
				<stop  offset="0.9707" style="stop-color:#ED1C24"/>
			</linearGradient>
			<path style="fill:url(#SVGID_15_);" d="M286.127,297.124c-5.721,0-10.122,4.218-10.122,11.224s4.401,11.224,10.122,11.224
				c5.647,0,10.048-4.219,10.048-11.224S291.774,297.124,286.127,297.124z"/>
			
				<radialGradient id="SVGID_16_" cx="299.2156" cy="277.9845" r="99.0949" fx="251.7842" fy="220.6409" gradientTransform="matrix(0.9269 -0.3752 0.3268 0.8074 -68.9917 165.8114)" gradientUnits="userSpaceOnUse">
				<stop  offset="0" style="stop-color:#4DB748"/>
				<stop  offset="0.6625" style="stop-color:#046937"/>
			</radialGradient>
			<path style="fill:url(#SVGID_16_);" d="M286.127,297.124c-5.721,0-10.122,4.218-10.122,11.224s4.401,11.224,10.122,11.224
				c5.647,0,10.048-4.219,10.048-11.224S291.774,297.124,286.127,297.124z"/>
			<linearGradient id="SVGID_17_" gradientUnits="userSpaceOnUse" x1="-564.812" y1="-362.7661" x2="1862.1754" y2="1495.3961">
				<stop  offset="0" style="stop-color:#00AEEF"/>
				<stop  offset="0.0332" style="stop-color:#00A5DE"/>
				<stop  offset="0.1649" style="stop-color:#4187A3"/>
				<stop  offset="0.2714" style="stop-color:#556B76"/>
				<stop  offset="0.3475" style="stop-color:#4D5256"/>
				<stop  offset="0.3859" style="stop-color:#464648"/>
				<stop  offset="0.4538" style="stop-color:#635652"/>
				<stop  offset="0.5983" style="stop-color:#935F4E"/>
				<stop  offset="0.7275" style="stop-color:#B95840"/>
				<stop  offset="0.8364" style="stop-color:#D4442F"/>
				<stop  offset="0.9209" style="stop-color:#E52B26"/>
				<stop  offset="0.9707" style="stop-color:#ED1C24"/>
			</linearGradient>
			<path style="fill:url(#SVGID_17_);" d="M309.769,251.47c-30.578,0-55.365,24.788-55.365,55.365
				c0,30.578,24.788,55.366,55.365,55.366s55.366-24.788,55.366-55.366C365.135,276.258,340.347,251.47,309.769,251.47z
				 M307.397,321.752l-10.929,12.821v-10.632c-2.861,3.541-7.041,5.273-12.322,5.273c-11.149,0-19.73-8.136-19.73-20.867
				c0-4.316,0.989-8.102,2.727-11.224c2.545-4.571,6.703-7.712,11.737-8.993c1.669-0.425,3.431-0.649,5.266-0.649
				c4.841,0,8.948,1.582,11.809,4.896v-22.523l11.442-12.821V321.752z M355.122,308.347c0,12.731-8.582,20.867-19.656,20.867
				c-4.914,0-8.948-1.582-11.882-4.896v21.769l-11.442,12.804V292.08l10.928-12.803v13.478c2.861-3.54,7.115-5.273,12.395-5.273
				C346.54,287.481,355.122,295.617,355.122,308.347z"/>
			<g>
				<g>
					<path d="M313.769,253.47c-30.578,0-55.365,24.788-55.365,55.365c0,30.578,24.788,55.366,55.365,55.366
						s55.366-24.788,55.366-55.366C369.135,278.258,344.347,253.47,313.769,253.47z M311.397,323.752l-10.929,12.821v-10.632
						c-2.861,3.541-7.041,5.273-12.322,5.273c-11.149,0-19.73-8.136-19.73-20.867c0-4.316,0.989-8.102,2.727-11.224
						c2.545-4.571,6.703-7.712,11.737-8.993c1.669-0.425,3.431-0.649,5.266-0.649c4.841,0,8.948,1.582,11.809,4.896v-22.523
						l11.442-12.821V323.752z M359.122,310.347c0,12.731-8.582,20.867-19.656,20.867c-4.914,0-8.948-1.582-11.882-4.896v21.769
						l-11.442,12.804V294.08l10.928-12.803v13.478c2.861-3.54,7.115-5.273,12.395-5.273
						C350.54,289.481,359.122,297.617,359.122,310.347z"/>
				</g>
				<g>
					
						<radialGradient id="SVGID_18_" cx="299.2156" cy="277.9845" r="99.0949" fx="251.7842" fy="220.6409" gradientTransform="matrix(0.9269 -0.3752 0.3268 0.8074 -68.9917 165.8114)" gradientUnits="userSpaceOnUse">
						<stop  offset="0" style="stop-color:#4DB748"/>
						<stop  offset="0.6625" style="stop-color:#046937"/>
					</radialGradient>
					<path style="fill:url(#SVGID_18_);" d="M309.769,251.47c-30.578,0-55.365,24.788-55.365,55.365
						c0,30.578,24.788,55.366,55.365,55.366s55.366-24.788,55.366-55.366C365.135,276.258,340.347,251.47,309.769,251.47z
						 M307.397,321.752l-10.929,12.821v-10.632c-2.861,3.541-7.041,5.273-12.322,5.273c-11.149,0-19.73-8.136-19.73-20.867
						c0-4.316,0.989-8.102,2.727-11.224c2.545-4.571,6.703-7.712,11.737-8.993c1.669-0.425,3.431-0.649,5.266-0.649
						c4.841,0,8.948,1.582,11.809,4.896v-22.523l11.442-12.821V321.752z M355.122,308.347c0,12.731-8.582,20.867-19.656,20.867
						c-4.914,0-8.948-1.582-11.882-4.896v21.769l-11.442,12.804V292.08l10.928-12.803v13.478c2.861-3.54,7.115-5.273,12.395-5.273
						C346.54,287.481,355.122,295.617,355.122,308.347z"/>
				</g>
			</g>
		</g>
	</g>
</g>
<g id="Layer_6">
</g>
</svg>
