<?xml version="1.0" encoding="iso-8859-1"?>
<!-- Generator: Adobe Illustrator 25.0.1, SVG Export Plug-In . SVG Version: 6.00 Build 0)  -->
<svg version="1.1" id="Layer_1" xmlns="http://www.w3.org/2000/svg" xmlns:xlink="http://www.w3.org/1999/xlink" x="0px" y="0px"
	 viewBox="0 0 512 512" style="enable-background:new 0 0 512 512;" xml:space="preserve">
<rect style="fill:#FFFFFF;" width="512" height="512"/>
<desc>Created with Fabric.js 5.3.0</desc>
<g transform="matrix(1 0 0 1 90 90)">
	<g>
		<g transform="matrix(1 0 0 1 -30 -30)">
			<rect x="-49.395" y="-49.395" width="14.872" height="14.872"/>
		</g>
		<g transform="matrix(1 0 0 1 30 -30)">
			<rect x="-20.16" y="-49.395" width="14.872" height="14.872"/>
		</g>
		<g transform="matrix(1 0 0 1 -30 -20)">
			<rect x="-49.395" y="-44.522" width="14.872" height="14.872"/>
		</g>
		<g transform="matrix(1 0 0 1 30 -20)">
			<rect x="-20.16" y="-44.522" width="14.872" height="14.872"/>
		</g>
		<g transform="matrix(1 0 0 1 -30 -10)">
			<rect x="-49.395" y="-39.65" width="14.872" height="14.872"/>
		</g>
		<g transform="matrix(1 0 0 1 30 -10)">
			<rect x="-20.16" y="-39.65" width="14.872" height="14.872"/>
		</g>
		<g transform="matrix(1 0 0 1 -30 0)">
			<rect x="-49.395" y="-34.778" width="14.872" height="14.872"/>
		</g>
		<g transform="matrix(1 0 0 1 30 0)">
			<rect x="-20.16" y="-34.778" width="14.872" height="14.872"/>
		</g>
		<g transform="matrix(1 0 0 1 -30 10)">
			<rect x="-49.395" y="-29.905" width="14.872" height="14.872"/>
		</g>
		<g transform="matrix(1 0 0 1 30 10)">
			<rect x="-20.16" y="-29.905" width="14.872" height="14.872"/>
		</g>
		<g transform="matrix(1 0 0 1 -30 20)">
			<rect x="-49.395" y="-25.033" width="14.872" height="14.872"/>
		</g>
		<g transform="matrix(1 0 0 1 30 20)">
			<rect x="-20.16" y="-25.033" width="14.872" height="14.872"/>
		</g>
		<g transform="matrix(1 0 0 1 -30 30)">
			<rect x="-49.395" y="-20.16" width="14.872" height="14.872"/>
		</g>
		<g transform="matrix(1 0 0 1 30 30)">
			<rect x="-20.16" y="-20.16" width="14.872" height="14.872"/>
		</g>
		<g transform="matrix(1 0 0 1 -20 -30)">
			<rect x="-44.522" y="-49.395" width="14.872" height="14.872"/>
		</g>
		<g transform="matrix(1 0 0 1 -20 30)">
			<rect x="-44.522" y="-20.16" width="14.872" height="14.872"/>
		</g>
		<g transform="matrix(1 0 0 1 -10 -30)">
			<rect x="-39.65" y="-49.395" width="14.872" height="14.872"/>
		</g>
		<g transform="matrix(1 0 0 1 -10 30)">
			<rect x="-39.65" y="-20.16" width="14.872" height="14.872"/>
		</g>
		<g transform="matrix(1 0 0 1 0 -30)">
			<rect x="-34.778" y="-49.395" width="14.872" height="14.872"/>
		</g>
		<g transform="matrix(1 0 0 1 0 30)">
			<rect x="-34.778" y="-20.16" width="14.872" height="14.872"/>
		</g>
		<g transform="matrix(1 0 0 1 10 -30)">
			<rect x="-29.905" y="-49.395" width="14.872" height="14.872"/>
		</g>
		<g transform="matrix(1 0 0 1 10 30)">
			<rect x="-29.905" y="-20.16" width="14.872" height="14.872"/>
		</g>
		<g transform="matrix(1 0 0 1 20 -30)">
			<rect x="-25.033" y="-49.395" width="14.872" height="14.872"/>
		</g>
		<g transform="matrix(1 0 0 1 20 30)">
			<rect x="-25.033" y="-20.16" width="14.872" height="14.872"/>
		</g>
	</g>
</g>
<g transform="matrix(1 0 0 1 90 90)">
	<g>
		<g transform="matrix(1 0 0 1 -10 -10)">
			<rect x="-39.65" y="-39.65" width="14.872" height="14.872"/>
		</g>
		<g transform="matrix(1 0 0 1 0 -10)">
			<rect x="-34.778" y="-39.65" width="14.872" height="14.872"/>
		</g>
		<g transform="matrix(1 0 0 1 10 -10)">
			<rect x="-29.905" y="-39.65" width="14.872" height="14.872"/>
		</g>
		<g transform="matrix(1 0 0 1 -10 0)">
			<rect x="-39.65" y="-34.778" width="14.872" height="14.872"/>
		</g>
		<g transform="matrix(1 0 0 1 0 0)">
			<rect x="-34.778" y="-34.778" width="14.872" height="14.872"/>
		</g>
		<g transform="matrix(1 0 0 1 10 0)">
			<rect x="-29.905" y="-34.778" width="14.872" height="14.872"/>
		</g>
		<g transform="matrix(1 0 0 1 -10 10)">
			<rect x="-39.65" y="-29.905" width="14.872" height="14.872"/>
		</g>
		<g transform="matrix(1 0 0 1 0 10)">
			<rect x="-34.778" y="-29.905" width="14.872" height="14.872"/>
		</g>
		<g transform="matrix(1 0 0 1 10 10)">
			<rect x="-29.905" y="-29.905" width="14.872" height="14.872"/>
		</g>
	</g>
</g>
<g transform="matrix(1 0 0 1 90 350)">
	<g>
		<g transform="matrix(1 0 0 1 -30 -30)">
			<rect x="-49.395" y="77.288" width="14.872" height="14.872"/>
		</g>
		<g transform="matrix(1 0 0 1 30 -30)">
			<rect x="-20.16" y="77.288" width="14.872" height="14.872"/>
		</g>
		<g transform="matrix(1 0 0 1 -30 -20)">
			<rect x="-49.395" y="82.16" width="14.872" height="14.872"/>
		</g>
		<g transform="matrix(1 0 0 1 30 -20)">
			<rect x="-20.16" y="82.16" width="14.872" height="14.872"/>
		</g>
		<g transform="matrix(1 0 0 1 -30 -10)">
			<rect x="-49.395" y="87.033" width="14.872" height="14.872"/>
		</g>
		<g transform="matrix(1 0 0 1 30 -10)">
			<rect x="-20.16" y="87.033" width="14.872" height="14.872"/>
		</g>
		<g transform="matrix(1 0 0 1 -30 0)">
			<rect x="-49.395" y="91.905" width="14.872" height="14.872"/>
		</g>
		<g transform="matrix(1 0 0 1 30 0)">
			<rect x="-20.16" y="91.905" width="14.872" height="14.872"/>
		</g>
		<g transform="matrix(1 0 0 1 -30 10)">
			<rect x="-49.395" y="96.778" width="14.872" height="14.872"/>
		</g>
		<g transform="matrix(1 0 0 1 30 10)">
			<rect x="-20.16" y="96.778" width="14.872" height="14.872"/>
		</g>
		<g transform="matrix(1 0 0 1 -30 20)">
			<rect x="-49.395" y="101.65" width="14.872" height="14.872"/>
		</g>
		<g transform="matrix(1 0 0 1 30 20)">
			<rect x="-20.16" y="101.65" width="14.872" height="14.872"/>
		</g>
		<g transform="matrix(1 0 0 1 -30 30)">
			<rect x="-49.395" y="106.522" width="14.872" height="14.872"/>
		</g>
		<g transform="matrix(1 0 0 1 30 30)">
			<rect x="-20.16" y="106.522" width="14.872" height="14.872"/>
		</g>
		<g transform="matrix(1 0 0 1 -20 -30)">
			<rect x="-44.522" y="77.288" width="14.872" height="14.872"/>
		</g>
		<g transform="matrix(1 0 0 1 -20 30)">
			<rect x="-44.522" y="106.522" width="14.872" height="14.872"/>
		</g>
		<g transform="matrix(1 0 0 1 -10 -30)">
			<rect x="-39.65" y="77.288" width="14.872" height="14.872"/>
		</g>
		<g transform="matrix(1 0 0 1 -10 30)">
			<rect x="-39.65" y="106.522" width="14.872" height="14.872"/>
		</g>
		<g transform="matrix(1 0 0 1 0 -30)">
			<rect x="-34.778" y="77.288" width="14.872" height="14.872"/>
		</g>
		<g transform="matrix(1 0 0 1 0 30)">
			<rect x="-34.778" y="106.522" width="14.872" height="14.872"/>
		</g>
		<g transform="matrix(1 0 0 1 10 -30)">
			<rect x="-29.905" y="77.288" width="14.872" height="14.872"/>
		</g>
		<g transform="matrix(1 0 0 1 10 30)">
			<rect x="-29.905" y="106.522" width="14.872" height="14.872"/>
		</g>
		<g transform="matrix(1 0 0 1 20 -30)">
			<rect x="-25.033" y="77.288" width="14.872" height="14.872"/>
		</g>
		<g transform="matrix(1 0 0 1 20 30)">
			<rect x="-25.033" y="106.522" width="14.872" height="14.872"/>
		</g>
	</g>
</g>
<g transform="matrix(1 0 0 1 90 350)">
	<g>
		<g transform="matrix(1 0 0 1 -10 -10)">
			<rect x="-39.65" y="87.033" width="14.872" height="14.872"/>
		</g>
		<g transform="matrix(1 0 0 1 0 -10)">
			<rect x="-34.778" y="87.033" width="14.872" height="14.872"/>
		</g>
		<g transform="matrix(1 0 0 1 10 -10)">
			<rect x="-29.905" y="87.033" width="14.872" height="14.872"/>
		</g>
		<g transform="matrix(1 0 0 1 -10 0)">
			<rect x="-39.65" y="91.905" width="14.872" height="14.872"/>
		</g>
		<g transform="matrix(1 0 0 1 0 0)">
			<rect x="-34.778" y="91.905" width="14.872" height="14.872"/>
		</g>
		<g transform="matrix(1 0 0 1 10 0)">
			<rect x="-29.905" y="91.905" width="14.872" height="14.872"/>
		</g>
		<g transform="matrix(1 0 0 1 -10 10)">
			<rect x="-39.65" y="96.778" width="14.872" height="14.872"/>
		</g>
		<g transform="matrix(1 0 0 1 0 10)">
			<rect x="-34.778" y="96.778" width="14.872" height="14.872"/>
		</g>
		<g transform="matrix(1 0 0 1 10 10)">
			<rect x="-29.905" y="96.778" width="14.872" height="14.872"/>
		</g>
	</g>
</g>
<g transform="matrix(1 0 0 1 350 90)">
	<g>
		<g transform="matrix(1 0 0 1 -30 -30)">
			<rect x="77.288" y="-49.395" width="14.872" height="14.872"/>
		</g>
		<g transform="matrix(1 0 0 1 30 -30)">
			<rect x="106.522" y="-49.395" width="14.872" height="14.872"/>
		</g>
		<g transform="matrix(1 0 0 1 -30 -20)">
			<rect x="77.288" y="-44.522" width="14.872" height="14.872"/>
		</g>
		<g transform="matrix(1 0 0 1 30 -20)">
			<rect x="106.522" y="-44.522" width="14.872" height="14.872"/>
		</g>
		<g transform="matrix(1 0 0 1 -30 -10)">
			<rect x="77.288" y="-39.65" width="14.872" height="14.872"/>
		</g>
		<g transform="matrix(1 0 0 1 30 -10)">
			<rect x="106.522" y="-39.65" width="14.872" height="14.872"/>
		</g>
		<g transform="matrix(1 0 0 1 -30 0)">
			<rect x="77.288" y="-34.778" width="14.872" height="14.872"/>
		</g>
		<g transform="matrix(1 0 0 1 30 0)">
			<rect x="106.522" y="-34.778" width="14.872" height="14.872"/>
		</g>
		<g transform="matrix(1 0 0 1 -30 10)">
			<rect x="77.288" y="-29.905" width="14.872" height="14.872"/>
		</g>
		<g transform="matrix(1 0 0 1 30 10)">
			<rect x="106.522" y="-29.905" width="14.872" height="14.872"/>
		</g>
		<g transform="matrix(1 0 0 1 -30 20)">
			<rect x="77.288" y="-25.033" width="14.872" height="14.872"/>
		</g>
		<g transform="matrix(1 0 0 1 30 20)">
			<rect x="106.522" y="-25.033" width="14.872" height="14.872"/>
		</g>
		<g transform="matrix(1 0 0 1 -30 30)">
			<rect x="77.288" y="-20.16" width="14.872" height="14.872"/>
		</g>
		<g transform="matrix(1 0 0 1 30 30)">
			<rect x="106.522" y="-20.16" width="14.872" height="14.872"/>
		</g>
		<g transform="matrix(1 0 0 1 -20 -30)">
			<rect x="82.16" y="-49.395" width="14.872" height="14.872"/>
		</g>
		<g transform="matrix(1 0 0 1 -20 30)">
			<rect x="82.16" y="-20.16" width="14.872" height="14.872"/>
		</g>
		<g transform="matrix(1 0 0 1 -10 -30)">
			<rect x="87.033" y="-49.395" width="14.872" height="14.872"/>
		</g>
		<g transform="matrix(1 0 0 1 -10 30)">
			<rect x="87.033" y="-20.16" width="14.872" height="14.872"/>
		</g>
		<g transform="matrix(1 0 0 1 0 -30)">
			<rect x="91.905" y="-49.395" width="14.872" height="14.872"/>
		</g>
		<g transform="matrix(1 0 0 1 0 30)">
			<rect x="91.905" y="-20.16" width="14.872" height="14.872"/>
		</g>
		<g transform="matrix(1 0 0 1 10 -30)">
			<rect x="96.778" y="-49.395" width="14.872" height="14.872"/>
		</g>
		<g transform="matrix(1 0 0 1 10 30)">
			<rect x="96.778" y="-20.16" width="14.872" height="14.872"/>
		</g>
		<g transform="matrix(1 0 0 1 20 -30)">
			<rect x="101.65" y="-49.395" width="14.872" height="14.872"/>
		</g>
		<g transform="matrix(1 0 0 1 20 30)">
			<rect x="101.65" y="-20.16" width="14.872" height="14.872"/>
		</g>
	</g>
</g>
<g transform="matrix(1 0 0 1 350 90)">
	<g>
		<g transform="matrix(1 0 0 1 -10 -10)">
			<rect x="87.033" y="-39.65" width="14.872" height="14.872"/>
		</g>
		<g transform="matrix(1 0 0 1 0 -10)">
			<rect x="91.905" y="-39.65" width="14.872" height="14.872"/>
		</g>
		<g transform="matrix(1 0 0 1 10 -10)">
			<rect x="96.778" y="-39.65" width="14.872" height="14.872"/>
		</g>
		<g transform="matrix(1 0 0 1 -10 0)">
			<rect x="87.033" y="-34.778" width="14.872" height="14.872"/>
		</g>
		<g transform="matrix(1 0 0 1 0 0)">
			<rect x="91.905" y="-34.778" width="14.872" height="14.872"/>
		</g>
		<g transform="matrix(1 0 0 1 10 0)">
			<rect x="96.778" y="-34.778" width="14.872" height="14.872"/>
		</g>
		<g transform="matrix(1 0 0 1 -10 10)">
			<rect x="87.033" y="-29.905" width="14.872" height="14.872"/>
		</g>
		<g transform="matrix(1 0 0 1 0 10)">
			<rect x="91.905" y="-29.905" width="14.872" height="14.872"/>
		</g>
		<g transform="matrix(1 0 0 1 10 10)">
			<rect x="96.778" y="-29.905" width="14.872" height="14.872"/>
		</g>
	</g>
</g>
<g transform="matrix(1 0 0 1 160 60)">
	<rect x="-0.671" y="-49.395" width="14.872" height="14.872"/>
</g>
<g transform="matrix(1 0 0 1 210 60)">
	<rect x="23.691" y="-49.395" width="14.872" height="14.872"/>
</g>
<g transform="matrix(1 0 0 1 220 60)">
	<rect x="28.564" y="-49.395" width="14.872" height="14.872"/>
</g>
<g transform="matrix(1 0 0 1 290 60)">
	<rect x="62.671" y="-49.395" width="14.872" height="14.872"/>
</g>
<g transform="matrix(1 0 0 1 300 60)">
	<rect x="67.543" y="-49.395" width="14.872" height="14.872"/>
</g>
<g transform="matrix(1 0 0 1 160 70)">
	<rect x="-0.671" y="-44.522" width="14.872" height="14.872"/>
</g>
<g transform="matrix(1 0 0 1 170 70)">
	<rect x="4.202" y="-44.522" width="14.872" height="14.872"/>
</g>
<g transform="matrix(1 0 0 1 190 70)">
	<rect x="13.947" y="-44.522" width="14.872" height="14.872"/>
</g>
<g transform="matrix(1 0 0 1 210 70)">
	<rect x="23.691" y="-44.522" width="14.872" height="14.872"/>
</g>
<g transform="matrix(1 0 0 1 220 70)">
	<rect x="28.564" y="-44.522" width="14.872" height="14.872"/>
</g>
<g transform="matrix(1 0 0 1 240 70)">
	<rect x="38.309" y="-44.522" width="14.872" height="14.872"/>
</g>
<g transform="matrix(1 0 0 1 260 70)">
	<rect x="48.053" y="-44.522" width="14.872" height="14.872"/>
</g>
<g transform="matrix(1 0 0 1 270 70)">
	<rect x="52.926" y="-44.522" width="14.872" height="14.872"/>
</g>
<g transform="matrix(1 0 0 1 280 70)">
	<rect x="57.798" y="-44.522" width="14.872" height="14.872"/>
</g>
<g transform="matrix(1 0 0 1 290 70)">
	<rect x="62.671" y="-44.522" width="14.872" height="14.872"/>
</g>
<g transform="matrix(1 0 0 1 150 80)">
	<rect x="-5.543" y="-39.65" width="14.872" height="14.872"/>
</g>
<g transform="matrix(1 0 0 1 160 80)">
	<rect x="-0.671" y="-39.65" width="14.872" height="14.872"/>
</g>
<g transform="matrix(1 0 0 1 200 80)">
	<rect x="18.819" y="-39.65" width="14.872" height="14.872"/>
</g>
<g transform="matrix(1 0 0 1 230 80)">
	<rect x="33.436" y="-39.65" width="14.872" height="14.872"/>
</g>
<g transform="matrix(1 0 0 1 250 80)">
	<rect x="43.181" y="-39.65" width="14.872" height="14.872"/>
</g>
<g transform="matrix(1 0 0 1 290 80)">
	<rect x="62.671" y="-39.65" width="14.872" height="14.872"/>
</g>
<g transform="matrix(1 0 0 1 150 90)">
	<rect x="-5.543" y="-34.778" width="14.872" height="14.872"/>
</g>
<g transform="matrix(1 0 0 1 180 90)">
	<rect x="9.074" y="-34.778" width="14.872" height="14.872"/>
</g>
<g transform="matrix(1 0 0 1 190 90)">
	<rect x="13.947" y="-34.778" width="14.872" height="14.872"/>
</g>
<g transform="matrix(1 0 0 1 200 90)">
	<rect x="18.819" y="-34.778" width="14.872" height="14.872"/>
</g>
<g transform="matrix(1 0 0 1 210 90)">
	<rect x="23.691" y="-34.778" width="14.872" height="14.872"/>
</g>
<g transform="matrix(1 0 0 1 230 90)">
	<rect x="33.436" y="-34.778" width="14.872" height="14.872"/>
</g>
<g transform="matrix(1 0 0 1 250 90)">
	<rect x="43.181" y="-34.778" width="14.872" height="14.872"/>
</g>
<g transform="matrix(1 0 0 1 290 90)">
	<rect x="62.671" y="-34.778" width="14.872" height="14.872"/>
</g>
<g transform="matrix(1 0 0 1 300 90)">
	<rect x="67.543" y="-34.778" width="14.872" height="14.872"/>
</g>
<g transform="matrix(1 0 0 1 140 100)">
	<rect x="-10.415" y="-29.905" width="14.872" height="14.872"/>
</g>
<g transform="matrix(1 0 0 1 170 100)">
	<rect x="4.202" y="-29.905" width="14.872" height="14.872"/>
</g>
<g transform="matrix(1 0 0 1 180 100)">
	<rect x="9.074" y="-29.905" width="14.872" height="14.872"/>
</g>
<g transform="matrix(1 0 0 1 200 100)">
	<rect x="18.819" y="-29.905" width="14.872" height="14.872"/>
</g>
<g transform="matrix(1 0 0 1 210 100)">
	<rect x="23.691" y="-29.905" width="14.872" height="14.872"/>
</g>
<g transform="matrix(1 0 0 1 220 100)">
	<rect x="28.564" y="-29.905" width="14.872" height="14.872"/>
</g>
<g transform="matrix(1 0 0 1 230 100)">
	<rect x="33.436" y="-29.905" width="14.872" height="14.872"/>
</g>
<g transform="matrix(1 0 0 1 260 100)">
	<rect x="48.053" y="-29.905" width="14.872" height="14.872"/>
</g>
<g transform="matrix(1 0 0 1 270 100)">
	<rect x="52.926" y="-29.905" width="14.872" height="14.872"/>
</g>
<g transform="matrix(1 0 0 1 290 100)">
	<rect x="62.671" y="-29.905" width="14.872" height="14.872"/>
</g>
<g transform="matrix(1 0 0 1 300 100)">
	<rect x="67.543" y="-29.905" width="14.872" height="14.872"/>
</g>
<g transform="matrix(1 0 0 1 170 110)">
	<rect x="4.202" y="-25.033" width="14.872" height="14.872"/>
</g>
<g transform="matrix(1 0 0 1 180 110)">
	<rect x="9.074" y="-25.033" width="14.872" height="14.872"/>
</g>
<g transform="matrix(1 0 0 1 190 110)">
	<rect x="13.947" y="-25.033" width="14.872" height="14.872"/>
</g>
<g transform="matrix(1 0 0 1 200 110)">
	<rect x="18.819" y="-25.033" width="14.872" height="14.872"/>
</g>
<g transform="matrix(1 0 0 1 220 110)">
	<rect x="28.564" y="-25.033" width="14.872" height="14.872"/>
</g>
<g transform="matrix(1 0 0 1 240 110)">
	<rect x="38.309" y="-25.033" width="14.872" height="14.872"/>
</g>
<g transform="matrix(1 0 0 1 250 110)">
	<rect x="43.181" y="-25.033" width="14.872" height="14.872"/>
</g>
<g transform="matrix(1 0 0 1 290 110)">
	<rect x="62.671" y="-25.033" width="14.872" height="14.872"/>
</g>
<g transform="matrix(1 0 0 1 140 120)">
	<rect x="-10.415" y="-20.16" width="14.872" height="14.872"/>
</g>
<g transform="matrix(1 0 0 1 160 120)">
	<rect x="-0.671" y="-20.16" width="14.872" height="14.872"/>
</g>
<g transform="matrix(1 0 0 1 180 120)">
	<rect x="9.074" y="-20.16" width="14.872" height="14.872"/>
</g>
<g transform="matrix(1 0 0 1 200 120)">
	<rect x="18.819" y="-20.16" width="14.872" height="14.872"/>
</g>
<g transform="matrix(1 0 0 1 220 120)">
	<rect x="28.564" y="-20.16" width="14.872" height="14.872"/>
</g>
<g transform="matrix(1 0 0 1 240 120)">
	<rect x="38.309" y="-20.16" width="14.872" height="14.872"/>
</g>
<g transform="matrix(1 0 0 1 260 120)">
	<rect x="48.053" y="-20.16" width="14.872" height="14.872"/>
</g>
<g transform="matrix(1 0 0 1 280 120)">
	<rect x="57.798" y="-20.16" width="14.872" height="14.872"/>
</g>
<g transform="matrix(1 0 0 1 300 120)">
	<rect x="67.543" y="-20.16" width="14.872" height="14.872"/>
</g>
<g transform="matrix(1 0 0 1 140 130)">
	<rect x="-10.415" y="-15.288" width="14.872" height="14.872"/>
</g>
<g transform="matrix(1 0 0 1 160 130)">
	<rect x="-0.671" y="-15.288" width="14.872" height="14.872"/>
</g>
<g transform="matrix(1 0 0 1 170 130)">
	<rect x="4.202" y="-15.288" width="14.872" height="14.872"/>
</g>
<g transform="matrix(1 0 0 1 180 130)">
	<rect x="9.074" y="-15.288" width="14.872" height="14.872"/>
</g>
<g transform="matrix(1 0 0 1 200 130)">
	<rect x="18.819" y="-15.288" width="14.872" height="14.872"/>
</g>
<g transform="matrix(1 0 0 1 250 130)">
	<rect x="43.181" y="-15.288" width="14.872" height="14.872"/>
</g>
<g transform="matrix(1 0 0 1 280 130)">
	<rect x="57.798" y="-15.288" width="14.872" height="14.872"/>
</g>
<g transform="matrix(1 0 0 1 300 130)">
	<rect x="67.543" y="-15.288" width="14.872" height="14.872"/>
</g>
<g transform="matrix(1 0 0 1 80 140)">
	<rect x="-39.65" y="-10.415" width="14.872" height="14.872"/>
</g>
<g transform="matrix(1 0 0 1 90 140)">
	<rect x="-34.778" y="-10.415" width="14.872" height="14.872"/>
</g>
<g transform="matrix(1 0 0 1 120 140)">
	<rect x="-20.16" y="-10.415" width="14.872" height="14.872"/>
</g>
<g transform="matrix(1 0 0 1 130 140)">
	<rect x="-15.288" y="-10.415" width="14.872" height="14.872"/>
</g>
<g transform="matrix(1 0 0 1 140 140)">
	<rect x="-10.415" y="-10.415" width="14.872" height="14.872"/>
</g>
<g transform="matrix(1 0 0 1 160 140)">
	<rect x="-0.671" y="-10.415" width="14.872" height="14.872"/>
</g>
<g transform="matrix(1 0 0 1 170 140)">
	<rect x="4.202" y="-10.415" width="14.872" height="14.872"/>
</g>
<g transform="matrix(1 0 0 1 180 140)">
	<rect x="9.074" y="-10.415" width="14.872" height="14.872"/>
</g>
<g transform="matrix(1 0 0 1 190 140)">
	<rect x="13.947" y="-10.415" width="14.872" height="14.872"/>
</g>
<g transform="matrix(1 0 0 1 200 140)">
	<rect x="18.819" y="-10.415" width="14.872" height="14.872"/>
</g>
<g transform="matrix(1 0 0 1 210 140)">
	<rect x="23.691" y="-10.415" width="14.872" height="14.872"/>
</g>
<g transform="matrix(1 0 0 1 250 140)">
	<rect x="43.181" y="-10.415" width="14.872" height="14.872"/>
</g>
<g transform="matrix(1 0 0 1 260 140)">
	<rect x="48.053" y="-10.415" width="14.872" height="14.872"/>
</g>
<g transform="matrix(1 0 0 1 270 140)">
	<rect x="52.926" y="-10.415" width="14.872" height="14.872"/>
</g>
<g transform="matrix(1 0 0 1 280 140)">
	<rect x="57.798" y="-10.415" width="14.872" height="14.872"/>
</g>
<g transform="matrix(1 0 0 1 290 140)">
	<rect x="62.671" y="-10.415" width="14.872" height="14.872"/>
</g>
<g transform="matrix(1 0 0 1 300 140)">
	<rect x="67.543" y="-10.415" width="14.872" height="14.872"/>
</g>
<g transform="matrix(1 0 0 1 310 140)">
	<rect x="72.415" y="-10.415" width="14.872" height="14.872"/>
</g>
<g transform="matrix(1 0 0 1 320 140)">
	<rect x="77.288" y="-10.415" width="14.872" height="14.872"/>
</g>
<g transform="matrix(1 0 0 1 340 140)">
	<rect x="87.033" y="-10.415" width="14.872" height="14.872"/>
</g>
<g transform="matrix(1 0 0 1 90 150)">
	<rect x="-34.778" y="-5.543" width="14.872" height="14.872"/>
</g>
<g transform="matrix(1 0 0 1 110 150)">
	<rect x="-25.033" y="-5.543" width="14.872" height="14.872"/>
</g>
<g transform="matrix(1 0 0 1 170 150)">
	<rect x="4.202" y="-5.543" width="14.872" height="14.872"/>
</g>
<g transform="matrix(1 0 0 1 210 150)">
	<rect x="23.691" y="-5.543" width="14.872" height="14.872"/>
</g>
<g transform="matrix(1 0 0 1 220 150)">
	<rect x="28.564" y="-5.543" width="14.872" height="14.872"/>
</g>
<g transform="matrix(1 0 0 1 230 150)">
	<rect x="33.436" y="-5.543" width="14.872" height="14.872"/>
</g>
<g transform="matrix(1 0 0 1 260 150)">
	<rect x="48.053" y="-5.543" width="14.872" height="14.872"/>
</g>
<g transform="matrix(1 0 0 1 270 150)">
	<rect x="52.926" y="-5.543" width="14.872" height="14.872"/>
</g>
<g transform="matrix(1 0 0 1 280 150)">
	<rect x="57.798" y="-5.543" width="14.872" height="14.872"/>
</g>
<g transform="matrix(1 0 0 1 290 150)">
	<rect x="62.671" y="-5.543" width="14.872" height="14.872"/>
</g>
<g transform="matrix(1 0 0 1 300 150)">
	<rect x="67.543" y="-5.543" width="14.872" height="14.872"/>
</g>
<g transform="matrix(1 0 0 1 310 150)">
	<rect x="72.415" y="-5.543" width="14.872" height="14.872"/>
</g>
<g transform="matrix(1 0 0 1 320 150)">
	<rect x="77.288" y="-5.543" width="14.872" height="14.872"/>
</g>
<g transform="matrix(1 0 0 1 360 150)">
	<rect x="96.778" y="-5.543" width="14.872" height="14.872"/>
</g>
<g transform="matrix(1 0 0 1 380 150)">
	<rect x="106.522" y="-5.543" width="14.872" height="14.872"/>
</g>
<g transform="matrix(1 0 0 1 110 160)">
	<rect x="-25.033" y="-0.671" width="14.872" height="14.872"/>
</g>
<g transform="matrix(1 0 0 1 120 160)">
	<rect x="-20.16" y="-0.671" width="14.872" height="14.872"/>
</g>
<g transform="matrix(1 0 0 1 150 160)">
	<rect x="-5.543" y="-0.671" width="14.872" height="14.872"/>
</g>
<g transform="matrix(1 0 0 1 290 160)">
	<rect x="62.671" y="-0.671" width="14.872" height="14.872"/>
</g>
<g transform="matrix(1 0 0 1 310 160)">
	<rect x="72.415" y="-0.671" width="14.872" height="14.872"/>
</g>
<g transform="matrix(1 0 0 1 320 160)">
	<rect x="77.288" y="-0.671" width="14.872" height="14.872"/>
</g>
<g transform="matrix(1 0 0 1 370 160)">
	<rect x="101.65" y="-0.671" width="14.872" height="14.872"/>
</g>
<g transform="matrix(1 0 0 1 380 160)">
	<rect x="106.522" y="-0.671" width="14.872" height="14.872"/>
</g>
<g transform="matrix(1 0 0 1 80 170)">
	<rect x="-39.65" y="4.202" width="14.872" height="14.872"/>
</g>
<g transform="matrix(1 0 0 1 100 170)">
	<rect x="-29.905" y="4.202" width="14.872" height="14.872"/>
</g>
<g transform="matrix(1 0 0 1 140 170)">
	<rect x="-10.415" y="4.202" width="14.872" height="14.872"/>
</g>
<g transform="matrix(1 0 0 1 150 170)">
	<rect x="-5.543" y="4.202" width="14.872" height="14.872"/>
</g>
<g transform="matrix(1 0 0 1 290 170)">
	<rect x="62.671" y="4.202" width="14.872" height="14.872"/>
</g>
<g transform="matrix(1 0 0 1 310 170)">
	<rect x="72.415" y="4.202" width="14.872" height="14.872"/>
</g>
<g transform="matrix(1 0 0 1 320 170)">
	<rect x="77.288" y="4.202" width="14.872" height="14.872"/>
</g>
<g transform="matrix(1 0 0 1 330 170)">
	<rect x="82.16" y="4.202" width="14.872" height="14.872"/>
</g>
<g transform="matrix(1 0 0 1 340 170)">
	<rect x="87.033" y="4.202" width="14.872" height="14.872"/>
</g>
<g transform="matrix(1 0 0 1 350 170)">
	<rect x="91.905" y="4.202" width="14.872" height="14.872"/>
</g>
<g transform="matrix(1 0 0 1 380 170)">
	<rect x="106.522" y="4.202" width="14.872" height="14.872"/>
</g>
<g transform="matrix(1 0 0 1 60 180)">
	<rect x="-49.395" y="9.074" width="14.872" height="14.872"/>
</g>
<g transform="matrix(1 0 0 1 120 180)">
	<rect x="-20.16" y="9.074" width="14.872" height="14.872"/>
</g>
<g transform="matrix(1 0 0 1 130 180)">
	<rect x="-15.288" y="9.074" width="14.872" height="14.872"/>
</g>
<g transform="matrix(1 0 0 1 150 180)">
	<rect x="-5.543" y="9.074" width="14.872" height="14.872"/>
</g>
<g transform="matrix(1 0 0 1 300 180)">
	<rect x="67.543" y="9.074" width="14.872" height="14.872"/>
</g>
<g transform="matrix(1 0 0 1 360 180)">
	<rect x="96.778" y="9.074" width="14.872" height="14.872"/>
</g>
<g transform="matrix(1 0 0 1 70 190)">
	<rect x="-44.522" y="13.947" width="14.872" height="14.872"/>
</g>
<g transform="matrix(1 0 0 1 90 190)">
	<rect x="-34.778" y="13.947" width="14.872" height="14.872"/>
</g>
<g transform="matrix(1 0 0 1 100 190)">
	<rect x="-29.905" y="13.947" width="14.872" height="14.872"/>
</g>
<g transform="matrix(1 0 0 1 130 190)">
	<rect x="-15.288" y="13.947" width="14.872" height="14.872"/>
</g>
<g transform="matrix(1 0 0 1 140 190)">
	<rect x="-10.415" y="13.947" width="14.872" height="14.872"/>
</g>
<g transform="matrix(1 0 0 1 150 190)">
	<rect x="-5.543" y="13.947" width="14.872" height="14.872"/>
</g>
<g transform="matrix(1 0 0 1 300 190)">
	<rect x="67.543" y="13.947" width="14.872" height="14.872"/>
</g>
<g transform="matrix(1 0 0 1 350 190)">
	<rect x="91.905" y="13.947" width="14.872" height="14.872"/>
</g>
<g transform="matrix(1 0 0 1 80 200)">
	<rect x="-39.65" y="18.819" width="14.872" height="14.872"/>
</g>
<g transform="matrix(1 0 0 1 90 200)">
	<rect x="-34.778" y="18.819" width="14.872" height="14.872"/>
</g>
<g transform="matrix(1 0 0 1 100 200)">
	<rect x="-29.905" y="18.819" width="14.872" height="14.872"/>
</g>
<g transform="matrix(1 0 0 1 120 200)">
	<rect x="-20.16" y="18.819" width="14.872" height="14.872"/>
</g>
<g transform="matrix(1 0 0 1 130 200)">
	<rect x="-15.288" y="18.819" width="14.872" height="14.872"/>
</g>
<g transform="matrix(1 0 0 1 140 200)">
	<rect x="-10.415" y="18.819" width="14.872" height="14.872"/>
</g>
<g transform="matrix(1 0 0 1 150 200)">
	<rect x="-5.543" y="18.819" width="14.872" height="14.872"/>
</g>
<g transform="matrix(1 0 0 1 300 200)">
	<rect x="67.543" y="18.819" width="14.872" height="14.872"/>
</g>
<g transform="matrix(1 0 0 1 320 200)">
	<rect x="77.288" y="18.819" width="14.872" height="14.872"/>
</g>
<g transform="matrix(1 0 0 1 330 200)">
	<rect x="82.16" y="18.819" width="14.872" height="14.872"/>
</g>
<g transform="matrix(1 0 0 1 340 200)">
	<rect x="87.033" y="18.819" width="14.872" height="14.872"/>
</g>
<g transform="matrix(1 0 0 1 350 200)">
	<rect x="91.905" y="18.819" width="14.872" height="14.872"/>
</g>
<g transform="matrix(1 0 0 1 100 210)">
	<rect x="-29.905" y="23.691" width="14.872" height="14.872"/>
</g>
<g transform="matrix(1 0 0 1 110 210)">
	<rect x="-25.033" y="23.691" width="14.872" height="14.872"/>
</g>
<g transform="matrix(1 0 0 1 130 210)">
	<rect x="-15.288" y="23.691" width="14.872" height="14.872"/>
</g>
<g transform="matrix(1 0 0 1 300 210)">
	<rect x="67.543" y="23.691" width="14.872" height="14.872"/>
</g>
<g transform="matrix(1 0 0 1 310 210)">
	<rect x="72.415" y="23.691" width="14.872" height="14.872"/>
</g>
<g transform="matrix(1 0 0 1 320 210)">
	<rect x="77.288" y="23.691" width="14.872" height="14.872"/>
</g>
<g transform="matrix(1 0 0 1 330 210)">
	<rect x="82.16" y="23.691" width="14.872" height="14.872"/>
</g>
<g transform="matrix(1 0 0 1 360 210)">
	<rect x="96.778" y="23.691" width="14.872" height="14.872"/>
</g>
<g transform="matrix(1 0 0 1 370 210)">
	<rect x="101.65" y="23.691" width="14.872" height="14.872"/>
</g>
<g transform="matrix(1 0 0 1 60 220)">
	<rect x="-49.395" y="28.564" width="14.872" height="14.872"/>
</g>
<g transform="matrix(1 0 0 1 70 220)">
	<rect x="-44.522" y="28.564" width="14.872" height="14.872"/>
</g>
<g transform="matrix(1 0 0 1 90 220)">
	<rect x="-34.778" y="28.564" width="14.872" height="14.872"/>
</g>
<g transform="matrix(1 0 0 1 100 220)">
	<rect x="-29.905" y="28.564" width="14.872" height="14.872"/>
</g>
<g transform="matrix(1 0 0 1 110 220)">
	<rect x="-25.033" y="28.564" width="14.872" height="14.872"/>
</g>
<g transform="matrix(1 0 0 1 120 220)">
	<rect x="-20.16" y="28.564" width="14.872" height="14.872"/>
</g>
<g transform="matrix(1 0 0 1 130 220)">
	<rect x="-15.288" y="28.564" width="14.872" height="14.872"/>
</g>
<g transform="matrix(1 0 0 1 150 220)">
	<rect x="-5.543" y="28.564" width="14.872" height="14.872"/>
</g>
<g transform="matrix(1 0 0 1 300 220)">
	<rect x="67.543" y="28.564" width="14.872" height="14.872"/>
</g>
<g transform="matrix(1 0 0 1 310 220)">
	<rect x="72.415" y="28.564" width="14.872" height="14.872"/>
</g>
<g transform="matrix(1 0 0 1 320 220)">
	<rect x="77.288" y="28.564" width="14.872" height="14.872"/>
</g>
<g transform="matrix(1 0 0 1 330 220)">
	<rect x="82.16" y="28.564" width="14.872" height="14.872"/>
</g>
<g transform="matrix(1 0 0 1 340 220)">
	<rect x="87.033" y="28.564" width="14.872" height="14.872"/>
</g>
<g transform="matrix(1 0 0 1 70 230)">
	<rect x="-44.522" y="33.436" width="14.872" height="14.872"/>
</g>
<g transform="matrix(1 0 0 1 110 230)">
	<rect x="-25.033" y="33.436" width="14.872" height="14.872"/>
</g>
<g transform="matrix(1 0 0 1 140 230)">
	<rect x="-10.415" y="33.436" width="14.872" height="14.872"/>
</g>
<g transform="matrix(1 0 0 1 290 230)">
	<rect x="62.671" y="33.436" width="14.872" height="14.872"/>
</g>
<g transform="matrix(1 0 0 1 320 230)">
	<rect x="77.288" y="33.436" width="14.872" height="14.872"/>
</g>
<g transform="matrix(1 0 0 1 340 230)">
	<rect x="87.033" y="33.436" width="14.872" height="14.872"/>
</g>
<g transform="matrix(1 0 0 1 360 230)">
	<rect x="96.778" y="33.436" width="14.872" height="14.872"/>
</g>
<g transform="matrix(1 0 0 1 370 230)">
	<rect x="101.65" y="33.436" width="14.872" height="14.872"/>
</g>
<g transform="matrix(1 0 0 1 70 240)">
	<rect x="-44.522" y="38.309" width="14.872" height="14.872"/>
</g>
<g transform="matrix(1 0 0 1 80 240)">
	<rect x="-39.65" y="38.309" width="14.872" height="14.872"/>
</g>
<g transform="matrix(1 0 0 1 90 240)">
	<rect x="-34.778" y="38.309" width="14.872" height="14.872"/>
</g>
<g transform="matrix(1 0 0 1 100 240)">
	<rect x="-29.905" y="38.309" width="14.872" height="14.872"/>
</g>
<g transform="matrix(1 0 0 1 120 240)">
	<rect x="-20.16" y="38.309" width="14.872" height="14.872"/>
</g>
<g transform="matrix(1 0 0 1 140 240)">
	<rect x="-10.415" y="38.309" width="14.872" height="14.872"/>
</g>
<g transform="matrix(1 0 0 1 310 240)">
	<rect x="72.415" y="38.309" width="14.872" height="14.872"/>
</g>
<g transform="matrix(1 0 0 1 320 240)">
	<rect x="77.288" y="38.309" width="14.872" height="14.872"/>
</g>
<g transform="matrix(1 0 0 1 330 240)">
	<rect x="82.16" y="38.309" width="14.872" height="14.872"/>
</g>
<g transform="matrix(1 0 0 1 340 240)">
	<rect x="87.033" y="38.309" width="14.872" height="14.872"/>
</g>
<g transform="matrix(1 0 0 1 360 240)">
	<rect x="96.778" y="38.309" width="14.872" height="14.872"/>
</g>
<g transform="matrix(1 0 0 1 370 240)">
	<rect x="101.65" y="38.309" width="14.872" height="14.872"/>
</g>
<g transform="matrix(1 0 0 1 380 240)">
	<rect x="106.522" y="38.309" width="14.872" height="14.872"/>
</g>
<g transform="matrix(1 0 0 1 60 250)">
	<rect x="-49.395" y="43.181" width="14.872" height="14.872"/>
</g>
<g transform="matrix(1 0 0 1 70 250)">
	<rect x="-44.522" y="43.181" width="14.872" height="14.872"/>
</g>
<g transform="matrix(1 0 0 1 100 250)">
	<rect x="-29.905" y="43.181" width="14.872" height="14.872"/>
</g>
<g transform="matrix(1 0 0 1 110 250)">
	<rect x="-25.033" y="43.181" width="14.872" height="14.872"/>
</g>
<g transform="matrix(1 0 0 1 140 250)">
	<rect x="-10.415" y="43.181" width="14.872" height="14.872"/>
</g>
<g transform="matrix(1 0 0 1 150 250)">
	<rect x="-5.543" y="43.181" width="14.872" height="14.872"/>
</g>
<g transform="matrix(1 0 0 1 60 260)">
	<rect x="-49.395" y="48.053" width="14.872" height="14.872"/>
</g>
<g transform="matrix(1 0 0 1 80 260)">
	<rect x="-39.65" y="48.053" width="14.872" height="14.872"/>
</g>
<g transform="matrix(1 0 0 1 100 260)">
	<rect x="-29.905" y="48.053" width="14.872" height="14.872"/>
</g>
<g transform="matrix(1 0 0 1 120 260)">
	<rect x="-20.16" y="48.053" width="14.872" height="14.872"/>
</g>
<g transform="matrix(1 0 0 1 150 260)">
	<rect x="-5.543" y="48.053" width="14.872" height="14.872"/>
</g>
<g transform="matrix(1 0 0 1 300 260)">
	<rect x="67.543" y="48.053" width="14.872" height="14.872"/>
</g>
<g transform="matrix(1 0 0 1 320 260)">
	<rect x="77.288" y="48.053" width="14.872" height="14.872"/>
</g>
<g transform="matrix(1 0 0 1 330 260)">
	<rect x="82.16" y="48.053" width="14.872" height="14.872"/>
</g>
<g transform="matrix(1 0 0 1 350 260)">
	<rect x="91.905" y="48.053" width="14.872" height="14.872"/>
</g>
<g transform="matrix(1 0 0 1 360 260)">
	<rect x="96.778" y="48.053" width="14.872" height="14.872"/>
</g>
<g transform="matrix(1 0 0 1 380 260)">
	<rect x="106.522" y="48.053" width="14.872" height="14.872"/>
</g>
<g transform="matrix(1 0 0 1 60 270)">
	<rect x="-49.395" y="52.926" width="14.872" height="14.872"/>
</g>
<g transform="matrix(1 0 0 1 80 270)">
	<rect x="-39.65" y="52.926" width="14.872" height="14.872"/>
</g>
<g transform="matrix(1 0 0 1 90 270)">
	<rect x="-34.778" y="52.926" width="14.872" height="14.872"/>
</g>
<g transform="matrix(1 0 0 1 100 270)">
	<rect x="-29.905" y="52.926" width="14.872" height="14.872"/>
</g>
<g transform="matrix(1 0 0 1 110 270)">
	<rect x="-25.033" y="52.926" width="14.872" height="14.872"/>
</g>
<g transform="matrix(1 0 0 1 130 270)">
	<rect x="-15.288" y="52.926" width="14.872" height="14.872"/>
</g>
<g transform="matrix(1 0 0 1 150 270)">
	<rect x="-5.543" y="52.926" width="14.872" height="14.872"/>
</g>
<g transform="matrix(1 0 0 1 300 270)">
	<rect x="67.543" y="52.926" width="14.872" height="14.872"/>
</g>
<g transform="matrix(1 0 0 1 360 270)">
	<rect x="96.778" y="52.926" width="14.872" height="14.872"/>
</g>
<g transform="matrix(1 0 0 1 380 270)">
	<rect x="106.522" y="52.926" width="14.872" height="14.872"/>
</g>
<g transform="matrix(1 0 0 1 80 280)">
	<rect x="-39.65" y="57.798" width="14.872" height="14.872"/>
</g>
<g transform="matrix(1 0 0 1 90 280)">
	<rect x="-34.778" y="57.798" width="14.872" height="14.872"/>
</g>
<g transform="matrix(1 0 0 1 100 280)">
	<rect x="-29.905" y="57.798" width="14.872" height="14.872"/>
</g>
<g transform="matrix(1 0 0 1 120 280)">
	<rect x="-20.16" y="57.798" width="14.872" height="14.872"/>
</g>
<g transform="matrix(1 0 0 1 130 280)">
	<rect x="-15.288" y="57.798" width="14.872" height="14.872"/>
</g>
<g transform="matrix(1 0 0 1 150 280)">
	<rect x="-5.543" y="57.798" width="14.872" height="14.872"/>
</g>
<g transform="matrix(1 0 0 1 290 280)">
	<rect x="62.671" y="57.798" width="14.872" height="14.872"/>
</g>
<g transform="matrix(1 0 0 1 300 280)">
	<rect x="67.543" y="57.798" width="14.872" height="14.872"/>
</g>
<g transform="matrix(1 0 0 1 320 280)">
	<rect x="77.288" y="57.798" width="14.872" height="14.872"/>
</g>
<g transform="matrix(1 0 0 1 340 280)">
	<rect x="87.033" y="57.798" width="14.872" height="14.872"/>
</g>
<g transform="matrix(1 0 0 1 360 280)">
	<rect x="96.778" y="57.798" width="14.872" height="14.872"/>
</g>
<g transform="matrix(1 0 0 1 370 280)">
	<rect x="101.65" y="57.798" width="14.872" height="14.872"/>
</g>
<g transform="matrix(1 0 0 1 380 280)">
	<rect x="106.522" y="57.798" width="14.872" height="14.872"/>
</g>
<g transform="matrix(1 0 0 1 70 290)">
	<rect x="-44.522" y="62.671" width="14.872" height="14.872"/>
</g>
<g transform="matrix(1 0 0 1 80 290)">
	<rect x="-39.65" y="62.671" width="14.872" height="14.872"/>
</g>
<g transform="matrix(1 0 0 1 100 290)">
	<rect x="-29.905" y="62.671" width="14.872" height="14.872"/>
</g>
<g transform="matrix(1 0 0 1 110 290)">
	<rect x="-25.033" y="62.671" width="14.872" height="14.872"/>
</g>
<g transform="matrix(1 0 0 1 130 290)">
	<rect x="-15.288" y="62.671" width="14.872" height="14.872"/>
</g>
<g transform="matrix(1 0 0 1 160 290)">
	<rect x="-0.671" y="62.671" width="14.872" height="14.872"/>
</g>
<g transform="matrix(1 0 0 1 180 290)">
	<rect x="9.074" y="62.671" width="14.872" height="14.872"/>
</g>
<g transform="matrix(1 0 0 1 210 290)">
	<rect x="23.691" y="62.671" width="14.872" height="14.872"/>
</g>
<g transform="matrix(1 0 0 1 220 290)">
	<rect x="28.564" y="62.671" width="14.872" height="14.872"/>
</g>
<g transform="matrix(1 0 0 1 230 290)">
	<rect x="33.436" y="62.671" width="14.872" height="14.872"/>
</g>
<g transform="matrix(1 0 0 1 260 290)">
	<rect x="48.053" y="62.671" width="14.872" height="14.872"/>
</g>
<g transform="matrix(1 0 0 1 310 290)">
	<rect x="72.415" y="62.671" width="14.872" height="14.872"/>
</g>
<g transform="matrix(1 0 0 1 330 290)">
	<rect x="82.16" y="62.671" width="14.872" height="14.872"/>
</g>
<g transform="matrix(1 0 0 1 350 290)">
	<rect x="91.905" y="62.671" width="14.872" height="14.872"/>
</g>
<g transform="matrix(1 0 0 1 370 290)">
	<rect x="101.65" y="62.671" width="14.872" height="14.872"/>
</g>
<g transform="matrix(1 0 0 1 60 300)">
	<rect x="-49.395" y="67.543" width="14.872" height="14.872"/>
</g>
<g transform="matrix(1 0 0 1 90 300)">
	<rect x="-34.778" y="67.543" width="14.872" height="14.872"/>
</g>
<g transform="matrix(1 0 0 1 100 300)">
	<rect x="-29.905" y="67.543" width="14.872" height="14.872"/>
</g>
<g transform="matrix(1 0 0 1 110 300)">
	<rect x="-25.033" y="67.543" width="14.872" height="14.872"/>
</g>
<g transform="matrix(1 0 0 1 120 300)">
	<rect x="-20.16" y="67.543" width="14.872" height="14.872"/>
</g>
<g transform="matrix(1 0 0 1 130 300)">
	<rect x="-15.288" y="67.543" width="14.872" height="14.872"/>
</g>
<g transform="matrix(1 0 0 1 140 300)">
	<rect x="-10.415" y="67.543" width="14.872" height="14.872"/>
</g>
<g transform="matrix(1 0 0 1 180 300)">
	<rect x="9.074" y="67.543" width="14.872" height="14.872"/>
</g>
<g transform="matrix(1 0 0 1 210 300)">
	<rect x="23.691" y="67.543" width="14.872" height="14.872"/>
</g>
<g transform="matrix(1 0 0 1 220 300)">
	<rect x="28.564" y="67.543" width="14.872" height="14.872"/>
</g>
<g transform="matrix(1 0 0 1 230 300)">
	<rect x="33.436" y="67.543" width="14.872" height="14.872"/>
</g>
<g transform="matrix(1 0 0 1 270 300)">
	<rect x="52.926" y="67.543" width="14.872" height="14.872"/>
</g>
<g transform="matrix(1 0 0 1 300 300)">
	<rect x="67.543" y="67.543" width="14.872" height="14.872"/>
</g>
<g transform="matrix(1 0 0 1 310 300)">
	<rect x="72.415" y="67.543" width="14.872" height="14.872"/>
</g>
<g transform="matrix(1 0 0 1 320 300)">
	<rect x="77.288" y="67.543" width="14.872" height="14.872"/>
</g>
<g transform="matrix(1 0 0 1 330 300)">
	<rect x="82.16" y="67.543" width="14.872" height="14.872"/>
</g>
<g transform="matrix(1 0 0 1 340 300)">
	<rect x="87.033" y="67.543" width="14.872" height="14.872"/>
</g>
<g transform="matrix(1 0 0 1 380 300)">
	<rect x="106.522" y="67.543" width="14.872" height="14.872"/>
</g>
<g transform="matrix(1 0 0 1 140 310)">
	<rect x="-10.415" y="72.415" width="14.872" height="14.872"/>
</g>
<g transform="matrix(1 0 0 1 160 310)">
	<rect x="-0.671" y="72.415" width="14.872" height="14.872"/>
</g>
<g transform="matrix(1 0 0 1 200 310)">
	<rect x="18.819" y="72.415" width="14.872" height="14.872"/>
</g>
<g transform="matrix(1 0 0 1 230 310)">
	<rect x="33.436" y="72.415" width="14.872" height="14.872"/>
</g>
<g transform="matrix(1 0 0 1 240 310)">
	<rect x="38.309" y="72.415" width="14.872" height="14.872"/>
</g>
<g transform="matrix(1 0 0 1 250 310)">
	<rect x="43.181" y="72.415" width="14.872" height="14.872"/>
</g>
<g transform="matrix(1 0 0 1 260 310)">
	<rect x="48.053" y="72.415" width="14.872" height="14.872"/>
</g>
<g transform="matrix(1 0 0 1 270 310)">
	<rect x="52.926" y="72.415" width="14.872" height="14.872"/>
</g>
<g transform="matrix(1 0 0 1 300 310)">
	<rect x="67.543" y="72.415" width="14.872" height="14.872"/>
</g>
<g transform="matrix(1 0 0 1 340 310)">
	<rect x="87.033" y="72.415" width="14.872" height="14.872"/>
</g>
<g transform="matrix(1 0 0 1 350 310)">
	<rect x="91.905" y="72.415" width="14.872" height="14.872"/>
</g>
<g transform="matrix(1 0 0 1 360 310)">
	<rect x="96.778" y="72.415" width="14.872" height="14.872"/>
</g>
<g transform="matrix(1 0 0 1 370 310)">
	<rect x="101.65" y="72.415" width="14.872" height="14.872"/>
</g>
<g transform="matrix(1 0 0 1 140 320)">
	<rect x="-10.415" y="77.288" width="14.872" height="14.872"/>
</g>
<g transform="matrix(1 0 0 1 150 320)">
	<rect x="-5.543" y="77.288" width="14.872" height="14.872"/>
</g>
<g transform="matrix(1 0 0 1 160 320)">
	<rect x="-0.671" y="77.288" width="14.872" height="14.872"/>
</g>
<g transform="matrix(1 0 0 1 180 320)">
	<rect x="9.074" y="77.288" width="14.872" height="14.872"/>
</g>
<g transform="matrix(1 0 0 1 200 320)">
	<rect x="18.819" y="77.288" width="14.872" height="14.872"/>
</g>
<g transform="matrix(1 0 0 1 220 320)">
	<rect x="28.564" y="77.288" width="14.872" height="14.872"/>
</g>
<g transform="matrix(1 0 0 1 250 320)">
	<rect x="43.181" y="77.288" width="14.872" height="14.872"/>
</g>
<g transform="matrix(1 0 0 1 260 320)">
	<rect x="48.053" y="77.288" width="14.872" height="14.872"/>
</g>
<g transform="matrix(1 0 0 1 270 320)">
	<rect x="52.926" y="77.288" width="14.872" height="14.872"/>
</g>
<g transform="matrix(1 0 0 1 290 320)">
	<rect x="62.671" y="77.288" width="14.872" height="14.872"/>
</g>
<g transform="matrix(1 0 0 1 300 320)">
	<rect x="67.543" y="77.288" width="14.872" height="14.872"/>
</g>
<g transform="matrix(1 0 0 1 320 320)">
	<rect x="77.288" y="77.288" width="14.872" height="14.872"/>
</g>
<g transform="matrix(1 0 0 1 340 320)">
	<rect x="87.033" y="77.288" width="14.872" height="14.872"/>
</g>
<g transform="matrix(1 0 0 1 360 320)">
	<rect x="96.778" y="77.288" width="14.872" height="14.872"/>
</g>
<g transform="matrix(1 0 0 1 150 330)">
	<rect x="-5.543" y="82.16" width="14.872" height="14.872"/>
</g>
<g transform="matrix(1 0 0 1 160 330)">
	<rect x="-0.671" y="82.16" width="14.872" height="14.872"/>
</g>
<g transform="matrix(1 0 0 1 170 330)">
	<rect x="4.202" y="82.16" width="14.872" height="14.872"/>
</g>
<g transform="matrix(1 0 0 1 180 330)">
	<rect x="9.074" y="82.16" width="14.872" height="14.872"/>
</g>
<g transform="matrix(1 0 0 1 190 330)">
	<rect x="13.947" y="82.16" width="14.872" height="14.872"/>
</g>
<g transform="matrix(1 0 0 1 250 330)">
	<rect x="43.181" y="82.16" width="14.872" height="14.872"/>
</g>
<g transform="matrix(1 0 0 1 290 330)">
	<rect x="62.671" y="82.16" width="14.872" height="14.872"/>
</g>
<g transform="matrix(1 0 0 1 300 330)">
	<rect x="67.543" y="82.16" width="14.872" height="14.872"/>
</g>
<g transform="matrix(1 0 0 1 340 330)">
	<rect x="87.033" y="82.16" width="14.872" height="14.872"/>
</g>
<g transform="matrix(1 0 0 1 350 330)">
	<rect x="91.905" y="82.16" width="14.872" height="14.872"/>
</g>
<g transform="matrix(1 0 0 1 360 330)">
	<rect x="96.778" y="82.16" width="14.872" height="14.872"/>
</g>
<g transform="matrix(1 0 0 1 370 330)">
	<rect x="101.65" y="82.16" width="14.872" height="14.872"/>
</g>
<g transform="matrix(1 0 0 1 380 330)">
	<rect x="106.522" y="82.16" width="14.872" height="14.872"/>
</g>
<g transform="matrix(1 0 0 1 160 340)">
	<rect x="-0.671" y="87.033" width="14.872" height="14.872"/>
</g>
<g transform="matrix(1 0 0 1 170 340)">
	<rect x="4.202" y="87.033" width="14.872" height="14.872"/>
</g>
<g transform="matrix(1 0 0 1 190 340)">
	<rect x="13.947" y="87.033" width="14.872" height="14.872"/>
</g>
<g transform="matrix(1 0 0 1 230 340)">
	<rect x="33.436" y="87.033" width="14.872" height="14.872"/>
</g>
<g transform="matrix(1 0 0 1 240 340)">
	<rect x="38.309" y="87.033" width="14.872" height="14.872"/>
</g>
<g transform="matrix(1 0 0 1 260 340)">
	<rect x="48.053" y="87.033" width="14.872" height="14.872"/>
</g>
<g transform="matrix(1 0 0 1 280 340)">
	<rect x="57.798" y="87.033" width="14.872" height="14.872"/>
</g>
<g transform="matrix(1 0 0 1 290 340)">
	<rect x="62.671" y="87.033" width="14.872" height="14.872"/>
</g>
<g transform="matrix(1 0 0 1 300 340)">
	<rect x="67.543" y="87.033" width="14.872" height="14.872"/>
</g>
<g transform="matrix(1 0 0 1 310 340)">
	<rect x="72.415" y="87.033" width="14.872" height="14.872"/>
</g>
<g transform="matrix(1 0 0 1 320 340)">
	<rect x="77.288" y="87.033" width="14.872" height="14.872"/>
</g>
<g transform="matrix(1 0 0 1 330 340)">
	<rect x="82.16" y="87.033" width="14.872" height="14.872"/>
</g>
<g transform="matrix(1 0 0 1 340 340)">
	<rect x="87.033" y="87.033" width="14.872" height="14.872"/>
</g>
<g transform="matrix(1 0 0 1 370 340)">
	<rect x="101.65" y="87.033" width="14.872" height="14.872"/>
</g>
<g transform="matrix(1 0 0 1 140 350)">
	<rect x="-10.415" y="91.905" width="14.872" height="14.872"/>
</g>
<g transform="matrix(1 0 0 1 150 350)">
	<rect x="-5.543" y="91.905" width="14.872" height="14.872"/>
</g>
<g transform="matrix(1 0 0 1 160 350)">
	<rect x="-0.671" y="91.905" width="14.872" height="14.872"/>
</g>
<g transform="matrix(1 0 0 1 180 350)">
	<rect x="9.074" y="91.905" width="14.872" height="14.872"/>
</g>
<g transform="matrix(1 0 0 1 190 350)">
	<rect x="13.947" y="91.905" width="14.872" height="14.872"/>
</g>
<g transform="matrix(1 0 0 1 210 350)">
	<rect x="23.691" y="91.905" width="14.872" height="14.872"/>
</g>
<g transform="matrix(1 0 0 1 230 350)">
	<rect x="33.436" y="91.905" width="14.872" height="14.872"/>
</g>
<g transform="matrix(1 0 0 1 240 350)">
	<rect x="38.309" y="91.905" width="14.872" height="14.872"/>
</g>
<g transform="matrix(1 0 0 1 260 350)">
	<rect x="48.053" y="91.905" width="14.872" height="14.872"/>
</g>
<g transform="matrix(1 0 0 1 270 350)">
	<rect x="52.926" y="91.905" width="14.872" height="14.872"/>
</g>
<g transform="matrix(1 0 0 1 280 350)">
	<rect x="57.798" y="91.905" width="14.872" height="14.872"/>
</g>
<g transform="matrix(1 0 0 1 290 350)">
	<rect x="62.671" y="91.905" width="14.872" height="14.872"/>
</g>
<g transform="matrix(1 0 0 1 330 350)">
	<rect x="82.16" y="91.905" width="14.872" height="14.872"/>
</g>
<g transform="matrix(1 0 0 1 350 350)">
	<rect x="91.905" y="91.905" width="14.872" height="14.872"/>
</g>
<g transform="matrix(1 0 0 1 360 350)">
	<rect x="96.778" y="91.905" width="14.872" height="14.872"/>
</g>
<g transform="matrix(1 0 0 1 140 360)">
	<rect x="-10.415" y="96.778" width="14.872" height="14.872"/>
</g>
<g transform="matrix(1 0 0 1 150 360)">
	<rect x="-5.543" y="96.778" width="14.872" height="14.872"/>
</g>
<g transform="matrix(1 0 0 1 170 360)">
	<rect x="4.202" y="96.778" width="14.872" height="14.872"/>
</g>
<g transform="matrix(1 0 0 1 200 360)">
	<rect x="18.819" y="96.778" width="14.872" height="14.872"/>
</g>
<g transform="matrix(1 0 0 1 210 360)">
	<rect x="23.691" y="96.778" width="14.872" height="14.872"/>
</g>
<g transform="matrix(1 0 0 1 230 360)">
	<rect x="33.436" y="96.778" width="14.872" height="14.872"/>
</g>
<g transform="matrix(1 0 0 1 250 360)">
	<rect x="43.181" y="96.778" width="14.872" height="14.872"/>
</g>
<g transform="matrix(1 0 0 1 270 360)">
	<rect x="52.926" y="96.778" width="14.872" height="14.872"/>
</g>
<g transform="matrix(1 0 0 1 280 360)">
	<rect x="57.798" y="96.778" width="14.872" height="14.872"/>
</g>
<g transform="matrix(1 0 0 1 300 360)">
	<rect x="67.543" y="96.778" width="14.872" height="14.872"/>
</g>
<g transform="matrix(1 0 0 1 310 360)">
	<rect x="72.415" y="96.778" width="14.872" height="14.872"/>
</g>
<g transform="matrix(1 0 0 1 320 360)">
	<rect x="77.288" y="96.778" width="14.872" height="14.872"/>
</g>
<g transform="matrix(1 0 0 1 150 370)">
	<rect x="-5.543" y="101.65" width="14.872" height="14.872"/>
</g>
<g transform="matrix(1 0 0 1 180 370)">
	<rect x="9.074" y="101.65" width="14.872" height="14.872"/>
</g>
<g transform="matrix(1 0 0 1 190 370)">
	<rect x="13.947" y="101.65" width="14.872" height="14.872"/>
</g>
<g transform="matrix(1 0 0 1 230 370)">
	<rect x="33.436" y="101.65" width="14.872" height="14.872"/>
</g>
<g transform="matrix(1 0 0 1 240 370)">
	<rect x="38.309" y="101.65" width="14.872" height="14.872"/>
</g>
<g transform="matrix(1 0 0 1 250 370)">
	<rect x="43.181" y="101.65" width="14.872" height="14.872"/>
</g>
<g transform="matrix(1 0 0 1 260 370)">
	<rect x="48.053" y="101.65" width="14.872" height="14.872"/>
</g>
<g transform="matrix(1 0 0 1 290 370)">
	<rect x="62.671" y="101.65" width="14.872" height="14.872"/>
</g>
<g transform="matrix(1 0 0 1 300 370)">
	<rect x="67.543" y="101.65" width="14.872" height="14.872"/>
</g>
<g transform="matrix(1 0 0 1 310 370)">
	<rect x="72.415" y="101.65" width="14.872" height="14.872"/>
</g>
<g transform="matrix(1 0 0 1 360 370)">
	<rect x="96.778" y="101.65" width="14.872" height="14.872"/>
</g>
<g transform="matrix(1 0 0 1 380 370)">
	<rect x="106.522" y="101.65" width="14.872" height="14.872"/>
</g>
<g transform="matrix(1 0 0 1 150 380)">
	<rect x="-5.543" y="106.522" width="14.872" height="14.872"/>
</g>
<g transform="matrix(1 0 0 1 190 380)">
	<rect x="13.947" y="106.522" width="14.872" height="14.872"/>
</g>
<g transform="matrix(1 0 0 1 210 380)">
	<rect x="23.691" y="106.522" width="14.872" height="14.872"/>
</g>
<g transform="matrix(1 0 0 1 220 380)">
	<rect x="28.564" y="106.522" width="14.872" height="14.872"/>
</g>
<g transform="matrix(1 0 0 1 230 380)">
	<rect x="33.436" y="106.522" width="14.872" height="14.872"/>
</g>
<g transform="matrix(1 0 0 1 260 380)">
	<rect x="48.053" y="106.522" width="14.872" height="14.872"/>
</g>
<g transform="matrix(1 0 0 1 280 380)">
	<rect x="57.798" y="106.522" width="14.872" height="14.872"/>
</g>
<g transform="matrix(1 0 0 1 290 380)">
	<rect x="62.671" y="106.522" width="14.872" height="14.872"/>
</g>
<g transform="matrix(1 0 0 1 310 380)">
	<rect x="72.415" y="106.522" width="14.872" height="14.872"/>
</g>
<g transform="matrix(1 0 0 1 320 380)">
	<rect x="77.288" y="106.522" width="14.872" height="14.872"/>
</g>
<g transform="matrix(1 0 0 1 330 380)">
	<rect x="82.16" y="106.522" width="14.872" height="14.872"/>
</g>
<g transform="matrix(1 0 0 1 340 380)">
	<rect x="87.033" y="106.522" width="14.872" height="14.872"/>
</g>
<g>
	
		<radialGradient id="SVGID_1_" cx="240.0825" cy="212.4861" r="149.4595" fx="168.5442" fy="125.9978" gradientTransform="matrix(0.9269 -0.3752 0.3268 0.8074 -51.9054 131.0085)" gradientUnits="userSpaceOnUse">
		<stop  offset="0" style="stop-color:#4DB748"/>
		<stop  offset="0.6625" style="stop-color:#016937"/>
	</radialGradient>
	<circle style="fill:url(#SVGID_1_);" cx="256" cy="256" r="83.505"/>
	<g>
		<g>
			<g>
				<path style="fill:#FFFFFF;" d="M294.756,226.809c-7.965,0-14.381,2.613-18.695,7.953v-20.328l-16.483,19.311v100.768
					l17.257-19.311v-32.834c4.425,4.999,10.509,7.385,17.921,7.385c16.704,0,29.647-12.271,29.647-31.472
					C324.403,239.08,311.46,226.809,294.756,226.809z M291.769,275.21c-8.629,0-15.155-6.363-15.155-16.929
					s6.527-16.929,15.155-16.929c8.628,0,15.155,6.363,15.155,16.929S300.398,275.21,291.769,275.21z"/>
			</g>
		</g>
		<g>
			<g>
				<path style="fill:#FFFFFF;" d="M235.165,200.224v33.97c-4.314-4.999-10.509-7.385-17.81-7.385c-2.767,0-5.425,0.339-7.942,0.979
					c-7.593,1.933-13.863,6.67-17.702,13.564c-2.622,4.709-4.113,10.419-4.113,16.929c0,19.202,12.942,31.472,29.758,31.472
					c7.965,0,14.27-2.613,18.584-7.953v16.035l16.483-19.337v-97.611L235.165,200.224z M220.341,275.211
					c-8.629,0-15.266-6.363-15.266-16.929c0-10.566,6.637-16.929,15.266-16.929c8.518,0,15.155,6.362,15.155,16.929
					C235.496,268.848,228.859,275.211,220.341,275.211z"/>
			</g>
		</g>
	</g>
</g>
</svg>
