<?xml version="1.0" encoding="iso-8859-1"?>
<!-- Generator: Adobe Illustrator 25.0.1, SVG Export Plug-In . SVG Version: 6.00 Build 0)  -->
<svg version="1.1" id="Layer_1" xmlns="http://www.w3.org/2000/svg" xmlns:xlink="http://www.w3.org/1999/xlink" x="0px" y="0px"
	 viewBox="0 0 512 512" style="enable-background:new 0 0 512 512;" xml:space="preserve">
<desc>Created with Fabric.js 5.3.0</desc>
<g transform="matrix(1 0 0 1 140 60)">
	<rect x="-10.459" y="-49.487" width="14.878" height="14.878"/>
</g>
<g transform="matrix(1 0 0 1 150 60)">
	<rect x="-5.581" y="-49.487" width="14.878" height="14.878"/>
</g>
<g transform="matrix(1 0 0 1 200 60)">
	<rect x="18.806" y="-49.487" width="14.878" height="14.878"/>
</g>
<g transform="matrix(1 0 0 1 260 60)">
	<rect x="48.071" y="-49.487" width="14.878" height="14.878"/>
</g>
<g transform="matrix(1 0 0 1 270 60)">
	<rect x="52.949" y="-49.487" width="14.878" height="14.878"/>
</g>
<g transform="matrix(1 0 0 1 280 60)">
	<rect x="57.826" y="-49.487" width="14.878" height="14.878"/>
</g>
<g transform="matrix(1 0 0 1 290 60)">
	<rect x="62.704" y="-49.487" width="14.878" height="14.878"/>
</g>
<g transform="matrix(1 0 0 1 300 60)">
	<rect x="67.581" y="-49.487" width="14.878" height="14.878"/>
</g>
<g transform="matrix(1 0 0 1 160 70)">
	<rect x="-0.704" y="-44.609" width="14.878" height="14.878"/>
</g>
<g transform="matrix(1 0 0 1 170 70)">
	<rect x="4.174" y="-44.609" width="14.878" height="14.878"/>
</g>
<g transform="matrix(1 0 0 1 200 70)">
	<rect x="18.806" y="-44.609" width="14.878" height="14.878"/>
</g>
<g transform="matrix(1 0 0 1 220 70)">
	<rect x="28.561" y="-44.609" width="14.878" height="14.878"/>
</g>
<g transform="matrix(1 0 0 1 230 70)">
	<rect x="33.439" y="-44.609" width="14.878" height="14.878"/>
</g>
<g transform="matrix(1 0 0 1 250 70)">
	<rect x="43.194" y="-44.609" width="14.878" height="14.878"/>
</g>
<g transform="matrix(1 0 0 1 280 70)">
	<rect x="57.826" y="-44.609" width="14.878" height="14.878"/>
</g>
<g transform="matrix(1 0 0 1 290 70)">
	<rect x="62.704" y="-44.609" width="14.878" height="14.878"/>
</g>
<g transform="matrix(1 0 0 1 160 80)">
	<rect x="-0.704" y="-39.732" width="14.878" height="14.878"/>
</g>
<g transform="matrix(1 0 0 1 180 80)">
	<rect x="9.051" y="-39.732" width="14.878" height="14.878"/>
</g>
<g transform="matrix(1 0 0 1 200 80)">
	<rect x="18.806" y="-39.732" width="14.878" height="14.878"/>
</g>
<g transform="matrix(1 0 0 1 240 80)">
	<rect x="38.316" y="-39.732" width="14.878" height="14.878"/>
</g>
<g transform="matrix(1 0 0 1 260 80)">
	<rect x="48.071" y="-39.732" width="14.878" height="14.878"/>
</g>
<g transform="matrix(1 0 0 1 290 80)">
	<rect x="62.704" y="-39.732" width="14.878" height="14.878"/>
</g>
<g transform="matrix(1 0 0 1 300 80)">
	<rect x="67.581" y="-39.732" width="14.878" height="14.878"/>
</g>
<g transform="matrix(1 0 0 1 140 90)">
	<rect x="-10.459" y="-34.854" width="14.878" height="14.878"/>
</g>
<g transform="matrix(1 0 0 1 150 90)">
	<rect x="-5.581" y="-34.854" width="14.878" height="14.878"/>
</g>
<g transform="matrix(1 0 0 1 170 90)">
	<rect x="4.174" y="-34.854" width="14.878" height="14.878"/>
</g>
<g transform="matrix(1 0 0 1 190 90)">
	<rect x="13.929" y="-34.854" width="14.878" height="14.878"/>
</g>
<g transform="matrix(1 0 0 1 210 90)">
	<rect x="23.684" y="-34.854" width="14.878" height="14.878"/>
</g>
<g transform="matrix(1 0 0 1 240 90)">
	<rect x="38.316" y="-34.854" width="14.878" height="14.878"/>
</g>
<g transform="matrix(1 0 0 1 150 100)">
	<rect x="-5.581" y="-29.977" width="14.878" height="14.878"/>
</g>
<g transform="matrix(1 0 0 1 200 100)">
	<rect x="18.806" y="-29.977" width="14.878" height="14.878"/>
</g>
<g transform="matrix(1 0 0 1 210 100)">
	<rect x="23.684" y="-29.977" width="14.878" height="14.878"/>
</g>
<g transform="matrix(1 0 0 1 240 100)">
	<rect x="38.316" y="-29.977" width="14.878" height="14.878"/>
</g>
<g transform="matrix(1 0 0 1 260 100)">
	<rect x="48.071" y="-29.977" width="14.878" height="14.878"/>
</g>
<g transform="matrix(1 0 0 1 270 100)">
	<rect x="52.949" y="-29.977" width="14.878" height="14.878"/>
</g>
<g transform="matrix(1 0 0 1 280 100)">
	<rect x="57.826" y="-29.977" width="14.878" height="14.878"/>
</g>
<g transform="matrix(1 0 0 1 150 110)">
	<rect x="-5.581" y="-25.099" width="14.878" height="14.878"/>
</g>
<g transform="matrix(1 0 0 1 160 110)">
	<rect x="-0.704" y="-25.099" width="14.878" height="14.878"/>
</g>
<g transform="matrix(1 0 0 1 180 110)">
	<rect x="9.051" y="-25.099" width="14.878" height="14.878"/>
</g>
<g transform="matrix(1 0 0 1 190 110)">
	<rect x="13.929" y="-25.099" width="14.878" height="14.878"/>
</g>
<g transform="matrix(1 0 0 1 210 110)">
	<rect x="23.684" y="-25.099" width="14.878" height="14.878"/>
</g>
<g transform="matrix(1 0 0 1 240 110)">
	<rect x="38.316" y="-25.099" width="14.878" height="14.878"/>
</g>
<g transform="matrix(1 0 0 1 250 110)">
	<rect x="43.194" y="-25.099" width="14.878" height="14.878"/>
</g>
<g transform="matrix(1 0 0 1 270 110)">
	<rect x="52.949" y="-25.099" width="14.878" height="14.878"/>
</g>
<g transform="matrix(1 0 0 1 280 110)">
	<rect x="57.826" y="-25.099" width="14.878" height="14.878"/>
</g>
<g transform="matrix(1 0 0 1 140 120)">
	<rect x="-10.459" y="-20.222" width="14.878" height="14.878"/>
</g>
<g transform="matrix(1 0 0 1 160 120)">
	<rect x="-0.704" y="-20.222" width="14.878" height="14.878"/>
</g>
<g transform="matrix(1 0 0 1 180 120)">
	<rect x="9.051" y="-20.222" width="14.878" height="14.878"/>
</g>
<g transform="matrix(1 0 0 1 200 120)">
	<rect x="18.806" y="-20.222" width="14.878" height="14.878"/>
</g>
<g transform="matrix(1 0 0 1 220 120)">
	<rect x="28.561" y="-20.222" width="14.878" height="14.878"/>
</g>
<g transform="matrix(1 0 0 1 240 120)">
	<rect x="38.316" y="-20.222" width="14.878" height="14.878"/>
</g>
<g transform="matrix(1 0 0 1 260 120)">
	<rect x="48.071" y="-20.222" width="14.878" height="14.878"/>
</g>
<g transform="matrix(1 0 0 1 280 120)">
	<rect x="57.826" y="-20.222" width="14.878" height="14.878"/>
</g>
<g transform="matrix(1 0 0 1 300 120)">
	<rect x="67.581" y="-20.222" width="14.878" height="14.878"/>
</g>
<g transform="matrix(1 0 0 1 150 130)">
	<rect x="-5.581" y="-15.344" width="14.878" height="14.878"/>
</g>
<g transform="matrix(1 0 0 1 170 130)">
	<rect x="4.174" y="-15.344" width="14.878" height="14.878"/>
</g>
<g transform="matrix(1 0 0 1 180 130)">
	<rect x="9.051" y="-15.344" width="14.878" height="14.878"/>
</g>
<g transform="matrix(1 0 0 1 200 130)">
	<rect x="18.806" y="-15.344" width="14.878" height="14.878"/>
</g>
<g transform="matrix(1 0 0 1 210 130)">
	<rect x="23.684" y="-15.344" width="14.878" height="14.878"/>
</g>
<g transform="matrix(1 0 0 1 230 130)">
	<rect x="33.439" y="-15.344" width="14.878" height="14.878"/>
</g>
<g transform="matrix(1 0 0 1 240 130)">
	<rect x="38.316" y="-15.344" width="14.878" height="14.878"/>
</g>
<g transform="matrix(1 0 0 1 260 130)">
	<rect x="48.071" y="-15.344" width="14.878" height="14.878"/>
</g>
<g transform="matrix(1 0 0 1 270 130)">
	<rect x="52.949" y="-15.344" width="14.878" height="14.878"/>
</g>
<g transform="matrix(1 0 0 1 280 130)">
	<rect x="57.826" y="-15.344" width="14.878" height="14.878"/>
</g>
<g transform="matrix(1 0 0 1 300 130)">
	<rect x="67.581" y="-15.344" width="14.878" height="14.878"/>
</g>
<g transform="matrix(1 0 0 1 80 140)">
	<rect x="-39.724" y="-10.467" width="14.878" height="14.878"/>
</g>
<g transform="matrix(1 0 0 1 100 140)">
	<rect x="-29.969" y="-10.467" width="14.878" height="14.878"/>
</g>
<g transform="matrix(1 0 0 1 110 140)">
	<rect x="-25.092" y="-10.467" width="14.878" height="14.878"/>
</g>
<g transform="matrix(1 0 0 1 120 140)">
	<rect x="-20.214" y="-10.467" width="14.878" height="14.878"/>
</g>
<g transform="matrix(1 0 0 1 140 140)">
	<rect x="-10.459" y="-10.467" width="14.878" height="14.878"/>
</g>
<g transform="matrix(1 0 0 1 150 140)">
	<rect x="-5.581" y="-10.467" width="14.878" height="14.878"/>
</g>
<g transform="matrix(1 0 0 1 160 140)">
	<rect x="-0.704" y="-10.467" width="14.878" height="14.878"/>
</g>
<g transform="matrix(1 0 0 1 170 140)">
	<rect x="4.174" y="-10.467" width="14.878" height="14.878"/>
</g>
<g transform="matrix(1 0 0 1 180 140)">
	<rect x="9.051" y="-10.467" width="14.878" height="14.878"/>
</g>
<g transform="matrix(1 0 0 1 210 140)">
	<rect x="23.684" y="-10.467" width="14.878" height="14.878"/>
</g>
<g transform="matrix(1 0 0 1 220 140)">
	<rect x="28.561" y="-10.467" width="14.878" height="14.878"/>
</g>
<g transform="matrix(1 0 0 1 230 140)">
	<rect x="33.439" y="-10.467" width="14.878" height="14.878"/>
</g>
<g transform="matrix(1 0 0 1 260 140)">
	<rect x="48.071" y="-10.467" width="14.878" height="14.878"/>
</g>
<g transform="matrix(1 0 0 1 270 140)">
	<rect x="52.949" y="-10.467" width="14.878" height="14.878"/>
</g>
<g transform="matrix(1 0 0 1 280 140)">
	<rect x="57.826" y="-10.467" width="14.878" height="14.878"/>
</g>
<g transform="matrix(1 0 0 1 290 140)">
	<rect x="62.704" y="-10.467" width="14.878" height="14.878"/>
</g>
<g transform="matrix(1 0 0 1 310 140)">
	<rect x="72.459" y="-10.467" width="14.878" height="14.878"/>
</g>
<g transform="matrix(1 0 0 1 350 140)">
	<rect x="91.969" y="-10.467" width="14.878" height="14.878"/>
</g>
<g transform="matrix(1 0 0 1 380 140)">
	<rect x="106.602" y="-10.467" width="14.878" height="14.878"/>
</g>
<g transform="matrix(1 0 0 1 60 150)">
	<rect x="-49.479" y="-5.589" width="14.878" height="14.878"/>
</g>
<g transform="matrix(1 0 0 1 70 150)">
	<rect x="-44.602" y="-5.589" width="14.878" height="14.878"/>
</g>
<g transform="matrix(1 0 0 1 90 150)">
	<rect x="-34.847" y="-5.589" width="14.878" height="14.878"/>
</g>
<g transform="matrix(1 0 0 1 130 150)">
	<rect x="-15.337" y="-5.589" width="14.878" height="14.878"/>
</g>
<g transform="matrix(1 0 0 1 180 150)">
	<rect x="9.051" y="-5.589" width="14.878" height="14.878"/>
</g>
<g transform="matrix(1 0 0 1 190 150)">
	<rect x="13.929" y="-5.589" width="14.878" height="14.878"/>
</g>
<g transform="matrix(1 0 0 1 200 150)">
	<rect x="18.806" y="-5.589" width="14.878" height="14.878"/>
</g>
<g transform="matrix(1 0 0 1 220 150)">
	<rect x="28.561" y="-5.589" width="14.878" height="14.878"/>
</g>
<g transform="matrix(1 0 0 1 270 150)">
	<rect x="52.949" y="-5.589" width="14.878" height="14.878"/>
</g>
<g transform="matrix(1 0 0 1 280 150)">
	<rect x="57.826" y="-5.589" width="14.878" height="14.878"/>
</g>
<g transform="matrix(1 0 0 1 320 150)">
	<rect x="77.337" y="-5.589" width="14.878" height="14.878"/>
</g>
<g transform="matrix(1 0 0 1 350 150)">
	<rect x="91.969" y="-5.589" width="14.878" height="14.878"/>
</g>
<g transform="matrix(1 0 0 1 360 150)">
	<rect x="96.847" y="-5.589" width="14.878" height="14.878"/>
</g>
<g transform="matrix(1 0 0 1 370 150)">
	<rect x="101.724" y="-5.589" width="14.878" height="14.878"/>
</g>
<g transform="matrix(1 0 0 1 380 150)">
	<rect x="106.602" y="-5.589" width="14.878" height="14.878"/>
</g>
<g transform="matrix(1 0 0 1 120 160)">
	<rect x="-20.214" y="-0.711" width="14.878" height="14.878"/>
</g>
<g transform="matrix(1 0 0 1 150 160)">
	<rect x="-5.581" y="-0.711" width="14.878" height="14.878"/>
</g>
<g transform="matrix(1 0 0 1 300 160)">
	<rect x="67.581" y="-0.711" width="14.878" height="14.878"/>
</g>
<g transform="matrix(1 0 0 1 310 160)">
	<rect x="72.459" y="-0.711" width="14.878" height="14.878"/>
</g>
<g transform="matrix(1 0 0 1 320 160)">
	<rect x="77.337" y="-0.711" width="14.878" height="14.878"/>
</g>
<g transform="matrix(1 0 0 1 340 160)">
	<rect x="87.092" y="-0.711" width="14.878" height="14.878"/>
</g>
<g transform="matrix(1 0 0 1 370 160)">
	<rect x="101.724" y="-0.711" width="14.878" height="14.878"/>
</g>
<g transform="matrix(1 0 0 1 380 160)">
	<rect x="106.602" y="-0.711" width="14.878" height="14.878"/>
</g>
<g transform="matrix(1 0 0 1 60 170)">
	<rect x="-49.479" y="4.166" width="14.878" height="14.878"/>
</g>
<g transform="matrix(1 0 0 1 70 170)">
	<rect x="-44.602" y="4.166" width="14.878" height="14.878"/>
</g>
<g transform="matrix(1 0 0 1 80 170)">
	<rect x="-39.724" y="4.166" width="14.878" height="14.878"/>
</g>
<g transform="matrix(1 0 0 1 90 170)">
	<rect x="-34.847" y="4.166" width="14.878" height="14.878"/>
</g>
<g transform="matrix(1 0 0 1 140 170)">
	<rect x="-10.459" y="4.166" width="14.878" height="14.878"/>
</g>
<g transform="matrix(1 0 0 1 310 170)">
	<rect x="72.459" y="4.166" width="14.878" height="14.878"/>
</g>
<g transform="matrix(1 0 0 1 320 170)">
	<rect x="77.337" y="4.166" width="14.878" height="14.878"/>
</g>
<g transform="matrix(1 0 0 1 380 170)">
	<rect x="106.602" y="4.166" width="14.878" height="14.878"/>
</g>
<g transform="matrix(1 0 0 1 80 180)">
	<rect x="-39.724" y="9.044" width="14.878" height="14.878"/>
</g>
<g transform="matrix(1 0 0 1 90 180)">
	<rect x="-34.847" y="9.044" width="14.878" height="14.878"/>
</g>
<g transform="matrix(1 0 0 1 120 180)">
	<rect x="-20.214" y="9.044" width="14.878" height="14.878"/>
</g>
<g transform="matrix(1 0 0 1 130 180)">
	<rect x="-15.337" y="9.044" width="14.878" height="14.878"/>
</g>
<g transform="matrix(1 0 0 1 140 180)">
	<rect x="-10.459" y="9.044" width="14.878" height="14.878"/>
</g>
<g transform="matrix(1 0 0 1 300 180)">
	<rect x="67.581" y="9.044" width="14.878" height="14.878"/>
</g>
<g transform="matrix(1 0 0 1 320 180)">
	<rect x="77.337" y="9.044" width="14.878" height="14.878"/>
</g>
<g transform="matrix(1 0 0 1 330 180)">
	<rect x="82.214" y="9.044" width="14.878" height="14.878"/>
</g>
<g transform="matrix(1 0 0 1 340 180)">
	<rect x="87.092" y="9.044" width="14.878" height="14.878"/>
</g>
<g transform="matrix(1 0 0 1 360 180)">
	<rect x="96.847" y="9.044" width="14.878" height="14.878"/>
</g>
<g transform="matrix(1 0 0 1 380 180)">
	<rect x="106.602" y="9.044" width="14.878" height="14.878"/>
</g>
<g transform="matrix(1 0 0 1 60 190)">
	<rect x="-49.479" y="13.921" width="14.878" height="14.878"/>
</g>
<g transform="matrix(1 0 0 1 70 190)">
	<rect x="-44.602" y="13.921" width="14.878" height="14.878"/>
</g>
<g transform="matrix(1 0 0 1 80 190)">
	<rect x="-39.724" y="13.921" width="14.878" height="14.878"/>
</g>
<g transform="matrix(1 0 0 1 100 190)">
	<rect x="-29.969" y="13.921" width="14.878" height="14.878"/>
</g>
<g transform="matrix(1 0 0 1 300 190)">
	<rect x="67.581" y="13.921" width="14.878" height="14.878"/>
</g>
<g transform="matrix(1 0 0 1 310 190)">
	<rect x="72.459" y="13.921" width="14.878" height="14.878"/>
</g>
<g transform="matrix(1 0 0 1 320 190)">
	<rect x="77.337" y="13.921" width="14.878" height="14.878"/>
</g>
<g transform="matrix(1 0 0 1 330 190)">
	<rect x="82.214" y="13.921" width="14.878" height="14.878"/>
</g>
<g transform="matrix(1 0 0 1 350 190)">
	<rect x="91.969" y="13.921" width="14.878" height="14.878"/>
</g>
<g transform="matrix(1 0 0 1 370 190)">
	<rect x="101.724" y="13.921" width="14.878" height="14.878"/>
</g>
<g transform="matrix(1 0 0 1 380 190)">
	<rect x="106.602" y="13.921" width="14.878" height="14.878"/>
</g>
<g transform="matrix(1 0 0 1 60 200)">
	<rect x="-49.479" y="18.799" width="14.878" height="14.878"/>
</g>
<g transform="matrix(1 0 0 1 90 200)">
	<rect x="-34.847" y="18.799" width="14.878" height="14.878"/>
</g>
<g transform="matrix(1 0 0 1 100 200)">
	<rect x="-29.969" y="18.799" width="14.878" height="14.878"/>
</g>
<g transform="matrix(1 0 0 1 120 200)">
	<rect x="-20.214" y="18.799" width="14.878" height="14.878"/>
</g>
<g transform="matrix(1 0 0 1 150 200)">
	<rect x="-5.581" y="18.799" width="14.878" height="14.878"/>
</g>
<g transform="matrix(1 0 0 1 310 200)">
	<rect x="72.459" y="18.799" width="14.878" height="14.878"/>
</g>
<g transform="matrix(1 0 0 1 330 200)">
	<rect x="82.214" y="18.799" width="14.878" height="14.878"/>
</g>
<g transform="matrix(1 0 0 1 340 200)">
	<rect x="87.092" y="18.799" width="14.878" height="14.878"/>
</g>
<g transform="matrix(1 0 0 1 350 200)">
	<rect x="91.969" y="18.799" width="14.878" height="14.878"/>
</g>
<g transform="matrix(1 0 0 1 360 200)">
	<rect x="96.847" y="18.799" width="14.878" height="14.878"/>
</g>
<g transform="matrix(1 0 0 1 370 200)">
	<rect x="101.724" y="18.799" width="14.878" height="14.878"/>
</g>
<g transform="matrix(1 0 0 1 380 200)">
	<rect x="106.602" y="18.799" width="14.878" height="14.878"/>
</g>
<g transform="matrix(1 0 0 1 70 210)">
	<rect x="-44.602" y="23.676" width="14.878" height="14.878"/>
</g>
<g transform="matrix(1 0 0 1 110 210)">
	<rect x="-25.092" y="23.676" width="14.878" height="14.878"/>
</g>
<g transform="matrix(1 0 0 1 290 210)">
	<rect x="62.704" y="23.676" width="14.878" height="14.878"/>
</g>
<g transform="matrix(1 0 0 1 320 210)">
	<rect x="77.337" y="23.676" width="14.878" height="14.878"/>
</g>
<g transform="matrix(1 0 0 1 330 210)">
	<rect x="82.214" y="23.676" width="14.878" height="14.878"/>
</g>
<g transform="matrix(1 0 0 1 350 210)">
	<rect x="91.969" y="23.676" width="14.878" height="14.878"/>
</g>
<g transform="matrix(1 0 0 1 90 220)">
	<rect x="-34.847" y="28.554" width="14.878" height="14.878"/>
</g>
<g transform="matrix(1 0 0 1 110 220)">
	<rect x="-25.092" y="28.554" width="14.878" height="14.878"/>
</g>
<g transform="matrix(1 0 0 1 120 220)">
	<rect x="-20.214" y="28.554" width="14.878" height="14.878"/>
</g>
<g transform="matrix(1 0 0 1 130 220)">
	<rect x="-15.337" y="28.554" width="14.878" height="14.878"/>
</g>
<g transform="matrix(1 0 0 1 140 220)">
	<rect x="-10.459" y="28.554" width="14.878" height="14.878"/>
</g>
<g transform="matrix(1 0 0 1 150 220)">
	<rect x="-5.581" y="28.554" width="14.878" height="14.878"/>
</g>
<g transform="matrix(1 0 0 1 290 220)">
	<rect x="62.704" y="28.554" width="14.878" height="14.878"/>
</g>
<g transform="matrix(1 0 0 1 310 220)">
	<rect x="72.459" y="28.554" width="14.878" height="14.878"/>
</g>
<g transform="matrix(1 0 0 1 320 220)">
	<rect x="77.337" y="28.554" width="14.878" height="14.878"/>
</g>
<g transform="matrix(1 0 0 1 330 220)">
	<rect x="82.214" y="28.554" width="14.878" height="14.878"/>
</g>
<g transform="matrix(1 0 0 1 350 220)">
	<rect x="91.969" y="28.554" width="14.878" height="14.878"/>
</g>
<g transform="matrix(1 0 0 1 360 220)">
	<rect x="96.847" y="28.554" width="14.878" height="14.878"/>
</g>
<g transform="matrix(1 0 0 1 70 230)">
	<rect x="-44.602" y="33.431" width="14.878" height="14.878"/>
</g>
<g transform="matrix(1 0 0 1 100 230)">
	<rect x="-29.969" y="33.431" width="14.878" height="14.878"/>
</g>
<g transform="matrix(1 0 0 1 130 230)">
	<rect x="-15.337" y="33.431" width="14.878" height="14.878"/>
</g>
<g transform="matrix(1 0 0 1 140 230)">
	<rect x="-10.459" y="33.431" width="14.878" height="14.878"/>
</g>
<g transform="matrix(1 0 0 1 320 230)">
	<rect x="77.337" y="33.431" width="14.878" height="14.878"/>
</g>
<g transform="matrix(1 0 0 1 330 230)">
	<rect x="82.214" y="33.431" width="14.878" height="14.878"/>
</g>
<g transform="matrix(1 0 0 1 350 230)">
	<rect x="91.969" y="33.431" width="14.878" height="14.878"/>
</g>
<g transform="matrix(1 0 0 1 360 230)">
	<rect x="96.847" y="33.431" width="14.878" height="14.878"/>
</g>
<g transform="matrix(1 0 0 1 370 230)">
	<rect x="101.724" y="33.431" width="14.878" height="14.878"/>
</g>
<g transform="matrix(1 0 0 1 70 240)">
	<rect x="-44.602" y="38.309" width="14.878" height="14.878"/>
</g>
<g transform="matrix(1 0 0 1 80 240)">
	<rect x="-39.724" y="38.309" width="14.878" height="14.878"/>
</g>
<g transform="matrix(1 0 0 1 90 240)">
	<rect x="-34.847" y="38.309" width="14.878" height="14.878"/>
</g>
<g transform="matrix(1 0 0 1 120 240)">
	<rect x="-20.214" y="38.309" width="14.878" height="14.878"/>
</g>
<g transform="matrix(1 0 0 1 130 240)">
	<rect x="-15.337" y="38.309" width="14.878" height="14.878"/>
</g>
<g transform="matrix(1 0 0 1 310 240)">
	<rect x="72.459" y="38.309" width="14.878" height="14.878"/>
</g>
<g transform="matrix(1 0 0 1 330 240)">
	<rect x="82.214" y="38.309" width="14.878" height="14.878"/>
</g>
<g transform="matrix(1 0 0 1 360 240)">
	<rect x="96.847" y="38.309" width="14.878" height="14.878"/>
</g>
<g transform="matrix(1 0 0 1 370 240)">
	<rect x="101.724" y="38.309" width="14.878" height="14.878"/>
</g>
<g transform="matrix(1 0 0 1 60 250)">
	<rect x="-49.479" y="43.186" width="14.878" height="14.878"/>
</g>
<g transform="matrix(1 0 0 1 80 250)">
	<rect x="-39.724" y="43.186" width="14.878" height="14.878"/>
</g>
<g transform="matrix(1 0 0 1 90 250)">
	<rect x="-34.847" y="43.186" width="14.878" height="14.878"/>
</g>
<g transform="matrix(1 0 0 1 100 250)">
	<rect x="-29.969" y="43.186" width="14.878" height="14.878"/>
</g>
<g transform="matrix(1 0 0 1 110 250)">
	<rect x="-25.092" y="43.186" width="14.878" height="14.878"/>
</g>
<g transform="matrix(1 0 0 1 130 250)">
	<rect x="-15.337" y="43.186" width="14.878" height="14.878"/>
</g>
<g transform="matrix(1 0 0 1 310 250)">
	<rect x="72.459" y="43.186" width="14.878" height="14.878"/>
</g>
<g transform="matrix(1 0 0 1 320 250)">
	<rect x="77.337" y="43.186" width="14.878" height="14.878"/>
</g>
<g transform="matrix(1 0 0 1 340 250)">
	<rect x="87.092" y="43.186" width="14.878" height="14.878"/>
</g>
<g transform="matrix(1 0 0 1 370 250)">
	<rect x="101.724" y="43.186" width="14.878" height="14.878"/>
</g>
<g transform="matrix(1 0 0 1 380 250)">
	<rect x="106.602" y="43.186" width="14.878" height="14.878"/>
</g>
<g transform="matrix(1 0 0 1 70 260)">
	<rect x="-44.602" y="48.064" width="14.878" height="14.878"/>
</g>
<g transform="matrix(1 0 0 1 80 260)">
	<rect x="-39.724" y="48.064" width="14.878" height="14.878"/>
</g>
<g transform="matrix(1 0 0 1 100 260)">
	<rect x="-29.969" y="48.064" width="14.878" height="14.878"/>
</g>
<g transform="matrix(1 0 0 1 120 260)">
	<rect x="-20.214" y="48.064" width="14.878" height="14.878"/>
</g>
<g transform="matrix(1 0 0 1 140 260)">
	<rect x="-10.459" y="48.064" width="14.878" height="14.878"/>
</g>
<g transform="matrix(1 0 0 1 150 260)">
	<rect x="-5.581" y="48.064" width="14.878" height="14.878"/>
</g>
<g transform="matrix(1 0 0 1 310 260)">
	<rect x="72.459" y="48.064" width="14.878" height="14.878"/>
</g>
<g transform="matrix(1 0 0 1 330 260)">
	<rect x="82.214" y="48.064" width="14.878" height="14.878"/>
</g>
<g transform="matrix(1 0 0 1 350 260)">
	<rect x="91.969" y="48.064" width="14.878" height="14.878"/>
</g>
<g transform="matrix(1 0 0 1 370 260)">
	<rect x="101.724" y="48.064" width="14.878" height="14.878"/>
</g>
<g transform="matrix(1 0 0 1 70 270)">
	<rect x="-44.602" y="52.941" width="14.878" height="14.878"/>
</g>
<g transform="matrix(1 0 0 1 80 270)">
	<rect x="-39.724" y="52.941" width="14.878" height="14.878"/>
</g>
<g transform="matrix(1 0 0 1 100 270)">
	<rect x="-29.969" y="52.941" width="14.878" height="14.878"/>
</g>
<g transform="matrix(1 0 0 1 130 270)">
	<rect x="-15.337" y="52.941" width="14.878" height="14.878"/>
</g>
<g transform="matrix(1 0 0 1 150 270)">
	<rect x="-5.581" y="52.941" width="14.878" height="14.878"/>
</g>
<g transform="matrix(1 0 0 1 290 270)">
	<rect x="62.704" y="52.941" width="14.878" height="14.878"/>
</g>
<g transform="matrix(1 0 0 1 310 270)">
	<rect x="72.459" y="52.941" width="14.878" height="14.878"/>
</g>
<g transform="matrix(1 0 0 1 350 270)">
	<rect x="91.969" y="52.941" width="14.878" height="14.878"/>
</g>
<g transform="matrix(1 0 0 1 380 270)">
	<rect x="106.602" y="52.941" width="14.878" height="14.878"/>
</g>
<g transform="matrix(1 0 0 1 60 280)">
	<rect x="-49.479" y="57.819" width="14.878" height="14.878"/>
</g>
<g transform="matrix(1 0 0 1 80 280)">
	<rect x="-39.724" y="57.819" width="14.878" height="14.878"/>
</g>
<g transform="matrix(1 0 0 1 90 280)">
	<rect x="-34.847" y="57.819" width="14.878" height="14.878"/>
</g>
<g transform="matrix(1 0 0 1 110 280)">
	<rect x="-25.092" y="57.819" width="14.878" height="14.878"/>
</g>
<g transform="matrix(1 0 0 1 120 280)">
	<rect x="-20.214" y="57.819" width="14.878" height="14.878"/>
</g>
<g transform="matrix(1 0 0 1 130 280)">
	<rect x="-15.337" y="57.819" width="14.878" height="14.878"/>
</g>
<g transform="matrix(1 0 0 1 320 280)">
	<rect x="77.337" y="57.819" width="14.878" height="14.878"/>
</g>
<g transform="matrix(1 0 0 1 350 280)">
	<rect x="91.969" y="57.819" width="14.878" height="14.878"/>
</g>
<g transform="matrix(1 0 0 1 370 280)">
	<rect x="101.724" y="57.819" width="14.878" height="14.878"/>
</g>
<g transform="matrix(1 0 0 1 380 280)">
	<rect x="106.602" y="57.819" width="14.878" height="14.878"/>
</g>
<g transform="matrix(1 0 0 1 70 290)">
	<rect x="-44.602" y="62.696" width="14.878" height="14.878"/>
</g>
<g transform="matrix(1 0 0 1 90 290)">
	<rect x="-34.847" y="62.696" width="14.878" height="14.878"/>
</g>
<g transform="matrix(1 0 0 1 140 290)">
	<rect x="-10.459" y="62.696" width="14.878" height="14.878"/>
</g>
<g transform="matrix(1 0 0 1 150 290)">
	<rect x="-5.581" y="62.696" width="14.878" height="14.878"/>
</g>
<g transform="matrix(1 0 0 1 160 290)">
	<rect x="-0.704" y="62.696" width="14.878" height="14.878"/>
</g>
<g transform="matrix(1 0 0 1 170 290)">
	<rect x="4.174" y="62.696" width="14.878" height="14.878"/>
</g>
<g transform="matrix(1 0 0 1 180 290)">
	<rect x="9.051" y="62.696" width="14.878" height="14.878"/>
</g>
<g transform="matrix(1 0 0 1 190 290)">
	<rect x="13.929" y="62.696" width="14.878" height="14.878"/>
</g>
<g transform="matrix(1 0 0 1 230 290)">
	<rect x="33.439" y="62.696" width="14.878" height="14.878"/>
</g>
<g transform="matrix(1 0 0 1 260 290)">
	<rect x="48.071" y="62.696" width="14.878" height="14.878"/>
</g>
<g transform="matrix(1 0 0 1 270 290)">
	<rect x="52.949" y="62.696" width="14.878" height="14.878"/>
</g>
<g transform="matrix(1 0 0 1 280 290)">
	<rect x="57.826" y="62.696" width="14.878" height="14.878"/>
</g>
<g transform="matrix(1 0 0 1 290 290)">
	<rect x="62.704" y="62.696" width="14.878" height="14.878"/>
</g>
<g transform="matrix(1 0 0 1 310 290)">
	<rect x="72.459" y="62.696" width="14.878" height="14.878"/>
</g>
<g transform="matrix(1 0 0 1 340 290)">
	<rect x="87.092" y="62.696" width="14.878" height="14.878"/>
</g>
<g transform="matrix(1 0 0 1 370 290)">
	<rect x="101.724" y="62.696" width="14.878" height="14.878"/>
</g>
<g transform="matrix(1 0 0 1 380 290)">
	<rect x="106.602" y="62.696" width="14.878" height="14.878"/>
</g>
<g transform="matrix(1 0 0 1 60 300)">
	<rect x="-49.479" y="67.574" width="14.878" height="14.878"/>
</g>
<g transform="matrix(1 0 0 1 80 300)">
	<rect x="-39.724" y="67.574" width="14.878" height="14.878"/>
</g>
<g transform="matrix(1 0 0 1 110 300)">
	<rect x="-25.092" y="67.574" width="14.878" height="14.878"/>
</g>
<g transform="matrix(1 0 0 1 120 300)">
	<rect x="-20.214" y="67.574" width="14.878" height="14.878"/>
</g>
<g transform="matrix(1 0 0 1 130 300)">
	<rect x="-15.337" y="67.574" width="14.878" height="14.878"/>
</g>
<g transform="matrix(1 0 0 1 150 300)">
	<rect x="-5.581" y="67.574" width="14.878" height="14.878"/>
</g>
<g transform="matrix(1 0 0 1 160 300)">
	<rect x="-0.704" y="67.574" width="14.878" height="14.878"/>
</g>
<g transform="matrix(1 0 0 1 180 300)">
	<rect x="9.051" y="67.574" width="14.878" height="14.878"/>
</g>
<g transform="matrix(1 0 0 1 190 300)">
	<rect x="13.929" y="67.574" width="14.878" height="14.878"/>
</g>
<g transform="matrix(1 0 0 1 220 300)">
	<rect x="28.561" y="67.574" width="14.878" height="14.878"/>
</g>
<g transform="matrix(1 0 0 1 230 300)">
	<rect x="33.439" y="67.574" width="14.878" height="14.878"/>
</g>
<g transform="matrix(1 0 0 1 240 300)">
	<rect x="38.316" y="67.574" width="14.878" height="14.878"/>
</g>
<g transform="matrix(1 0 0 1 260 300)">
	<rect x="48.071" y="67.574" width="14.878" height="14.878"/>
</g>
<g transform="matrix(1 0 0 1 280 300)">
	<rect x="57.826" y="67.574" width="14.878" height="14.878"/>
</g>
<g transform="matrix(1 0 0 1 300 300)">
	<rect x="67.581" y="67.574" width="14.878" height="14.878"/>
</g>
<g transform="matrix(1 0 0 1 310 300)">
	<rect x="72.459" y="67.574" width="14.878" height="14.878"/>
</g>
<g transform="matrix(1 0 0 1 320 300)">
	<rect x="77.337" y="67.574" width="14.878" height="14.878"/>
</g>
<g transform="matrix(1 0 0 1 330 300)">
	<rect x="82.214" y="67.574" width="14.878" height="14.878"/>
</g>
<g transform="matrix(1 0 0 1 340 300)">
	<rect x="87.092" y="67.574" width="14.878" height="14.878"/>
</g>
<g transform="matrix(1 0 0 1 140 310)">
	<rect x="-10.459" y="72.452" width="14.878" height="14.878"/>
</g>
<g transform="matrix(1 0 0 1 150 310)">
	<rect x="-5.581" y="72.452" width="14.878" height="14.878"/>
</g>
<g transform="matrix(1 0 0 1 190 310)">
	<rect x="13.929" y="72.452" width="14.878" height="14.878"/>
</g>
<g transform="matrix(1 0 0 1 200 310)">
	<rect x="18.806" y="72.452" width="14.878" height="14.878"/>
</g>
<g transform="matrix(1 0 0 1 220 310)">
	<rect x="28.561" y="72.452" width="14.878" height="14.878"/>
</g>
<g transform="matrix(1 0 0 1 230 310)">
	<rect x="33.439" y="72.452" width="14.878" height="14.878"/>
</g>
<g transform="matrix(1 0 0 1 300 310)">
	<rect x="67.581" y="72.452" width="14.878" height="14.878"/>
</g>
<g transform="matrix(1 0 0 1 340 310)">
	<rect x="87.092" y="72.452" width="14.878" height="14.878"/>
</g>
<g transform="matrix(1 0 0 1 350 310)">
	<rect x="91.969" y="72.452" width="14.878" height="14.878"/>
</g>
<g transform="matrix(1 0 0 1 380 310)">
	<rect x="106.602" y="72.452" width="14.878" height="14.878"/>
</g>
<g transform="matrix(1 0 0 1 150 320)">
	<rect x="-5.581" y="77.329" width="14.878" height="14.878"/>
</g>
<g transform="matrix(1 0 0 1 160 320)">
	<rect x="-0.704" y="77.329" width="14.878" height="14.878"/>
</g>
<g transform="matrix(1 0 0 1 190 320)">
	<rect x="13.929" y="77.329" width="14.878" height="14.878"/>
</g>
<g transform="matrix(1 0 0 1 210 320)">
	<rect x="23.684" y="77.329" width="14.878" height="14.878"/>
</g>
<g transform="matrix(1 0 0 1 240 320)">
	<rect x="38.316" y="77.329" width="14.878" height="14.878"/>
</g>
<g transform="matrix(1 0 0 1 270 320)">
	<rect x="52.949" y="77.329" width="14.878" height="14.878"/>
</g>
<g transform="matrix(1 0 0 1 290 320)">
	<rect x="62.704" y="77.329" width="14.878" height="14.878"/>
</g>
<g transform="matrix(1 0 0 1 300 320)">
	<rect x="67.581" y="77.329" width="14.878" height="14.878"/>
</g>
<g transform="matrix(1 0 0 1 320 320)">
	<rect x="77.337" y="77.329" width="14.878" height="14.878"/>
</g>
<g transform="matrix(1 0 0 1 340 320)">
	<rect x="87.092" y="77.329" width="14.878" height="14.878"/>
</g>
<g transform="matrix(1 0 0 1 350 320)">
	<rect x="91.969" y="77.329" width="14.878" height="14.878"/>
</g>
<g transform="matrix(1 0 0 1 360 320)">
	<rect x="96.847" y="77.329" width="14.878" height="14.878"/>
</g>
<g transform="matrix(1 0 0 1 370 320)">
	<rect x="101.724" y="77.329" width="14.878" height="14.878"/>
</g>
<g transform="matrix(1 0 0 1 380 320)">
	<rect x="106.602" y="77.329" width="14.878" height="14.878"/>
</g>
<g transform="matrix(1 0 0 1 140 330)">
	<rect x="-10.459" y="82.207" width="14.878" height="14.878"/>
</g>
<g transform="matrix(1 0 0 1 150 330)">
	<rect x="-5.581" y="82.207" width="14.878" height="14.878"/>
</g>
<g transform="matrix(1 0 0 1 160 330)">
	<rect x="-0.704" y="82.207" width="14.878" height="14.878"/>
</g>
<g transform="matrix(1 0 0 1 220 330)">
	<rect x="28.561" y="82.207" width="14.878" height="14.878"/>
</g>
<g transform="matrix(1 0 0 1 230 330)">
	<rect x="33.439" y="82.207" width="14.878" height="14.878"/>
</g>
<g transform="matrix(1 0 0 1 240 330)">
	<rect x="38.316" y="82.207" width="14.878" height="14.878"/>
</g>
<g transform="matrix(1 0 0 1 300 330)">
	<rect x="67.581" y="82.207" width="14.878" height="14.878"/>
</g>
<g transform="matrix(1 0 0 1 340 330)">
	<rect x="87.092" y="82.207" width="14.878" height="14.878"/>
</g>
<g transform="matrix(1 0 0 1 380 330)">
	<rect x="106.602" y="82.207" width="14.878" height="14.878"/>
</g>
<g transform="matrix(1 0 0 1 140 340)">
	<rect x="-10.459" y="87.084" width="14.878" height="14.878"/>
</g>
<g transform="matrix(1 0 0 1 170 340)">
	<rect x="4.174" y="87.084" width="14.878" height="14.878"/>
</g>
<g transform="matrix(1 0 0 1 190 340)">
	<rect x="13.929" y="87.084" width="14.878" height="14.878"/>
</g>
<g transform="matrix(1 0 0 1 220 340)">
	<rect x="28.561" y="87.084" width="14.878" height="14.878"/>
</g>
<g transform="matrix(1 0 0 1 250 340)">
	<rect x="43.194" y="87.084" width="14.878" height="14.878"/>
</g>
<g transform="matrix(1 0 0 1 300 340)">
	<rect x="67.581" y="87.084" width="14.878" height="14.878"/>
</g>
<g transform="matrix(1 0 0 1 310 340)">
	<rect x="72.459" y="87.084" width="14.878" height="14.878"/>
</g>
<g transform="matrix(1 0 0 1 320 340)">
	<rect x="77.337" y="87.084" width="14.878" height="14.878"/>
</g>
<g transform="matrix(1 0 0 1 330 340)">
	<rect x="82.214" y="87.084" width="14.878" height="14.878"/>
</g>
<g transform="matrix(1 0 0 1 340 340)">
	<rect x="87.092" y="87.084" width="14.878" height="14.878"/>
</g>
<g transform="matrix(1 0 0 1 370 340)">
	<rect x="101.724" y="87.084" width="14.878" height="14.878"/>
</g>
<g transform="matrix(1 0 0 1 180 350)">
	<rect x="9.051" y="91.962" width="14.878" height="14.878"/>
</g>
<g transform="matrix(1 0 0 1 190 350)">
	<rect x="13.929" y="91.962" width="14.878" height="14.878"/>
</g>
<g transform="matrix(1 0 0 1 240 350)">
	<rect x="38.316" y="91.962" width="14.878" height="14.878"/>
</g>
<g transform="matrix(1 0 0 1 250 350)">
	<rect x="43.194" y="91.962" width="14.878" height="14.878"/>
</g>
<g transform="matrix(1 0 0 1 260 350)">
	<rect x="48.071" y="91.962" width="14.878" height="14.878"/>
</g>
<g transform="matrix(1 0 0 1 340 350)">
	<rect x="87.092" y="91.962" width="14.878" height="14.878"/>
</g>
<g transform="matrix(1 0 0 1 360 350)">
	<rect x="96.847" y="91.962" width="14.878" height="14.878"/>
</g>
<g transform="matrix(1 0 0 1 140 360)">
	<rect x="-10.459" y="96.839" width="14.878" height="14.878"/>
</g>
<g transform="matrix(1 0 0 1 160 360)">
	<rect x="-0.704" y="96.839" width="14.878" height="14.878"/>
</g>
<g transform="matrix(1 0 0 1 170 360)">
	<rect x="4.174" y="96.839" width="14.878" height="14.878"/>
</g>
<g transform="matrix(1 0 0 1 220 360)">
	<rect x="28.561" y="96.839" width="14.878" height="14.878"/>
</g>
<g transform="matrix(1 0 0 1 230 360)">
	<rect x="33.439" y="96.839" width="14.878" height="14.878"/>
</g>
<g transform="matrix(1 0 0 1 300 360)">
	<rect x="67.581" y="96.839" width="14.878" height="14.878"/>
</g>
<g transform="matrix(1 0 0 1 310 360)">
	<rect x="72.459" y="96.839" width="14.878" height="14.878"/>
</g>
<g transform="matrix(1 0 0 1 330 360)">
	<rect x="82.214" y="96.839" width="14.878" height="14.878"/>
</g>
<g transform="matrix(1 0 0 1 340 360)">
	<rect x="87.092" y="96.839" width="14.878" height="14.878"/>
</g>
<g transform="matrix(1 0 0 1 380 360)">
	<rect x="106.602" y="96.839" width="14.878" height="14.878"/>
</g>
<g transform="matrix(1 0 0 1 170 370)">
	<rect x="4.174" y="101.717" width="14.878" height="14.878"/>
</g>
<g transform="matrix(1 0 0 1 180 370)">
	<rect x="9.051" y="101.717" width="14.878" height="14.878"/>
</g>
<g transform="matrix(1 0 0 1 200 370)">
	<rect x="18.806" y="101.717" width="14.878" height="14.878"/>
</g>
<g transform="matrix(1 0 0 1 210 370)">
	<rect x="23.684" y="101.717" width="14.878" height="14.878"/>
</g>
<g transform="matrix(1 0 0 1 220 370)">
	<rect x="28.561" y="101.717" width="14.878" height="14.878"/>
</g>
<g transform="matrix(1 0 0 1 230 370)">
	<rect x="33.439" y="101.717" width="14.878" height="14.878"/>
</g>
<g transform="matrix(1 0 0 1 240 370)">
	<rect x="38.316" y="101.717" width="14.878" height="14.878"/>
</g>
<g transform="matrix(1 0 0 1 250 370)">
	<rect x="43.194" y="101.717" width="14.878" height="14.878"/>
</g>
<g transform="matrix(1 0 0 1 270 370)">
	<rect x="52.949" y="101.717" width="14.878" height="14.878"/>
</g>
<g transform="matrix(1 0 0 1 290 370)">
	<rect x="62.704" y="101.717" width="14.878" height="14.878"/>
</g>
<g transform="matrix(1 0 0 1 300 370)">
	<rect x="67.581" y="101.717" width="14.878" height="14.878"/>
</g>
<g transform="matrix(1 0 0 1 320 370)">
	<rect x="77.337" y="101.717" width="14.878" height="14.878"/>
</g>
<g transform="matrix(1 0 0 1 330 370)">
	<rect x="82.214" y="101.717" width="14.878" height="14.878"/>
</g>
<g transform="matrix(1 0 0 1 360 370)">
	<rect x="96.847" y="101.717" width="14.878" height="14.878"/>
</g>
<g transform="matrix(1 0 0 1 370 370)">
	<rect x="101.724" y="101.717" width="14.878" height="14.878"/>
</g>
<g transform="matrix(1 0 0 1 150 380)">
	<rect x="-5.581" y="106.594" width="14.878" height="14.878"/>
</g>
<g transform="matrix(1 0 0 1 170 380)">
	<rect x="4.174" y="106.594" width="14.878" height="14.878"/>
</g>
<g transform="matrix(1 0 0 1 180 380)">
	<rect x="9.051" y="106.594" width="14.878" height="14.878"/>
</g>
<g transform="matrix(1 0 0 1 200 380)">
	<rect x="18.806" y="106.594" width="14.878" height="14.878"/>
</g>
<g transform="matrix(1 0 0 1 210 380)">
	<rect x="23.684" y="106.594" width="14.878" height="14.878"/>
</g>
<g transform="matrix(1 0 0 1 220 380)">
	<rect x="28.561" y="106.594" width="14.878" height="14.878"/>
</g>
<g transform="matrix(1 0 0 1 230 380)">
	<rect x="33.439" y="106.594" width="14.878" height="14.878"/>
</g>
<g transform="matrix(1 0 0 1 240 380)">
	<rect x="38.316" y="106.594" width="14.878" height="14.878"/>
</g>
<g transform="matrix(1 0 0 1 250 380)">
	<rect x="43.194" y="106.594" width="14.878" height="14.878"/>
</g>
<g transform="matrix(1 0 0 1 280 380)">
	<rect x="57.826" y="106.594" width="14.878" height="14.878"/>
</g>
<g transform="matrix(1 0 0 1 290 380)">
	<rect x="62.704" y="106.594" width="14.878" height="14.878"/>
</g>
<g transform="matrix(1 0 0 1 300 380)">
	<rect x="67.581" y="106.594" width="14.878" height="14.878"/>
</g>
<g transform="matrix(1 0 0 1 330 380)">
	<rect x="82.214" y="106.594" width="14.878" height="14.878"/>
</g>
<g transform="matrix(1 0 0 1 340 380)">
	<rect x="87.092" y="106.594" width="14.878" height="14.878"/>
</g>
<g transform="matrix(1 0 0 1 360 380)">
	<rect x="96.847" y="106.594" width="14.878" height="14.878"/>
</g>
<g transform="matrix(1 0 0 1 370 380)">
	<rect x="101.724" y="106.594" width="14.878" height="14.878"/>
</g>
<g transform="matrix(1 0 0 1 380 380)">
	<rect x="106.602" y="106.594" width="14.878" height="14.878"/>
</g>
<g transform="matrix(0.22 0 0 0.22 220 220)">
	<g>
		<g id="Layer_1_1_" transform="matrix(1 0 0 1 -0.5 -0.5)">
			
				<radialGradient id="SVGID_1_" cx="-7.0209" cy="-2812.4211" r="680.9262" fx="-332.9438" fy="-3206.4551" gradientTransform="matrix(0.2046 -0.0836 -0.0726 -0.1782 -110.3533 -537.6473)" gradientUnits="userSpaceOnUse">
				<stop  offset="0" style="stop-color:#4DB748"/>
				<stop  offset="0.6625" style="stop-color:#046937"/>
			</radialGradient>
			<circle style="fill:url(#SVGID_1_);" cx="163.392" cy="163.358" r="380.442"/>
		</g>
		<g id="Layer_1_2_" transform="matrix(1 0 0 1 109.71 56.07)">
			<path style="fill:#FFFFFF;" d="M229.748-26.209c-36.286,0-65.518,11.905-85.175,36.234v-92.611L69.479,5.391v459.092
				l78.622-87.98V226.914c20.161,22.775,47.879,33.646,81.646,33.646c76.1,0,135.069-55.904,135.069-143.387
				C364.815,29.694,305.848-26.209,229.748-26.209z M216.139,194.302c-39.311,0-69.047-28.989-69.047-77.128
				c0-48.139,29.734-77.127,69.047-77.127c39.311,0,69.047,28.987,69.047,77.127C285.186,165.314,255.45,194.302,216.139,194.302z"
				/>
		</g>
		<g id="Layer_1_3_" transform="matrix(1 0 0 1 -110.71 -51.45)">
			<path style="fill:#FFFFFF;" d="M178.687-39.795v154.767c-19.655-22.776-47.879-33.646-81.142-33.646
				c-12.604,0-24.718,1.543-36.184,4.462c-34.592,8.806-63.158,30.386-80.648,61.795c-11.945,21.452-18.741,47.467-18.741,77.127
				c0,87.481,58.966,143.387,135.573,143.387c36.286,0,65.013-11.907,84.668-36.236v73.055l75.096-88.099v-444.709L178.687-39.795z
				 M111.152,301.839c-39.312,0-69.551-28.989-69.551-77.128s30.239-77.127,69.551-77.127c38.805,0,69.047,28.987,69.047,77.127
				S149.958,301.839,111.152,301.839z"/>
		</g>
	</g>
</g>
<g id="Circle-in-circle_1_" transform="matrix(1.01 0 0 1.01 90 90)">
	<circle cx="-27.137" cy="-27.144" r="22.316"/>
</g>
<g id="Circle-in-circle_2_" transform="matrix(1.01 0 0 1.01 90 90)">
	<path d="M24.935-27.137c0,28.758-23.313,52.071-52.071,52.071S-79.208,1.622-79.208-27.137s23.313-52.071,52.071-52.071
		S24.935-55.895,24.935-27.137z M-27.137-64.33c-20.541,0-37.194,16.652-37.194,37.194s16.652,37.194,37.194,37.194
		S10.057-6.595,10.057-27.137S-6.595-64.33-27.137-64.33z"/>
</g>
<g id="Circle-in-circle_3_" transform="matrix(1.01 0 0 1.01 90 350)">
	<circle cx="-27.137" cy="98.416" r="22.316"/>
</g>
<g id="Circle-in-circle_4_" transform="matrix(1.01 0 0 1.01 90 350)">
	<path d="M24.935,98.424c0,28.758-23.313,52.071-52.071,52.071s-52.071-23.313-52.071-52.071s23.313-52.071,52.071-52.071
		S24.935,69.665,24.935,98.424z M-27.137,61.23c-20.541,0-37.194,16.652-37.194,37.194s16.652,37.194,37.194,37.194
		s37.194-16.652,37.194-37.194S-6.595,61.23-27.137,61.23z"/>
</g>
<g id="Circle-in-circle_5_" transform="matrix(1.01 0 0 1.01 350 90)">
	<circle cx="98.424" cy="-27.144" r="22.316"/>
</g>
<g id="Circle-in-circle_6_" transform="matrix(1.01 0 0 1.01 350 90)">
	<path d="M150.495-27.137c0,28.758-23.313,52.071-52.071,52.071S46.352,1.622,46.352-27.137s23.313-52.071,52.071-52.071
		S150.495-55.895,150.495-27.137z M98.424-64.33c-20.541,0-37.194,16.652-37.194,37.194s16.652,37.194,37.194,37.194
		s37.194-16.652,37.194-37.194S118.965-64.33,98.424-64.33z"/>
</g>
</svg>
