<?xml version="1.0" encoding="utf-8"?>
<!-- Generator: Adobe Illustrator 25.0.1, SVG Export Plug-In . SVG Version: 6.00 Build 0)  -->
<svg version="1.1" id="Layer_1" xmlns="http://www.w3.org/2000/svg" xmlns:xlink="http://www.w3.org/1999/xlink" x="0px" y="0px"
	 viewBox="0 0 450 450" style="enable-background:new 0 0 450 450;" xml:space="preserve">
<style type="text/css">
	.st0{fill:url(#SVGID_1_);}
	.st1{fill:#FFFFFF;}
</style>
<desc>Created with Fabric.js 5.3.0</desc>
<g transform="matrix(1 0 0 1 140 60)">
	<rect x="-5" y="-5" width="10" height="10"/>
</g>
<g transform="matrix(1 0 0 1 150 60)">
	<rect x="-5" y="-5" width="10" height="10"/>
</g>
<g transform="matrix(1 0 0 1 160 60)">
	<rect x="-5" y="-5" width="10" height="10"/>
</g>
<g transform="matrix(1 0 0 1 210 60)">
	<rect x="-5" y="-5" width="10" height="10"/>
</g>
<g transform="matrix(1 0 0 1 220 60)">
	<rect x="-5" y="-5" width="10" height="10"/>
</g>
<g transform="matrix(1 0 0 1 230 60)">
	<rect x="-5" y="-5" width="10" height="10"/>
</g>
<g transform="matrix(1 0 0 1 290 60)">
	<rect x="-5" y="-5" width="10" height="10"/>
</g>
<g transform="matrix(1 0 0 1 300 60)">
	<rect x="-5" y="-5" width="10" height="10"/>
</g>
<g transform="matrix(1 0 0 1 140 70)">
	<rect x="-5" y="-5" width="10" height="10"/>
</g>
<g transform="matrix(1 0 0 1 150 70)">
	<rect x="-5" y="-5" width="10" height="10"/>
</g>
<g transform="matrix(1 0 0 1 160 70)">
	<rect x="-5" y="-5" width="10" height="10"/>
</g>
<g transform="matrix(1 0 0 1 180 70)">
	<rect x="-5" y="-5" width="10" height="10"/>
</g>
<g transform="matrix(1 0 0 1 220 70)">
	<rect x="-5" y="-5" width="10" height="10"/>
</g>
<g transform="matrix(1 0 0 1 230 70)">
	<rect x="-5" y="-5" width="10" height="10"/>
</g>
<g transform="matrix(1 0 0 1 240 70)">
	<rect x="-5" y="-5" width="10" height="10"/>
</g>
<g transform="matrix(1 0 0 1 280 70)">
	<rect x="-5" y="-5" width="10" height="10"/>
</g>
<g transform="matrix(1 0 0 1 300 70)">
	<rect x="-5" y="-5" width="10" height="10"/>
</g>
<g transform="matrix(1 0 0 1 140 80)">
	<rect x="-5" y="-5" width="10" height="10"/>
</g>
<g transform="matrix(1 0 0 1 150 80)">
	<rect x="-5" y="-5" width="10" height="10"/>
</g>
<g transform="matrix(1 0 0 1 180 80)">
	<rect x="-5" y="-5" width="10" height="10"/>
</g>
<g transform="matrix(1 0 0 1 190 80)">
	<rect x="-5" y="-5" width="10" height="10"/>
</g>
<g transform="matrix(1 0 0 1 200 80)">
	<rect x="-5" y="-5" width="10" height="10"/>
</g>
<g transform="matrix(1 0 0 1 210 80)">
	<rect x="-5" y="-5" width="10" height="10"/>
</g>
<g transform="matrix(1 0 0 1 220 80)">
	<rect x="-5" y="-5" width="10" height="10"/>
</g>
<g transform="matrix(1 0 0 1 230 80)">
	<rect x="-5" y="-5" width="10" height="10"/>
</g>
<g transform="matrix(1 0 0 1 270 80)">
	<rect x="-5" y="-5" width="10" height="10"/>
</g>
<g transform="matrix(1 0 0 1 280 80)">
	<rect x="-5" y="-5" width="10" height="10"/>
</g>
<g transform="matrix(1 0 0 1 290 80)">
	<rect x="-5" y="-5" width="10" height="10"/>
</g>
<g transform="matrix(1 0 0 1 300 80)">
	<rect x="-5" y="-5" width="10" height="10"/>
</g>
<g transform="matrix(1 0 0 1 150 90)">
	<rect x="-5" y="-5" width="10" height="10"/>
</g>
<g transform="matrix(1 0 0 1 160 90)">
	<rect x="-5" y="-5" width="10" height="10"/>
</g>
<g transform="matrix(1 0 0 1 180 90)">
	<rect x="-5" y="-5" width="10" height="10"/>
</g>
<g transform="matrix(1 0 0 1 210 90)">
	<rect x="-5" y="-5" width="10" height="10"/>
</g>
<g transform="matrix(1 0 0 1 230 90)">
	<rect x="-5" y="-5" width="10" height="10"/>
</g>
<g transform="matrix(1 0 0 1 240 90)">
	<rect x="-5" y="-5" width="10" height="10"/>
</g>
<g transform="matrix(1 0 0 1 250 90)">
	<rect x="-5" y="-5" width="10" height="10"/>
</g>
<g transform="matrix(1 0 0 1 290 90)">
	<rect x="-5" y="-5" width="10" height="10"/>
</g>
<g transform="matrix(1 0 0 1 300 90)">
	<rect x="-5" y="-5" width="10" height="10"/>
</g>
<g transform="matrix(1 0 0 1 150 100)">
	<rect x="-5" y="-5" width="10" height="10"/>
</g>
<g transform="matrix(1 0 0 1 160 100)">
	<rect x="-5" y="-5" width="10" height="10"/>
</g>
<g transform="matrix(1 0 0 1 190 100)">
	<rect x="-5" y="-5" width="10" height="10"/>
</g>
<g transform="matrix(1 0 0 1 220 100)">
	<rect x="-5" y="-5" width="10" height="10"/>
</g>
<g transform="matrix(1 0 0 1 230 100)">
	<rect x="-5" y="-5" width="10" height="10"/>
</g>
<g transform="matrix(1 0 0 1 140 110)">
	<rect x="-5" y="-5" width="10" height="10"/>
</g>
<g transform="matrix(1 0 0 1 150 110)">
	<rect x="-5" y="-5" width="10" height="10"/>
</g>
<g transform="matrix(1 0 0 1 170 110)">
	<rect x="-5" y="-5" width="10" height="10"/>
</g>
<g transform="matrix(1 0 0 1 200 110)">
	<rect x="-5" y="-5" width="10" height="10"/>
</g>
<g transform="matrix(1 0 0 1 210 110)">
	<rect x="-5" y="-5" width="10" height="10"/>
</g>
<g transform="matrix(1 0 0 1 240 110)">
	<rect x="-5" y="-5" width="10" height="10"/>
</g>
<g transform="matrix(1 0 0 1 270 110)">
	<rect x="-5" y="-5" width="10" height="10"/>
</g>
<g transform="matrix(1 0 0 1 280 110)">
	<rect x="-5" y="-5" width="10" height="10"/>
</g>
<g transform="matrix(1 0 0 1 290 110)">
	<rect x="-5" y="-5" width="10" height="10"/>
</g>
<g transform="matrix(1 0 0 1 300 110)">
	<rect x="-5" y="-5" width="10" height="10"/>
</g>
<g transform="matrix(1 0 0 1 140 120)">
	<rect x="-5" y="-5" width="10" height="10"/>
</g>
<g transform="matrix(1 0 0 1 160 120)">
	<rect x="-5" y="-5" width="10" height="10"/>
</g>
<g transform="matrix(1 0 0 1 180 120)">
	<rect x="-5" y="-5" width="10" height="10"/>
</g>
<g transform="matrix(1 0 0 1 200 120)">
	<rect x="-5" y="-5" width="10" height="10"/>
</g>
<g transform="matrix(1 0 0 1 220 120)">
	<rect x="-5" y="-5" width="10" height="10"/>
</g>
<g transform="matrix(1 0 0 1 240 120)">
	<rect x="-5" y="-5" width="10" height="10"/>
</g>
<g transform="matrix(1 0 0 1 260 120)">
	<rect x="-5" y="-5" width="10" height="10"/>
</g>
<g transform="matrix(1 0 0 1 280 120)">
	<rect x="-5" y="-5" width="10" height="10"/>
</g>
<g transform="matrix(1 0 0 1 300 120)">
	<rect x="-5" y="-5" width="10" height="10"/>
</g>
<g transform="matrix(1 0 0 1 140 130)">
	<rect x="-5" y="-5" width="10" height="10"/>
</g>
<g transform="matrix(1 0 0 1 200 130)">
	<rect x="-5" y="-5" width="10" height="10"/>
</g>
<g transform="matrix(1 0 0 1 210 130)">
	<rect x="-5" y="-5" width="10" height="10"/>
</g>
<g transform="matrix(1 0 0 1 230 130)">
	<rect x="-5" y="-5" width="10" height="10"/>
</g>
<g transform="matrix(1 0 0 1 250 130)">
	<rect x="-5" y="-5" width="10" height="10"/>
</g>
<g transform="matrix(1 0 0 1 260 130)">
	<rect x="-5" y="-5" width="10" height="10"/>
</g>
<g transform="matrix(1 0 0 1 270 130)">
	<rect x="-5" y="-5" width="10" height="10"/>
</g>
<g transform="matrix(1 0 0 1 280 130)">
	<rect x="-5" y="-5" width="10" height="10"/>
</g>
<g transform="matrix(1 0 0 1 290 130)">
	<rect x="-5" y="-5" width="10" height="10"/>
</g>
<g transform="matrix(1 0 0 1 80 140)">
	<rect x="-5" y="-5" width="10" height="10"/>
</g>
<g transform="matrix(1 0 0 1 90 140)">
	<rect x="-5" y="-5" width="10" height="10"/>
</g>
<g transform="matrix(1 0 0 1 100 140)">
	<rect x="-5" y="-5" width="10" height="10"/>
</g>
<g transform="matrix(1 0 0 1 120 140)">
	<rect x="-5" y="-5" width="10" height="10"/>
</g>
<g transform="matrix(1 0 0 1 140 140)">
	<rect x="-5" y="-5" width="10" height="10"/>
</g>
<g transform="matrix(1 0 0 1 150 140)">
	<rect x="-5" y="-5" width="10" height="10"/>
</g>
<g transform="matrix(1 0 0 1 160 140)">
	<rect x="-5" y="-5" width="10" height="10"/>
</g>
<g transform="matrix(1 0 0 1 170 140)">
	<rect x="-5" y="-5" width="10" height="10"/>
</g>
<g transform="matrix(1 0 0 1 180 140)">
	<rect x="-5" y="-5" width="10" height="10"/>
</g>
<g transform="matrix(1 0 0 1 220 140)">
	<rect x="-5" y="-5" width="10" height="10"/>
</g>
<g transform="matrix(1 0 0 1 260 140)">
	<rect x="-5" y="-5" width="10" height="10"/>
</g>
<g transform="matrix(1 0 0 1 290 140)">
	<rect x="-5" y="-5" width="10" height="10"/>
</g>
<g transform="matrix(1 0 0 1 310 140)">
	<rect x="-5" y="-5" width="10" height="10"/>
</g>
<g transform="matrix(1 0 0 1 320 140)">
	<rect x="-5" y="-5" width="10" height="10"/>
</g>
<g transform="matrix(1 0 0 1 330 140)">
	<rect x="-5" y="-5" width="10" height="10"/>
</g>
<g transform="matrix(1 0 0 1 360 140)">
	<rect x="-5" y="-5" width="10" height="10"/>
</g>
<g transform="matrix(1 0 0 1 370 140)">
	<rect x="-5" y="-5" width="10" height="10"/>
</g>
<g transform="matrix(1 0 0 1 380 140)">
	<rect x="-5" y="-5" width="10" height="10"/>
</g>
<g transform="matrix(1 0 0 1 60 150)">
	<rect x="-5" y="-5" width="10" height="10"/>
</g>
<g transform="matrix(1 0 0 1 90 150)">
	<rect x="-5" y="-5" width="10" height="10"/>
</g>
<g transform="matrix(1 0 0 1 100 150)">
	<rect x="-5" y="-5" width="10" height="10"/>
</g>
<g transform="matrix(1 0 0 1 110 150)">
	<rect x="-5" y="-5" width="10" height="10"/>
</g>
<g transform="matrix(1 0 0 1 180 150)">
	<rect x="-5" y="-5" width="10" height="10"/>
</g>
<g transform="matrix(1 0 0 1 230 150)">
	<rect x="-5" y="-5" width="10" height="10"/>
</g>
<g transform="matrix(1 0 0 1 240 150)">
	<rect x="-5" y="-5" width="10" height="10"/>
</g>
<g transform="matrix(1 0 0 1 270 150)">
	<rect x="-5" y="-5" width="10" height="10"/>
</g>
<g transform="matrix(1 0 0 1 280 150)">
	<rect x="-5" y="-5" width="10" height="10"/>
</g>
<g transform="matrix(1 0 0 1 290 150)">
	<rect x="-5" y="-5" width="10" height="10"/>
</g>
<g transform="matrix(1 0 0 1 300 150)">
	<rect x="-5" y="-5" width="10" height="10"/>
</g>
<g transform="matrix(1 0 0 1 310 150)">
	<rect x="-5" y="-5" width="10" height="10"/>
</g>
<g transform="matrix(1 0 0 1 320 150)">
	<rect x="-5" y="-5" width="10" height="10"/>
</g>
<g transform="matrix(1 0 0 1 360 150)">
	<rect x="-5" y="-5" width="10" height="10"/>
</g>
<g transform="matrix(1 0 0 1 380 150)">
	<rect x="-5" y="-5" width="10" height="10"/>
</g>
<g transform="matrix(1 0 0 1 60 160)">
	<rect x="-5" y="-5" width="10" height="10"/>
</g>
<g transform="matrix(1 0 0 1 70 160)">
	<rect x="-5" y="-5" width="10" height="10"/>
</g>
<g transform="matrix(1 0 0 1 80 160)">
	<rect x="-5" y="-5" width="10" height="10"/>
</g>
<g transform="matrix(1 0 0 1 90 160)">
	<rect x="-5" y="-5" width="10" height="10"/>
</g>
<g transform="matrix(1 0 0 1 100 160)">
	<rect x="-5" y="-5" width="10" height="10"/>
</g>
<g transform="matrix(1 0 0 1 110 160)">
	<rect x="-5" y="-5" width="10" height="10"/>
</g>
<g transform="matrix(1 0 0 1 120 160)">
	<rect x="-5" y="-5" width="10" height="10"/>
</g>
<g transform="matrix(1 0 0 1 140 160)">
	<rect x="-5" y="-5" width="10" height="10"/>
</g>
<g transform="matrix(1 0 0 1 160 160)">
	<rect x="-5" y="-5" width="10" height="10"/>
</g>
<g transform="matrix(1 0 0 1 170 160)">
	<rect x="-5" y="-5" width="10" height="10"/>
</g>
<g transform="matrix(1 0 0 1 200 160)">
	<rect x="-5" y="-5" width="10" height="10"/>
</g>
<g transform="matrix(1 0 0 1 210 160)">
	<rect x="-5" y="-5" width="10" height="10"/>
</g>
<g transform="matrix(1 0 0 1 220 160)">
	<rect x="-5" y="-5" width="10" height="10"/>
</g>
<g transform="matrix(1 0 0 1 240 160)">
	<rect x="-5" y="-5" width="10" height="10"/>
</g>
<g transform="matrix(1 0 0 1 260 160)">
	<rect x="-5" y="-5" width="10" height="10"/>
</g>
<g transform="matrix(1 0 0 1 270 160)">
	<rect x="-5" y="-5" width="10" height="10"/>
</g>
<g transform="matrix(1 0 0 1 300 160)">
	<rect x="-5" y="-5" width="10" height="10"/>
</g>
<g transform="matrix(1 0 0 1 310 160)">
	<rect x="-5" y="-5" width="10" height="10"/>
</g>
<g transform="matrix(1 0 0 1 330 160)">
	<rect x="-5" y="-5" width="10" height="10"/>
</g>
<g transform="matrix(1 0 0 1 350 160)">
	<rect x="-5" y="-5" width="10" height="10"/>
</g>
<g transform="matrix(1 0 0 1 370 160)">
	<rect x="-5" y="-5" width="10" height="10"/>
</g>
<g transform="matrix(1 0 0 1 60 170)">
	<rect x="-5" y="-5" width="10" height="10"/>
</g>
<g transform="matrix(1 0 0 1 80 170)">
	<rect x="-5" y="-5" width="10" height="10"/>
</g>
<g transform="matrix(1 0 0 1 90 170)">
	<rect x="-5" y="-5" width="10" height="10"/>
</g>
<g transform="matrix(1 0 0 1 100 170)">
	<rect x="-5" y="-5" width="10" height="10"/>
</g>
<g transform="matrix(1 0 0 1 110 170)">
	<rect x="-5" y="-5" width="10" height="10"/>
</g>
<g transform="matrix(1 0 0 1 130 170)">
	<rect x="-5" y="-5" width="10" height="10"/>
</g>
<g transform="matrix(1 0 0 1 140 170)">
	<rect x="-5" y="-5" width="10" height="10"/>
</g>
<g transform="matrix(1 0 0 1 170 170)">
	<rect x="-5" y="-5" width="10" height="10"/>
</g>
<g transform="matrix(1 0 0 1 180 170)">
	<rect x="-5" y="-5" width="10" height="10"/>
</g>
<g transform="matrix(1 0 0 1 240 170)">
	<rect x="-5" y="-5" width="10" height="10"/>
</g>
<g transform="matrix(1 0 0 1 250 170)">
	<rect x="-5" y="-5" width="10" height="10"/>
</g>
<g transform="matrix(1 0 0 1 260 170)">
	<rect x="-5" y="-5" width="10" height="10"/>
</g>
<g transform="matrix(1 0 0 1 270 170)">
	<rect x="-5" y="-5" width="10" height="10"/>
</g>
<g transform="matrix(1 0 0 1 280 170)">
	<rect x="-5" y="-5" width="10" height="10"/>
</g>
<g transform="matrix(1 0 0 1 290 170)">
	<rect x="-5" y="-5" width="10" height="10"/>
</g>
<g transform="matrix(1 0 0 1 300 170)">
	<rect x="-5" y="-5" width="10" height="10"/>
</g>
<g transform="matrix(1 0 0 1 320 170)">
	<rect x="-5" y="-5" width="10" height="10"/>
</g>
<g transform="matrix(1 0 0 1 360 170)">
	<rect x="-5" y="-5" width="10" height="10"/>
</g>
<g transform="matrix(1 0 0 1 370 170)">
	<rect x="-5" y="-5" width="10" height="10"/>
</g>
<g transform="matrix(1 0 0 1 380 170)">
	<rect x="-5" y="-5" width="10" height="10"/>
</g>
<g transform="matrix(1 0 0 1 70 180)">
	<rect x="-5" y="-5" width="10" height="10"/>
</g>
<g transform="matrix(1 0 0 1 100 180)">
	<rect x="-5" y="-5" width="10" height="10"/>
</g>
<g transform="matrix(1 0 0 1 120 180)">
	<rect x="-5" y="-5" width="10" height="10"/>
</g>
<g transform="matrix(1 0 0 1 130 180)">
	<rect x="-5" y="-5" width="10" height="10"/>
</g>
<g transform="matrix(1 0 0 1 150 180)">
	<rect x="-5" y="-5" width="10" height="10"/>
</g>
<g transform="matrix(1 0 0 1 160 180)">
	<rect x="-5" y="-5" width="10" height="10"/>
</g>
<g transform="matrix(1 0 0 1 170 180)">
	<rect x="-5" y="-5" width="10" height="10"/>
</g>
<g transform="matrix(1 0 0 1 270 180)">
	<rect x="-5" y="-5" width="10" height="10"/>
</g>
<g transform="matrix(1 0 0 1 300 180)">
	<rect x="-5" y="-5" width="10" height="10"/>
</g>
<g transform="matrix(1 0 0 1 350 180)">
	<rect x="-5" y="-5" width="10" height="10"/>
</g>
<g transform="matrix(1 0 0 1 80 190)">
	<rect x="-5" y="-5" width="10" height="10"/>
</g>
<g transform="matrix(1 0 0 1 110 190)">
	<rect x="-5" y="-5" width="10" height="10"/>
</g>
<g transform="matrix(1 0 0 1 130 190)">
	<rect x="-5" y="-5" width="10" height="10"/>
</g>
<g transform="matrix(1 0 0 1 160 190)">
	<rect x="-5" y="-5" width="10" height="10"/>
</g>
<g transform="matrix(1 0 0 1 280 190)">
	<rect x="-5" y="-5" width="10" height="10"/>
</g>
<g transform="matrix(1 0 0 1 290 190)">
	<rect x="-5" y="-5" width="10" height="10"/>
</g>
<g transform="matrix(1 0 0 1 320 190)">
	<rect x="-5" y="-5" width="10" height="10"/>
</g>
<g transform="matrix(1 0 0 1 330 190)">
	<rect x="-5" y="-5" width="10" height="10"/>
</g>
<g transform="matrix(1 0 0 1 360 190)">
	<rect x="-5" y="-5" width="10" height="10"/>
</g>
<g transform="matrix(1 0 0 1 380 190)">
	<rect x="-5" y="-5" width="10" height="10"/>
</g>
<g transform="matrix(1 0 0 1 60 200)">
	<rect x="-5" y="-5" width="10" height="10"/>
</g>
<g transform="matrix(1 0 0 1 80 200)">
	<rect x="-5" y="-5" width="10" height="10"/>
</g>
<g transform="matrix(1 0 0 1 100 200)">
	<rect x="-5" y="-5" width="10" height="10"/>
</g>
<g transform="matrix(1 0 0 1 120 200)">
	<rect x="-5" y="-5" width="10" height="10"/>
</g>
<g transform="matrix(1 0 0 1 140 200)">
	<rect x="-5" y="-5" width="10" height="10"/>
</g>
<g transform="matrix(1 0 0 1 160 200)">
	<rect x="-5" y="-5" width="10" height="10"/>
</g>
<g transform="matrix(1 0 0 1 280 200)">
	<rect x="-5" y="-5" width="10" height="10"/>
</g>
<g transform="matrix(1 0 0 1 310 200)">
	<rect x="-5" y="-5" width="10" height="10"/>
</g>
<g transform="matrix(1 0 0 1 320 200)">
	<rect x="-5" y="-5" width="10" height="10"/>
</g>
<g transform="matrix(1 0 0 1 350 200)">
	<rect x="-5" y="-5" width="10" height="10"/>
</g>
<g transform="matrix(1 0 0 1 360 200)">
	<rect x="-5" y="-5" width="10" height="10"/>
</g>
<g transform="matrix(1 0 0 1 370 200)">
	<rect x="-5" y="-5" width="10" height="10"/>
</g>
<g transform="matrix(1 0 0 1 60 210)">
	<rect x="-5" y="-5" width="10" height="10"/>
</g>
<g transform="matrix(1 0 0 1 70 210)">
	<rect x="-5" y="-5" width="10" height="10"/>
</g>
<g transform="matrix(1 0 0 1 130 210)">
	<rect x="-5" y="-5" width="10" height="10"/>
</g>
<g transform="matrix(1 0 0 1 160 210)">
	<rect x="-5" y="-5" width="10" height="10"/>
</g>
<g transform="matrix(1 0 0 1 270 210)">
	<rect x="-5" y="-5" width="10" height="10"/>
</g>
<g transform="matrix(1 0 0 1 280 210)">
	<rect x="-5" y="-5" width="10" height="10"/>
</g>
<g transform="matrix(1 0 0 1 300 210)">
	<rect x="-5" y="-5" width="10" height="10"/>
</g>
<g transform="matrix(1 0 0 1 310 210)">
	<rect x="-5" y="-5" width="10" height="10"/>
</g>
<g transform="matrix(1 0 0 1 320 210)">
	<rect x="-5" y="-5" width="10" height="10"/>
</g>
<g transform="matrix(1 0 0 1 330 210)">
	<rect x="-5" y="-5" width="10" height="10"/>
</g>
<g transform="matrix(1 0 0 1 360 210)">
	<rect x="-5" y="-5" width="10" height="10"/>
</g>
<g transform="matrix(1 0 0 1 370 210)">
	<rect x="-5" y="-5" width="10" height="10"/>
</g>
<g transform="matrix(1 0 0 1 80 220)">
	<rect x="-5" y="-5" width="10" height="10"/>
</g>
<g transform="matrix(1 0 0 1 120 220)">
	<rect x="-5" y="-5" width="10" height="10"/>
</g>
<g transform="matrix(1 0 0 1 130 220)">
	<rect x="-5" y="-5" width="10" height="10"/>
</g>
<g transform="matrix(1 0 0 1 170 220)">
	<rect x="-5" y="-5" width="10" height="10"/>
</g>
<g transform="matrix(1 0 0 1 290 220)">
	<rect x="-5" y="-5" width="10" height="10"/>
</g>
<g transform="matrix(1 0 0 1 310 220)">
	<rect x="-5" y="-5" width="10" height="10"/>
</g>
<g transform="matrix(1 0 0 1 340 220)">
	<rect x="-5" y="-5" width="10" height="10"/>
</g>
<g transform="matrix(1 0 0 1 350 220)">
	<rect x="-5" y="-5" width="10" height="10"/>
</g>
<g transform="matrix(1 0 0 1 360 220)">
	<rect x="-5" y="-5" width="10" height="10"/>
</g>
<g transform="matrix(1 0 0 1 380 220)">
	<rect x="-5" y="-5" width="10" height="10"/>
</g>
<g transform="matrix(1 0 0 1 60 230)">
	<rect x="-5" y="-5" width="10" height="10"/>
</g>
<g transform="matrix(1 0 0 1 100 230)">
	<rect x="-5" y="-5" width="10" height="10"/>
</g>
<g transform="matrix(1 0 0 1 140 230)">
	<rect x="-5" y="-5" width="10" height="10"/>
</g>
<g transform="matrix(1 0 0 1 150 230)">
	<rect x="-5" y="-5" width="10" height="10"/>
</g>
<g transform="matrix(1 0 0 1 160 230)">
	<rect x="-5" y="-5" width="10" height="10"/>
</g>
<g transform="matrix(1 0 0 1 170 230)">
	<rect x="-5" y="-5" width="10" height="10"/>
</g>
<g transform="matrix(1 0 0 1 290 230)">
	<rect x="-5" y="-5" width="10" height="10"/>
</g>
<g transform="matrix(1 0 0 1 300 230)">
	<rect x="-5" y="-5" width="10" height="10"/>
</g>
<g transform="matrix(1 0 0 1 310 230)">
	<rect x="-5" y="-5" width="10" height="10"/>
</g>
<g transform="matrix(1 0 0 1 320 230)">
	<rect x="-5" y="-5" width="10" height="10"/>
</g>
<g transform="matrix(1 0 0 1 330 230)">
	<rect x="-5" y="-5" width="10" height="10"/>
</g>
<g transform="matrix(1 0 0 1 70 240)">
	<rect x="-5" y="-5" width="10" height="10"/>
</g>
<g transform="matrix(1 0 0 1 80 240)">
	<rect x="-5" y="-5" width="10" height="10"/>
</g>
<g transform="matrix(1 0 0 1 90 240)">
	<rect x="-5" y="-5" width="10" height="10"/>
</g>
<g transform="matrix(1 0 0 1 100 240)">
	<rect x="-5" y="-5" width="10" height="10"/>
</g>
<g transform="matrix(1 0 0 1 120 240)">
	<rect x="-5" y="-5" width="10" height="10"/>
</g>
<g transform="matrix(1 0 0 1 140 240)">
	<rect x="-5" y="-5" width="10" height="10"/>
</g>
<g transform="matrix(1 0 0 1 160 240)">
	<rect x="-5" y="-5" width="10" height="10"/>
</g>
<g transform="matrix(1 0 0 1 280 240)">
	<rect x="-5" y="-5" width="10" height="10"/>
</g>
<g transform="matrix(1 0 0 1 310 240)">
	<rect x="-5" y="-5" width="10" height="10"/>
</g>
<g transform="matrix(1 0 0 1 320 240)">
	<rect x="-5" y="-5" width="10" height="10"/>
</g>
<g transform="matrix(1 0 0 1 360 240)">
	<rect x="-5" y="-5" width="10" height="10"/>
</g>
<g transform="matrix(1 0 0 1 370 240)">
	<rect x="-5" y="-5" width="10" height="10"/>
</g>
<g transform="matrix(1 0 0 1 380 240)">
	<rect x="-5" y="-5" width="10" height="10"/>
</g>
<g transform="matrix(1 0 0 1 70 250)">
	<rect x="-5" y="-5" width="10" height="10"/>
</g>
<g transform="matrix(1 0 0 1 100 250)">
	<rect x="-5" y="-5" width="10" height="10"/>
</g>
<g transform="matrix(1 0 0 1 160 250)">
	<rect x="-5" y="-5" width="10" height="10"/>
</g>
<g transform="matrix(1 0 0 1 270 250)">
	<rect x="-5" y="-5" width="10" height="10"/>
</g>
<g transform="matrix(1 0 0 1 280 250)">
	<rect x="-5" y="-5" width="10" height="10"/>
</g>
<g transform="matrix(1 0 0 1 290 250)">
	<rect x="-5" y="-5" width="10" height="10"/>
</g>
<g transform="matrix(1 0 0 1 300 250)">
	<rect x="-5" y="-5" width="10" height="10"/>
</g>
<g transform="matrix(1 0 0 1 320 250)">
	<rect x="-5" y="-5" width="10" height="10"/>
</g>
<g transform="matrix(1 0 0 1 330 250)">
	<rect x="-5" y="-5" width="10" height="10"/>
</g>
<g transform="matrix(1 0 0 1 340 250)">
	<rect x="-5" y="-5" width="10" height="10"/>
</g>
<g transform="matrix(1 0 0 1 350 250)">
	<rect x="-5" y="-5" width="10" height="10"/>
</g>
<g transform="matrix(1 0 0 1 360 250)">
	<rect x="-5" y="-5" width="10" height="10"/>
</g>
<g transform="matrix(1 0 0 1 380 250)">
	<rect x="-5" y="-5" width="10" height="10"/>
</g>
<g transform="matrix(1 0 0 1 70 260)">
	<rect x="-5" y="-5" width="10" height="10"/>
</g>
<g transform="matrix(1 0 0 1 80 260)">
	<rect x="-5" y="-5" width="10" height="10"/>
</g>
<g transform="matrix(1 0 0 1 90 260)">
	<rect x="-5" y="-5" width="10" height="10"/>
</g>
<g transform="matrix(1 0 0 1 120 260)">
	<rect x="-5" y="-5" width="10" height="10"/>
</g>
<g transform="matrix(1 0 0 1 140 260)">
	<rect x="-5" y="-5" width="10" height="10"/>
</g>
<g transform="matrix(1 0 0 1 150 260)">
	<rect x="-5" y="-5" width="10" height="10"/>
</g>
<g transform="matrix(1 0 0 1 310 260)">
	<rect x="-5" y="-5" width="10" height="10"/>
</g>
<g transform="matrix(1 0 0 1 320 260)">
	<rect x="-5" y="-5" width="10" height="10"/>
</g>
<g transform="matrix(1 0 0 1 340 260)">
	<rect x="-5" y="-5" width="10" height="10"/>
</g>
<g transform="matrix(1 0 0 1 350 260)">
	<rect x="-5" y="-5" width="10" height="10"/>
</g>
<g transform="matrix(1 0 0 1 370 260)">
	<rect x="-5" y="-5" width="10" height="10"/>
</g>
<g transform="matrix(1 0 0 1 380 260)">
	<rect x="-5" y="-5" width="10" height="10"/>
</g>
<g transform="matrix(1 0 0 1 60 270)">
	<rect x="-5" y="-5" width="10" height="10"/>
</g>
<g transform="matrix(1 0 0 1 80 270)">
	<rect x="-5" y="-5" width="10" height="10"/>
</g>
<g transform="matrix(1 0 0 1 100 270)">
	<rect x="-5" y="-5" width="10" height="10"/>
</g>
<g transform="matrix(1 0 0 1 110 270)">
	<rect x="-5" y="-5" width="10" height="10"/>
</g>
<g transform="matrix(1 0 0 1 140 270)">
	<rect x="-5" y="-5" width="10" height="10"/>
</g>
<g transform="matrix(1 0 0 1 160 270)">
	<rect x="-5" y="-5" width="10" height="10"/>
</g>
<g transform="matrix(1 0 0 1 170 270)">
	<rect x="-5" y="-5" width="10" height="10"/>
</g>
<g transform="matrix(1 0 0 1 180 270)">
	<rect x="-5" y="-5" width="10" height="10"/>
</g>
<g transform="matrix(1 0 0 1 190 270)">
	<rect x="-5" y="-5" width="10" height="10"/>
</g>
<g transform="matrix(1 0 0 1 260 270)">
	<rect x="-5" y="-5" width="10" height="10"/>
</g>
<g transform="matrix(1 0 0 1 270 270)">
	<rect x="-5" y="-5" width="10" height="10"/>
</g>
<g transform="matrix(1 0 0 1 280 270)">
	<rect x="-5" y="-5" width="10" height="10"/>
</g>
<g transform="matrix(1 0 0 1 300 270)">
	<rect x="-5" y="-5" width="10" height="10"/>
</g>
<g transform="matrix(1 0 0 1 360 270)">
	<rect x="-5" y="-5" width="10" height="10"/>
</g>
<g transform="matrix(1 0 0 1 370 270)">
	<rect x="-5" y="-5" width="10" height="10"/>
</g>
<g transform="matrix(1 0 0 1 380 270)">
	<rect x="-5" y="-5" width="10" height="10"/>
</g>
<g transform="matrix(1 0 0 1 60 280)">
	<rect x="-5" y="-5" width="10" height="10"/>
</g>
<g transform="matrix(1 0 0 1 90 280)">
	<rect x="-5" y="-5" width="10" height="10"/>
</g>
<g transform="matrix(1 0 0 1 100 280)">
	<rect x="-5" y="-5" width="10" height="10"/>
</g>
<g transform="matrix(1 0 0 1 110 280)">
	<rect x="-5" y="-5" width="10" height="10"/>
</g>
<g transform="matrix(1 0 0 1 120 280)">
	<rect x="-5" y="-5" width="10" height="10"/>
</g>
<g transform="matrix(1 0 0 1 130 280)">
	<rect x="-5" y="-5" width="10" height="10"/>
</g>
<g transform="matrix(1 0 0 1 180 280)">
	<rect x="-5" y="-5" width="10" height="10"/>
</g>
<g transform="matrix(1 0 0 1 190 280)">
	<rect x="-5" y="-5" width="10" height="10"/>
</g>
<g transform="matrix(1 0 0 1 220 280)">
	<rect x="-5" y="-5" width="10" height="10"/>
</g>
<g transform="matrix(1 0 0 1 240 280)">
	<rect x="-5" y="-5" width="10" height="10"/>
</g>
<g transform="matrix(1 0 0 1 260 280)">
	<rect x="-5" y="-5" width="10" height="10"/>
</g>
<g transform="matrix(1 0 0 1 270 280)">
	<rect x="-5" y="-5" width="10" height="10"/>
</g>
<g transform="matrix(1 0 0 1 330 280)">
	<rect x="-5" y="-5" width="10" height="10"/>
</g>
<g transform="matrix(1 0 0 1 340 280)">
	<rect x="-5" y="-5" width="10" height="10"/>
</g>
<g transform="matrix(1 0 0 1 350 280)">
	<rect x="-5" y="-5" width="10" height="10"/>
</g>
<g transform="matrix(1 0 0 1 370 280)">
	<rect x="-5" y="-5" width="10" height="10"/>
</g>
<g transform="matrix(1 0 0 1 60 290)">
	<rect x="-5" y="-5" width="10" height="10"/>
</g>
<g transform="matrix(1 0 0 1 90 290)">
	<rect x="-5" y="-5" width="10" height="10"/>
</g>
<g transform="matrix(1 0 0 1 110 290)">
	<rect x="-5" y="-5" width="10" height="10"/>
</g>
<g transform="matrix(1 0 0 1 130 290)">
	<rect x="-5" y="-5" width="10" height="10"/>
</g>
<g transform="matrix(1 0 0 1 140 290)">
	<rect x="-5" y="-5" width="10" height="10"/>
</g>
<g transform="matrix(1 0 0 1 150 290)">
	<rect x="-5" y="-5" width="10" height="10"/>
</g>
<g transform="matrix(1 0 0 1 200 290)">
	<rect x="-5" y="-5" width="10" height="10"/>
</g>
<g transform="matrix(1 0 0 1 230 290)">
	<rect x="-5" y="-5" width="10" height="10"/>
</g>
<g transform="matrix(1 0 0 1 240 290)">
	<rect x="-5" y="-5" width="10" height="10"/>
</g>
<g transform="matrix(1 0 0 1 250 290)">
	<rect x="-5" y="-5" width="10" height="10"/>
</g>
<g transform="matrix(1 0 0 1 260 290)">
	<rect x="-5" y="-5" width="10" height="10"/>
</g>
<g transform="matrix(1 0 0 1 270 290)">
	<rect x="-5" y="-5" width="10" height="10"/>
</g>
<g transform="matrix(1 0 0 1 280 290)">
	<rect x="-5" y="-5" width="10" height="10"/>
</g>
<g transform="matrix(1 0 0 1 300 290)">
	<rect x="-5" y="-5" width="10" height="10"/>
</g>
<g transform="matrix(1 0 0 1 340 290)">
	<rect x="-5" y="-5" width="10" height="10"/>
</g>
<g transform="matrix(1 0 0 1 350 290)">
	<rect x="-5" y="-5" width="10" height="10"/>
</g>
<g transform="matrix(1 0 0 1 360 290)">
	<rect x="-5" y="-5" width="10" height="10"/>
</g>
<g transform="matrix(1 0 0 1 370 290)">
	<rect x="-5" y="-5" width="10" height="10"/>
</g>
<g transform="matrix(1 0 0 1 380 290)">
	<rect x="-5" y="-5" width="10" height="10"/>
</g>
<g transform="matrix(1 0 0 1 60 300)">
	<rect x="-5" y="-5" width="10" height="10"/>
</g>
<g transform="matrix(1 0 0 1 80 300)">
	<rect x="-5" y="-5" width="10" height="10"/>
</g>
<g transform="matrix(1 0 0 1 90 300)">
	<rect x="-5" y="-5" width="10" height="10"/>
</g>
<g transform="matrix(1 0 0 1 100 300)">
	<rect x="-5" y="-5" width="10" height="10"/>
</g>
<g transform="matrix(1 0 0 1 110 300)">
	<rect x="-5" y="-5" width="10" height="10"/>
</g>
<g transform="matrix(1 0 0 1 120 300)">
	<rect x="-5" y="-5" width="10" height="10"/>
</g>
<g transform="matrix(1 0 0 1 140 300)">
	<rect x="-5" y="-5" width="10" height="10"/>
</g>
<g transform="matrix(1 0 0 1 150 300)">
	<rect x="-5" y="-5" width="10" height="10"/>
</g>
<g transform="matrix(1 0 0 1 160 300)">
	<rect x="-5" y="-5" width="10" height="10"/>
</g>
<g transform="matrix(1 0 0 1 180 300)">
	<rect x="-5" y="-5" width="10" height="10"/>
</g>
<g transform="matrix(1 0 0 1 190 300)">
	<rect x="-5" y="-5" width="10" height="10"/>
</g>
<g transform="matrix(1 0 0 1 200 300)">
	<rect x="-5" y="-5" width="10" height="10"/>
</g>
<g transform="matrix(1 0 0 1 210 300)">
	<rect x="-5" y="-5" width="10" height="10"/>
</g>
<g transform="matrix(1 0 0 1 220 300)">
	<rect x="-5" y="-5" width="10" height="10"/>
</g>
<g transform="matrix(1 0 0 1 230 300)">
	<rect x="-5" y="-5" width="10" height="10"/>
</g>
<g transform="matrix(1 0 0 1 260 300)">
	<rect x="-5" y="-5" width="10" height="10"/>
</g>
<g transform="matrix(1 0 0 1 270 300)">
	<rect x="-5" y="-5" width="10" height="10"/>
</g>
<g transform="matrix(1 0 0 1 300 300)">
	<rect x="-5" y="-5" width="10" height="10"/>
</g>
<g transform="matrix(1 0 0 1 310 300)">
	<rect x="-5" y="-5" width="10" height="10"/>
</g>
<g transform="matrix(1 0 0 1 320 300)">
	<rect x="-5" y="-5" width="10" height="10"/>
</g>
<g transform="matrix(1 0 0 1 330 300)">
	<rect x="-5" y="-5" width="10" height="10"/>
</g>
<g transform="matrix(1 0 0 1 340 300)">
	<rect x="-5" y="-5" width="10" height="10"/>
</g>
<g transform="matrix(1 0 0 1 140 310)">
	<rect x="-5" y="-5" width="10" height="10"/>
</g>
<g transform="matrix(1 0 0 1 150 310)">
	<rect x="-5" y="-5" width="10" height="10"/>
</g>
<g transform="matrix(1 0 0 1 170 310)">
	<rect x="-5" y="-5" width="10" height="10"/>
</g>
<g transform="matrix(1 0 0 1 180 310)">
	<rect x="-5" y="-5" width="10" height="10"/>
</g>
<g transform="matrix(1 0 0 1 210 310)">
	<rect x="-5" y="-5" width="10" height="10"/>
</g>
<g transform="matrix(1 0 0 1 250 310)">
	<rect x="-5" y="-5" width="10" height="10"/>
</g>
<g transform="matrix(1 0 0 1 260 310)">
	<rect x="-5" y="-5" width="10" height="10"/>
</g>
<g transform="matrix(1 0 0 1 290 310)">
	<rect x="-5" y="-5" width="10" height="10"/>
</g>
<g transform="matrix(1 0 0 1 300 310)">
	<rect x="-5" y="-5" width="10" height="10"/>
</g>
<g transform="matrix(1 0 0 1 340 310)">
	<rect x="-5" y="-5" width="10" height="10"/>
</g>
<g transform="matrix(1 0 0 1 370 310)">
	<rect x="-5" y="-5" width="10" height="10"/>
</g>
<g transform="matrix(1 0 0 1 380 310)">
	<rect x="-5" y="-5" width="10" height="10"/>
</g>
<g transform="matrix(1 0 0 1 190 320)">
	<rect x="-5" y="-5" width="10" height="10"/>
</g>
<g transform="matrix(1 0 0 1 200 320)">
	<rect x="-5" y="-5" width="10" height="10"/>
</g>
<g transform="matrix(1 0 0 1 220 320)">
	<rect x="-5" y="-5" width="10" height="10"/>
</g>
<g transform="matrix(1 0 0 1 240 320)">
	<rect x="-5" y="-5" width="10" height="10"/>
</g>
<g transform="matrix(1 0 0 1 280 320)">
	<rect x="-5" y="-5" width="10" height="10"/>
</g>
<g transform="matrix(1 0 0 1 290 320)">
	<rect x="-5" y="-5" width="10" height="10"/>
</g>
<g transform="matrix(1 0 0 1 300 320)">
	<rect x="-5" y="-5" width="10" height="10"/>
</g>
<g transform="matrix(1 0 0 1 320 320)">
	<rect x="-5" y="-5" width="10" height="10"/>
</g>
<g transform="matrix(1 0 0 1 340 320)">
	<rect x="-5" y="-5" width="10" height="10"/>
</g>
<g transform="matrix(1 0 0 1 350 320)">
	<rect x="-5" y="-5" width="10" height="10"/>
</g>
<g transform="matrix(1 0 0 1 360 320)">
	<rect x="-5" y="-5" width="10" height="10"/>
</g>
<g transform="matrix(1 0 0 1 370 320)">
	<rect x="-5" y="-5" width="10" height="10"/>
</g>
<g transform="matrix(1 0 0 1 150 330)">
	<rect x="-5" y="-5" width="10" height="10"/>
</g>
<g transform="matrix(1 0 0 1 160 330)">
	<rect x="-5" y="-5" width="10" height="10"/>
</g>
<g transform="matrix(1 0 0 1 170 330)">
	<rect x="-5" y="-5" width="10" height="10"/>
</g>
<g transform="matrix(1 0 0 1 190 330)">
	<rect x="-5" y="-5" width="10" height="10"/>
</g>
<g transform="matrix(1 0 0 1 210 330)">
	<rect x="-5" y="-5" width="10" height="10"/>
</g>
<g transform="matrix(1 0 0 1 250 330)">
	<rect x="-5" y="-5" width="10" height="10"/>
</g>
<g transform="matrix(1 0 0 1 290 330)">
	<rect x="-5" y="-5" width="10" height="10"/>
</g>
<g transform="matrix(1 0 0 1 300 330)">
	<rect x="-5" y="-5" width="10" height="10"/>
</g>
<g transform="matrix(1 0 0 1 340 330)">
	<rect x="-5" y="-5" width="10" height="10"/>
</g>
<g transform="matrix(1 0 0 1 350 330)">
	<rect x="-5" y="-5" width="10" height="10"/>
</g>
<g transform="matrix(1 0 0 1 360 330)">
	<rect x="-5" y="-5" width="10" height="10"/>
</g>
<g transform="matrix(1 0 0 1 370 330)">
	<rect x="-5" y="-5" width="10" height="10"/>
</g>
<g transform="matrix(1 0 0 1 380 330)">
	<rect x="-5" y="-5" width="10" height="10"/>
</g>
<g transform="matrix(1 0 0 1 140 340)">
	<rect x="-5" y="-5" width="10" height="10"/>
</g>
<g transform="matrix(1 0 0 1 150 340)">
	<rect x="-5" y="-5" width="10" height="10"/>
</g>
<g transform="matrix(1 0 0 1 160 340)">
	<rect x="-5" y="-5" width="10" height="10"/>
</g>
<g transform="matrix(1 0 0 1 190 340)">
	<rect x="-5" y="-5" width="10" height="10"/>
</g>
<g transform="matrix(1 0 0 1 200 340)">
	<rect x="-5" y="-5" width="10" height="10"/>
</g>
<g transform="matrix(1 0 0 1 220 340)">
	<rect x="-5" y="-5" width="10" height="10"/>
</g>
<g transform="matrix(1 0 0 1 260 340)">
	<rect x="-5" y="-5" width="10" height="10"/>
</g>
<g transform="matrix(1 0 0 1 270 340)">
	<rect x="-5" y="-5" width="10" height="10"/>
</g>
<g transform="matrix(1 0 0 1 280 340)">
	<rect x="-5" y="-5" width="10" height="10"/>
</g>
<g transform="matrix(1 0 0 1 300 340)">
	<rect x="-5" y="-5" width="10" height="10"/>
</g>
<g transform="matrix(1 0 0 1 310 340)">
	<rect x="-5" y="-5" width="10" height="10"/>
</g>
<g transform="matrix(1 0 0 1 320 340)">
	<rect x="-5" y="-5" width="10" height="10"/>
</g>
<g transform="matrix(1 0 0 1 330 340)">
	<rect x="-5" y="-5" width="10" height="10"/>
</g>
<g transform="matrix(1 0 0 1 340 340)">
	<rect x="-5" y="-5" width="10" height="10"/>
</g>
<g transform="matrix(1 0 0 1 350 340)">
	<rect x="-5" y="-5" width="10" height="10"/>
</g>
<g transform="matrix(1 0 0 1 370 340)">
	<rect x="-5" y="-5" width="10" height="10"/>
</g>
<g transform="matrix(1 0 0 1 380 340)">
	<rect x="-5" y="-5" width="10" height="10"/>
</g>
<g transform="matrix(1 0 0 1 140 350)">
	<rect x="-5" y="-5" width="10" height="10"/>
</g>
<g transform="matrix(1 0 0 1 180 350)">
	<rect x="-5" y="-5" width="10" height="10"/>
</g>
<g transform="matrix(1 0 0 1 220 350)">
	<rect x="-5" y="-5" width="10" height="10"/>
</g>
<g transform="matrix(1 0 0 1 230 350)">
	<rect x="-5" y="-5" width="10" height="10"/>
</g>
<g transform="matrix(1 0 0 1 290 350)">
	<rect x="-5" y="-5" width="10" height="10"/>
</g>
<g transform="matrix(1 0 0 1 300 350)">
	<rect x="-5" y="-5" width="10" height="10"/>
</g>
<g transform="matrix(1 0 0 1 310 350)">
	<rect x="-5" y="-5" width="10" height="10"/>
</g>
<g transform="matrix(1 0 0 1 340 350)">
	<rect x="-5" y="-5" width="10" height="10"/>
</g>
<g transform="matrix(1 0 0 1 350 350)">
	<rect x="-5" y="-5" width="10" height="10"/>
</g>
<g transform="matrix(1 0 0 1 370 350)">
	<rect x="-5" y="-5" width="10" height="10"/>
</g>
<g transform="matrix(1 0 0 1 140 360)">
	<rect x="-5" y="-5" width="10" height="10"/>
</g>
<g transform="matrix(1 0 0 1 150 360)">
	<rect x="-5" y="-5" width="10" height="10"/>
</g>
<g transform="matrix(1 0 0 1 170 360)">
	<rect x="-5" y="-5" width="10" height="10"/>
</g>
<g transform="matrix(1 0 0 1 180 360)">
	<rect x="-5" y="-5" width="10" height="10"/>
</g>
<g transform="matrix(1 0 0 1 200 360)">
	<rect x="-5" y="-5" width="10" height="10"/>
</g>
<g transform="matrix(1 0 0 1 230 360)">
	<rect x="-5" y="-5" width="10" height="10"/>
</g>
<g transform="matrix(1 0 0 1 250 360)">
	<rect x="-5" y="-5" width="10" height="10"/>
</g>
<g transform="matrix(1 0 0 1 260 360)">
	<rect x="-5" y="-5" width="10" height="10"/>
</g>
<g transform="matrix(1 0 0 1 270 360)">
	<rect x="-5" y="-5" width="10" height="10"/>
</g>
<g transform="matrix(1 0 0 1 280 360)">
	<rect x="-5" y="-5" width="10" height="10"/>
</g>
<g transform="matrix(1 0 0 1 300 360)">
	<rect x="-5" y="-5" width="10" height="10"/>
</g>
<g transform="matrix(1 0 0 1 310 360)">
	<rect x="-5" y="-5" width="10" height="10"/>
</g>
<g transform="matrix(1 0 0 1 320 360)">
	<rect x="-5" y="-5" width="10" height="10"/>
</g>
<g transform="matrix(1 0 0 1 170 370)">
	<rect x="-5" y="-5" width="10" height="10"/>
</g>
<g transform="matrix(1 0 0 1 190 370)">
	<rect x="-5" y="-5" width="10" height="10"/>
</g>
<g transform="matrix(1 0 0 1 200 370)">
	<rect x="-5" y="-5" width="10" height="10"/>
</g>
<g transform="matrix(1 0 0 1 210 370)">
	<rect x="-5" y="-5" width="10" height="10"/>
</g>
<g transform="matrix(1 0 0 1 220 370)">
	<rect x="-5" y="-5" width="10" height="10"/>
</g>
<g transform="matrix(1 0 0 1 250 370)">
	<rect x="-5" y="-5" width="10" height="10"/>
</g>
<g transform="matrix(1 0 0 1 260 370)">
	<rect x="-5" y="-5" width="10" height="10"/>
</g>
<g transform="matrix(1 0 0 1 270 370)">
	<rect x="-5" y="-5" width="10" height="10"/>
</g>
<g transform="matrix(1 0 0 1 310 370)">
	<rect x="-5" y="-5" width="10" height="10"/>
</g>
<g transform="matrix(1 0 0 1 320 370)">
	<rect x="-5" y="-5" width="10" height="10"/>
</g>
<g transform="matrix(1 0 0 1 330 370)">
	<rect x="-5" y="-5" width="10" height="10"/>
</g>
<g transform="matrix(1 0 0 1 350 370)">
	<rect x="-5" y="-5" width="10" height="10"/>
</g>
<g transform="matrix(1 0 0 1 160 380)">
	<rect x="-5" y="-5" width="10" height="10"/>
</g>
<g transform="matrix(1 0 0 1 180 380)">
	<rect x="-5" y="-5" width="10" height="10"/>
</g>
<g transform="matrix(1 0 0 1 230 380)">
	<rect x="-5" y="-5" width="10" height="10"/>
</g>
<g transform="matrix(1 0 0 1 240 380)">
	<rect x="-5" y="-5" width="10" height="10"/>
</g>
<g transform="matrix(1 0 0 1 260 380)">
	<rect x="-5" y="-5" width="10" height="10"/>
</g>
<g transform="matrix(1 0 0 1 270 380)">
	<rect x="-5" y="-5" width="10" height="10"/>
</g>
<g transform="matrix(1 0 0 1 290 380)">
	<rect x="-5" y="-5" width="10" height="10"/>
</g>
<g transform="matrix(1 0 0 1 300 380)">
	<rect x="-5" y="-5" width="10" height="10"/>
</g>
<g transform="matrix(1 0 0 1 320 380)">
	<rect x="-5" y="-5" width="10" height="10"/>
</g>
<g transform="matrix(1 0 0 1 360 380)">
	<rect x="-5" y="-5" width="10" height="10"/>
</g>
<g transform="matrix(1 0 0 1 370 380)">
	<rect x="-5" y="-5" width="10" height="10"/>
</g>
<g transform="matrix(0.14 0 0 0.14 220 220)">
	<g>
		<g id="Layer_1_1_" transform="matrix(1 0 0 1 -0.5 -0.5)">
			
				<radialGradient id="SVGID_1_" cx="23169.123" cy="-30125.0215" r="457.6876" fx="22950.0527" fy="-30389.873" gradientTransform="matrix(0.1302 -5.320000e-02 -4.620000e-02 -0.1134 -4456.1191 -2317.5039)" gradientUnits="userSpaceOnUse">
				<stop  offset="0" style="stop-color:#4DB748"/>
				<stop  offset="0.6625" style="stop-color:#046937"/>
			</radialGradient>
			<circle class="st0" cx="0" cy="0" r="255.7"/>
		</g>
		<g id="Layer_1_2_" transform="matrix(1 0 0 1 109.71 56.07)">
			<path class="st1" d="M8.5-146c-24.4,0-44,8-57.3,24.4v-62.2l-50.5,59.1v308.6l52.8-59.1V24.2c13.6,15.3,32.2,22.6,54.9,22.6
				c51.2,0,90.8-37.6,90.8-96.4C99.3-108.4,59.6-146,8.5-146z M-0.7,2.3c-26.4,0-46.4-19.5-46.4-51.8s20-51.8,46.4-51.8
				c26.4,0,46.4,19.5,46.4,51.8S25.7,2.3-0.7,2.3z"/>
		</g>
		<g id="Layer_1_3_" transform="matrix(1 0 0 1 -110.71 -51.45)">
			<path class="st1" d="M46.4-119.8v104C33.2-31.1,14.2-38.4-8.1-38.4c-8.5,0-16.6,1-24.3,3C-55.7-29.5-74.9-15-86.7,6.1
				c-8,14.4-12.6,31.9-12.6,51.8c0,58.8,39.6,96.4,91.1,96.4c24.4,0,43.7-8,56.9-24.4v49.1l50.5-59.2v-298.9L46.4-119.8z M1,109.8
				c-26.4,0-46.7-19.5-46.7-51.8S-25.4,6.1,1,6.1c26.1,0,46.4,19.5,46.4,51.8S27.1,109.8,1,109.8z"/>
		</g>
	</g>
</g>
<g id="br-rect-sharp_1_" transform="matrix(1.01 0 0 1.01 90 90)">
	<path d="M-11.4,15c-2,0-3.6-2.3-3.6-4.3v-22.8c0-2,1.7-2.9,3.6-2.9h22.5c2,0,3.6,1.6,3.6,3.6L15,15H-11.4z"/>
</g>
<g id="br-rect-sharp_2_" transform="matrix(1.01 0 0 1.01 90 90)">
	<path d="M-26.5,35c-4.6,0-8.5-5.4-8.5-10v-53.2c0-4.6,3.9-6.8,8.5-6.8h52.6c4.6,0,8.3,3.8,8.3,8.4L35,35H-26.5z M25,25l-0.5-44
		c0-3.3-2.7-6-5.9-6h-37.6c-3.3,0-6.1,1.5-6.1,4.9v38c0,3.3,2.8,7.1,6.1,7.1H25z"/>
</g>
<g id="br-rect-sharp_3_" transform="matrix(1.01 0 0 1.01 90 350)">
	<path d="M-11.4,15c-2,0-3.6-2.3-3.6-4.3v-22.8c0-2,1.7-2.9,3.6-2.9h22.5c2,0,3.6,1.6,3.6,3.6L15,15H-11.4z"/>
</g>
<g id="br-rect-sharp_4_" transform="matrix(1.01 0 0 1.01 90 350)">
	<path d="M-26.5,35c-4.6,0-8.5-5.4-8.5-10v-53.2c0-4.6,3.9-6.8,8.5-6.8h52.6c4.6,0,8.3,3.8,8.3,8.4L35,35H-26.5z M25,25l-0.5-44
		c0-3.3-2.7-6-5.9-6h-37.6c-3.3,0-6.1,1.5-6.1,4.9v38c0,3.3,2.8,7.1,6.1,7.1H25z"/>
</g>
<g id="br-rect-sharp_5_" transform="matrix(1.01 0 0 1.01 350 90)">
	<path d="M-11.4,15c-2,0-3.6-2.3-3.6-4.3v-22.8c0-2,1.7-2.9,3.6-2.9h22.5c2,0,3.6,1.6,3.6,3.6L15,15H-11.4z"/>
</g>
<g id="br-rect-sharp_6_" transform="matrix(1.01 0 0 1.01 350 90)">
	<path d="M-26.5,35c-4.6,0-8.5-5.4-8.5-10v-53.2c0-4.6,3.9-6.8,8.5-6.8h52.6c4.6,0,8.3,3.8,8.3,8.4L35,35H-26.5z M25,25l-0.5-44
		c0-3.3-2.7-6-5.9-6h-37.6c-3.3,0-6.1,1.5-6.1,4.9v38c0,3.3,2.8,7.1,6.1,7.1H25z"/>
</g>
</svg>
