<?xml version="1.0" encoding="iso-8859-1"?>
<!-- Generator: Adobe Illustrator 25.0.1, SVG Export Plug-In . SVG Version: 6.00 Build 0)  -->
<svg version="1.1" id="Layer_1" xmlns="http://www.w3.org/2000/svg" xmlns:xlink="http://www.w3.org/1999/xlink" x="0px" y="0px"
	 viewBox="0 0 242.947 81.786" style="enable-background:new 0 0 242.947 81.786;" xml:space="preserve">
<g>
	<path style="fill:#4DB748;" d="M165.566,48.455c-1.633,0-3.013,0.579-4.101,1.72c-1.082,1.129-1.631,2.581-1.631,4.315
		c0,1.776,0.542,3.247,1.611,4.371c1.08,1.137,2.461,1.714,4.104,1.714c1.643,0,3.031-0.581,4.127-1.729
		c1.088-1.136,1.639-2.602,1.639-4.356c0-1.753-0.542-3.21-1.613-4.333C168.62,49.027,167.229,48.455,165.566,48.455z
		 M168.412,57.637c-0.764,0.799-1.7,1.188-2.862,1.188c-1.161,0-2.089-0.382-2.836-1.17c-0.76-0.799-1.13-1.834-1.13-3.165
		c0-1.285,0.374-2.301,1.146-3.106c0.757-0.793,1.685-1.179,2.836-1.179c1.184,0,2.123,0.381,2.872,1.162
		c0.759,0.795,1.128,1.817,1.128,3.123C169.566,55.796,169.189,56.826,168.412,57.637z"/>
	<path style="fill:#4DB748;" d="M174.451,59.625c0.909-1.592,1.37-3.325,1.37-5.151c0-1.818-0.458-3.536-1.362-5.106
		c-0.904-1.571-2.18-2.832-3.792-3.748c-1.607-0.913-3.348-1.376-5.174-1.376c-2.539,0-4.814,0.892-6.766,2.652
		c-2.223,2.022-3.35,4.582-3.35,7.61c0,2.826,0.998,5.264,2.966,7.245c1.971,1.98,4.382,2.984,7.166,2.984
		c1.882,0,3.631-0.455,5.2-1.353C172.282,62.486,173.541,61.222,174.451,59.625z M165.51,62.986c-2.334,0-4.272-0.808-5.925-2.468
		c-1.653-1.665-2.457-3.632-2.457-6.012c0-2.55,0.908-4.615,2.774-6.313c1.641-1.479,3.469-2.199,5.591-2.199
		c1.52,0,2.97,0.386,4.31,1.147c1.337,0.76,2.393,1.803,3.14,3.1c0.749,1.301,1.129,2.726,1.129,4.233
		c0,1.519-0.384,2.96-1.14,4.284c-0.754,1.32-1.793,2.365-3.09,3.105C168.54,62.608,167.083,62.986,165.51,62.986z"/>
	<path style="fill:#4DB748;" d="M133.476,49.689c-0.008,0-0.016,0-0.025,0c-2.541,0-4.469,1.872-4.483,4.988
		c-0.015,3.126,1.907,5.018,4.461,5.03c0.008,0,0.016,0,0.025,0l-0.016-1.75c-0.784-0.004-1.446-0.275-1.915-0.784
		c-0.531-0.576-0.809-1.436-0.804-2.489c0.009-2.002,1.057-3.246,2.734-3.246c1.703,0.008,2.745,1.262,2.735,3.272
		c-0.009,2.002-1.057,3.246-2.733,3.246v1.75c2.541,0,4.469-1.872,4.483-4.988C137.952,51.593,136.029,49.701,133.476,49.689z"/>
	<path style="fill:#4DB748;" d="M197.639,49.837c-0.87-0.623-1.88-0.934-3.029-0.934c-1.247,0-2.341,0.35-3.282,1.049
		c-0.59,0.437-1.138,1.207-1.64,2.31h9.196h0.503c-0.119-0.399-0.297-0.76-0.508-1.099C198.563,50.657,198.159,50.21,197.639,49.837
		z"/>
	<path style="fill:#4DB748;" d="M157.157,45.709c-0.142-0.068-0.302-0.19-0.486-0.322c-0.634-0.455-1.593-1.144-2.842-1.144
		c-0.99,0-1.915,0.281-2.746,0.835c-0.101,0.067-0.198,0.138-0.294,0.213v-0.589h-6.263v7.048c-0.445-1.94-1.335-3.647-2.659-5.02
		c-1.909-1.979-4.565-3.076-7.479-3.09l-0.059,0c-1.369,0-2.62,0.23-3.726,0.677l0.012-2.607l0.022-4.746l-3.098,3.595l-4.904,5.691
		l-0.421,0.489l-0.003,0.645l-0.141,29.816l-0.022,4.585l3.071-3.404l5.133-5.69l0.448-0.496l0.003-0.668l0.03-6.405
		c1.058,0.421,2.244,0.636,3.55,0.642h0.004l0.052,0c5.125,0,9.066-3.314,10.187-8.189v6.701h6.868v-8.099l-0.016-0.853
		c0-2.9,0.326-4.096,0.6-4.587c0.463-0.829,0.854-0.829,0.982-0.829c0.091,0,0.359,0.029,0.903,0.301l0.609,0.304l3.709-4.31
		L157.157,45.709z M134.34,64.015c-0.016,0-0.032,0-0.048,0c-2.193-0.01-3.99-0.725-5.292-2.21l-0.046,9.715l-5.133,5.69
		l0.141-29.816l4.904-5.691l-0.029,6.015c1.275-1.563,3.159-2.327,5.492-2.327c0.017,0,0.034,0,0.051,0
		c4.942,0.023,8.755,3.672,8.728,9.354C143.082,60.408,139.26,64.015,134.34,64.015z M154.012,48.369
		c-0.388-0.141-0.734-0.209-1.051-0.209c-0.705,0-1.714,0.3-2.511,1.727c-0.561,1.007-0.821,2.735-0.821,5.455l0.016,7.186h-3.368
		V46.453h2.763v5.291l1.667-3.55c0.35-0.745,0.79-1.287,1.348-1.658c0.547-0.365,1.127-0.542,1.775-0.542
		c0.608,0,1.151,0.341,1.638,0.684L154.012,48.369z"/>
	<path style="fill:#4DB748;" d="M86.24,21.292c-1.633,0-3.014,0.58-4.101,1.721c-1.082,1.128-1.631,2.58-1.631,4.315
		c0,1.776,0.542,3.246,1.611,4.37c1.08,1.138,2.46,1.715,4.104,1.715c1.643,0,3.032-0.582,4.127-1.728
		c1.087-1.137,1.639-2.603,1.639-4.357c0-1.753-0.542-3.21-1.614-4.333C89.294,21.865,87.902,21.292,86.24,21.292z M89.086,30.475
		c-0.763,0.799-1.699,1.188-2.862,1.188c-1.161,0-2.088-0.382-2.835-1.17c-0.76-0.799-1.13-1.835-1.13-3.165
		c0-1.286,0.374-2.301,1.146-3.106c0.756-0.794,1.684-1.18,2.835-1.18c1.183,0,2.123,0.38,2.871,1.162
		c0.76,0.796,1.129,1.818,1.129,3.124S89.863,29.663,89.086,30.475z"/>
	<path style="fill:#4DB748;" d="M91.342,18.457c-1.607-0.913-3.348-1.376-5.174-1.376c-2.539,0-4.814,0.892-6.765,2.652
		c-2.223,2.021-3.35,4.582-3.35,7.61c0,2.826,0.998,5.263,2.965,7.245c1.97,1.98,4.381,2.985,7.166,2.985
		c1.882,0,3.632-0.456,5.201-1.353c1.57-0.896,2.829-2.16,3.741-3.757c0.908-1.591,1.369-3.324,1.369-5.152
		c0-1.818-0.458-3.536-1.362-5.106C94.229,20.634,92.953,19.373,91.342,18.457z M93.607,31.596c-0.755,1.322-1.794,2.367-3.09,3.106
		c-1.301,0.745-2.759,1.122-4.333,1.122c-2.334,0-4.272-0.808-5.925-2.469c-1.653-1.665-2.457-3.63-2.457-6.011
		c0-2.551,0.908-4.617,2.775-6.313c1.64-1.48,3.468-2.199,5.59-2.199c1.52,0,2.97,0.386,4.31,1.147
		c1.335,0.759,2.392,1.802,3.139,3.1c0.749,1.301,1.129,2.725,1.129,4.233C94.745,28.831,94.362,30.272,93.607,31.596z"/>
	<path style="fill:#4DB748;" d="M139.091,33.478c1.649,0,3.038-0.586,4.128-1.74c1.081-1.139,1.629-2.634,1.629-4.443
		c0-1.777-0.55-3.25-1.633-4.375c-1.092-1.134-2.485-1.709-4.141-1.709c-1.626,0-3.001,0.586-4.086,1.745
		c-1.065,1.141-1.605,2.606-1.605,4.356c0,1.764,0.549,3.244,1.632,4.399C136.113,32.883,137.484,33.478,139.091,33.478z
		 M136.267,24.15c0.75-0.801,1.669-1.19,2.808-1.19c1.178,0,2.119,0.384,2.88,1.173c0.77,0.799,1.144,1.833,1.144,3.161
		c0,1.365-0.376,2.424-1.149,3.24c-0.759,0.803-1.693,1.193-2.857,1.193c-1.118,0-2.034-0.397-2.799-1.214
		c-0.78-0.833-1.159-1.88-1.159-3.203C135.133,26.001,135.504,24.967,136.267,24.15z"/>
	<path style="fill:#4DB748;" d="M128.927,27.36c0,2.874,0.928,5.316,2.756,7.258c1.844,1.961,4.068,2.956,6.61,2.956
		c1.135,0,2.209-0.208,3.191-0.617c0.473-0.196,0.946-0.453,1.417-0.77v0.928h6.222V17.54h-6.222v0.976
		c-0.445-0.3-0.906-0.553-1.382-0.757c-1.043-0.45-2.173-0.678-3.357-0.678c-2.566,0-4.775,0.982-6.565,2.919
		C129.825,21.916,128.927,24.393,128.927,27.36z M138.162,18.831c0.944,0,1.841,0.18,2.665,0.535
		c0.828,0.356,1.61,0.904,2.326,1.629l1.498,1.517V19.29h2.722v16.075h-2.722v-3.047l-1.478,1.403
		c-0.795,0.754-1.588,1.299-2.36,1.62c-0.77,0.32-1.618,0.482-2.521,0.482c-2.069,0-3.814-0.786-5.336-2.405
		c-1.534-1.629-2.28-3.611-2.28-6.059c0-2.548,0.722-4.567,2.205-6.172C134.348,19.602,136.074,18.831,138.162,18.831z"/>
	<path style="fill:#4DB748;" d="M35.746,22.675c-0.87-0.623-1.88-0.934-3.029-0.934c-1.247,0-2.341,0.349-3.282,1.049
		c-0.59,0.437-1.138,1.207-1.64,2.31h9.196h0.503c-0.119-0.399-0.297-0.76-0.508-1.099C36.67,23.495,36.266,23.048,35.746,22.675z"
		/>
	<path style="fill:#4DB748;" d="M53.872,22.527c-0.008,0-0.016,0-0.025,0c-2.541,0-4.469,1.872-4.483,4.988
		c-0.015,3.126,1.907,5.018,4.461,5.03c0.008,0,0.016,0,0.025,0l-0.016-1.75c-0.784-0.004-1.446-0.275-1.915-0.784
		c-0.531-0.576-0.809-1.436-0.804-2.489c0.01-2.002,1.057-3.246,2.734-3.246c1.703,0.008,2.745,1.262,2.735,3.272
		c-0.01,2.002-1.057,3.246-2.734,3.246v1.75c2.541,0,4.469-1.872,4.483-4.988C58.347,24.431,56.425,22.539,53.872,22.527z"/>
	<path style="fill:#4DB748;" d="M54.784,16.478l-0.059,0c-1.369,0-2.62,0.23-3.726,0.677l0.012-2.607l0.022-4.746l-3.098,3.595
		l-4.904,5.691l-0.421,0.489l-0.003,0.645l-0.01,2.1c-0.503-1.071-1.165-2.041-2.001-2.896c-0.834-0.851-1.796-1.547-2.862-2.072
		c-1.549-0.762-3.311-1.149-5.237-1.149c-3.119,0-5.759,1.084-7.847,3.221c-0.803,0.824-1.449,1.734-1.944,2.722L22.79,4.589
		L22.811,0l-3.072,3.409l-5.133,5.697l-0.447,0.496l-0.003,0.667l-0.032,6.741c-1.054-0.417-2.235-0.635-3.517-0.641h-0.004
		l-0.052,0c-0.93,0-1.848,0.111-2.728,0.331c-2.731,0.681-4.989,2.396-6.358,4.828C0.504,23.238,0.01,25.207,0,27.382
		c-0.03,6.41,4.387,11.083,10.503,11.112l0.059,0c1.355,0,2.595-0.228,3.693-0.674l-0.006,1.333l-0.022,4.751l3.099-3.601
		l4.904-5.699l0.42-0.489l0.003-0.645l0.005-0.985c0.506,1.019,1.172,1.957,2.015,2.801c2.088,2.097,4.804,3.161,8.07,3.161
		c2.058,0,3.887-0.381,5.434-1.133c0.972-0.476,1.89-1.143,2.731-1.985l1.146-1.148l-1.058-1.23l-2.22-2.58h3.191h0.593
		l-0.093,19.667l-0.022,4.584l3.071-3.404l5.133-5.69l0.447-0.496l0.003-0.668l0.03-6.405c1.058,0.421,2.244,0.636,3.55,0.642
		l0.004,0l0.052,0c6.065,0,10.488-4.632,10.519-11.013C65.284,21.18,60.881,16.507,54.784,16.478z M20.903,33.463l-4.904,5.699
		l0.022-4.745c-1.275,1.563-3.126,2.327-5.459,2.327c-0.017,0-0.034,0-0.051,0c-4.975-0.024-8.788-3.672-8.761-9.354
		c0.009-1.926,0.458-3.614,1.241-5.003c1.146-2.035,3.008-3.427,5.257-3.989c0.731-0.182,1.502-0.279,2.304-0.279
		c0.016,0,0.032,0,0.047,0c2.16,0.01,3.99,0.725,5.259,2.21l0.048-10.051l5.133-5.697L20.903,33.463z M41.966,28.622h-4.959h-9.409
		c0.208,1.267,0.761,2.275,1.662,3.024c0.901,0.748,2.052,1.121,3.45,1.121c1.671,0,3.107-0.584,4.309-1.753l2.65,3.08
		c-0.681,0.682-1.428,1.242-2.257,1.648c-1.311,0.637-2.867,0.957-4.669,0.957c-2.796,0-5.073-0.881-6.832-2.647
		c-1.758-1.762-2.638-3.972-2.638-6.626c0-2.719,0.876-4.977,2.629-6.775c1.753-1.795,3.952-2.694,6.595-2.694
		c1.677,0,3.162,0.328,4.464,0.969c0.878,0.432,1.676,1.002,2.384,1.725c1.758,1.799,2.638,4.17,2.638,7.119L41.966,28.622z
		 M35.028,30.372c-0.685,0.433-1.45,0.645-2.318,0.645c-0.936,0-1.67-0.211-2.24-0.645H35.028z M54.736,36.853
		c-0.016,0-0.032,0-0.048,0c-2.193-0.01-3.99-0.725-5.292-2.21l-0.046,9.715l-5.133,5.69l0.141-29.816l4.904-5.691l-0.028,6.015
		c1.275-1.563,3.159-2.327,5.492-2.327c0.017,0,0.034,0,0.051,0c4.942,0.023,8.755,3.672,8.728,9.354
		C63.477,33.245,59.655,36.853,54.736,36.853z"/>
	<path style="fill:#4DB748;" d="M222.014,22.675c-0.87-0.623-1.88-0.934-3.029-0.934c-1.247,0-2.341,0.349-3.282,1.049
		c-0.59,0.437-1.138,1.207-1.64,2.31h9.195h0.503c-0.119-0.399-0.297-0.76-0.508-1.099
		C222.938,23.495,222.533,23.048,222.014,22.675z"/>
	<path style="fill:#4DB748;" d="M103.059,22.943c-1.077,1.11-1.623,2.513-1.623,4.172c0,1.717,0.56,3.153,1.662,4.268
		c1.104,1.119,2.504,1.686,4.16,1.686c1.625,0,2.991-0.558,4.06-1.658c1.062-1.094,1.6-2.528,1.6-4.263
		c0-1.715-0.541-3.139-1.609-4.232c-1.073-1.099-2.463-1.656-4.132-1.656C105.528,21.259,104.143,21.826,103.059,22.943z
		 M111.167,27.147c0,1.281-0.361,2.277-1.105,3.044c-0.736,0.758-1.653,1.127-2.804,1.127c-1.188,0-2.142-0.381-2.916-1.166
		c-0.778-0.787-1.156-1.781-1.156-3.038c0-1.205,0.369-2.17,1.129-2.953c0.753-0.775,1.688-1.152,2.861-1.152
		c1.196,0,2.138,0.369,2.88,1.129C110.804,24.904,111.167,25.888,111.167,27.147z"/>
	<path style="fill:#4DB748;" d="M110.938,18.553c-0.511-0.347-1.024-0.628-1.537-0.841c-1.018-0.418-2.107-0.63-3.24-0.63
		c-2.423,0-4.535,0.867-6.28,2.577c-1.914,1.877-2.885,4.38-2.885,7.439c0,2.863,0.914,5.271,2.717,7.158
		c0.881,0.922,1.865,1.623,2.947,2.101l-3.941,4.579l0.609,0.573c0.869,0.819,1.898,1.451,3.06,1.877
		c1.282,0.471,2.866,0.709,4.707,0.709c3.53,0,6.23-1.074,8.021-3.19c1.346-1.576,2.028-4.005,2.028-7.22V17.54h-6.206V18.553z
		 M112.688,22.405V19.29h2.706v14.394c0,2.786-0.541,4.833-1.611,6.086c-1.467,1.732-3.654,2.574-6.688,2.574
		c-1.635,0-3.016-0.202-4.104-0.602c-0.664-0.244-1.273-0.57-1.82-0.973l1.691-1.965c0.386,0.287,0.822,0.523,1.309,0.706
		c0.786,0.291,1.71,0.438,2.745,0.438c1.335,0,2.444-0.219,3.295-0.651c0.896-0.454,1.546-1.068,1.933-1.826
		c0.367-0.723,0.546-1.85,0.546-3.444v-2.113l-1.494,1.495c-0.698,0.699-1.432,1.204-2.18,1.501
		c-0.753,0.302-1.63,0.455-2.607,0.455c-2.163,0-3.939-0.758-5.429-2.318c-1.502-1.571-2.232-3.517-2.232-5.949
		c0-2.608,0.771-4.632,2.359-6.19c1.426-1.397,3.08-2.077,5.056-2.077c0.903,0,1.77,0.168,2.571,0.498
		c0.813,0.337,1.648,0.906,2.481,1.69L112.688,22.405z M103.044,36.515c1.038,0.399,2.16,0.6,3.362,0.6
		c1.201,0,2.297-0.195,3.256-0.579c0.385-0.153,0.764-0.345,1.135-0.576c-0.069,0.375-0.152,0.595-0.215,0.717
		c-0.217,0.426-0.598,0.772-1.165,1.059c-0.604,0.307-1.445,0.462-2.503,0.462c-0.827,0-1.547-0.111-2.134-0.329
		c-0.557-0.209-0.993-0.501-1.335-0.895L103.044,36.515z"/>
	<path style="fill:#4DB748;" d="M155.83,28.31c0-1.603,0.133-2.767,0.395-3.459c0.241-0.638,0.588-1.117,1.06-1.461
		c0.459-0.333,0.954-0.496,1.514-0.496c0.479,0,0.866,0.115,1.186,0.353c0.319,0.236,0.572,0.63,0.75,1.167
		c0.141,0.432,0.31,1.336,0.31,3.192v9.509h6.255v-8.919c0-1.977,0.209-2.94,0.384-3.398c0.236-0.614,0.578-1.076,1.045-1.413
		c0.459-0.33,0.965-0.49,1.546-0.49c0.943,0,1.333,0.4,1.545,0.703c0.222,0.316,0.595,1.204,0.595,3.6v9.918h6.255V25.788
		c0-2.283-0.23-3.916-0.705-4.99l-0.001-0.001c-0.492-1.11-1.305-2.02-2.416-2.702c-1.1-0.672-2.379-1.013-3.803-1.013
		c-1.361,0-2.639,0.31-3.795,0.921c-0.792,0.419-1.504,0.973-2.127,1.654c-0.505-0.666-1.103-1.21-1.787-1.628
		c-1.032-0.628-2.2-0.947-3.472-0.947c-1.222,0-2.37,0.235-3.414,0.698c-0.457,0.203-0.896,0.453-1.317,0.747V17.54h-6.223v19.575
		h6.223V28.31z M154.588,24.233c-0.342,0.903-0.508,2.237-0.508,4.078v7.055h-2.723V19.29h2.723v3.437l1.522-1.675
		c0.678-0.746,1.437-1.309,2.255-1.673c0.819-0.363,1.729-0.547,2.704-0.547c0.959,0,1.797,0.226,2.562,0.691
		c0.755,0.46,1.375,1.15,1.843,2.049l0.678,1.302l0.823-1.215c0.625-0.924,1.398-1.633,2.299-2.109
		c0.901-0.476,1.903-0.718,2.977-0.718c1.112,0,2.058,0.248,2.888,0.755c0.814,0.5,1.381,1.127,1.73,1.918
		c0.254,0.574,0.557,1.783,0.557,4.283v9.578h-2.755v-8.168c0-2.226-0.299-3.732-0.913-4.605c-0.664-0.947-1.693-1.447-2.977-1.447
		c-0.948,0-1.812,0.276-2.568,0.82c-0.742,0.535-1.299,1.277-1.656,2.207c-0.337,0.881-0.5,2.197-0.5,4.024v7.169h-2.755v-7.759
		c0-1.699-0.13-2.921-0.397-3.739c-0.294-0.889-0.755-1.571-1.369-2.027c-0.624-0.462-1.374-0.696-2.229-0.696
		c-0.929,0-1.784,0.279-2.545,0.832C155.507,22.521,154.947,23.281,154.588,24.233z"/>
	<path style="fill:#4DB748;" d="M78.076,18.547c-0.142-0.068-0.301-0.19-0.486-0.323c-0.634-0.455-1.593-1.143-2.841-1.143
		c-0.991,0-1.915,0.281-2.747,0.835c-0.1,0.067-0.198,0.138-0.294,0.212V17.54h-6.263l0.001,19.575h6.868v-8.1l-0.017-0.852
		c0-2.9,0.327-4.095,0.601-4.587c0.462-0.829,0.853-0.829,0.981-0.829c0.09,0,0.359,0.029,0.903,0.301l0.61,0.305l3.708-4.311
		L78.076,18.547z M74.932,21.206c-0.387-0.141-0.735-0.209-1.051-0.209c-0.706,0-1.713,0.299-2.51,1.727
		c-0.562,1.007-0.823,2.735-0.823,5.456l0.017,7.186h-3.368L67.195,19.29h2.763v5.293l1.667-3.552
		c0.345-0.733,0.798-1.292,1.348-1.659c0.546-0.364,1.127-0.541,1.775-0.541c0.608,0,1.151,0.34,1.638,0.684L74.932,21.206z"/>
	<path style="fill:#4DB748;" d="M124.824,29.015l-0.017-0.852c0-2.899,0.327-4.095,0.601-4.586c0.464-0.83,0.854-0.83,0.982-0.83
		c0.09,0,0.359,0.029,0.902,0.301l0.61,0.305l3.709-4.311l-1.026-0.495c-0.142-0.068-0.302-0.19-0.486-0.323
		c-0.634-0.455-1.593-1.143-2.841-1.143c-0.991,0-1.915,0.281-2.746,0.835c-0.101,0.067-0.199,0.138-0.295,0.213V17.54h-6.263
		l0.001,19.575h6.868V29.015z M123.88,22.724c-0.554,0.994-0.822,2.772-0.822,5.456l0.017,7.186h-3.368l-0.001-16.075h2.763v5.293
		l1.667-3.552c0.345-0.733,0.798-1.292,1.349-1.659c0.546-0.364,1.127-0.541,1.775-0.541c0.608,0,1.151,0.341,1.638,0.684
		l-1.455,1.691c-0.387-0.141-0.734-0.209-1.051-0.209C125.686,20.997,124.678,21.296,123.88,22.724z"/>
	<path style="fill:#4DB748;" d="M11.463,22.427c-0.008,0-0.016,0-0.025,0c-2.541,0-4.501,1.871-4.516,4.988
		c-0.015,3.127,1.94,5.019,4.493,5.031c0.008,0,0.016,0,0.024,0l-0.015-1.75c-1.707-0.008-2.762-1.262-2.752-3.272
		c0.009-2.002,1.069-3.246,2.766-3.246c0.789,0.004,1.448,0.276,1.922,0.787c0.537,0.579,0.818,1.439,0.813,2.485
		c-0.009,2.002-1.057,3.246-2.734,3.246v1.75c2.509,0,4.469-1.872,4.484-4.988C15.938,24.331,13.983,22.439,11.463,22.427z"/>
	<path style="fill:#4DB748;" d="M241.921,18.547c-0.142-0.068-0.302-0.19-0.486-0.323c-0.634-0.455-1.593-1.143-2.841-1.143
		c-0.991,0-1.915,0.281-2.748,0.835c-0.1,0.067-0.197,0.137-0.293,0.212V17.54h-6.263l0,5.828c-0.522-1.497-1.327-2.816-2.427-3.941
		c-0.834-0.851-1.796-1.547-2.862-2.072c-1.549-0.762-3.311-1.149-5.237-1.149c-3.119,0-5.759,1.084-7.847,3.221
		c-1.386,1.422-2.305,3.101-2.769,5.003c-0.077-1.586-0.298-2.786-0.672-3.633l-0.001-0.001c-0.492-1.11-1.305-2.02-2.416-2.702
		c-1.1-0.672-2.379-1.013-3.804-1.013c-1.36,0-2.637,0.31-3.795,0.921c-0.791,0.418-1.503,0.973-2.126,1.654
		c-0.506-0.666-1.104-1.211-1.788-1.628c-1.03-0.628-2.198-0.947-3.471-0.947c-1.222,0-2.37,0.235-3.414,0.698
		c-0.457,0.203-0.896,0.453-1.317,0.746V17.54h-6.223v19.575h6.223V28.31c0-1.605,0.133-2.769,0.396-3.46
		c0.239-0.638,0.586-1.116,1.059-1.46c0.459-0.333,0.954-0.496,1.513-0.496c0.479,0,0.867,0.115,1.187,0.353
		c0.318,0.236,0.571,0.629,0.75,1.167c0.141,0.43,0.309,1.333,0.309,3.192v9.509h6.256v-8.919c0-1.977,0.209-2.94,0.384-3.398
		c0.236-0.614,0.578-1.076,1.045-1.413c0.459-0.33,0.965-0.49,1.546-0.49c0.943,0,1.333,0.4,1.545,0.703
		c0.222,0.316,0.595,1.204,0.595,3.6v9.918h6.255v-6.614c0.478,1.815,1.395,3.421,2.758,4.787c2.088,2.097,4.804,3.161,8.07,3.161
		c2.058,0,3.887-0.381,5.434-1.133c0.972-0.476,1.89-1.143,2.731-1.985l1.146-1.148l-1.058-1.23l-2.22-2.58h3.191h1.057l0,14.331
		h-5.761l-4.819,5.6h10.58v13.975h6.868V48.552h-2.281l2.281-2.649V29.015l-0.017-0.852c0-2.901,0.327-4.096,0.602-4.587
		c0.462-0.829,0.853-0.829,0.98-0.829c0.091,0,0.36,0.029,0.903,0.301l0.61,0.305l3.709-4.311L241.921,18.547z M206.432,35.365
		h-2.755v-8.168c0-2.226-0.299-3.732-0.913-4.605c-0.664-0.947-1.693-1.447-2.977-1.447c-0.948,0-1.812,0.276-2.568,0.82
		c-0.742,0.535-1.299,1.277-1.656,2.207c-0.337,0.881-0.5,2.197-0.5,4.024v7.169h-2.756v-7.759c0-1.701-0.13-2.923-0.397-3.74
		c-0.295-0.89-0.755-1.571-1.368-2.026c-0.624-0.462-1.374-0.696-2.229-0.696c-0.929,0-1.783,0.279-2.543,0.831
		c-0.748,0.545-1.309,1.306-1.666,2.256c-0.342,0.9-0.508,2.235-0.508,4.079v7.055h-2.723V19.29h2.723v3.438l1.522-1.678
		c0.677-0.745,1.436-1.308,2.255-1.672c1.614-0.716,3.735-0.788,5.265,0.144c0.755,0.46,1.375,1.15,1.845,2.05l0.678,1.3
		l0.822-1.214c0.625-0.924,1.398-1.634,2.297-2.109c0.903-0.477,1.904-0.718,2.978-0.718c1.113,0,2.059,0.248,2.889,0.755
		c0.814,0.5,1.381,1.127,1.731,1.919c0.254,0.574,0.556,1.783,0.556,4.282V35.365z M228.234,28.622h-4.959h-9.409
		c0.208,1.267,0.761,2.275,1.662,3.024c0.901,0.748,2.052,1.121,3.45,1.121c1.671,0,3.107-0.584,4.309-1.753l2.65,3.08
		c-0.681,0.682-1.427,1.242-2.257,1.648c-1.311,0.637-2.867,0.957-4.669,0.957c-2.796,0-5.073-0.881-6.832-2.647
		c-1.758-1.762-2.638-3.972-2.638-6.626c0-2.719,0.876-4.977,2.629-6.775c1.753-1.795,3.952-2.694,6.595-2.694
		c1.677,0,3.162,0.328,4.464,0.969c0.878,0.432,1.676,1.002,2.384,1.725c1.758,1.799,2.638,4.17,2.638,7.119L228.234,28.622z
		 M221.295,30.372c-0.685,0.433-1.45,0.645-2.318,0.645c-0.936,0-1.67-0.211-2.24-0.645H221.295z M234.409,50.302v12.225h-3.368
		V50.302H234.409z M238.776,21.206c-0.388-0.141-0.735-0.209-1.052-0.209c-0.706,0-1.714,0.3-2.509,1.727
		c-0.562,1.005-0.823,2.734-0.823,5.456l0.017,17.073l-3.368,3.914v-0.614h-8.516l1.808-2.1h6.708L231.04,19.29h2.763v5.293
		l1.667-3.552c0.345-0.733,0.798-1.292,1.348-1.658c0.547-0.364,1.128-0.542,1.776-0.542c0.608,0,1.151,0.341,1.638,0.684
		L238.776,21.206z"/>
	<path style="fill:#4DB748;" d="M220.023,57.164c-0.947,1.161-2.254,1.726-3.996,1.726c-1.396,0-2.479-0.391-3.312-1.194
		c-0.824-0.795-1.225-1.804-1.225-3.084c0-1.324,0.419-2.372,1.281-3.205c0.872-0.842,2.001-1.251,3.452-1.251
		c0.456,0,0.888,0.041,1.282,0.122l0.504,0.103l4.036-4.689l-1.071-0.48c-1.432-0.642-3.037-0.967-4.772-0.967
		c-2.049,0-3.934,0.454-5.601,1.35c-1.681,0.902-3.009,2.164-3.949,3.748c-0.604,1.016-0.995,2.109-1.213,3.254
		c-0.384-2.379-1.37-4.389-2.95-6.005c-0.834-0.851-1.796-1.547-2.862-2.072c-1.549-0.762-3.311-1.149-5.237-1.149
		c-3.119,0-5.759,1.084-7.847,3.221c-1.342,1.377-2.249,2.992-2.727,4.819v-6.707h-1.827c0.507-0.183,0.969-0.483,1.38-0.901
		c0.722-0.733,1.087-1.627,1.087-2.654c0-1.042-0.37-1.942-1.1-2.675c-0.73-0.735-1.625-1.108-2.659-1.108
		c-1.024,0-1.908,0.367-2.629,1.092c-0.717,0.721-1.08,1.605-1.08,2.626c0,1.049,0.367,1.958,1.09,2.699
		c0.416,0.429,0.887,0.736,1.408,0.922h-1.892V64.32c0,1.012-0.199,1.277-0.224,1.306c-0.04,0.049-0.161,0.194-0.605,0.194
		c-0.4,0-0.895-0.142-1.47-0.42l-0.606-0.294l-5.292,6.15h8.858c1.178,0,2.21-0.271,3.066-0.804
		c0.879-0.545,1.528-1.333,1.933-2.344c0.378-0.95,0.562-2.297,0.562-4.117V57.7c0.481,1.801,1.395,3.393,2.75,4.751
		c2.088,2.097,4.804,3.161,8.07,3.161c2.059,0,3.887-0.381,5.434-1.133c0.972-0.475,1.89-1.143,2.731-1.985l1.146-1.148l-1.058-1.23
		l-2.22-2.58h3.191h1.717l0.006-0.324c0.436,1.643,1.285,3.141,2.556,4.47c1.938,2.027,4.628,3.056,7.998,3.056
		c3.295,0,5.986-1.062,7.998-3.155l0.552-0.574l-4.003-4.651L220.023,57.164z M179.332,42.561c-0.4-0.411-0.595-0.895-0.595-1.479
		c0-0.558,0.182-1,0.572-1.393c0.39-0.393,0.83-0.575,1.387-0.575c0.566,0,1.017,0.188,1.419,0.592c0.396,0.4,0.59,0.872,0.59,1.442
		c0,0.561-0.191,1.027-0.585,1.427c-0.395,0.402-0.832,0.589-1.375,0.589C180.18,43.163,179.731,42.971,179.332,42.561z
		 M182.066,63.992c0,1.572-0.147,2.74-0.438,3.47c-0.266,0.664-0.667,1.156-1.229,1.505c-0.584,0.363-1.285,0.54-2.144,0.54h-5.044
		l1.946-2.261c0.577,0.218,1.107,0.324,1.607,0.324c1.043,0,1.636-0.447,1.947-0.819c0.425-0.506,0.632-1.301,0.632-2.431V46.453
		h2.722V63.992z M203.859,55.784H198.9h-9.409c0.208,1.267,0.761,2.275,1.662,3.024c0.901,0.748,2.052,1.121,3.45,1.121
		c1.671,0,3.107-0.584,4.309-1.753l2.65,3.08c-0.681,0.682-1.427,1.242-2.257,1.648c-1.311,0.637-2.867,0.957-4.669,0.957
		c-2.796,0-5.073-0.881-6.832-2.647c-1.758-1.762-2.638-3.972-2.638-6.626c0-2.719,0.876-4.977,2.629-6.775
		c1.753-1.795,3.952-2.694,6.595-2.694c1.677,0,3.162,0.328,4.464,0.969c0.878,0.432,1.675,1.002,2.384,1.725
		c1.758,1.799,2.638,4.17,2.638,7.119L203.859,55.784z M196.921,57.534c-0.685,0.433-1.45,0.645-2.318,0.645
		c-0.936,0-1.67-0.211-2.24-0.645H196.921z M216.136,62.986c-2.914,0-5.116-0.822-6.732-2.515c-1.628-1.702-2.419-3.637-2.419-5.915
		c0-1.56,0.394-3.014,1.172-4.321c0.775-1.307,1.877-2.351,3.272-3.101c1.41-0.757,3.016-1.141,4.772-1.141
		c1.041,0,2.021,0.134,2.93,0.399l-1.792,2.084c-0.358-0.048-0.731-0.071-1.116-0.071c-1.899,0-3.47,0.586-4.667,1.742
		c-1.205,1.163-1.816,2.665-1.816,4.464c0,1.756,0.592,3.217,1.76,4.344c1.159,1.118,2.682,1.685,4.527,1.685
		c1.876,0,3.432-0.545,4.639-1.622l1.632,1.896C220.689,62.307,218.665,62.986,216.136,62.986z"/>
</g>
</svg>
