<?xml version="1.0" encoding="utf-8"?>
<!-- Generator: Adobe Illustrator 17.0.0, SVG Export Plug-In . SVG Version: 6.00 Build 0)  -->
<!DOCTYPE svg PUBLIC "-//W3C//DTD SVG 1.1//EN" "http://www.w3.org/Graphics/SVG/1.1/DTD/svg11.dtd">
<svg version="1.1" id="Layer_1" xmlns="http://www.w3.org/2000/svg" xmlns:xlink="http://www.w3.org/1999/xlink" x="0px" y="0px"
	 width="192px" height="192px" viewBox="0 0 192 192" enable-background="new 0 0 192 192" xml:space="preserve">
<g>
	<path fill="#FFFFFF" d="M-69.404-212.867h9.983l19.89,51.715h-10.23l-4.046-10.652H-74.91l-4.207,10.652h-10.23L-69.404-212.867z
		 M-64.351-199.156l-6.938,17.754h13.836L-64.351-199.156z"/>
	<path fill="#FFFFFF" d="M-32.341-199.402h4.922v6.855c1.969-2.625,4.148-4.588,6.539-5.889s4.992-1.951,7.805-1.951
		c2.859,0,5.396,0.727,7.611,2.18c2.215,1.454,3.85,3.41,4.904,5.871s1.582,6.293,1.582,11.496v19.688H-3.9v-18.246
		c0-4.406-0.183-7.348-0.548-8.824c-0.57-2.531-1.664-4.435-3.281-5.713c-1.617-1.277-3.728-1.916-6.329-1.916
		c-2.977,0-5.644,0.984-8,2.953c-2.356,1.969-3.909,4.407-4.659,7.312c-0.469,1.898-0.703,5.367-0.703,10.406v14.027h-4.922
		L-32.341-199.402L-32.341-199.402z"/>
	<path fill="#FFFFFF" d="M15.858-213.605h4.922v14.203h7.805v4.254H20.78v33.996h-4.922v-33.996H9.143v-4.254h6.715V-213.605z"/>
	<path fill="#FFFFFF" d="M37.672-215.152c1.12,0,2.077,0.399,2.87,1.195c0.793,0.797,1.19,1.758,1.19,2.883
		c0,1.102-0.397,2.051-1.19,2.848c-0.793,0.797-1.75,1.195-2.87,1.195c-1.097,0-2.042-0.398-2.835-1.195
		c-0.793-0.796-1.19-1.746-1.19-2.848c0-1.125,0.396-2.086,1.19-2.883C35.63-214.753,36.575-215.152,37.672-215.152z
		 M35.229-199.402h4.922v38.25h-4.922V-199.402z"/>
	<path fill="#FFFFFF" d="M98.545-204.43l-6.932,6.855c-4.387-4.641-9.5-6.961-15.341-6.961c-5.091,0-9.354,1.688-12.791,5.062
		s-5.155,7.477-5.155,12.305c0,4.992,1.783,9.223,5.349,12.691c3.566,3.469,7.966,5.203,13.198,5.203
		c3.402,0,6.271-0.715,8.605-2.145c2.334-1.429,4.217-3.668,5.648-6.715H76.151v-9.246h26.016l0.07,2.18
		c0,4.523-1.172,8.812-3.516,12.867c-2.344,4.055-5.379,7.149-9.105,9.281s-8.098,3.199-13.113,3.199
		c-5.367,0-10.155-1.166-14.361-3.498c-4.207-2.332-7.536-5.654-9.984-9.967c-2.449-4.312-3.674-8.965-3.674-13.957
		c0-6.843,2.262-12.797,6.785-17.859c5.367-6.023,12.352-9.035,20.953-9.035c4.5,0,8.707,0.832,12.621,2.496
		C92.147-210.266,95.381-207.852,98.545-204.43z"/>
	<path fill="#FFFFFF" d="M110.217-199.402h4.922v17.859c0,4.359,0.234,7.36,0.704,9c0.704,2.344,2.048,4.196,4.032,5.555
		c1.983,1.359,4.348,2.039,7.095,2.039c2.746,0,5.076-0.662,6.988-1.986c1.912-1.324,3.234-3.064,3.961-5.221
		c0.492-1.477,0.74-4.605,0.74-9.387v-17.859h5.027v18.773c0,5.273-0.615,9.246-1.846,11.918s-3.082,4.764-5.555,6.275
		s-5.572,2.268-9.299,2.268c-3.727,0-6.838-0.756-9.334-2.268s-4.359-3.621-5.59-6.328s-1.846-6.779-1.846-12.217L110.217-199.402
		L110.217-199.402z"/>
	<path fill="#FFFFFF" d="M152.757-199.402h5.027v5.59c1.5-2.203,3.082-3.85,4.746-4.939s3.398-1.635,5.203-1.635
		c1.359,0,2.812,0.434,4.359,1.301l-2.566,4.148c-1.031-0.445-1.898-0.668-2.602-0.668c-1.641,0-3.223,0.674-4.746,2.021
		c-1.523,1.348-2.684,3.44-3.48,6.275c-0.609,2.18-0.914,6.586-0.914,13.219v12.938h-5.027V-199.402z"/>
	<path fill="#FFFFFF" d="M175.644-199.402h4.922v17.859c0,4.359,0.234,7.36,0.704,9c0.704,2.344,2.048,4.196,4.031,5.555
		s4.349,2.039,7.095,2.039s5.076-0.662,6.989-1.986c1.912-1.324,3.233-3.064,3.961-5.221c0.492-1.477,0.739-4.605,0.739-9.387
		v-17.859h5.027v18.773c0,5.273-0.615,9.246-1.846,11.918s-3.082,4.764-5.555,6.275s-5.572,2.268-9.299,2.268
		s-6.838-0.756-9.334-2.268s-4.359-3.621-5.59-6.328s-1.846-6.779-1.846-12.217v-18.421H175.644z"/>
</g>
<text transform="matrix(1 0 0 1 -364.7139 76.5604)" font-family="'CenturyGothic-Bold'" font-size="72">A</text>
<text transform="matrix(1 0 0 1 -311.4519 76.5604)" font-family="'CenturyGothic'" font-size="72">nti</text>
<text transform="matrix(1 0 0 1 -228.7299 76.5604)" font-family="'CenturyGothic-Bold'" font-size="72">G</text>
<text transform="matrix(1 0 0 1 -168.2609 76.5604)" font-family="'CenturyGothic'" font-size="72">uru</text>
<text transform="matrix(1 0 0 1 -463.6149 -134.4286)" font-family="'CenturyGothic'" font-size="72">AntiGuru</text>
<g>
	<g>
		<path fill="#00FFFF" d="M55.633,25.149h32.326c20.835,0,36.316,2.582,46.441,7.747c10.127,5.165,18.467,13.562,25.024,25.191
			c6.556,11.632,9.834,25.207,9.834,40.734c0,11.047-1.835,21.195-5.502,30.453c-3.668,9.258-8.73,16.943-15.19,23.047
			c-6.459,6.107-13.452,10.33-20.981,12.668c-7.529,2.339-20.575,3.508-39.139,3.508H55.633V25.149z M82.723,51.461v90.433h12.668
			c12.473,0,21.52-1.429,27.14-4.29c5.618-2.861,10.216-7.674,13.789-14.439c3.572-6.765,5.36-15.088,5.36-24.974
			c0-15.218-4.255-27.023-12.766-35.412c-7.666-7.544-19.977-11.318-36.933-11.318H82.723z"/>
	</g>
	<rect x="38.5" y="25.5" fill="#00FFFF" width="14" height="143"/>
	<rect x="28.5" y="25.5" fill="#00FFFF" width="7" height="143"/>
	<rect x="21.5" y="25.5" fill="#00FFFF" width="4" height="143"/>
</g>
</svg>
