<?xml version="1.0" encoding="utf-8"?>
<!-- Generator: Adobe Illustrator 17.0.0, SVG Export Plug-In . SVG Version: 6.00 Build 0)  -->
<!DOCTYPE svg PUBLIC "-//W3C//DTD SVG 1.1//EN" "http://www.w3.org/Graphics/SVG/1.1/DTD/svg11.dtd">
<svg version="1.1" xmlns="http://www.w3.org/2000/svg" xmlns:xlink="http://www.w3.org/1999/xlink" x="0px" y="0px" width="512px"
	 height="512px" viewBox="0 0 512 512" enable-background="new 0 0 512 512" xml:space="preserve">
<g id="Layer_1">
	<path fill="#4D4D4D" d="M509.778,277.546c0,127.925-103.704,231.629-231.629,231.629h-42.742
		c-127.925,0-231.629-103.704-231.629-231.629v-42.742c0-127.925,103.704-231.629,231.629-231.629h42.742
		c127.925,0,231.629,103.704,231.629,231.629V277.546z"/>
	<g>
		<path fill="#00FFFF" d="M176.287,136.633h53.78c34.663,0,60.418,4.296,77.265,12.889c16.847,8.593,30.722,22.562,41.63,41.909
			c10.907,19.349,16.361,41.936,16.361,67.767c0,18.376-3.053,35.262-9.151,50.663c-6.102,15.402-14.523,28.185-25.273,38.342
			c-10.745,10.16-22.377,17.185-34.906,21.076c-12.524,3.891-34.23,5.836-65.115,5.836h-54.59V136.633z M221.357,180.406v150.45
			h21.076c20.752,0,35.802-2.378,45.151-7.14c9.349-4.76,16.996-12.767,22.94-24.021c5.945-11.252,8.917-25.1,8.917-41.548
			c0-25.316-7.079-44.955-21.238-58.914c-12.754-12.549-33.235-18.827-61.445-18.827H221.357z"/>
	</g>
</g>
<g id="Layer_2">
</g>
<g id="Layer_4">
</g>
<g id="Layer_3">
</g>
<g id="Layer_5">
</g>
</svg>
