<?xml version="1.0" encoding="utf-8"?>
<!-- Generator: Adobe Illustrator 17.0.0, SVG Export Plug-In . SVG Version: 6.00 Build 0)  -->
<!DOCTYPE svg PUBLIC "-//W3C//DTD SVG 1.1//EN" "http://www.w3.org/Graphics/SVG/1.1/DTD/svg11.dtd">
<svg version="1.1" xmlns="http://www.w3.org/2000/svg" xmlns:xlink="http://www.w3.org/1999/xlink" x="0px" y="0px"
	 width="562.693px" height="55.233px" viewBox="0 0 562.693 55.233" enable-background="new 0 0 562.693 55.233"
	 xml:space="preserve">
<g id="Layer_1">
	<path fill="#29ABE2" d="M0.094,0.142h17.032c10.978,0,19.134,0.978,24.469,2.934c5.335,1.955,9.73,5.135,13.184,9.538
		c3.455,4.403,5.182,9.545,5.182,15.423c0,4.182-0.966,8.025-2.898,11.53c-1.933,3.505-4.6,6.415-8.003,8.727
		c-3.403,2.312-7.088,3.911-11.056,4.797c-3.967,0.885-10.84,1.328-20.621,1.328H0.094V0.142z M14.367,10.105v34.241h6.675
		c6.572,0,11.339-0.541,14.3-1.625c2.96-1.083,5.383-2.906,7.265-5.467c1.881-2.561,2.824-5.713,2.824-9.456
		c0-5.762-2.243-10.232-6.726-13.409c-4.04-2.856-10.526-4.285-19.46-4.285H14.367z"/>
	<path fill="#29ABE2" d="M65.878,16.425h28.861v7.077H75.869v6.87h18.869v6.948H75.869v9.996h18.869v7.103H65.878V16.425z"/>
	<path fill="#29ABE2" d="M104.083,16.425h10.674c5.774,0,9.938,0.383,12.49,1.149c2.552,0.767,4.565,2.006,6.038,3.719
		c1.474,1.714,2.21,3.767,2.21,6.16c0,2.652-0.965,4.856-2.894,6.612c-1.93,1.756-4.547,2.979-7.853,3.668
		c-1.941,0.396-5.476,0.594-10.603,0.594V54.42h-10.063V16.425z M114.147,31.277h3.199c2.516,0,4.265-0.129,5.248-0.388
		c0.982-0.26,1.755-0.687,2.318-1.283c0.563-0.596,0.845-1.317,0.845-2.164c0-1.469-0.791-2.54-2.373-3.213
		c-1.15-0.501-3.283-0.752-6.397-0.752h-2.84V31.277z"/>
	<path fill="#29ABE2" d="M141.834,16.425h10.661c5.84,0,9.998,0.374,12.475,1.124c2.477,0.749,4.469,1.993,5.977,3.732
		c1.508,1.74,2.262,3.797,2.262,6.173c0,2.497-0.832,4.585-2.498,6.264c-1.665,1.679-4.175,2.949-7.529,3.81l12.524,16.892h-11.001
		l-11.889-16.091h-0.921V54.42h-10.063V16.425z M151.898,31.277h3.153c3.201,0,5.404-0.302,6.611-0.907
		c1.206-0.604,1.809-1.606,1.809-3.006c0-0.829-0.299-1.55-0.896-2.163c-0.597-0.614-1.397-1.054-2.401-1.322
		c-1.002-0.268-2.842-0.402-5.517-0.402h-2.759V31.277z"/>
	<path fill="#29ABE2" d="M204.618,15.47c7.48,0,13.911,1.946,19.295,5.837c5.383,3.892,8.074,8.635,8.074,14.232
		c0,5.545-2.655,10.237-7.966,14.077c-5.311,3.84-11.755,5.76-19.331,5.76c-7.937,0-14.529-1.972-19.78-5.915
		s-7.876-8.627-7.876-14.051c0-3.633,1.222-6.974,3.668-10.022s5.809-5.463,10.088-7.245
		C195.069,16.361,199.678,15.47,204.618,15.47z M204.51,22.547c-4.894,0-9.007,1.223-12.341,3.668c-3.334,2.445-5,5.553-5,9.324
		c0,4.202,2.098,7.525,6.296,9.97c3.262,1.912,7.004,2.867,11.225,2.867c4.773,0,8.838-1.24,12.196-3.719
		c3.358-2.48,5.037-5.536,5.037-9.17c0-3.616-1.691-6.677-5.073-9.182C213.468,23.799,209.355,22.547,204.51,22.547z"/>
	<path fill="#29ABE2" d="M273.515,22.624l-7.087,5.036c-4.484-3.409-9.713-5.114-15.684-5.114c-5.205,0-9.563,1.24-13.077,3.719
		c-3.513,2.48-5.27,5.493-5.27,9.04c0,3.667,1.824,6.776,5.469,9.324s8.144,3.823,13.492,3.823c3.478,0,6.411-0.525,8.797-1.575
		c2.387-1.05,4.312-2.695,5.775-4.933h-15.311v-6.793h26.596l0.072,1.601c0,3.324-1.198,6.475-3.594,9.453
		c-2.396,2.979-5.499,5.252-9.309,6.819c-3.809,1.567-8.278,2.351-13.406,2.351c-5.487,0-10.381-0.857-14.682-2.57
		c-4.301-1.713-7.704-4.154-10.207-7.322c-2.504-3.168-3.756-6.587-3.756-10.255c0-5.027,2.312-9.401,6.937-13.121
		c5.486-4.425,12.627-6.638,21.421-6.638c4.6,0,8.9,0.611,12.902,1.834C266.974,18.336,270.28,20.11,273.515,22.624z"/>
	<path fill="#29ABE2" d="M283.017,16.425h10.661c5.84,0,9.998,0.374,12.475,1.124c2.477,0.749,4.469,1.993,5.977,3.732
		c1.508,1.74,2.262,3.797,2.262,6.173c0,2.497-0.832,4.585-2.498,6.264c-1.665,1.679-4.175,2.949-7.529,3.81l12.524,16.892H305.89
		l-11.889-16.091h-0.921V54.42h-10.063V16.425z M293.08,31.277h3.153c3.201,0,5.404-0.302,6.611-0.907
		c1.206-0.604,1.809-1.606,1.809-3.006c0-0.829-0.299-1.55-0.896-2.163c-0.597-0.614-1.397-1.054-2.401-1.322
		c-1.003-0.268-2.842-0.402-5.517-0.402h-2.759V31.277z"/>
	<path fill="#29ABE2" d="M333.824,16.425h10.206l20.334,37.994h-10.459l-4.136-7.826h-21.573l-4.301,7.826h-10.458L333.824,16.425z
		 M338.99,26.498l-7.093,13.044h14.144L338.99,26.498z"/>
	<path fill="#29ABE2" d="M370.985,16.425h9.805l12.256,26.501l12.367-26.501h9.799l8.869,37.994h-9.731l-5.669-23.995L397.449,54.42
		h-8.869l-11.132-23.995l-5.805,23.995h-9.811L370.985,16.425z"/>
	<path fill="#29ABE2" d="M431.984,16.425h9.805l12.256,26.501l12.367-26.501h9.799l8.869,37.994h-9.731l-5.67-23.995L458.448,54.42
		h-8.869l-11.132-23.995l-5.805,23.995h-9.811L431.984,16.425z"/>
	<path fill="#29ABE2" d="M489.988,16.425h28.86v7.077H499.98v6.87h18.868v6.948H499.98v9.996h18.868v7.103h-28.86V16.425z"/>
	<path fill="#29ABE2" d="M528.912,16.425h10.662c5.838,0,9.998,0.374,12.475,1.124c2.477,0.749,4.469,1.993,5.978,3.732
		c1.507,1.74,2.262,3.797,2.262,6.173c0,2.497-0.833,4.585-2.498,6.264c-1.666,1.679-4.175,2.949-7.529,3.81l12.524,16.892h-11.003
		l-11.887-16.091h-0.921V54.42h-10.063V16.425z M538.975,31.277h3.153c3.201,0,5.405-0.302,6.611-0.907s1.809-1.606,1.809-3.006
		c0-0.829-0.299-1.55-0.896-2.163c-0.597-0.614-1.398-1.054-2.4-1.322c-1.003-0.268-2.843-0.402-5.517-0.402h-2.76V31.277z"/>
</g>
<g id="Layer_2">
</g>
<g id="Layer_4">
</g>
<g id="Layer_3">
</g>
<g id="Layer_5">
</g>
</svg>
