<?xml version="1.0" encoding="utf-8"?>
<!-- Generator: Adobe Illustrator 17.0.0, SVG Export Plug-In . SVG Version: 6.00 Build 0)  -->
<!DOCTYPE svg PUBLIC "-//W3C//DTD SVG 1.1//EN" "http://www.w3.org/Graphics/SVG/1.1/DTD/svg11.dtd">
<svg version="1.1" xmlns="http://www.w3.org/2000/svg" xmlns:xlink="http://www.w3.org/1999/xlink" x="0px" y="0px"
	 width="198.997px" height="68.52px" viewBox="0 0 198.997 68.52" enable-background="new 0 0 198.997 68.52" xml:space="preserve">
<g id="Layer_1">
	<g>
		<path d="M21.349,12.921H0V0h58.138v12.921H36.789V68.52h-15.44V12.921z"/>
		<path d="M66.426,0h30.308c21.825,0,36.788,13.508,36.788,34.26s-14.963,34.26-36.788,34.26H66.426V0z M95.971,55.501
			c13.248,0,21.921-8.125,21.921-21.241s-8.673-21.241-21.921-21.241H81.865v42.482H95.971z"/>
		<path d="M198.997,24.862c0,15.271-11.151,24.766-28.974,24.766h-13.438V68.52h-15.439V0h28.878
			C187.846,0,198.997,9.495,198.997,24.862z M183.366,24.862c0-7.537-4.765-11.941-14.2-11.941h-12.581v23.786h12.581
			C178.602,36.707,183.366,32.302,183.366,24.862z"/>
	</g>
</g>
<g id="Layer_2">
</g>
<g id="Layer_4">
</g>
<g id="Layer_3">
</g>
<g id="Layer_5">
</g>
</svg>
