<?xml version="1.0" encoding="utf-8"?>
<!-- Generator: Adobe Illustrator 25.0.1, SVG Export Plug-In . SVG Version: 6.00 Build 0)  -->
<svg version="1.1" xmlns="http://www.w3.org/2000/svg" xmlns:xlink="http://www.w3.org/1999/xlink" x="0px" y="0px"
	 viewBox="0 0 512 512" enable-background="new 0 0 512 512" xml:space="preserve">
<g id="Layer_1">
</g>
<g id="Layer_6">
</g>
<g id="Layer_8">
</g>
<g id="Layer_7">
</g>
<g id="Layer_9">
</g>
<g id="Layer_11">
</g>
<g id="Layer_12">
	<g>
		
			<radialGradient id="SVGID_1_" cx="206.9717" cy="123.0324" r="457.6876" fx="-12.0989" fy="-141.8193" gradientTransform="matrix(0.9269 -0.3752 0.3268 0.8074 -25.0885 101.3558)" gradientUnits="userSpaceOnUse">
			<stop  offset="0" style="stop-color:#00FFFF"/>
			<stop  offset="0.6625" style="stop-color:#006837"/>
		</radialGradient>
		<circle fill="url(#SVGID_1_)" cx="255.716" cy="256.284" r="255.716"/>
		<g>
			<g>
				<g>
					<path fill="#FFFFFF" d="M374.399,166.893c-24.39,0-44.038,8.002-57.251,24.355v-62.249l-50.474,59.134v308.581l52.846-59.136
						V337.032c13.551,15.308,32.182,22.615,54.879,22.615c51.151,0,90.787-37.576,90.787-96.378
						C465.185,204.47,425.55,166.893,374.399,166.893z M365.252,315.112c-26.423,0-46.41-19.485-46.41-51.842
						s19.986-51.841,46.41-51.841c26.423,0,46.41,19.484,46.41,51.841S391.675,315.112,365.252,315.112z"/>
				</g>
			</g>
			<g>
				<g>
					<path fill="#FFFFFF" d="M191.912,85.482v104.027c-13.211-15.309-32.182-22.615-54.54-22.615
						c-8.472,0-16.614,1.037-24.321,2.999c-23.251,5.919-42.452,20.424-54.208,41.536c-8.029,14.419-12.597,31.905-12.597,51.841
						c0,58.801,39.634,96.378,91.126,96.378c24.39,0,43.699-8.003,56.91-24.356v49.104l50.476-59.216V26.267L191.912,85.482z
						 M146.518,315.113c-26.424,0-46.749-19.485-46.749-51.842s20.325-51.841,46.749-51.841c26.083,0,46.41,19.484,46.41,51.841
						S172.602,315.113,146.518,315.113z"/>
				</g>
			</g>
		</g>
	</g>
</g>
<g id="Layer_10">
</g>
<g id="Layer_2">
</g>
<g id="Layer_4">
</g>
<g id="Layer_3">
</g>
<g id="Layer_5">
</g>
</svg>
