<?xml version="1.0" encoding="utf-8"?>
<!-- Generator: Adobe Illustrator 17.0.0, SVG Export Plug-In . SVG Version: 6.00 Build 0)  -->
<!DOCTYPE svg PUBLIC "-//W3C//DTD SVG 1.1//EN" "http://www.w3.org/Graphics/SVG/1.1/DTD/svg11.dtd">
<svg version="1.1" xmlns="http://www.w3.org/2000/svg" xmlns:xlink="http://www.w3.org/1999/xlink" x="0px" y="0px" width="1024px"
	 height="1024px" viewBox="0 0 1024 1024" enable-background="new 0 0 1024 1024" xml:space="preserve">
<g id="Layer_1">
	<path d="M1024,936.597c0,48.271-39.399,87.403-88,87.403H88c-48.601,0-88-39.131-88-87.403V87.403C0,39.131,39.399,0,88,0h848
		c48.601,0,88,39.131,88,87.403V936.597z"/>
	<g>
		<path fill="#00FFFF" d="M156.114,417.845H61.287V360.45h258.245v57.395h-94.827v246.971h-68.591V417.845z"/>
		<path fill="#00FFFF" d="M356.352,360.45h134.623c96.953,0,163.418,60.002,163.418,152.183s-66.466,152.183-163.418,152.183
			H356.352V360.45z M487.592,606.987c58.848,0,97.369-36.091,97.369-94.354s-38.521-94.354-97.369-94.354h-62.657v188.708H487.592z"
			/>
		<path fill="#00FFFF" d="M963.002,470.889c0,67.832-49.53,110.01-128.698,110.01h-59.698v83.917h-68.583V360.45h128.281
			C913.472,360.45,963.002,402.628,963.002,470.889z M893.569,470.889c0-33.48-21.16-53.044-63.073-53.044h-55.89v105.659h55.89
			C872.409,523.504,893.569,503.936,893.569,470.889z"/>
	</g>
</g>
<g id="Layer_2">
</g>
<g id="Layer_4">
</g>
<g id="Layer_3">
</g>
<g id="Layer_5">
</g>
</svg>
