<?xml version="1.0" encoding="utf-8"?>
<!-- Generator: Adobe Illustrator 17.0.0, SVG Export Plug-In . SVG Version: 6.00 Build 0)  -->
<!DOCTYPE svg PUBLIC "-//W3C//DTD SVG 1.1//EN" "http://www.w3.org/Graphics/SVG/1.1/DTD/svg11.dtd">
<svg version="1.1" xmlns="http://www.w3.org/2000/svg" xmlns:xlink="http://www.w3.org/1999/xlink" x="0px" y="0px"
	 width="726.454px" height="219.984px" viewBox="0 0 726.454 219.984" enable-background="new 0 0 726.454 219.984"
	 xml:space="preserve">
<g id="Layer_1">
	<g>
		<path fill="#FFFFFF" d="M0,60.27h28.115c21.444,0,36.026,13.899,36.026,34.26s-14.582,34.26-36.026,34.26H0V60.27z
			 M27.544,120.273c16.488,0,27.067-10.376,27.067-25.744S44.032,68.785,27.544,68.785H9.531v51.488H27.544z"/>
		<path fill="#FFFFFF" d="M122.846,105.981H81.864c1.144,9.104,8.292,15.173,18.299,15.173c5.909,0,10.865-2.056,14.582-6.265
			l5.051,6.068c-4.574,5.481-11.532,8.418-19.919,8.418c-16.297,0-27.162-11.061-27.162-26.526c0-15.368,10.77-26.429,25.352-26.429
			s24.97,10.767,24.97,26.723C123.036,103.926,122.941,105.101,122.846,105.981z M81.864,99.228h32.404
			c-0.953-8.712-7.339-14.878-16.202-14.878C89.298,84.35,82.817,90.418,81.864,99.228z"/>
		<path fill="#FFFFFF" d="M188.893,84.153c0,14.879-10.484,23.884-27.83,23.884h-16.487v92.37h-9.531V60.27h26.019
			C178.408,60.27,188.893,69.275,188.893,84.153z M179.361,84.153c0-9.788-6.385-15.368-18.584-15.368h-16.202v30.736h16.202
			C172.977,99.521,179.361,93.942,179.361,84.153z"/>
		<path fill="#FFFFFF" d="M227.869,76.421v9.103c-0.762-0.098-1.43-0.098-2.097-0.098c-9.816,0-15.916,6.167-15.916,17.521v25.842
			h-9.149V76.91h8.769v8.712C212.716,79.553,219.006,76.421,227.869,76.421z"/>
		<path fill="#FFFFFF" d="M233.967,102.85c0-15.466,11.15-26.429,26.305-26.429c15.153,0,26.209,10.963,26.209,26.429
			s-11.056,26.526-26.209,26.526C245.117,129.376,233.967,118.315,233.967,102.85z M277.236,102.85
			c0-11.062-7.244-18.207-16.965-18.207c-9.722,0-17.06,7.146-17.06,18.207c0,11.061,7.338,18.305,17.06,18.305
			C269.992,121.154,277.236,113.91,277.236,102.85z"/>
		<path fill="#FFFFFF" d="M347.475,76.91v44.831c0,18.305-9.054,26.625-26.209,26.625c-4.27,0-8.561-0.564-12.487-1.672l0.005-8.93
			c3.712,1.513,7.938,2.38,12.196,2.38c11.913,0,17.346-5.677,17.346-17.424v-4.11c-4.384,5.384-10.96,8.026-18.203,8.026
			c-14.582,0-25.638-10.181-25.638-25.156c0-14.977,11.056-25.059,25.638-25.059c7.529,0,14.391,2.838,18.68,8.516V76.91H347.475z
			 M338.516,101.479c0-10.083-7.243-16.837-17.346-16.837c-10.197,0-17.44,6.754-17.44,16.837c0,9.984,7.243,16.934,17.44,16.934
			C331.272,118.413,338.516,111.464,338.516,101.479z"/>
		<path fill="#FFFFFF" d="M385.074,76.421v9.103c-0.762-0.098-1.43-0.098-2.097-0.098c-9.816,0-15.916,6.167-15.916,17.521v25.842
			h-9.149V76.91h8.769v8.712C369.921,79.553,376.211,76.421,385.074,76.421z"/>
		<path fill="#FFFFFF" d="M439.967,97.466v31.323h-8.673v-6.852c-3.05,4.698-8.673,7.438-16.583,7.438
			c-11.437,0-18.68-6.265-18.68-15.27c0-8.32,5.241-15.172,20.3-15.172h14.486v-1.86c0-7.929-4.479-12.529-13.533-12.529
			c-6.004,0-12.104,2.153-16.012,5.579l-3.812-7.047c5.241-4.308,12.771-6.656,20.872-6.656
			C432.152,76.421,439.967,83.272,439.967,97.466z M430.102,112.932v-7.243h-14.104c-9.055,0-11.628,3.621-11.628,8.026
			c0,5.188,4.193,8.418,11.151,8.418C422.382,122.133,427.814,118.902,430.102,112.932z"/>
		<path fill="#FFFFFF" d="M532.986,98.935v29.854h-9.149v-28.778c0-10.18-4.766-15.172-13.058-15.172
			c-9.149,0-15.153,5.971-15.153,17.228v26.723h-9.149v-28.778c0-10.18-4.766-15.172-13.058-15.172
			c-9.149,0-15.153,5.971-15.153,17.228v35.107h-9.149V76.91h8.769v7.732c3.621-5.285,9.816-8.222,17.44-8.222
			c7.72,0,14.201,3.132,17.537,9.593c3.812-5.873,10.864-9.593,19.442-9.593C524.599,76.421,532.986,83.664,532.986,98.935z"/>
		<path fill="#FFFFFF" d="M625.817,98.935v29.854h-9.149v-28.778c0-10.18-4.766-15.172-13.058-15.172
			c-9.149,0-15.153,5.971-15.153,17.228v26.723h-9.149v-28.778c0-10.18-4.766-15.172-13.058-15.172
			c-9.149,0-15.153,5.971-15.153,17.228v26.723h-9.149V76.91h8.769v7.732c3.621-5.285,9.816-8.222,17.44-8.222
			c7.72,0,14.201,3.132,17.537,9.593c3.812-5.873,10.864-9.593,19.442-9.593C617.43,76.421,625.817,83.664,625.817,98.935z"/>
		<path fill="#FFFFFF" d="M685.428,105.981h-40.981c1.144,9.104,8.292,15.173,18.299,15.173c5.909,0,10.865-2.056,14.582-6.265
			l5.051,6.068c-4.574,5.481-11.532,8.418-19.919,8.418c-16.297,0-27.162-11.061-27.162-26.526c0-15.368,10.77-26.429,25.352-26.429
			s24.97,10.767,24.97,26.723C685.618,103.926,685.523,105.101,685.428,105.981z M644.446,99.228h32.404
			c-0.953-8.712-7.339-14.878-16.202-14.878C651.88,84.35,645.399,90.418,644.446,99.228z"/>
		<path fill="#FFFFFF" d="M726.454,76.421v9.103c-0.763-0.098-4.43-0.098-5.097-0.098c-9.816,0-15.916,6.167-15.916,17.521v25.842
			h-9.149V76.91h8.769v8.712C708.301,79.553,717.591,76.421,726.454,76.421z"/>
		<path fill="#FFFFFF" d="M188.897,155.771c0,14.879-10.483,23.884-27.83,23.884H144.58v20.752h-9.531v-68.52h26.019
			C178.414,131.888,188.897,140.894,188.897,155.771z M179.366,155.771c0-9.788-6.385-15.368-18.584-15.368H144.58v30.736h16.202
			C172.981,171.14,179.366,165.561,179.366,155.771z"/>
		<path fill="#FFFFFF" d="M227.874,148.039v9.103c-0.763-0.098-1.43-0.098-2.097-0.098c-9.816,0-15.916,6.167-15.916,17.521v25.842
			h-9.149v-51.879h8.769v8.712C212.721,151.171,219.011,148.039,227.874,148.039z"/>
		<path fill="#FFFFFF" d="M233.972,174.468c0-15.466,11.15-26.429,26.305-26.429c15.153,0,26.209,10.963,26.209,26.429
			s-11.056,26.526-26.209,26.526C245.122,200.994,233.972,189.934,233.972,174.468z M277.24,174.468
			c0-11.062-7.243-18.207-16.964-18.207c-9.722,0-17.06,7.146-17.06,18.207c0,11.061,7.338,18.305,17.06,18.305
			C269.997,192.772,277.24,185.528,277.24,174.468z"/>
		<path fill="#FFFFFF" d="M284.672,209.608c1.811,1.566,4.479,2.447,7.434,2.447c4.86,0,7.529-3.133,7.529-9.104v-56.258h9.149
			v56.063c0,10.571-5.719,17.228-16.106,17.228c-2.834,0-5.668-0.447-8.002-1.401L284.672,209.608z"/>
		<path fill="#FFFFFF" d="M371.685,177.6h-40.981c1.144,9.104,8.292,15.173,18.299,15.173c5.909,0,10.865-2.056,14.582-6.265
			l5.051,6.068c-4.574,5.481-11.532,8.418-19.919,8.418c-16.297,0-27.162-11.061-27.162-26.526c0-15.368,10.77-26.429,25.352-26.429
			s24.97,10.767,24.97,26.723C371.875,175.544,371.78,176.719,371.685,177.6z M330.703,170.846h32.404
			c-0.953-8.712-7.339-14.878-16.202-14.878C338.137,155.968,331.656,162.036,330.703,170.846z"/>
		<path fill="#FFFFFF" d="M378.88,174.468c0-15.466,11.15-26.429,26.686-26.429c9.055,0,16.583,3.817,20.586,11.061l-6.957,4.601
			c-3.24-5.09-8.196-7.439-13.724-7.439c-9.912,0-17.346,7.146-17.346,18.207c0,11.257,7.434,18.305,17.346,18.305
			c5.527,0,10.483-2.35,13.724-7.439l6.957,4.503c-4.003,7.243-11.531,11.158-20.586,11.158
			C390.03,200.994,378.88,189.934,378.88,174.468z"/>
		<path fill="#FFFFFF" d="M467.034,197.373c-2.764,2.447-6.957,3.621-11.056,3.621c-10.197,0-16.012-5.774-16.012-16.249v-28.484
			h-8.577v-7.732h8.577v-11.354h9.149v11.354h14.487v7.732h-14.487v28.094c0,5.579,2.859,8.711,7.911,8.711
			c2.668,0,5.241-0.881,7.147-2.446L467.034,197.373z"/>
		<g>
			<path fill="#FFFFFF" d="M125.394,51.652c-2.051,1.816-5.164,2.688-8.206,2.688c-7.568,0-11.884-4.286-11.884-12.06v-21.14h-6.366
				v-5.739h6.366V6.975h6.791v8.427h10.752v5.739h-10.752v20.85c0,4.141,2.122,6.466,5.871,6.466c1.98,0,3.891-0.654,5.306-1.816
				L125.394,51.652z"/>
			<path fill="#FFFFFF" d="M169.182,31.747v22.157h-6.791V32.546c0-7.555-3.679-11.26-10.116-11.26
				c-7.215,0-11.884,4.431-11.884,12.785v19.833H133.6V0h6.791v20.85c2.829-3.705,7.498-5.812,13.229-5.812
				C162.744,15.038,169.182,20.414,169.182,31.747z"/>
			<path fill="#FFFFFF" d="M215.728,36.978H185.31c0.85,6.756,6.154,11.261,13.582,11.261c4.387,0,8.064-1.526,10.823-4.649
				l3.749,4.504c-3.395,4.068-8.559,6.247-14.784,6.247c-12.097,0-20.161-8.209-20.161-19.688c0-11.405,7.994-19.614,18.817-19.614
				s18.533,7.991,18.533,19.833C215.869,35.452,215.799,36.323,215.728,36.978z M185.31,31.965h24.052
				c-0.707-6.466-5.447-11.042-12.025-11.042C190.827,20.923,186.018,25.427,185.31,31.965z"/>
		</g>
	</g>
</g>
<g id="Layer_2">
</g>
<g id="Layer_4">
</g>
<g id="Layer_3">
</g>
<g id="Layer_5">
</g>
</svg>
