<?xml version="1.0" encoding="iso-8859-1"?>
<!-- Generator: Adobe Illustrator 25.0.1, SVG Export Plug-In . SVG Version: 6.00 Build 0)  -->
<svg version="1.1" id="Layer_1" xmlns="http://www.w3.org/2000/svg" xmlns:xlink="http://www.w3.org/1999/xlink" x="0px" y="0px"
	 viewBox="0 0 729 222" style="enable-background:new 0 0 729 222;" xml:space="preserve">
<g id="Layer_2_1_">
</g>
<g id="Layer_4">
</g>
<g id="Layer_3">
</g>
<g>
	<g>
		<path style="fill:#FFFFFF;" d="M88.039,69.792c-5.955,0-10.459,4.391-10.459,11.684c0,7.292,4.504,11.684,10.459,11.684
			s10.46-4.392,10.46-11.684C98.499,74.183,93.994,69.792,88.039,69.792z"/>
		<path style="fill:#FFFFFF;" d="M38.743,69.792c-5.956,0-10.536,4.392-10.536,11.684c0,7.292,4.58,11.684,10.536,11.684
			c5.877,0,10.459-4.392,10.459-11.684C49.202,74.184,44.621,69.792,38.743,69.792z"/>
		<path style="fill:#FFFFFF;" d="M63.352,22.271c-31.828,0-57.631,25.802-57.631,57.631s25.803,57.631,57.631,57.631
			c31.829,0,57.632-25.802,57.632-57.631S95.181,22.271,63.352,22.271z M60.883,95.429l-11.376,13.346V97.708
			c-2.977,3.686-7.329,5.489-12.825,5.489c-11.606,0-20.538-8.469-20.538-21.721c0-4.493,1.03-8.434,2.839-11.684
			c2.649-4.758,6.977-8.027,12.217-9.361c1.738-0.442,3.572-0.675,5.482-0.675c5.039,0,9.314,1.646,12.292,5.096V41.408
			l11.909-13.345V95.429z M90.1,103.197c-5.115,0-9.314-1.647-12.368-5.097v22.66l-11.911,13.328V64.543l11.376-13.327v14.029
			c2.977-3.686,7.406-5.489,12.903-5.489c11.528,0,20.461,8.468,20.461,21.72S101.629,103.197,90.1,103.197z"/>
	</g>
	<g>
		<g>
			<path style="fill:#FFFFFF;" d="M539.644,122.661c4.039,0,7.834,1.01,11.388,3.03c3.554,2.02,6.33,4.761,8.324,8.223
				s2.99,7.2,2.99,11.213c0,4.039-1.005,7.816-3.012,11.331c-2.007,3.515-4.739,6.265-8.201,8.241
				c-3.462,1.98-7.279,2.973-11.449,2.973c-6.138,0-11.379-2.186-15.72-6.549c-4.341-4.372-6.509-9.674-6.509-15.917
				c0-6.689,2.452-12.262,7.357-16.721C529.113,124.602,534.058,122.661,539.644,122.661z M539.819,132.773
				c-3.336,0-6.116,1.158-8.332,3.484c-2.221,2.317-3.331,5.29-3.331,8.909c0,3.725,1.097,6.741,3.292,9.049
				c2.19,2.308,4.971,3.462,8.332,3.462c3.362,0,6.164-1.167,8.394-3.502c2.234-2.334,3.353-5.338,3.353-9.01
				s-1.097-6.654-3.292-8.953C546.04,133.923,543.238,132.773,539.819,132.773z"/>
			<path style="fill:#FFFFFF;" d="M570.805,123.763h10.741v44.223c0,4.066-0.402,7.1-1.202,9.11c-0.8,2.002-2.063,3.545-3.795,4.621
				c-1.731,1.075-3.816,1.613-6.256,1.613c-1.928,0-16.695,0-16.695,0l8.669-10.072c1.679,0.813,3.161,1.22,4.446,1.22
				c1.364,0,2.387-0.407,3.069-1.22c0.682-0.813,1.023-2.308,1.023-4.485V123.763z M576.156,106.137
				c1.915,0,3.545,0.682,4.896,2.042s2.028,3.008,2.028,4.944c0,1.906-0.669,3.541-2.007,4.901s-2.938,2.042-4.8,2.042
				c-1.915,0-3.55-0.691-4.901-2.081c-1.351-1.386-2.024-3.06-2.024-5.019c0-1.884,0.66-3.493,1.985-4.826
				C572.659,106.806,574.268,106.137,576.156,106.137z"/>
			<g>
				<g>
					<path style="fill:#FFFFFF;" d="M464.925,123.313c-5.66-0.027-10.228,1.809-13.312,5.589l0.068-14.445l-11.777,13.667
						l-0.339,71.606l12.328-13.664l0.11-23.332c3.128,3.567,7.443,5.283,12.71,5.308c11.87,0.056,21.108-8.62,21.173-22.265
						C485.951,132.132,476.795,123.369,464.925,123.313z M462.64,157.697c-6.132-0.029-10.748-4.573-10.712-12.081
						c0.036-7.508,4.695-12.008,10.826-11.979c6.131,0.029,10.748,4.572,10.712,12.081
						C473.431,153.227,468.771,157.726,462.64,157.697z"/>
				</g>
			</g>
			<g>
				<path style="fill:#FFFFFF;" d="M631.783,148.275l0.039-2.046c0-7.082-2.112-12.778-6.334-17.097
					c-1.701-1.735-3.616-3.105-5.724-4.143c-3.128-1.539-6.695-2.327-10.722-2.327c-6.348,0-11.628,2.16-15.838,6.47
					c-4.21,4.319-6.313,9.74-6.313,16.271c0,6.374,2.111,11.681,6.334,15.913c4.223,4.24,9.692,6.356,16.407,6.356
					c4.328,0,8.066-0.769,11.213-2.299c1.993-0.974,3.786-2.319,5.421-3.957l-6.365-7.396c-2.885,2.806-6.335,4.21-10.348,4.21
					c-3.357,0-6.12-0.896-8.284-2.693c-2.164-1.797-3.493-4.219-3.991-7.261h22.596H631.783z M597.75,139.816
					c1.207-2.65,2.522-4.499,3.939-5.548c2.26-1.679,4.888-2.518,7.882-2.518c2.758,0,5.185,0.747,7.274,2.242
					c1.248,0.895,2.22,1.969,2.976,3.184c0.507,0.814,0.935,1.681,1.221,2.639h-1.208H597.75z"/>
			</g>
			<g>
				<path style="fill:#FFFFFF;" d="M511.633,122.661c-1.967,0-3.777,0.551-5.43,1.652c-1.652,1.102-2.977,2.715-3.974,4.839v-5.39
					h-10.838l0.002,42.807h12.291v-17.312l-0.039-2.085c0-5.98,0.568-9.993,1.709-12.039c1.141-2.046,2.54-3.069,4.192-3.069
					c0.813,0,1.849,0.315,3.108,0.944l6.055-7.036C517.19,125.239,514.867,122.661,511.633,122.661z"/>
			</g>
		</g>
		<g>
			<path style="fill:#FFFFFF;" d="M349.139,57.429c4.039,0,7.834,1.01,11.388,3.03c3.554,2.02,6.33,4.761,8.324,8.223
				c1.993,3.462,2.99,7.2,2.99,11.213c0,4.039-1.005,7.816-3.012,11.331c-2.007,3.515-4.739,6.265-8.201,8.241
				c-3.462,1.98-7.279,2.973-11.449,2.973c-6.138,0-11.379-2.186-15.72-6.549c-4.341-4.372-6.509-9.674-6.509-15.917
				c0-6.689,2.452-12.262,7.357-16.721C338.607,59.37,343.552,57.429,349.139,57.429z M349.314,67.541
				c-3.336,0-6.116,1.158-8.332,3.484c-2.221,2.317-3.331,5.29-3.331,8.909c0,3.725,1.097,6.741,3.292,9.049
				c2.19,2.308,4.971,3.462,8.332,3.462c3.362,0,6.164-1.167,8.394-3.502c2.234-2.334,3.353-5.338,3.353-9.01
				c0-3.672-1.097-6.654-3.292-8.953C355.534,68.691,352.732,67.541,349.314,67.541z"/>
			<path style="fill:#FFFFFF;" d="M487.489,58.531h10.741v42.807h-10.741v-4.525c-2.098,1.993-4.201,3.432-6.308,4.306
				c-2.111,0.879-4.393,1.32-6.859,1.32c-5.526,0-10.308-2.142-14.343-6.435c-4.035-4.284-6.05-9.618-6.05-15.991
				c0-6.61,1.95-12.026,5.854-16.249c3.904-4.223,8.647-6.334,14.225-6.334c2.571,0,4.979,0.485,7.231,1.456
				c2.256,0.97,4.337,2.426,6.251,4.367V58.531z M476.198,67.344c-3.322,0-6.077,1.176-8.275,3.524
				c-2.195,2.348-3.292,5.355-3.292,9.027c0,3.698,1.115,6.741,3.353,9.128c2.234,2.387,4.984,3.58,8.254,3.58
				c3.371,0,6.168-1.172,8.389-3.524c2.225-2.343,3.336-5.421,3.336-9.224c0-3.725-1.11-6.741-3.336-9.049
				C482.405,68.498,479.594,67.344,476.198,67.344z"/>
			<g>
				<path style="fill:#FFFFFF;" d="M242.986,83.043l0.039-2.046c0-7.082-2.111-12.778-6.334-17.097
					c-1.701-1.735-3.616-3.105-5.724-4.143c-3.128-1.539-6.695-2.327-10.722-2.327c-6.348,0-11.629,2.16-15.838,6.47
					c-4.21,4.319-6.313,9.74-6.313,16.271c0,6.374,2.111,11.681,6.334,15.913c4.223,4.241,9.692,6.356,16.407,6.356
					c4.328,0,8.066-0.769,11.213-2.299c1.993-0.974,3.786-2.319,5.421-3.957l-6.365-7.396c-2.885,2.806-6.334,4.21-10.348,4.21
					c-3.357,0-6.12-0.896-8.284-2.693c-2.164-1.797-3.493-4.219-3.991-7.261h22.596H242.986z M208.953,74.584
					c1.207-2.65,2.522-4.499,3.939-5.548c2.26-1.679,4.888-2.518,7.882-2.518c2.758,0,5.185,0.747,7.274,2.242
					c1.248,0.895,2.22,1.969,2.976,3.184c0.507,0.814,0.935,1.681,1.221,2.639h-1.208H208.953z"/>
			</g>
			<g>
				<g>
					<path style="fill:#FFFFFF;" d="M273.75,58.081c-5.66-0.027-10.228,1.809-13.312,5.589l0.068-14.445l-11.778,13.667
						l-0.339,71.606l12.328-13.664l0.11-23.332c3.128,3.567,7.443,5.283,12.71,5.308c11.87,0.056,21.108-8.62,21.173-22.265
						C294.775,66.9,285.619,58.137,273.75,58.081z M271.464,92.465c-6.132-0.029-10.748-4.573-10.712-12.081
						c0.036-7.508,4.695-12.008,10.826-11.979c6.131,0.029,10.748,4.572,10.712,12.081
						C282.255,87.994,277.596,92.494,271.464,92.465z"/>
				</g>
			</g>
			<g>
				<path style="fill:#FFFFFF;" d="M690.32,83.043l0.039-2.046c0-7.082-2.112-12.778-6.334-17.097
					c-1.701-1.735-3.616-3.105-5.724-4.143c-3.128-1.539-6.695-2.327-10.722-2.327c-6.348,0-11.628,2.16-15.838,6.47
					c-4.21,4.319-6.313,9.74-6.313,16.271c0,6.374,2.112,11.681,6.334,15.913c4.223,4.241,9.692,6.356,16.407,6.356
					c4.328,0,8.066-0.769,11.213-2.299c1.993-0.974,3.786-2.319,5.421-3.957l-6.365-7.396c-2.885,2.806-6.334,4.21-10.348,4.21
					c-3.357,0-6.12-0.896-8.284-2.693c-2.164-1.797-3.493-4.219-3.991-7.261h22.596H690.32z M656.287,74.584
					c1.207-2.65,2.522-4.499,3.939-5.548c2.26-1.679,4.888-2.518,7.882-2.518c2.758,0,5.185,0.747,7.274,2.242
					c1.248,0.895,2.22,1.969,2.976,3.184c0.507,0.814,0.935,1.681,1.221,2.639h-1.208H656.287z"/>
			</g>
			<g>
				<path style="fill:#FFFFFF;" d="M410.727,58.531v4.722c-2.203-2.072-4.402-3.559-6.592-4.468c-2.19-0.9-4.516-1.355-6.981-1.355
					c-5.272,0-9.81,1.862-13.613,5.587c-4.197,4.118-6.295,9.574-6.295,16.367c0,6.348,1.98,11.594,5.941,15.738
					c3.961,4.144,8.813,6.216,14.558,6.216c2.623,0,4.97-0.411,7.043-1.241c2.072-0.822,4.052-2.181,5.941-4.07
					c0,3.462-0.363,5.901-1.084,7.318c-0.721,1.416-1.959,2.57-3.716,3.462s-4.079,1.338-6.964,1.338
					c-2.256,0-4.21-0.31-5.862-0.922c-1.652-0.621-3.003-1.53-4.053-2.737l-6.864,7.976c1.853,1.747,4.049,3.117,6.628,4.064
					c2.859,1.05,6.387,1.574,10.584,1.574c7.869,0,13.758-2.308,17.666-6.925c2.911-3.41,4.367-8.735,4.367-15.974V58.531H410.727z
					 M408.029,88.275c-2.164,2.229-4.909,3.344-8.24,3.344c-3.41,0-6.243-1.141-8.498-3.423c-2.256-2.282-3.384-5.207-3.384-8.773
					c0-3.436,1.102-6.287,3.305-8.555c2.203-2.269,4.997-3.405,8.38-3.405c3.436,0,6.243,1.115,8.42,3.344
					c2.177,2.23,3.266,5.128,3.266,8.696C411.277,83.121,410.193,86.046,408.029,88.275z"/>
			</g>
			<g>
				<path style="fill:#FFFFFF;" d="M638.547,65.102c-1.01-2.282-2.671-4.131-4.979-5.548c-2.313-1.417-4.988-2.125-8.035-2.125
					c-2.938,0-5.648,0.656-8.131,1.967c-2.479,1.311-4.573,3.226-6.278,5.744c-1.312-2.518-3.047-4.433-5.198-5.744
					c-2.151-1.311-4.568-1.967-7.244-1.967c-2.654,0-5.097,0.498-7.344,1.495c-2.243,0.997-4.284,2.505-6.12,4.525v-4.918h-10.741
					v42.807h10.741V82.295c0-4.118,0.358-7.135,1.084-9.05c0.721-1.915,1.814-3.401,3.274-4.468c1.455-1.058,3.082-1.591,4.87-1.591
					c1.604,0,2.968,0.42,4.101,1.259s1.976,2.12,2.544,3.839c0.564,1.718,0.848,4.489,0.848,8.319v20.734h10.82V82.019
					c0-4.092,0.354-7.06,1.062-8.914c0.708-1.845,1.788-3.296,3.244-4.345c1.456-1.049,3.104-1.574,4.94-1.574
					c2.413,0,4.223,0.861,5.43,2.58c1.206,1.718,1.81,5.001,1.81,9.853v21.718h10.82V76.236
					C640.063,71.095,639.556,67.383,638.547,65.102z"/>
			</g>
			<g>
				<path style="fill:#FFFFFF;" d="M567.665,65.102c-1.01-2.282-2.671-4.131-4.979-5.548c-2.313-1.417-4.988-2.125-8.035-2.125
					c-2.938,0-5.648,0.656-8.131,1.967c-2.479,1.311-4.573,3.226-6.278,5.744c-1.312-2.518-3.047-4.433-5.198-5.744
					c-2.151-1.311-4.568-1.967-7.244-1.967c-2.654,0-5.097,0.498-7.344,1.495c-2.243,0.997-4.284,2.505-6.12,4.525v-4.918h-10.741
					v42.807h10.741V82.295c0-4.118,0.358-7.135,1.084-9.05c0.721-1.915,1.814-3.401,3.274-4.468c1.455-1.058,3.082-1.591,4.87-1.591
					c1.604,0,2.968,0.42,4.101,1.259s1.976,2.12,2.544,3.839c0.564,1.718,0.848,4.489,0.848,8.319v20.734h10.82V82.019
					c0-4.092,0.354-7.06,1.062-8.914c0.708-1.845,1.788-3.296,3.244-4.345c1.456-1.049,3.104-1.574,4.94-1.574
					c2.413,0,4.223,0.861,5.43,2.58c1.206,1.718,1.81,5.001,1.81,9.853v21.718h10.82V76.236
					C569.182,71.095,568.675,67.383,567.665,65.102z"/>
			</g>
			<g>
				<path style="fill:#FFFFFF;" d="M321.715,57.429c-1.967,0-3.777,0.551-5.43,1.652c-1.652,1.102-2.977,2.715-3.974,4.839v-5.39
					h-10.838l0.002,42.807h12.291V84.026l-0.039-2.085c0-5.98,0.568-9.993,1.709-12.039c1.141-2.046,2.54-3.069,4.192-3.069
					c0.813,0,1.849,0.315,3.108,0.944l6.055-7.036C327.272,60.007,324.949,57.429,321.715,57.429z"/>
			</g>
			<g>
				<path style="fill:#FFFFFF;" d="M447.822,57.429c-1.967,0-3.777,0.551-5.43,1.652c-1.652,1.102-2.977,2.715-3.974,4.839v-5.39
					h-10.838l0.002,42.807h12.291V84.026l-0.039-2.085c0-5.98,0.568-9.993,1.709-12.039c1.141-2.046,2.54-3.069,4.192-3.069
					c0.813,0,1.849,0.315,3.108,0.944l6.055-7.036C453.379,60.007,451.056,57.429,447.822,57.429z"/>
			</g>
			<g>
				<g>
					<g>
						<path style="fill:#FFFFFF;" d="M180.401,38.989l-0.114,24.139c-3.049-3.567-7.443-5.283-12.631-5.308
							c-1.966-0.009-3.856,0.222-5.647,0.669c-5.402,1.348-9.873,4.693-12.625,9.579c-1.879,3.337-2.958,7.39-2.98,12.016
							c-0.065,13.645,9.091,22.408,21.04,22.464c5.66,0.027,10.149-1.809,13.233-5.589l-0.054,11.395l11.778-13.686l0.328-69.363
							L180.401,38.989z M169.615,92.225c-6.132-0.029-10.827-4.573-10.791-12.081c0.036-7.508,4.773-12.007,10.905-11.978
							c6.053,0.029,10.748,4.572,10.712,12.081C180.406,87.754,175.668,92.253,169.615,92.225z"/>
					</g>
				</g>
			</g>
		</g>
		<path style="fill:#FFFFFF;" d="M715.2,57.429c-1.967,0-3.777,0.551-5.43,1.652c-1.652,1.102-2.977,2.715-3.974,4.839v-5.39
			h-10.838l0.002,42.807h0v5.037v17.389H679.99l-7.957,9.246h22.928v33.561h12.292v-29.292v-4.269h-5.644h-2.313l7.957-9.246
			v-18.156v-4.269V84.026l-0.039-2.085c0-5.98,0.568-9.993,1.709-12.039c1.141-2.046,2.54-3.069,4.192-3.069
			c0.813,0,1.849,0.315,3.108,0.944l6.055-7.036C720.757,60.007,718.434,57.429,715.2,57.429z"/>
		<g>
			<path style="fill:#FFFFFF;" d="M672.229,152.917c-2.675,3.279-6.417,4.918-11.226,4.918c-3.886,0-7.025-1.154-9.412-3.458
				c-2.391-2.304-3.585-5.277-3.585-8.918c0-3.742,1.242-6.816,3.72-9.211c2.483-2.396,5.731-3.594,9.749-3.594
				c1.261,0,2.425,0.115,3.501,0.337l7.051-8.193c-3.171-1.422-6.704-2.138-10.604-2.138c-4.59,0-8.743,0.997-12.455,2.99
				c-3.712,1.994-6.601,4.735-8.673,8.223c-2.072,3.489-3.108,7.305-3.108,11.45c0,5.98,2.129,11.2,6.391,15.659
				c4.262,4.459,10.16,6.689,17.688,6.689c7.361,0,13.257-2.316,17.695-6.934L672.229,152.917z"/>
		</g>
	</g>
</g>
</svg>
