<?xml version="1.0" encoding="utf-8"?>
<!-- Generator: Adobe Illustrator 17.0.0, SVG Export Plug-In . SVG Version: 6.00 Build 0)  -->
<!DOCTYPE svg PUBLIC "-//W3C//DTD SVG 1.1//EN" "http://www.w3.org/Graphics/SVG/1.1/DTD/svg11.dtd">
<svg version="1.1" id="Layer_1" xmlns="http://www.w3.org/2000/svg" xmlns:xlink="http://www.w3.org/1999/xlink" x="0px" y="0px"
	 width="590.889px" height="54.316px" viewBox="20.344 12 590.889 54.316" enable-background="new 20.344 12 590.889 54.316"
	 xml:space="preserve">
<g>
	<path fill="#FFFFFF" d="M20.344,13.301h11.662c7.517,0,13.102,0.932,16.754,2.795c3.653,1.863,6.662,4.893,9.028,9.088
		c2.365,4.196,3.548,9.094,3.548,14.695c0,3.985-0.662,7.646-1.985,10.986c-1.323,3.34-3.149,6.112-5.48,8.314
		c-2.33,2.203-4.853,3.727-7.569,4.57s-7.423,1.266-14.12,1.266H20.344V13.301z M30.117,22.793v32.625h4.57
		c4.5,0,7.764-0.516,9.791-1.548c2.027-1.032,3.686-2.769,4.975-5.209c1.289-2.44,1.934-5.443,1.934-9.01
		c0-5.49-1.535-9.749-4.605-12.775c-2.766-2.721-7.207-4.083-13.324-4.083H30.117z"/>
	<path fill="#FFFFFF" d="M102.504,52.324l4.148,2.18c-1.361,2.672-2.932,4.829-4.715,6.469c-1.783,1.641-3.789,2.889-6.017,3.744
		C93.691,65.572,91.169,66,88.354,66c-6.24,0-11.119-2.044-14.638-6.135c-3.519-4.09-5.278-8.713-5.278-13.869
		c0-4.852,1.489-9.176,4.469-12.973c3.776-4.828,8.832-7.242,15.166-7.242c6.521,0,11.729,2.473,15.623,7.418
		c2.768,3.493,4.175,7.852,4.223,13.078H73.5c0.093,4.443,1.513,8.085,4.259,10.926c2.746,2.841,6.137,4.262,10.173,4.262
		c1.947,0,3.842-0.338,5.685-1.016c1.842-0.677,3.408-1.576,4.699-2.697C99.606,56.632,101.002,54.822,102.504,52.324z
		 M102.504,42.023c-0.657-2.625-1.613-4.723-2.869-6.293c-1.256-1.57-2.916-2.835-4.98-3.797c-2.065-0.961-4.236-1.441-6.512-1.441
		c-3.755,0-6.982,1.208-9.68,3.621c-1.971,1.758-3.461,4.395-4.47,7.91H102.504z"/>
	<path fill="#FFFFFF" d="M117.481,13.301h10.441c5.648,0,9.721,0.522,12.217,1.564c2.496,1.043,4.465,2.73,5.906,5.062
		c1.441,2.333,2.162,5.127,2.162,8.385c0,3.609-0.944,6.609-2.83,9c-1.887,2.391-4.447,4.055-7.682,4.992
		c-1.898,0.54-5.356,0.809-10.371,0.809v21.902h-9.844V13.301z M127.324,33.516h3.129c2.461,0,4.171-0.176,5.133-0.529
		c0.961-0.353,1.717-0.935,2.268-1.746c0.55-0.811,0.826-1.793,0.826-2.945c0-1.999-0.773-3.457-2.32-4.374
		c-1.125-0.682-3.211-1.023-6.258-1.023h-2.777V33.516z"/>
	<path fill="#FFFFFF" d="M158.508,13.301h10.429c5.712,0,9.78,0.51,12.203,1.529s4.372,2.713,5.847,5.08
		c1.475,2.368,2.213,5.168,2.213,8.402c0,3.398-0.814,6.24-2.443,8.525s-4.083,4.014-7.364,5.186l12.251,22.992h-10.761
		l-11.629-21.902h-0.901v21.902h-9.844V13.301z M168.352,33.516h3.084c3.13,0,5.286-0.412,6.466-1.234
		c1.18-0.823,1.77-2.187,1.77-4.092c0-1.128-0.292-2.11-0.876-2.945c-0.584-0.835-1.367-1.434-2.349-1.799
		c-0.981-0.364-2.78-0.547-5.397-0.547h-2.699V33.516z"/>
	<path fill="#FFFFFF" d="M217.289,25.781c5.893,0,10.776,2.133,14.651,6.398c3.521,3.891,5.283,8.496,5.283,13.816
		c0,5.344-1.861,10.014-5.582,14.01C227.919,64.002,223.135,66,217.289,66c-5.87,0-10.666-1.998-14.387-5.994
		c-3.722-3.996-5.582-8.666-5.582-14.01c0-5.296,1.761-9.891,5.283-13.781C206.477,27.926,211.373,25.781,217.289,25.781z
		 M217.272,30.598c-4.092,0-7.609,1.512-10.549,4.535c-2.94,3.023-4.41,6.68-4.41,10.969c0,2.766,0.67,5.344,2.011,7.734
		c1.34,2.391,3.151,4.236,5.433,5.537c2.281,1.301,4.786,1.951,7.515,1.951c2.728,0,5.233-0.65,7.515-1.951
		c2.281-1.301,4.092-3.146,5.433-5.537c1.34-2.391,2.012-4.969,2.012-7.734c0-4.289-1.477-7.945-4.429-10.969
		C224.851,32.109,221.341,30.598,217.272,30.598z"/>
	<path fill="#FFFFFF" d="M294.493,21.738l-6.932,6.855c-4.387-4.641-9.501-6.961-15.342-6.961c-5.091,0-9.354,1.688-12.791,5.062
		c-3.436,3.375-5.154,7.477-5.154,12.305c0,4.992,1.783,9.223,5.35,12.691c3.565,3.469,7.965,5.203,13.197,5.203
		c3.402,0,6.271-0.715,8.605-2.145c2.334-1.429,4.217-3.668,5.648-6.715h-14.977v-9.246h26.016l0.07,2.18
		c0,4.523-1.172,8.812-3.516,12.867c-2.344,4.055-5.379,7.149-9.105,9.281s-8.098,3.199-13.113,3.199
		c-5.367,0-10.154-1.166-14.361-3.498s-7.535-5.654-9.984-9.967c-2.449-4.312-3.674-8.965-3.674-13.957
		c0-6.843,2.262-12.797,6.785-17.859C256.583,15.012,263.567,12,272.169,12c4.5,0,8.707,0.832,12.621,2.496
		C288.095,15.902,291.329,18.316,294.493,21.738z"/>
	<path fill="#FFFFFF" d="M307.887,13.301h10.43c5.711,0,9.779,0.51,12.202,1.529s4.372,2.713,5.847,5.08
		c1.476,2.368,2.213,5.168,2.213,8.402c0,3.398-0.814,6.24-2.443,8.525s-4.084,4.014-7.364,5.186l12.251,22.992h-10.761
		l-11.63-21.902h-0.9v21.902h-9.844V13.301z M317.731,33.516h3.084c3.131,0,5.286-0.412,6.467-1.234
		c1.18-0.823,1.77-2.187,1.77-4.092c0-1.128-0.292-2.11-0.876-2.945c-0.585-0.835-1.367-1.434-2.349-1.799
		c-0.98-0.364-2.78-0.547-5.396-0.547h-2.699V33.516z"/>
	<path fill="#FFFFFF" d="M386.673,26.766v38.25h-4.852v-6.574c-2.062,2.508-4.377,4.395-6.943,5.66S369.505,66,366.458,66
		c-5.414,0-10.037-1.963-13.869-5.889c-3.832-3.925-5.748-8.701-5.748-14.326c0-5.507,1.934-10.218,5.801-14.133
		c3.867-3.914,8.52-5.871,13.957-5.871c3.141,0,5.982,0.668,8.525,2.004s4.775,3.34,6.697,6.012v-7.031H386.673z M367.003,30.527
		c-2.739,0-5.268,0.673-7.585,2.02c-2.318,1.346-4.161,3.237-5.531,5.671c-1.369,2.435-2.054,5.01-2.054,7.725
		c0,2.693,0.69,5.268,2.071,7.726c1.381,2.458,3.236,4.372,5.565,5.741c2.329,1.37,4.829,2.055,7.498,2.055
		c2.692,0,5.244-0.679,7.655-2.037c2.411-1.357,4.266-3.195,5.565-5.513s1.949-4.928,1.949-7.831c0-4.424-1.457-8.123-4.372-11.097
		C374.85,32.014,371.263,30.527,367.003,30.527z"/>
	<path fill="#FFFFFF" d="M403.185,13.301h9.591l11.988,36.07l12.097-36.07h9.585l8.676,51.715h-9.52l-5.545-32.66l-10.986,32.66
		h-8.676l-10.889-32.66l-5.678,32.66h-9.597L403.185,13.301z"/>
	<path fill="#FFFFFF" d="M461.836,26.766h9.598v4.395c1.642-1.805,3.465-3.152,5.471-4.043c2.005-0.891,4.192-1.336,6.562-1.336
		c2.392,0,4.55,0.586,6.474,1.758c1.923,1.172,3.471,2.883,4.644,5.133c1.524-2.25,3.395-3.96,5.611-5.133
		c2.216-1.172,4.639-1.758,7.265-1.758c2.721,0,5.113,0.633,7.178,1.898c2.063,1.266,3.547,2.918,4.45,4.957
		s1.354,5.356,1.354,9.949v22.43h-9.668V45.609c0-4.336-0.539-7.271-1.617-8.807c-1.078-1.535-2.695-2.303-4.852-2.303
		c-1.641,0-3.111,0.469-4.412,1.406c-1.301,0.938-2.268,2.232-2.9,3.885s-0.949,4.307-0.949,7.963v17.262h-9.668V46.488
		c0-3.422-0.253-5.9-0.758-7.436c-0.505-1.535-1.263-2.677-2.272-3.428c-1.011-0.75-2.232-1.125-3.665-1.125
		c-1.598,0-3.049,0.475-4.353,1.424s-2.278,2.28-2.925,3.99c-0.646,1.711-0.969,4.407-0.969,8.086v17.016h-9.598V26.766z"/>
	<path fill="#FFFFFF" d="M562.418,52.324l4.148,2.18c-1.36,2.672-2.933,4.829-4.715,6.469c-1.783,1.641-3.789,2.889-6.018,3.744
		c-2.229,0.855-4.751,1.283-7.565,1.283c-6.24,0-11.12-2.044-14.639-6.135c-3.519-4.09-5.278-8.713-5.278-13.869
		c0-4.852,1.489-9.176,4.469-12.973c3.776-4.828,8.832-7.242,15.166-7.242c6.521,0,11.729,2.473,15.623,7.418
		c2.768,3.493,4.176,7.852,4.223,13.078h-34.418c0.094,4.443,1.514,8.085,4.259,10.926c2.745,2.841,6.137,4.262,10.173,4.262
		c1.947,0,3.842-0.338,5.685-1.016c1.842-0.677,3.407-1.576,4.698-2.697S560.916,54.822,562.418,52.324z M562.418,42.023
		c-0.657-2.625-1.613-4.723-2.869-6.293c-1.256-1.57-2.916-2.835-4.98-3.797c-2.065-0.961-4.236-1.441-6.512-1.441
		c-3.755,0-6.981,1.208-9.68,3.621c-1.972,1.758-3.462,4.395-4.471,7.91H562.418z"/>
	<path fill="#FFFFFF" d="M578.098,13.301h10.43c5.711,0,9.779,0.51,12.202,1.529s4.372,2.713,5.847,5.08
		c1.476,2.368,2.213,5.168,2.213,8.402c0,3.398-0.814,6.24-2.443,8.525s-4.084,4.014-7.364,5.186l12.251,22.992h-10.761
		l-11.63-21.902h-0.9v21.902h-9.844V13.301z M587.942,33.516h3.084c3.131,0,5.286-0.412,6.467-1.234
		c1.18-0.823,1.77-2.187,1.77-4.092c0-1.128-0.292-2.11-0.876-2.945c-0.585-0.835-1.367-1.434-2.349-1.799
		c-0.98-0.364-2.78-0.547-5.396-0.547h-2.699V33.516z"/>
</g>
<text transform="matrix(1 0 0 1 -651.5691 379.9434)"><tspan x="0" y="0" font-family="'CenturyGothic-Bold'" font-size="72">D</tspan><tspan x="50.414" y="0" font-family="'CenturyGothic'" font-size="72">e</tspan><tspan x="97.207" y="0" font-family="'CenturyGothic-Bold'" font-size="72">PR</tspan><tspan x="179.297" y="0" font-family="'CenturyGothic'" font-size="72">o</tspan><tspan x="226.442" y="0" font-family="'CenturyGothic-Bold'" font-size="72">GR</tspan><tspan x="328.676" y="0" font-family="'CenturyGothic'" font-size="72">a</tspan><tspan x="377.86" y="0" font-family="'CenturyGothic-Bold'" font-size="72">Mm</tspan><tspan x="510.329" y="0" font-family="'CenturyGothic'" font-size="72">e</tspan><tspan x="557.122" y="0" font-family="'CenturyGothic-Bold'" font-size="72">R</tspan></text>
<text transform="matrix(1 0 0 1 -644.1249 245.5147)" font-family="'CenturyGothic'" font-size="72">Deprogrammer</text>
</svg>
