<?xml version="1.0" encoding="utf-8"?>
<!-- Generator: Adobe Illustrator 17.0.0, SVG Export Plug-In . SVG Version: 6.00 Build 0)  -->
<!DOCTYPE svg PUBLIC "-//W3C//DTD SVG 1.1//EN" "http://www.w3.org/Graphics/SVG/1.1/DTD/svg11.dtd">
<svg version="1.1" xmlns="http://www.w3.org/2000/svg" xmlns:xlink="http://www.w3.org/1999/xlink" x="0px" y="0px" width="729px"
	 height="222px" viewBox="0 0 729 222" enable-background="new 0 0 729 222" xml:space="preserve">
<g id="Layer_1">
	<g>
		<g opacity="0.75">
			<path d="M29.115,61.27H1v68.52h28.115c21.444,0,36.026-13.899,36.026-34.26S50.56,61.27,29.115,61.27z M28.544,121.273H10.531
				V69.785h18.013c16.488,0,27.067,10.376,27.067,25.744S45.032,121.273,28.544,121.273z"/>
			<path d="M99.066,77.421c-14.582,0-25.352,11.061-25.352,26.429c0,15.466,10.865,26.526,27.162,26.526
				c8.387,0,15.345-2.937,19.919-8.418l-5.051-6.068c-3.717,4.209-8.673,6.265-14.582,6.265c-10.007,0-17.155-6.069-18.299-15.173
				h40.981c0.096-0.881,0.19-2.056,0.19-2.838C124.036,88.188,113.648,77.421,99.066,77.421z M82.864,100.228
				c0.953-8.81,7.434-14.878,16.202-14.878c8.863,0,15.249,6.166,16.202,14.878H82.864z"/>
			<path d="M210.856,103.947c0-11.354,6.1-17.521,15.916-17.521c0.667,0,1.335,0,2.097,0.098v-9.103
				c-8.863,0-15.153,3.132-18.394,9.201V77.91h-8.769v51.879h9.149V103.947z"/>
			<path d="M261.271,130.376c15.153,0,26.209-11.061,26.209-26.526s-11.056-26.429-26.209-26.429
				c-15.154,0-26.305,10.963-26.305,26.429S246.117,130.376,261.271,130.376z M261.271,85.643c9.721,0,16.965,7.146,16.965,18.207
				c0,11.061-7.244,18.305-16.965,18.305c-9.722,0-17.06-7.244-17.06-18.305C244.212,92.788,251.55,85.643,261.271,85.643z"/>
			<path d="M348.475,122.741V77.91h-8.673v8.026c-4.289-5.678-11.15-8.516-18.68-8.516c-14.582,0-25.638,10.082-25.638,25.059
				c0,14.976,11.056,25.156,25.638,25.156c7.243,0,13.819-2.643,18.203-8.026v4.11c0,11.747-5.433,17.424-17.346,17.424
				c-4.258,0-8.484-0.867-12.196-2.38l-0.005,8.93h-9.144v56.258c0,5.971-2.669,9.104-7.529,9.104c-2.954,0-5.623-0.881-7.434-2.447
				l0.004,8.974c2.334,0.955,5.168,1.401,8.002,1.401c10.388,0,16.106-6.656,16.106-17.228v-56.062
				c3.924,1.108,8.213,1.671,12.481,1.671C339.421,149.366,348.475,141.046,348.475,122.741z M322.17,119.413
				c-10.197,0-17.44-6.949-17.44-16.934c0-10.083,7.243-16.837,17.44-16.837c10.103,0,17.346,6.754,17.346,16.837
				C339.516,112.464,332.272,119.413,322.17,119.413z"/>
			<path d="M368.062,103.947c0-11.354,6.1-17.521,15.916-17.521c0.667,0,1.335,0,2.097,0.098v-9.103
				c-8.863,0-15.153,3.132-18.394,9.201V77.91h-8.769v51.879h9.149V103.947z"/>
			<path d="M440.967,129.789V98.466c0-14.193-7.814-21.045-21.634-21.045c-8.102,0-15.631,2.349-20.872,6.656l3.812,7.047
				c3.908-3.426,10.008-5.579,16.012-5.579c9.055,0,13.533,4.601,13.533,12.529v1.86h-14.486c-15.059,0-20.3,6.852-20.3,15.172
				c0,9.005,7.243,15.27,18.68,15.27c7.91,0,13.533-2.74,16.583-7.438v6.852H440.967z M431.102,113.932
				c-2.287,5.971-7.72,9.201-14.581,9.201c-6.958,0-11.151-3.23-11.151-8.418c0-4.405,2.573-8.026,11.628-8.026h14.104V113.932z"/>
			<path d="M513.305,77.421c-8.578,0-15.631,3.72-19.442,9.593c-3.336-6.461-9.817-9.593-17.537-9.593
				c-7.624,0-13.819,2.937-17.44,8.222V77.91h-8.769v60.264h9.149v-35.107c0-11.257,6.004-17.228,15.153-17.228
				c8.292,0,13.058,4.992,13.058,15.172v28.778h9.149v-26.723c0-11.257,6.004-17.228,15.153-17.228
				c8.292,0,13.058,4.992,13.058,15.172v28.778h9.149V99.935C533.986,84.664,525.599,77.421,513.305,77.421z"/>
			<path d="M606.136,77.421c-8.578,0-15.631,3.72-19.442,9.593c-3.336-6.461-9.817-9.593-17.537-9.593
				c-7.624,0-13.819,2.937-17.44,8.222V77.91h-8.769v51.879h9.149v-26.723c0-11.257,6.004-17.228,15.153-17.228
				c8.292,0,13.058,4.992,13.058,15.172v28.778h9.149v-26.723c0-11.257,6.004-17.228,15.153-17.228
				c8.292,0,13.058,4.992,13.058,15.172v28.778h9.149V99.935C626.817,84.664,618.43,77.421,606.136,77.421z"/>
			<path d="M661.648,77.421c-14.582,0-25.352,11.061-25.352,26.429c0,15.466,10.865,26.526,27.162,26.526
				c8.387,0,15.345-2.937,19.919-8.418l-5.051-6.068c-3.717,4.209-8.673,6.265-14.582,6.265c-10.007,0-17.155-6.069-18.299-15.173
				h40.981c0.096-0.881,0.19-2.056,0.19-2.838C686.618,88.188,676.23,77.421,661.648,77.421z M645.446,100.228
				c0.953-8.81,7.434-14.878,16.202-14.878c8.863,0,15.249,6.166,16.202,14.878H645.446z"/>
			<path d="M706.061,86.622V77.91h-8.769v51.879h9.149v-25.842c0-11.354,6.1-17.521,15.916-17.521c0.667,0,4.334,0,5.097,0.098
				v-9.103C718.591,77.421,709.301,80.553,706.061,86.622z"/>
			<path d="M162.067,132.888h-16.492v-23.851h16.487c17.346,0,27.83-9.005,27.83-23.884c0-14.878-10.484-23.884-27.83-23.884
				h-26.019v140.138h0.005h9.526h0.005v-20.752h16.487c17.347,0,27.83-9.005,27.83-23.884
				C189.897,141.894,179.414,132.888,162.067,132.888z M145.575,69.785h16.202c12.199,0,18.584,5.58,18.584,15.368
				c0,9.789-6.385,15.368-18.584,15.368h-16.202V69.785z M161.782,172.14H145.58v-30.736h16.202c12.199,0,18.584,5.58,18.584,15.368
				C180.366,166.561,173.981,172.14,161.782,172.14z"/>
			<path d="M210.48,158.24v-8.712h-8.769v51.879h9.149v-25.842c0-11.354,6.1-17.521,15.916-17.521c0.667,0,1.334,0,2.097,0.098
				v-9.103C220.011,149.039,213.721,152.171,210.48,158.24z"/>
			<path d="M261.276,149.039c-15.154,0-26.305,10.963-26.305,26.429s11.15,26.526,26.305,26.526
				c15.153,0,26.209-11.061,26.209-26.526S276.43,149.039,261.276,149.039z M261.276,193.772c-9.722,0-17.06-7.244-17.06-18.305
				c0-11.062,7.338-18.207,17.06-18.207c9.721,0,16.964,7.146,16.964,18.207C278.24,186.528,270.997,193.772,261.276,193.772z"/>
			<path d="M347.905,149.039c-14.582,0-25.352,11.061-25.352,26.429c0,15.466,10.865,26.526,27.162,26.526
				c8.387,0,15.345-2.937,19.919-8.418l-5.051-6.068c-3.717,4.209-8.673,6.265-14.582,6.265c-10.007,0-17.155-6.069-18.299-15.173
				h40.981c0.096-0.881,0.19-2.056,0.19-2.838C372.875,159.806,362.487,149.039,347.905,149.039z M331.703,171.846
				c0.953-8.81,7.434-14.878,16.202-14.878c8.863,0,15.249,6.166,16.202,14.878H331.703z"/>
			<path d="M406.471,157.261c5.527,0,10.483,2.35,13.724,7.439l6.957-4.601c-4.003-7.243-11.531-11.061-20.586-11.061
				c-15.535,0-26.686,10.963-26.686,26.429s11.15,26.526,26.686,26.526c9.055,0,16.583-3.915,20.586-11.158l-6.957-4.503
				c-3.24,5.09-8.196,7.439-13.724,7.439c-9.912,0-17.346-7.048-17.346-18.305C389.125,164.406,396.559,157.261,406.471,157.261z"/>
			<path d="M440.967,149.528h-8.577v7.732h8.577v28.484c0,10.475,5.814,16.249,16.012,16.249c4.099,0,8.292-1.174,11.056-3.621
				l-2.859-6.754c-1.906,1.565-4.479,2.446-7.147,2.446c-5.052,0-7.911-3.132-7.911-8.711v-28.094h14.487v-7.732h-14.487v-11.354
				h-9.149V149.528z"/>
			<path d="M118.966,49.456c-3.749,0-5.871-2.325-5.871-6.466v-20.85h10.752v-5.739h-10.752V7.975h-6.791v8.427h-6.366v5.739h6.366
				v21.14c0,7.773,4.315,12.06,11.884,12.06c3.042,0,6.155-0.871,8.206-2.688l-2.122-5.013
				C122.856,48.802,120.946,49.456,118.966,49.456z"/>
			<path d="M141.391,35.071c0-8.354,4.669-12.785,11.884-12.785c6.438,0,10.116,3.705,10.116,11.26v21.358h6.791V32.747
				c0-11.333-6.438-16.709-15.562-16.709c-5.73,0-10.399,2.106-13.229,5.812V1H134.6v53.904h6.791V35.071z"/>
			<path d="M214.464,49.093l-3.749-4.504c-2.759,3.123-6.437,4.649-10.823,4.649c-7.428,0-12.732-4.505-13.582-11.261h30.418
				c0.071-0.654,0.142-1.525,0.142-2.106c0-11.842-7.71-19.833-18.533-19.833s-18.817,8.209-18.817,19.614
				c0,11.479,8.064,19.688,20.161,19.688C205.905,55.34,211.069,53.161,214.464,49.093z M198.336,21.923
				c6.578,0,11.318,4.576,12.025,11.042H186.31C187.018,26.427,191.827,21.923,198.336,21.923z"/>
		</g>
		<g>
			<g>
				<path fill="#00FFFF" d="M28.115,60.27H0v68.52h28.115c21.444,0,36.026-13.899,36.026-34.26S49.56,60.27,28.115,60.27z
					 M27.544,120.273H9.531V68.785h18.013c16.488,0,27.067,10.376,27.067,25.744S44.032,120.273,27.544,120.273z"/>
				<path fill="#00FFFF" d="M98.066,76.421c-14.582,0-25.352,11.061-25.352,26.429c0,15.466,10.865,26.526,27.162,26.526
					c8.387,0,15.345-2.937,19.919-8.418l-5.051-6.068c-3.717,4.209-8.673,6.265-14.582,6.265c-10.007,0-17.155-6.069-18.299-15.173
					h40.981c0.096-0.881,0.19-2.056,0.19-2.838C123.036,87.188,112.648,76.421,98.066,76.421z M81.864,99.228
					c0.953-8.81,7.434-14.878,16.202-14.878c8.863,0,15.249,6.166,16.202,14.878H81.864z"/>
				<path fill="#00FFFF" d="M209.856,102.947c0-11.354,6.1-17.521,15.916-17.521c0.667,0,1.335,0,2.097,0.098v-9.103
					c-8.863,0-15.153,3.132-18.394,9.201V76.91h-8.769v51.879h9.149V102.947z"/>
				<path fill="#00FFFF" d="M260.271,129.376c15.153,0,26.209-11.061,26.209-26.526s-11.056-26.429-26.209-26.429
					c-15.154,0-26.305,10.963-26.305,26.429S245.117,129.376,260.271,129.376z M260.271,84.643c9.721,0,16.965,7.146,16.965,18.207
					c0,11.061-7.244,18.305-16.965,18.305c-9.722,0-17.06-7.244-17.06-18.305C243.212,91.788,250.55,84.643,260.271,84.643z"/>
				<path fill="#00FFFF" d="M347.475,121.741V76.91h-8.673v8.026c-4.289-5.678-11.15-8.516-18.68-8.516
					c-14.582,0-25.638,10.082-25.638,25.059c0,14.976,11.056,25.156,25.638,25.156c7.243,0,13.819-2.643,18.203-8.026v4.11
					c0,11.747-5.433,17.424-17.346,17.424c-4.258,0-8.484-0.867-12.196-2.38l-0.005,8.93h-9.144v56.258
					c0,5.971-2.669,9.104-7.529,9.104c-2.954,0-5.623-0.881-7.434-2.447l0.004,8.974c2.334,0.955,5.168,1.401,8.002,1.401
					c10.388,0,16.106-6.656,16.106-17.228v-56.062c3.924,1.108,8.213,1.671,12.481,1.671
					C338.421,148.366,347.475,140.046,347.475,121.741z M321.17,118.413c-10.197,0-17.44-6.949-17.44-16.934
					c0-10.083,7.243-16.837,17.44-16.837c10.103,0,17.346,6.754,17.346,16.837C338.516,111.464,331.272,118.413,321.17,118.413z"/>
				<path fill="#00FFFF" d="M367.062,102.947c0-11.354,6.1-17.521,15.916-17.521c0.667,0,1.335,0,2.097,0.098v-9.103
					c-8.863,0-15.153,3.132-18.394,9.201V76.91h-8.769v51.879h9.149V102.947z"/>
				<path fill="#00FFFF" d="M439.967,128.789V97.466c0-14.193-7.814-21.045-21.634-21.045c-8.102,0-15.631,2.349-20.872,6.656
					l3.812,7.047c3.908-3.426,10.008-5.579,16.012-5.579c9.055,0,13.533,4.601,13.533,12.529v1.86h-14.486
					c-15.059,0-20.3,6.852-20.3,15.172c0,9.005,7.243,15.27,18.68,15.27c7.91,0,13.533-2.74,16.583-7.438v6.852H439.967z
					 M430.102,112.932c-2.287,5.971-7.72,9.201-14.581,9.201c-6.958,0-11.151-3.23-11.151-8.418c0-4.405,2.573-8.026,11.628-8.026
					h14.104V112.932z"/>
				<path fill="#00FFFF" d="M512.305,76.421c-8.578,0-15.631,3.72-19.442,9.593c-3.336-6.461-9.817-9.593-17.537-9.593
					c-7.624,0-13.819,2.937-17.44,8.222V76.91h-8.769v60.264h9.149v-35.107c0-11.257,6.004-17.228,15.153-17.228
					c8.292,0,13.058,4.992,13.058,15.172v28.778h9.149v-26.723c0-11.257,6.004-17.228,15.153-17.228
					c8.292,0,13.058,4.992,13.058,15.172v28.778h9.149V98.935C532.986,83.664,524.599,76.421,512.305,76.421z"/>
				<path fill="#00FFFF" d="M605.136,76.421c-8.578,0-15.631,3.72-19.442,9.593c-3.336-6.461-9.817-9.593-17.537-9.593
					c-7.624,0-13.819,2.937-17.44,8.222V76.91h-8.769v51.879h9.149v-26.723c0-11.257,6.004-17.228,15.153-17.228
					c8.292,0,13.058,4.992,13.058,15.172v28.778h9.149v-26.723c0-11.257,6.004-17.228,15.153-17.228
					c8.292,0,13.058,4.992,13.058,15.172v28.778h9.149V98.935C625.817,83.664,617.43,76.421,605.136,76.421z"/>
				<path fill="#00FFFF" d="M660.648,76.421c-14.582,0-25.352,11.061-25.352,26.429c0,15.466,10.865,26.526,27.162,26.526
					c8.387,0,15.345-2.937,19.919-8.418l-5.051-6.068c-3.717,4.209-8.673,6.265-14.582,6.265c-10.007,0-17.155-6.069-18.299-15.173
					h40.981c0.096-0.881,0.19-2.056,0.19-2.838C685.618,87.188,675.23,76.421,660.648,76.421z M644.446,99.228
					c0.953-8.81,7.434-14.878,16.202-14.878c8.863,0,15.249,6.166,16.202,14.878H644.446z"/>
				<path fill="#00FFFF" d="M705.061,85.622V76.91h-8.769v51.879h9.149v-25.842c0-11.354,6.1-17.521,15.916-17.521
					c0.667,0,4.334,0,5.097,0.098v-9.103C717.591,76.421,708.301,79.553,705.061,85.622z"/>
				<path fill="#00FFFF" d="M161.067,131.888h-16.492v-23.851h16.487c17.346,0,27.83-9.005,27.83-23.884
					c0-14.878-10.484-23.884-27.83-23.884h-26.019v140.138h0.005h9.526h0.005v-20.752h16.487c17.347,0,27.83-9.005,27.83-23.884
					C188.897,140.894,178.414,131.888,161.067,131.888z M144.575,68.785h16.202c12.199,0,18.584,5.58,18.584,15.368
					c0,9.789-6.385,15.368-18.584,15.368h-16.202V68.785z M160.782,171.14H144.58v-30.736h16.202
					c12.199,0,18.584,5.58,18.584,15.368C179.366,165.561,172.981,171.14,160.782,171.14z"/>
				<path fill="#00FFFF" d="M209.48,157.24v-8.712h-8.769v51.879h9.149v-25.842c0-11.354,6.1-17.521,15.916-17.521
					c0.667,0,1.334,0,2.097,0.098v-9.103C219.011,148.039,212.721,151.171,209.48,157.24z"/>
				<path fill="#00FFFF" d="M260.276,148.039c-15.154,0-26.305,10.963-26.305,26.429s11.15,26.526,26.305,26.526
					c15.153,0,26.209-11.061,26.209-26.526S275.43,148.039,260.276,148.039z M260.276,192.772c-9.722,0-17.06-7.244-17.06-18.305
					c0-11.062,7.338-18.207,17.06-18.207c9.721,0,16.964,7.146,16.964,18.207C277.24,185.528,269.997,192.772,260.276,192.772z"/>
				<path fill="#00FFFF" d="M346.905,148.039c-14.582,0-25.352,11.061-25.352,26.429c0,15.466,10.865,26.526,27.162,26.526
					c8.387,0,15.345-2.937,19.919-8.418l-5.051-6.068c-3.717,4.209-8.673,6.265-14.582,6.265c-10.007,0-17.155-6.069-18.299-15.173
					h40.981c0.096-0.881,0.19-2.056,0.19-2.838C371.875,158.806,361.487,148.039,346.905,148.039z M330.703,170.846
					c0.953-8.81,7.434-14.878,16.202-14.878c8.863,0,15.249,6.166,16.202,14.878H330.703z"/>
				<path fill="#00FFFF" d="M405.471,156.261c5.527,0,10.483,2.35,13.724,7.439l6.957-4.601
					c-4.003-7.243-11.531-11.061-20.586-11.061c-15.535,0-26.686,10.963-26.686,26.429s11.15,26.526,26.686,26.526
					c9.055,0,16.583-3.915,20.586-11.158l-6.957-4.503c-3.24,5.09-8.196,7.439-13.724,7.439c-9.912,0-17.346-7.048-17.346-18.305
					C388.125,163.406,395.559,156.261,405.471,156.261z"/>
				<path fill="#00FFFF" d="M439.967,148.528h-8.577v7.732h8.577v28.484c0,10.475,5.814,16.249,16.012,16.249
					c4.099,0,8.292-1.174,11.056-3.621l-2.859-6.754c-1.906,1.565-4.479,2.446-7.147,2.446c-5.052,0-7.911-3.132-7.911-8.711
					v-28.094h14.487v-7.732h-14.487v-11.354h-9.149V148.528z"/>
				<path fill="#00FFFF" d="M117.966,48.456c-3.749,0-5.871-2.325-5.871-6.466v-20.85h10.752v-5.739h-10.752V6.975h-6.791v8.427
					h-6.366v5.739h6.366v21.14c0,7.773,4.315,12.06,11.884,12.06c3.042,0,6.155-0.871,8.206-2.688l-2.122-5.013
					C121.856,47.802,119.946,48.456,117.966,48.456z"/>
				<path fill="#00FFFF" d="M140.391,34.071c0-8.354,4.669-12.785,11.884-12.785c6.438,0,10.116,3.705,10.116,11.26v21.358h6.791
					V31.747c0-11.333-6.438-16.709-15.562-16.709c-5.73,0-10.399,2.106-13.229,5.812V0H133.6v53.904h6.791V34.071z"/>
				<path fill="#00FFFF" d="M213.464,48.093l-3.749-4.504c-2.759,3.123-6.437,4.649-10.823,4.649
					c-7.428,0-12.732-4.505-13.582-11.261h30.418c0.071-0.654,0.142-1.525,0.142-2.106c0-11.842-7.71-19.833-18.533-19.833
					s-18.817,8.209-18.817,19.614c0,11.479,8.064,19.688,20.161,19.688C204.905,54.34,210.069,52.161,213.464,48.093z
					 M197.336,20.923c6.578,0,11.318,4.576,12.025,11.042H185.31C186.018,25.427,190.827,20.923,197.336,20.923z"/>
			</g>
		</g>
	</g>
</g>
<g id="Layer_2">
</g>
<g id="Layer_4">
</g>
<g id="Layer_3">
</g>
<g id="Layer_5">
</g>
</svg>
